<svg width="135" height="22" viewBox="0 0 135 22" fill="none" xmlns="http://www.w3.org/2000/svg">
<path d="M15.9297 21.0182H19.8037V0.304688H15.9297V21.0182ZM31.7391 13.83C31.7391 11.1205 29.9925 9.73213 28.0891 9.73213C26.1857 9.73213 24.439 11.0981 24.439 13.83C24.439 16.562 26.1857 17.928 28.0891 17.928C29.9925 17.9056 31.7391 16.5396 31.7391 13.83ZM35.6131 13.83C35.6131 18.2415 32.3661 21.4437 28.0891 21.4437C23.812 21.4437 20.565 18.2415 20.565 13.83C20.565 9.41863 23.812 6.21643 28.0891 6.21643C32.3661 6.21643 35.6131 9.39623 35.6131 13.83ZM39.8454 13.83C39.8454 16.4276 41.5472 17.8832 43.5178 17.8832C45.4884 17.8832 46.4961 16.562 46.8096 15.4647L50.2357 16.6068C49.5863 19.0028 47.347 21.4437 43.5178 21.4437C39.2856 21.4437 35.949 18.2415 35.949 13.83C35.949 9.41863 39.2184 6.21643 43.4059 6.21643C47.3246 6.21643 49.5415 8.63487 50.1461 11.0533L46.6752 12.2177C46.3169 11.0309 45.4212 9.79931 43.4954 9.79931C41.5025 9.79931 39.8454 11.2325 39.8454 13.83ZM58.9242 12.688L64.7911 21.0182H60.0214L56.2146 15.5319L54.6023 17.2338V21.0182H50.7284V0.304688H54.6023V11.9938L59.5736 6.6419H64.6568M76.3683 6.6419L79.4585 15.8902L82.1233 6.6419H85.9749L81.4739 21.0182H77.5999L74.241 11.2101L70.9492 21.0182H67.008L62.4175 6.6419H66.5154L69.1802 15.8678L72.3152 6.6419M96.3428 13.83C96.3428 11.1205 94.5962 9.73213 92.6928 9.73213C90.7894 9.73213 89.0427 11.0981 89.0427 13.83C89.0427 16.562 90.7894 17.928 92.6928 17.928C94.5962 17.928 96.3428 16.5396 96.3428 13.83ZM100.239 13.83C100.239 18.2415 96.9922 21.4437 92.7152 21.4437C88.4381 21.4437 85.1911 18.2415 85.1911 13.83C85.1911 9.41863 88.4381 6.21643 92.7152 6.21643C96.9922 6.19404 100.239 9.39623 100.239 13.83ZM109.711 10.4935C109.264 10.4039 108.883 10.3815 108.547 10.3815C106.554 10.3815 104.83 11.3444 104.83 14.4347V20.9958H100.956V6.61951H104.718V8.74684C105.591 6.84343 107.584 6.50754 108.816 6.50754C109.129 6.50754 109.42 6.52993 109.711 6.57472M118.512 12.688L124.379 21.0182H119.609L115.825 15.5319L114.212 17.2338V21.0182H110.338V0.304688H114.212V11.9938L119.184 6.6419H124.267M126.663 16.2709C126.752 17.4129 127.603 18.4654 129.283 18.4654C130.559 18.4654 131.186 17.7936 131.186 17.0322C131.186 16.3828 130.738 15.8678 129.641 15.6215L127.738 15.1736C124.961 14.569 123.707 12.8895 123.707 10.8742C123.707 8.29898 125.991 6.17165 129.081 6.17165C133.179 6.17165 134.545 8.76923 134.724 10.3143L131.477 11.0533C131.365 10.2024 130.738 9.12752 129.104 9.12752C128.074 9.12752 127.268 9.73213 127.268 10.5607C127.268 11.2548 127.783 11.7027 128.589 11.8371L130.626 12.2849C133.47 12.8671 134.881 14.5914 134.881 16.6963C134.881 19.0252 133.067 21.4213 129.305 21.4213C124.983 21.4213 123.506 18.6221 123.326 16.9874" fill="#FFFFFF" fill-opacity="0.75"/>
<path d="M0.546875 15.8447H5.71965V10.6719H0.546875V15.8447Z" fill="#FFFFFF" fill-opacity="0.75"/>
<path d="M0.546875 21.0165H5.71965V15.8438H0.546875V21.0165Z" fill="#FFFFFF" fill-opacity="0.75"/>
<path d="M0.546875 5.50066H5.71965V0.327881H0.546875V5.50066Z" fill="#FFFFFF" fill-opacity="0.75"/>
<path d="M0.546875 10.6728H5.71965V5.5H0.546875V10.6728Z" fill="#FFFFFF" fill-opacity="0.75"/>
<path d="M10.1078 0.349473C9.95102 0.32708 9.77188 0.304688 9.61513 0.304688H5.71875V5.49986H10.8915V0.573403C10.6452 0.461438 10.3765 0.394259 10.1078 0.349473Z" fill="#FFFFFF" fill-opacity="0.75"/>
<path d="M14.3878 5.49677V5.47437C14.3878 3.21268 12.9323 1.26449 10.8945 0.570312V5.49677" fill="#FFFFFF" fill-opacity="0.75"/>
<path d="M14.3878 5.5H10.8945V10.3817C12.9099 9.66509 14.3654 7.76169 14.3878 5.5Z" fill="#FFFFFF" fill-opacity="0.75"/>
<path d="M5.71875 5.5V10.6728L9.18966 10.6504C9.92863 10.6504 10.3541 10.5608 10.8915 10.3817V5.5" fill="#FFFFFF" fill-opacity="0.75"/>
<path d="M10.2421 10.6708C10.0854 10.6484 9.92863 10.6484 9.77188 10.6484C9.61513 10.6484 5.71875 10.6708 5.71875 10.6708V15.8436H10.8915V10.7604C10.6676 10.7156 10.4661 10.6932 10.2421 10.6708Z" fill="#FFFFFF" fill-opacity="0.75"/>
<path d="M10.8945 10.7656V15.8488H14.9701C14.9701 13.3632 13.2234 11.2807 10.8945 10.7656Z" fill="#FFFFFF" fill-opacity="0.75"/>
<path d="M5.71875 15.8438V21.0165H10.2421C10.4661 20.9941 10.69 20.9717 10.8915 20.9046V15.8438" fill="#FFFFFF" fill-opacity="0.75"/>
<path d="M10.8945 20.9035C13.2234 20.3885 14.9701 18.3059 14.9701 15.8203H10.8945" fill="#FFFFFF" fill-opacity="0.75"/>
<path d="M0.546875 15.8447H5.71965V10.6719H0.546875V15.8447Z" fill="#FFFFFF" fill-opacity="0.75"/>
<path d="M0.546875 21.0165H5.71965V15.8438H0.546875V21.0165Z" fill="#FFFFFF" fill-opacity="0.75"/>
<path d="M0.546875 5.50066H5.71965V0.327881H0.546875V5.50066Z" fill="#FFFFFF" fill-opacity="0.75"/>
<path d="M0.546875 10.6728H5.71965V5.5H0.546875V10.6728Z" fill="#FFFFFF" fill-opacity="0.75"/>
<path d="M10.1078 0.349473C9.95102 0.32708 9.77188 0.304688 9.61513 0.304688H5.71875V5.49986H10.8915V0.573403C10.6452 0.461438 10.3765 0.394259 10.1078 0.349473Z" fill="#FFFFFF" fill-opacity="0.75"/>
<path d="M14.3878 5.49677V5.47437C14.3878 3.21268 12.9323 1.26449 10.8945 0.570312V5.49677" fill="#FFFFFF" fill-opacity="0.75"/>
<path d="M14.3878 5.5H10.8945V10.3817C12.9099 9.66509 14.3654 7.76169 14.3878 5.5Z" fill="#FFFFFF" fill-opacity="0.75"/>
<path d="M5.71875 5.5V10.6728L9.18966 10.6504C9.92863 10.6504 10.3541 10.5608 10.8915 10.3817V5.5" fill="#FFFFFF" fill-opacity="0.75"/>
<path d="M10.2421 10.6708C10.0854 10.6484 9.92863 10.6484 9.77188 10.6484C9.61513 10.6484 5.71875 10.6708 5.71875 10.6708V15.8436H10.8915V10.7604C10.6676 10.7156 10.4661 10.6932 10.2421 10.6708Z" fill="#FFFFFF" fill-opacity="0.75"/>
<path d="M5.71875 15.8438V21.0165H10.2421C10.4661 20.9941 10.69 20.9717 10.8915 20.9046V15.8438" fill="#FFFFFF" fill-opacity="0.75"/>
<path d="M10.8945 20.9035C13.2234 20.3885 14.9701 18.3059 14.9701 15.8203H10.8945" fill="#FFFFFF" fill-opacity="0.75"/>
</svg>
