<svg width="137" height="33" viewBox="0 0 137 33" fill="none" xmlns="http://www.w3.org/2000/svg">
<g clip-path="url(#clip0_2472_86288)">
<mask id="mask0_2472_86288" style="mask-type:luminance" maskUnits="userSpaceOnUse" x="0" y="0" width="137" height="33">
<path d="M0.450195 0.0664062H136.45V32.0664H0.450195V0.0664062Z" fill="white"/>
</mask>
<g mask="url(#mask0_2472_86288)">
<path d="M45.1593 8.8304C45.0983 9.69135 44.7854 10.3694 44.2204 10.8647C43.6558 11.3588 42.9117 11.6058 41.9878 11.6058C40.9776 11.6058 40.1833 11.2605 39.605 10.5698C39.0256 9.87993 38.7358 8.93193 38.7358 7.72583V7.23612C38.7358 6.46697 38.8694 5.78907 39.1364 5.2024C39.4035 4.6165 39.7848 4.16697 40.2804 3.85383C40.7768 3.53993 41.3534 3.38316 42.0101 3.38355C42.9187 3.38355 43.6511 3.63097 44.2073 4.12583C44.7623 4.61993 45.0835 5.31421 45.1707 6.20869H43.5473C43.5073 5.69212 43.3656 5.31745 43.1221 5.08469C42.8783 4.85231 42.5077 4.73612 42.0101 4.73612C41.4688 4.73612 41.0638 4.93288 40.7953 5.3264C40.5263 5.72069 40.3882 6.33174 40.381 7.15955V7.76412C40.381 8.62888 40.5099 9.26088 40.7678 9.66012C41.0261 10.0601 41.433 10.2599 41.9884 10.2595C42.4897 10.2595 42.864 10.1434 43.1113 9.91097C43.3585 9.67783 43.5 9.31783 43.5358 8.83097L45.1593 8.8304ZM53.5421 7.67612C53.5421 8.46469 53.405 9.15536 53.1307 9.74812C52.8568 10.342 52.4644 10.8001 51.9536 11.1224C51.4435 11.4447 50.8583 11.6058 50.1981 11.6058C49.5452 11.6058 48.9623 11.4466 48.4496 11.1281C47.9379 10.8089 47.5412 10.3536 47.2593 9.7624C46.9777 9.17078 46.8353 8.48983 46.8318 7.71955V7.32412C46.8318 6.53631 46.9716 5.84297 47.2513 5.24412C47.5309 4.64526 47.9261 4.18526 48.437 3.86412C48.9475 3.54412 49.5309 3.38393 50.1873 3.38355C50.844 3.38355 51.4276 3.54374 51.9381 3.86412C52.4486 4.18526 52.8435 4.64526 53.1227 5.24412C53.4027 5.84297 53.5427 6.5344 53.5427 7.3184L53.5421 7.67612ZM51.8976 7.31326C51.8976 6.47402 51.7497 5.8365 51.4541 5.40069C51.1581 4.9645 50.7358 4.7464 50.1873 4.7464C49.6425 4.7464 49.2221 4.96164 48.9261 5.39212C48.6301 5.82259 48.4806 6.45402 48.4776 7.2864V7.67669C48.4776 8.49383 48.6254 9.12755 48.921 9.57783C49.2166 10.0289 49.6423 10.2544 50.1981 10.2544C50.7425 10.2544 51.1612 10.0373 51.4541 9.60297C51.7459 9.16869 51.8937 8.53555 51.8976 7.70355V7.31326ZM57.2918 11.4961H55.669V3.49326H57.2918V11.4961ZM66.049 11.4961H64.425L61.265 6.23097V11.4961H59.6416V3.49326H61.265L64.4307 8.76983V3.49326H66.049V11.4961ZM74.0861 4.82926H71.6724V11.4961H70.049V4.82926H67.6678V3.49326H74.0861V4.82926ZM80.5964 8.02812H77.4798V10.1715H81.1376V11.4961H75.8558V3.49326H81.1273V4.82926H77.4798V6.73612H80.5964V8.02812ZM84.5581 10.1715H88.0056V11.4961H82.9347V3.49326H84.5581V10.1715ZM94.5215 8.02755H91.4044V10.1715H95.0621V11.4961H89.781V3.49326H95.0518V4.82926H91.4044V6.73612H94.5215V8.02755ZM103.094 10.4847C102.802 10.8401 102.388 11.1157 101.854 11.3115C101.321 11.5081 100.729 11.6064 100.079 11.6064C99.3974 11.6064 98.7995 11.4552 98.2856 11.1527C97.7713 10.8502 97.3743 10.4114 97.0947 9.83612C96.8151 9.26088 96.6716 8.58488 96.6644 7.80812V7.26355C96.6644 6.46469 96.7972 5.77326 97.0627 5.18926C97.3275 4.60488 97.7097 4.15783 98.2095 3.84812C98.709 3.5384 99.2945 3.38355 99.9661 3.38355C100.9 3.38355 101.631 3.60983 102.158 4.0624C102.684 4.51497 102.997 5.17364 103.094 6.0384H101.514C101.441 5.58012 101.282 5.24488 101.035 5.03269C100.787 4.82012 100.447 4.71383 100.015 4.71383C99.4623 4.71383 99.0417 4.9245 98.753 5.34583C98.465 5.76716 98.3191 6.39383 98.3153 7.22583V7.73669C98.3153 8.57593 98.472 9.20983 98.7856 9.6384C99.0998 10.067 99.56 10.2813 100.166 10.2813C100.776 10.2813 101.21 10.1495 101.47 9.88583V8.5064H99.993V7.29155H103.094V10.4847ZM108.17 8.56697H106.877V11.4961H105.253V3.49326H108.181C109.112 3.49326 109.83 3.70412 110.335 4.12583C110.84 4.54678 111.092 5.14202 111.092 5.91155C111.092 6.45783 110.976 6.91307 110.743 7.27726C110.511 7.64221 110.158 7.93269 109.686 8.14869L111.39 11.419V11.4961H109.647L108.17 8.56697ZM106.877 7.23097H108.186C108.594 7.23097 108.91 7.12564 109.134 6.91497C109.357 6.70393 109.469 6.41345 109.469 6.04355C109.469 5.6664 109.363 5.36964 109.152 5.15326C108.941 4.93726 108.617 4.82926 108.181 4.82926H106.876L106.877 7.23097ZM117.619 9.84697H114.772L114.232 11.4961H112.505L115.439 3.49326H116.943L119.892 11.4961H118.166L117.619 9.84697ZM115.211 8.51212H117.181L116.191 5.51555L115.211 8.51212ZM123.096 8.67669V11.4961H121.472V3.49326H124.546C125.138 3.49326 125.659 3.60336 126.107 3.82355C126.557 4.04297 126.902 4.35536 127.144 4.76069C127.386 5.16526 127.507 5.62602 127.507 6.14297C127.507 6.92697 127.243 7.54507 126.714 7.99726C126.185 8.45059 125.453 8.67707 124.519 8.67669H123.096ZM123.096 7.34069H124.546C124.976 7.34069 125.303 7.23821 125.528 7.03326C125.754 6.82755 125.867 6.5344 125.867 6.15383C125.867 5.76145 125.753 5.44431 125.526 5.2024C125.299 4.96126 124.985 4.83688 124.584 4.82926H123.096V7.34069ZM135.879 11.4961H134.255V8.0664H131.09V11.4961H129.466V3.49326H131.09V6.73612H134.255V3.49326H135.879V11.4961Z" fill="#FFFFFF" />
<path d="M43.1022 18.559H41.3856V23.2921H40.4371V18.559H38.7359V17.7881H43.1022V18.559ZM44.9502 19.6481C45.0884 19.4811 45.2626 19.3474 45.4597 19.2571C45.6568 19.1667 45.8717 19.1221 46.0885 19.1264C46.9609 19.1264 47.4028 19.6241 47.4142 20.6195V23.2921H46.4965V20.6538C46.4965 20.3715 46.4355 20.1717 46.3136 20.0544C46.1906 19.9375 46.0108 19.879 45.7742 19.879C45.4062 19.879 45.1315 20.0426 44.9502 20.3698V23.2921H44.0313V17.4858H44.9502V19.6481ZM50.4542 23.3675C49.8721 23.3675 49.4001 23.1843 49.0382 22.8178C48.6767 22.451 48.4959 21.9628 48.4959 21.3533V21.2395C48.4959 20.8312 48.5748 20.4664 48.7325 20.1453C48.878 19.8375 49.1079 19.5774 49.3953 19.395C49.6807 19.2158 50.0116 19.1225 50.3485 19.1264C50.9051 19.1264 51.3353 19.3039 51.6393 19.659C51.9426 20.0148 52.0944 20.5176 52.0948 21.1675V21.5384H49.4216C49.4498 21.8759 49.5628 22.143 49.7605 22.3395C49.9582 22.5361 50.207 22.6344 50.5068 22.6344C50.9277 22.6344 51.2706 22.4641 51.5353 22.1235L52.0308 22.5967C51.8664 22.8414 51.6398 23.0379 51.3742 23.1658C51.0873 23.3033 50.7723 23.3724 50.4542 23.3675ZM50.3445 19.863C50.0923 19.863 49.8889 19.9514 49.7342 20.1281C49.5792 20.3041 49.4801 20.5498 49.4371 20.8653H51.1868V20.7967C51.1673 20.4896 51.0856 20.2573 50.9416 20.0995C50.7976 19.9418 50.5986 19.863 50.3445 19.863ZM55.6776 23.2921V19.8824H55.0536V19.2018H55.6776V18.8275C55.6776 18.3738 55.8037 18.0235 56.0559 17.7767C56.3077 17.5298 56.6605 17.4064 57.1142 17.4064C57.2757 17.4064 57.4471 17.4291 57.6285 17.4744L57.6056 18.1927C57.4898 18.1705 57.3721 18.1604 57.2542 18.1624C56.8157 18.1624 56.5967 18.3879 56.5971 18.839V19.2018H57.4273V19.8824H56.5965V23.2921H55.6776ZM60.8868 22.8921C60.6171 23.2091 60.2338 23.3675 59.7371 23.3675C59.2932 23.3675 58.9576 23.2378 58.7302 22.9784C58.502 22.7194 58.3879 22.3437 58.3879 21.8515V19.2018H59.3068V21.8401C59.3068 22.3597 59.5222 22.6195 59.9531 22.6195C60.3991 22.6195 60.7001 22.4595 60.8559 22.1395V19.2018H61.7748V23.2921H60.9091L60.8868 22.8921ZM64.1713 18.2075V19.2018H64.8936V19.8824H64.1713V22.1653C64.1713 22.3218 64.2022 22.4348 64.2639 22.5041C64.326 22.5727 64.4363 22.6072 64.5948 22.6075C64.7011 22.6075 64.8081 22.595 64.9159 22.5698V23.2807C64.7193 23.3373 64.5159 23.3664 64.3113 23.3675C63.6058 23.3675 63.2531 22.9782 63.2531 22.1995V19.8824H62.5799V19.2018H63.2525V18.2081L64.1713 18.2075ZM68.3822 22.8921C68.1125 23.2098 67.7294 23.3685 67.2331 23.3681C66.7892 23.3681 66.4534 23.2384 66.2256 22.979C65.9971 22.7199 65.883 22.3443 65.8833 21.8521V19.2024H66.8022V21.8407C66.8022 22.3603 67.0176 22.6201 67.4485 22.6201C67.8942 22.6201 68.1953 22.4601 68.3519 22.1401V19.2024H69.2708V23.2927H68.4051L68.3822 22.8921ZM72.6576 20.0418C72.5339 20.0215 72.4087 20.0114 72.2833 20.0115C71.8624 20.0115 71.5788 20.1729 71.4325 20.4955V23.2927H70.5142V19.2024H71.3913L71.4136 19.6595C71.6357 19.3045 71.9432 19.127 72.3359 19.127C72.467 19.127 72.5753 19.1445 72.6611 19.1795L72.6576 20.0418ZM75.2771 23.3681C74.6946 23.3681 74.2226 23.1849 73.8611 22.8184C73.4999 22.4515 73.3192 21.9634 73.3188 21.3538V21.2401C73.3188 20.8317 73.3974 20.467 73.5548 20.1458C73.7005 19.838 73.9305 19.5778 74.2182 19.3955C74.5034 19.2165 74.8341 19.1232 75.1708 19.127C75.7281 19.127 76.1584 19.3045 76.4616 19.6595C76.7653 20.0154 76.9172 20.5182 76.9176 21.1681V21.539H74.2445C74.2727 21.8765 74.3856 22.1435 74.5833 22.3401C74.7811 22.5367 75.0298 22.635 75.3296 22.635C75.7506 22.635 76.0934 22.4647 76.3582 22.1241L76.8536 22.5973C76.6893 22.842 76.4626 23.0385 76.1971 23.1664C75.9101 23.3039 75.5952 23.3729 75.2771 23.3681ZM75.1673 19.8635C74.9152 19.8635 74.7117 19.9519 74.5571 20.1287C74.402 20.3047 74.303 20.5504 74.2599 20.8658H76.0096V20.7973C75.9898 20.4902 75.9081 20.2578 75.7645 20.1001C75.6205 19.9428 75.4214 19.8639 75.1673 19.8635ZM80.0051 21.2093C80.0051 20.8085 80.0845 20.4475 80.2433 20.1264C80.3891 19.8192 80.6217 19.5615 80.9125 19.3853C81.1997 19.2127 81.53 19.1264 81.9033 19.1264C82.455 19.1264 82.9028 19.3039 83.2468 19.659C83.5911 20.0148 83.7771 20.4862 83.8045 21.0733L83.8085 21.2887C83.8085 21.6917 83.731 22.0521 83.5759 22.3698C83.4316 22.6759 83.2 22.9323 82.9102 23.107C82.6218 23.2807 82.2887 23.3675 81.9108 23.3675C81.3336 23.3675 80.8717 23.1755 80.5251 22.7915C80.1784 22.4068 80.0051 21.8944 80.0051 21.2544V21.2093ZM80.9239 21.2887C80.9239 21.7096 81.011 22.0392 81.1851 22.2773C81.3584 22.5154 81.6003 22.6344 81.9108 22.6344C82.2205 22.6344 82.4616 22.5133 82.6342 22.271C82.8072 22.0298 82.8934 21.6759 82.8931 21.2093C82.8931 20.7963 82.8043 20.4687 82.6268 20.2264C82.4492 19.9841 82.2079 19.8632 81.9028 19.8635C81.6033 19.8635 81.3652 19.9826 81.1885 20.2207C81.0117 20.4588 80.9235 20.8148 80.9239 21.2887ZM85.2188 23.2921V19.8824H84.5948V19.2018H85.2188V18.8275C85.2188 18.3738 85.3447 18.0235 85.5965 17.7767C85.8483 17.5298 86.2011 17.4064 86.6548 17.4064C86.8163 17.4064 86.9877 17.4291 87.1691 17.4744L87.1462 18.1927C87.0306 18.1706 86.913 18.1604 86.7953 18.1624C86.3565 18.1624 86.1371 18.3879 86.1371 18.839V19.2018H86.9685V19.8824H86.1371V23.2921H85.2188ZM91.0508 19.2018L91.0771 19.6293C91.3643 19.294 91.7574 19.1264 92.2565 19.1264C92.8031 19.1264 93.1774 19.3357 93.3793 19.7544C93.6765 19.3354 94.0948 19.126 94.6342 19.1264C95.0853 19.1264 95.4211 19.2512 95.6416 19.5007C95.8626 19.7498 95.9755 20.1176 95.9805 20.6041V23.2921H95.0616V20.631C95.0616 20.3712 95.0049 20.1809 94.8913 20.0601C94.7778 19.939 94.5902 19.8784 94.3285 19.8784C94.1193 19.8784 93.9485 19.9346 93.8159 20.047C93.6816 20.1624 93.5845 20.3155 93.5382 20.487L93.5422 23.2927H92.6233V20.6007C92.6108 20.1192 92.3651 19.8784 91.8862 19.8784C91.5178 19.8784 91.2571 20.0285 91.1039 20.3287V23.2921H90.1851V19.2018H91.0508ZM97.0611 21.2098C97.0611 20.8087 97.1403 20.4475 97.2988 20.1264C97.4449 19.8193 97.6777 19.5617 97.9685 19.3853C98.2553 19.2127 98.5854 19.1264 98.9588 19.1264C99.5112 19.1264 99.959 19.3039 100.302 19.659C100.647 20.0148 100.832 20.4862 100.86 21.0733L100.864 21.2887C100.864 21.6917 100.787 22.0521 100.632 22.3698C100.487 22.6759 100.256 22.9324 99.9656 23.107C99.6772 23.2807 99.3441 23.3675 98.9662 23.3675C98.3891 23.3675 97.9273 23.1755 97.5811 22.7915C97.2344 22.4068 97.0611 21.8944 97.0611 21.2544V21.2098ZM97.9799 21.2887C97.9799 21.7096 98.0668 22.0392 98.2405 22.2773C98.4146 22.5154 98.6565 22.6344 98.9662 22.6344C99.2759 22.6344 99.5173 22.5133 99.6902 22.271C99.8628 22.0298 99.9491 21.6759 99.9491 21.2093C99.9491 20.7963 99.8603 20.4687 99.6828 20.2264C99.5049 19.9841 99.2635 19.8632 98.9588 19.8635C98.6586 19.8635 98.4203 19.9826 98.2439 20.2207C98.0675 20.4588 97.9795 20.8148 97.9799 21.2887ZM102.803 19.2018L102.829 19.6744C103.132 19.3087 103.529 19.126 104.02 19.1264C104.872 19.1264 105.305 19.614 105.32 20.5893V23.2921H104.402V20.6424C104.402 20.383 104.346 20.1908 104.234 20.0658C104.122 19.9409 103.939 19.8784 103.683 19.8784C103.313 19.8784 103.037 20.046 102.856 20.3813V23.2921H101.937V19.2018H102.803ZM108.367 23.3675C107.785 23.3675 107.313 23.1843 106.952 22.8178C106.59 22.451 106.409 21.9628 106.409 21.3533V21.2395C106.409 20.8312 106.488 20.4664 106.645 20.1453C106.791 19.8374 107.021 19.5772 107.309 19.395C107.594 19.216 107.925 19.1228 108.261 19.1264C108.818 19.1264 109.249 19.3039 109.552 19.659C109.856 20.0148 110.008 20.5176 110.008 21.1675V21.5384H107.335C107.363 21.8759 107.475 22.143 107.673 22.3395C107.871 22.5361 108.12 22.6344 108.42 22.6344C108.841 22.6344 109.184 22.4641 109.448 22.1235L109.944 22.5967C109.78 22.8414 109.553 23.0378 109.288 23.1658C109.001 23.3035 108.685 23.3725 108.367 23.3675ZM108.258 19.863C108.006 19.863 107.802 19.9514 107.647 20.1281C107.492 20.3041 107.393 20.5498 107.35 20.8653H109.1V20.7967C109.08 20.4896 108.998 20.2573 108.855 20.0995C108.711 19.9418 108.512 19.863 108.258 19.863ZM112.412 21.9767L113.243 19.2018H114.222L112.596 23.9121C112.347 24.6001 111.924 24.9441 111.327 24.9441C111.177 24.9416 111.028 24.9187 110.884 24.8761V24.1653L111.059 24.1767C111.29 24.1767 111.465 24.1346 111.582 24.0504C111.699 23.9655 111.792 23.8237 111.859 23.6253L111.992 23.2733L110.556 19.2018H111.546L112.412 21.9767ZM20.4959 23.351L14.7325 25.8281V25.5801C13.6211 25.8613 12.3902 26.0235 11.2239 26.0755C5.80448 26.0235 1.50277 23.2195 1.45248 19.883V18.6435C3.23248 21.2024 6.85648 22.9167 11.2239 22.855C12.7022 22.9167 14.2136 22.6858 15.4839 22.3595L15.9851 21.1207C14.4788 21.5653 12.8342 21.8744 11.2245 21.8635C5.80448 21.8744 1.50277 19.0704 1.45305 15.6715V14.6807C3.23248 17.0464 6.84848 18.7607 11.2245 18.6441C13.1931 18.7613 15.1182 18.3515 16.7365 17.6527L16.9879 16.4144C15.4062 17.239 13.3565 17.7178 11.2245 17.6527C5.80448 17.7178 1.50277 14.9138 1.45305 11.4607V10.4693C3.23248 12.8898 6.85648 14.6047 11.2245 14.6807C13.7068 14.6047 16.0605 13.9561 17.9902 12.9464L18.2405 11.4601C16.4896 12.743 13.9331 13.5698 11.2245 13.6893C5.80448 13.5698 1.50334 10.7653 1.45305 7.24926C1.50277 3.90526 5.80448 1.10069 11.2245 1.05669C14.4553 1.10126 17.4559 2.22126 19.2428 4.02926L19.4171 4.31555L20.6799 4.32126L20.4959 4.02926C18.7188 1.64241 15.1645 0.0664062 11.2245 0.0664062C5.22734 0.0664062 0.450195 3.33383 0.450195 7.24983V20.1304C0.661052 23.9533 5.32905 27.0658 11.2245 27.0658C15.1182 27.0658 18.6176 25.5515 20.4959 23.351Z" fill="#FFFFFF" />
<path d="M18.1514 32.0664L20.1742 23.5664L14.3588 26.0664L17.8994 11.3167H11.0708L12.8405 4.06641H34.5885L32.8182 11.3167H25.7382L24.2205 15.3167L32.0594 12.0664L18.1514 32.0664ZM21.6919 21.8161L20.6805 26.8161L29.0251 14.3167L22.1971 17.3167L25.2319 10.3167H32.0594L33.3239 5.06641H13.5988L12.3342 10.3167H19.1628L15.8748 24.3167L21.6914 21.8173L21.6919 21.8161Z" fill="#FFFFFF" />
<path d="M55.6629 23.3007H56.5737V19.8756H57.4172V19.2093H56.5737V18.8162C56.5737 18.6725 56.5989 18.5516 56.6491 18.4533C56.6993 18.3569 56.7787 18.2789 56.876 18.2305C56.977 18.1771 57.0968 18.1505 57.2354 18.1505C57.304 18.1505 57.3669 18.1531 57.424 18.1585C57.485 18.1634 57.5406 18.1722 57.5909 18.1847L57.6137 17.4819C57.5294 17.459 57.4434 17.4425 57.3566 17.4327C57.2677 17.4194 57.1779 17.4131 57.088 17.4139C56.7954 17.4139 56.5421 17.468 56.328 17.5762C56.1176 17.6781 55.9443 17.8434 55.8326 18.0487C55.7194 18.2556 55.6629 18.5114 55.6629 18.8162V19.2093H55.0349V19.875H55.6629V23.3007ZM44.9531 19.6796V17.4939H44.0463V23.3007H44.9531V20.3807C44.9802 20.3289 45.0107 20.2802 45.0446 20.2345C45.1276 20.1213 45.2309 20.0318 45.3543 19.9659C45.48 19.9007 45.6248 19.8682 45.7886 19.8682C45.9452 19.8682 46.0775 19.8946 46.1857 19.9476C46.2943 19.9979 46.3762 20.0809 46.4314 20.1967C46.4897 20.3129 46.5189 20.4691 46.5189 20.6653V23.3007H47.4331V20.6733C47.4331 20.3933 47.4017 20.1564 47.3389 19.9625C47.2892 19.7842 47.1971 19.6207 47.0703 19.4859C46.9536 19.3629 46.8084 19.2706 46.6474 19.2173C46.4718 19.1595 46.2877 19.1315 46.1029 19.1345C45.8823 19.1312 45.6639 19.1786 45.4645 19.2731C45.2652 19.3677 45.0902 19.5067 44.9531 19.6796ZM41.3886 23.3007V18.5522H43.1166V17.7962H38.7349V18.5522H40.4474V23.3007H41.3886Z" fill="#FFFFFF" />
<path fill-rule="evenodd" clip-rule="evenodd" d="M50.4615 23.3761C50.181 23.3804 49.9023 23.3303 49.6409 23.2286C49.4075 23.1331 49.1964 22.9903 49.0209 22.8092C48.8504 22.6266 48.718 22.412 48.6312 22.1778C48.5393 21.9271 48.4932 21.6619 48.4952 21.3949V21.2441C48.4952 20.9241 48.5418 20.6342 48.6352 20.3744C48.7281 20.1149 48.8578 19.8932 49.0243 19.7092C49.1868 19.5248 49.3882 19.3788 49.614 19.2818C49.8469 19.1821 50.0979 19.1319 50.3512 19.1344C50.6437 19.1344 50.8997 19.1835 51.1192 19.2818C51.3378 19.3801 51.5192 19.5187 51.6632 19.6978C51.8095 19.8742 51.918 20.0846 51.9889 20.3292C52.0613 20.5738 52.0977 20.8435 52.098 21.1384V21.5275H49.4146C49.4237 21.6566 49.4462 21.7789 49.482 21.8944C49.5323 22.0456 49.6053 22.178 49.7009 22.2915C49.7969 22.4046 49.9131 22.4942 50.0495 22.5601C50.1851 22.6229 50.3399 22.6544 50.514 22.6544C50.7335 22.6544 50.9289 22.6102 51.1003 22.5218C51.2717 22.4334 51.4203 22.3086 51.546 22.1475L52.026 22.6126C51.9285 22.751 51.8128 22.8755 51.682 22.9829C51.5411 23.0991 51.3685 23.1936 51.1643 23.2664C50.9382 23.3435 50.7003 23.3806 50.4615 23.3761ZM49.4706 20.6732C49.4553 20.7393 49.4429 20.806 49.4335 20.8732H51.198V20.8018C51.1948 20.6433 51.1617 20.4868 51.1003 20.3406C51.046 20.2012 50.9528 20.0802 50.8317 19.9921C50.7106 19.9045 50.5493 19.8606 50.3477 19.8606C50.1965 19.8606 50.0616 19.8932 49.9432 19.9584C49.8242 20.0241 49.7239 20.1191 49.6517 20.2344C49.5682 20.37 49.5071 20.5182 49.4706 20.6732Z" fill="#FFFFFF" />
<path d="M60.4224 23.2367C60.5962 23.1533 60.7495 23.0327 60.8715 22.8835L60.895 23.3007H61.7567V19.2098H60.8418V22.1458C60.7781 22.2846 60.6772 22.403 60.5504 22.4881C60.4018 22.5887 60.1978 22.6389 59.9384 22.6389C59.8513 22.6395 59.7645 22.6268 59.6812 22.6012C59.6011 22.5763 59.5284 22.5322 59.4692 22.4727C59.4042 22.4049 59.3552 22.3235 59.3258 22.2344C59.2874 22.1134 59.2695 21.9869 59.2727 21.8601V19.2098H58.3618V21.8527C58.3618 22.1224 58.3946 22.3544 58.4601 22.5487C58.5256 22.7429 58.6176 22.9003 58.7361 23.0207C58.8569 23.1418 59.0005 23.2313 59.167 23.2892C59.3334 23.3471 59.5161 23.3761 59.715 23.3761C59.9896 23.3761 60.2254 23.3296 60.4224 23.2367ZM64.8675 19.8755V19.2092H64.1378V18.2075H63.227V19.2092H62.5612V19.8749H63.227V22.2264C63.227 22.5064 63.2723 22.7308 63.363 22.8995C63.4536 23.0687 63.5797 23.1908 63.7412 23.2658C63.9024 23.3389 64.0875 23.3755 64.2967 23.3755C64.4254 23.3755 64.539 23.3668 64.6372 23.3492C64.7378 23.3317 64.826 23.3115 64.9018 23.2887L64.8978 22.5932C64.7921 22.6147 64.6846 22.6262 64.5767 22.6275C64.4887 22.6275 64.4117 22.6161 64.3458 22.5932C64.2797 22.5696 64.2245 22.5224 64.191 22.4607C64.1555 22.3929 64.1378 22.2957 64.1378 22.1692V19.8749L64.8675 19.8755ZM67.9144 23.2367C68.0934 23.149 68.2433 23.0313 68.3641 22.8835L68.387 23.3007H69.2492V19.2098H68.3344V22.1458C68.2704 22.2844 68.1696 22.4028 68.043 22.4881C67.8944 22.5887 67.6902 22.6389 67.4304 22.6389C67.3397 22.6389 67.254 22.6264 67.1732 22.6012C67.0934 22.5762 67.0208 22.5321 66.9618 22.4727C66.8966 22.405 66.8474 22.3236 66.8178 22.2344C66.7796 22.1134 66.7619 21.9869 66.7652 21.8601V19.2098H65.8538V21.8527C65.8538 22.1224 65.8866 22.3544 65.9521 22.5487C66.0176 22.7429 66.1096 22.9003 66.2281 23.0207C66.3492 23.1418 66.4931 23.2313 66.6595 23.2892C66.8256 23.3471 67.0083 23.3761 67.2075 23.3761C67.4822 23.3761 67.7178 23.3296 67.9144 23.2367ZM71.3995 20.5047V23.3007H70.4887V19.2098H71.3584L71.3841 19.6904L71.3995 19.6635C71.5032 19.4974 71.6317 19.3677 71.7852 19.2744C71.9414 19.181 72.1216 19.1344 72.3258 19.1344C72.3814 19.1344 72.4407 19.1393 72.5035 19.1492C72.5691 19.1595 72.6182 19.1709 72.651 19.1835L72.6435 20.0304C72.5211 20.0106 72.3973 20.0004 72.2732 20.0001C72.1171 20.0001 71.9797 20.0229 71.8612 20.0687C71.7579 20.1047 71.6634 20.1622 71.5838 20.2373C71.5043 20.3125 71.4415 20.4036 71.3995 20.5047Z" fill="#FFFFFF" />
<path fill-rule="evenodd" clip-rule="evenodd" d="M75.252 23.376C74.9495 23.376 74.676 23.3269 74.4314 23.2286C74.198 23.133 73.987 22.9902 73.8114 22.8091C73.641 22.6266 73.5085 22.4119 73.4217 22.1777C73.3298 21.927 73.2838 21.6619 73.2857 21.3949V21.244C73.2857 20.924 73.3324 20.6341 73.4257 20.3743C73.5187 20.1149 73.6484 19.8931 73.8148 19.7091C73.9775 19.5246 74.1791 19.3786 74.4051 19.2817C74.638 19.1821 74.889 19.1319 75.1423 19.1343C75.4345 19.1343 75.6903 19.1834 75.9097 19.2817C76.1291 19.38 76.3107 19.5187 76.4543 19.6977C76.6002 19.8741 76.7084 20.0846 76.7788 20.3291C76.852 20.5737 76.8886 20.8434 76.8886 21.1383V21.5274H74.2051C74.2143 21.6566 74.2367 21.7789 74.2726 21.8943C74.3228 22.0455 74.396 22.1779 74.492 22.2914C74.5872 22.4046 74.703 22.4941 74.8394 22.56C74.9758 22.6229 75.1308 22.6543 75.3046 22.6543C75.5078 22.6582 75.709 22.6127 75.8908 22.5217C76.0623 22.4333 76.2108 22.3086 76.3366 22.1474L76.8171 22.6126C76.7196 22.7509 76.6039 22.8754 76.4731 22.9829C76.3181 23.1066 76.1427 23.2025 75.9548 23.2663C75.7287 23.3434 75.4909 23.3805 75.252 23.376ZM74.2611 20.6731C74.2458 20.7392 74.2334 20.806 74.224 20.8731H75.9891V20.8017C75.9857 20.6432 75.9524 20.4867 75.8908 20.3406C75.8365 20.2011 75.7433 20.0801 75.6223 19.992C75.5011 19.9044 75.3398 19.8606 75.1383 19.8606C74.987 19.8606 74.8522 19.8931 74.7337 19.9583C74.6175 20.0215 74.5206 20.1135 74.4428 20.2343C74.3582 20.3694 74.2968 20.5177 74.2611 20.6731ZM79.9577 21.2137V21.3006C79.9577 21.5954 80.0006 21.869 80.0863 22.1211C80.172 22.3726 80.2968 22.5931 80.4606 22.7829C80.6244 22.9695 80.8234 23.1156 81.0577 23.2211C81.295 23.3244 81.5636 23.376 81.8634 23.376C82.1606 23.376 82.4265 23.3246 82.6611 23.2217C82.8954 23.1154 83.0945 22.9691 83.2583 22.7829C83.4254 22.5891 83.5526 22.3642 83.6326 22.1211C83.7183 21.869 83.7611 21.5954 83.7611 21.3006V21.2137C83.7611 20.9189 83.7183 20.6453 83.6326 20.3931C83.5533 20.1498 83.426 19.9248 83.2583 19.7314C83.0937 19.5417 82.8881 19.3918 82.6571 19.2931C82.4042 19.1839 82.1309 19.1298 81.8554 19.1343C81.5583 19.1343 81.2912 19.1872 81.0543 19.2931C80.82 19.3964 80.6208 19.5425 80.4566 19.7314C80.2909 19.9255 80.165 20.1504 80.0863 20.3931C80.0006 20.6453 79.9577 20.9189 79.9577 21.2137ZM80.8691 21.3006V21.2137C80.8691 21.032 80.888 20.8606 80.9257 20.6994C80.9596 20.5455 81.0197 20.3986 81.1034 20.2651C81.1842 20.1391 81.2863 20.0406 81.4097 19.9697C81.5354 19.8966 81.684 19.86 81.8554 19.86C82.0268 19.86 82.1743 19.8966 82.2977 19.9697C82.4242 20.0406 82.5276 20.1389 82.608 20.2646C82.691 20.3903 82.7516 20.5352 82.7897 20.6994C82.8297 20.8606 82.8497 21.032 82.8497 21.2137V21.3006C82.8497 21.4846 82.8297 21.6585 82.7897 21.8223C82.7516 21.9861 82.6924 22.1297 82.612 22.2531C82.534 22.3742 82.4274 22.4743 82.3017 22.5446C82.1677 22.6183 82.0163 22.6548 81.8634 22.6503C81.6893 22.6503 81.5392 22.6151 81.4131 22.5446C81.2876 22.4742 81.1813 22.3742 81.1034 22.2531C81.019 22.1213 80.9588 21.9754 80.9257 21.8223C80.8869 21.6511 80.8679 21.4761 80.8691 21.3006Z" fill="#FFFFFF" />
<path d="M86.0594 23.3007H85.1479V19.8755H84.5205V19.2092H85.1479V18.8161C85.1479 18.5113 85.2047 18.2555 85.3182 18.0487C85.4344 17.8392 85.5996 17.6816 85.8137 17.5761C86.0277 17.4675 86.2811 17.4134 86.5737 17.4138C86.6639 17.4138 86.7533 17.4201 86.8416 17.4327C86.9304 17.4426 87.0161 17.459 87.0988 17.4818L87.0765 18.1847C87.0216 18.1718 86.9658 18.163 86.9097 18.1584C86.8469 18.1533 86.784 18.1508 86.7211 18.151C86.582 18.151 86.4622 18.1774 86.3617 18.2304C86.2648 18.2795 86.1856 18.3573 86.1348 18.4532C86.0816 18.5666 86.0558 18.6909 86.0594 18.8161V19.2092H86.9022V19.875H86.0594V23.3007ZM91.0074 20.3601V23.3007H90.0959V19.2098H90.9542L90.9834 19.671C91.1167 19.5033 91.2796 19.3738 91.4719 19.2824C91.6765 19.1833 91.9123 19.134 92.1794 19.1344C92.366 19.1344 92.5361 19.1622 92.6897 19.2178C92.8458 19.2704 92.9807 19.3548 93.0942 19.471C93.178 19.5548 93.2476 19.6563 93.3028 19.7755C93.3268 19.7412 93.3517 19.7077 93.3777 19.675C93.514 19.5062 93.6817 19.3738 93.8805 19.2778C94.0947 19.1782 94.3289 19.1292 94.5651 19.1344C94.7742 19.1344 94.9607 19.1633 95.1245 19.2212C95.291 19.2769 95.4321 19.3651 95.5479 19.4858C95.6637 19.6066 95.7519 19.7641 95.8125 19.9584C95.8731 20.15 95.9034 20.382 95.9034 20.6544V23.3007H94.9885V20.6504C94.9885 20.4435 94.9582 20.2835 94.8977 20.1704C94.847 20.0636 94.7577 19.9799 94.6479 19.9361C94.5394 19.8904 94.4096 19.8675 94.2588 19.8675C94.1175 19.8675 93.9927 19.8942 93.8845 19.9475C93.7793 19.9973 93.6873 20.0711 93.6159 20.163C93.543 20.2547 93.4872 20.3588 93.4514 20.4704C93.4525 20.5047 93.4531 20.5395 93.4531 20.575V23.3007H92.5422V20.655C92.5422 20.4557 92.5119 20.2995 92.4514 20.1864C92.3988 20.0779 92.3089 19.9919 92.1982 19.9441C92.0754 19.8907 91.9424 19.865 91.8085 19.8687C91.6371 19.8687 91.491 19.9014 91.3702 19.967C91.2529 20.0318 91.153 20.1239 91.0788 20.2355C91.0521 20.2752 91.0283 20.3167 91.0074 20.3601Z" fill="#FFFFFF" />
<path fill-rule="evenodd" clip-rule="evenodd" d="M96.9689 21.3006V21.2137C96.9689 20.9189 97.0117 20.6453 97.0975 20.3931C97.1832 20.1391 97.3066 19.9185 97.4677 19.7314C97.6312 19.5422 97.8353 19.3923 98.0649 19.2931C98.3178 19.1839 98.5911 19.1298 98.8666 19.1343C99.1664 19.1343 99.4337 19.1872 99.6683 19.2931C99.9049 19.3964 100.105 19.5425 100.269 19.7314C100.433 19.9181 100.558 20.1387 100.644 20.3931C100.729 20.6453 100.772 20.9189 100.772 21.2137V21.3006C100.772 21.5954 100.729 21.869 100.644 22.1211C100.558 22.3726 100.433 22.5932 100.269 22.7829C100.105 22.9708 99.9006 23.1204 99.6717 23.2211C99.4375 23.3244 99.1716 23.376 98.874 23.376C98.5979 23.3807 98.3237 23.3282 98.0689 23.2217C97.8402 23.1207 97.6364 22.9709 97.4717 22.7829C97.3046 22.5891 97.1774 22.3642 97.0975 22.1211C97.0094 21.8566 96.966 21.5793 96.9689 21.3006ZM97.8797 21.2137V21.3006C97.8797 21.4846 97.8986 21.6585 97.9363 21.8223C97.9744 21.9861 98.0336 22.1297 98.114 22.2531C98.1944 22.377 98.2978 22.4741 98.4243 22.5446C98.55 22.6151 98.6999 22.6503 98.874 22.6503C99.0432 22.6503 99.1895 22.6151 99.3129 22.5446C99.4384 22.4742 99.5447 22.3742 99.6226 22.2531C99.707 22.1213 99.7672 21.9754 99.8003 21.8223C99.8407 21.6585 99.8609 21.4846 99.8609 21.3006V21.2137C99.8609 21.032 99.8407 20.8606 99.8003 20.6994C99.7666 20.545 99.7052 20.3978 99.6192 20.2651C99.5424 20.142 99.4357 20.0403 99.3089 19.9697C99.1741 19.8939 99.0212 19.856 98.8666 19.86C98.6952 19.86 98.5464 19.8966 98.4203 19.9697C98.2957 20.0415 98.1905 20.1427 98.114 20.2646C98.0336 20.3903 97.9744 20.5352 97.9363 20.6994C97.8981 20.8682 97.8791 21.0407 97.8797 21.2137Z" fill="#FFFFFF" />
<path d="M102.742 20.3939V23.3007H101.83V19.2099H102.688L102.718 19.703L102.738 19.679C102.877 19.5083 103.052 19.3712 103.252 19.2779C103.46 19.1802 103.687 19.1312 103.917 19.1344C104.114 19.1344 104.291 19.1622 104.45 19.2179C104.612 19.2704 104.749 19.3573 104.862 19.4784C104.978 19.5996 105.067 19.7571 105.127 19.951C105.187 20.1426 105.218 20.3782 105.218 20.6579V23.3007H104.303V20.655C104.303 20.4584 104.274 20.3034 104.216 20.1899C104.167 20.0805 104.079 19.9929 103.97 19.9441C103.845 19.8897 103.709 19.8639 103.573 19.8687C103.417 19.8687 103.277 19.9015 103.154 19.967C103.03 20.0322 102.923 20.124 102.84 20.2356C102.803 20.2851 102.77 20.3379 102.742 20.3939Z" fill="#FFFFFF" />
<path fill-rule="evenodd" clip-rule="evenodd" d="M108.253 23.3761C107.973 23.3803 107.694 23.3303 107.433 23.2286C107.2 23.1331 106.988 22.9903 106.813 22.8092C106.642 22.6266 106.51 22.412 106.423 22.1778C106.331 21.9271 106.285 21.6619 106.287 21.3949V21.2441C106.287 20.9241 106.334 20.6342 106.427 20.3744C106.52 20.1149 106.65 19.8932 106.816 19.7092C106.979 19.5248 107.18 19.3788 107.406 19.2818C107.639 19.1821 107.89 19.1319 108.143 19.1344C108.436 19.1344 108.692 19.1835 108.911 19.2818C109.13 19.3801 109.312 19.5187 109.455 19.6978C109.601 19.8742 109.71 20.0846 109.78 20.3292C109.853 20.5738 109.89 20.8435 109.89 21.1384V21.5275H107.207C107.216 21.6566 107.238 21.7789 107.274 21.8944C107.324 22.0456 107.397 22.178 107.493 22.2915C107.589 22.4046 107.705 22.4942 107.841 22.5601C107.977 22.6229 108.132 22.6544 108.306 22.6544C108.525 22.6544 108.72 22.6102 108.892 22.5218C109.063 22.4334 109.212 22.3086 109.338 22.1475L109.818 22.6126C109.72 22.751 109.605 22.8755 109.474 22.9829C109.319 23.1066 109.144 23.2025 108.956 23.2664C108.73 23.3435 108.492 23.3807 108.253 23.3761ZM107.263 20.6732C107.247 20.7393 107.235 20.806 107.225 20.8732H108.99V20.8018C108.987 20.6433 108.953 20.4868 108.892 20.3406C108.838 20.2012 108.745 20.0803 108.624 19.9921C108.503 19.9045 108.341 19.8606 108.14 19.8606C107.988 19.8606 107.853 19.8932 107.735 19.9584C107.619 20.0216 107.522 20.1136 107.444 20.2344C107.36 20.37 107.299 20.5182 107.263 20.6732Z" fill="#FFFFFF" />
<path d="M111.875 23.2904L110.427 19.2104H111.41L112.296 22.0047L113.148 19.2104H114.124L112.483 23.9247C112.44 24.0368 112.391 24.1464 112.336 24.2533C112.273 24.3762 112.192 24.4897 112.098 24.5904C112.002 24.6986 111.882 24.7855 111.739 24.851C111.595 24.9188 111.421 24.9527 111.217 24.9527C111.136 24.9527 111.058 24.9451 110.982 24.9299C110.913 24.918 110.843 24.9043 110.774 24.8887L110.771 24.1927C110.831 24.1981 110.891 24.202 110.952 24.2042C111.08 24.2078 111.208 24.1887 111.33 24.1476C111.428 24.1155 111.513 24.055 111.576 23.9739C111.641 23.8931 111.697 23.7845 111.742 23.6482L111.875 23.2904Z" fill="#FFFFFF" />
</g>
</g>
<defs>
<clipPath id="clip0_2472_86288">
<rect width="136" height="32" fill="white" transform="translate(0.450195 0.0664062)"/>
</clipPath>
</defs>
</svg>
