<svg width="185" height="26" viewBox="0 0 185 26" fill="none" xmlns="http://www.w3.org/2000/svg">
<g clip-path="url(#clip0_2472_86237)">
<path d="M15.4216 3.13633C15.4216 1.11633 13.5016 0.506334 11.8916 0.576334V0.756334C12.8516 0.826334 13.5916 1.21633 13.5916 1.86633C13.5916 2.31633 13.2716 2.87633 12.3116 2.87633C11.5516 2.87633 10.2916 2.42633 9.11156 2.03633C7.81156 1.58633 6.57156 1.16633 5.54156 1.16633C3.52156 1.16633 1.99156 2.66633 1.99156 4.52633C1.99156 6.02633 3.15156 6.54633 3.62156 6.73633L3.65156 6.66633C3.35156 6.46633 3.16156 6.24633 3.16156 5.60633C3.16156 5.06633 3.55156 4.34633 4.59156 4.34633C5.53156 4.34633 6.76156 4.76633 8.39156 5.22633C9.79156 5.61633 11.3016 5.98633 12.1416 6.09633V9.37633L10.5616 10.6763L12.1416 12.0363V16.5263C11.3316 16.9863 10.3916 17.1363 9.58156 17.1363C8.08156 17.1363 6.70156 16.7163 5.56156 15.4563L9.82156 13.3863V6.29633L4.62156 8.61633C5.16156 7.23633 6.17156 6.20633 7.28156 5.53633L7.25156 5.45633C4.16156 6.29633 1.35156 9.12633 1.35156 12.6263C1.35156 16.8163 4.70156 19.9263 8.57156 19.9263C12.7616 19.9263 15.2216 16.6463 15.1816 13.1763H15.1016C14.4916 14.5063 13.4716 15.7663 12.3216 16.4263V12.0463L13.9716 10.7163L12.3216 9.38633V6.10633C13.8516 6.10633 15.4316 5.09633 15.4316 3.14633M6.65156 14.6963L5.44156 15.3063C4.70156 14.3463 4.21156 12.9863 4.21156 11.2363C4.21156 10.5163 4.29156 9.53633 4.53156 8.84633L6.67156 7.88633L6.64156 14.6863L6.65156 14.6963ZM26.1216 8.93633L25.3116 9.57633L22.8416 7.37633L19.9816 9.58633V1.04633L16.0916 3.73633C16.5416 3.88633 17.0816 4.12633 17.0816 5.16633V16.9763L15.7516 17.9863L15.8716 18.1063L16.5416 17.6463L18.8616 19.7663L21.9716 17.6963L21.8716 17.5463L21.0816 18.0663L20.0016 16.9863V9.86633L20.7416 9.32633L22.4416 10.8063V16.9963C22.4416 20.9163 21.5716 21.7263 19.8116 22.3663V22.4663C22.7416 22.5863 25.3816 21.5963 25.3816 16.5763V9.82633L26.2616 9.10633L26.1416 8.95633L26.1216 8.93633ZM31.3416 19.7363L35.8516 16.1163L35.7316 15.9463L33.3716 17.8163L30.6616 15.6763V14.3463L35.3416 11.0463L32.9816 7.37633L27.7816 10.2363V17.0363L26.7716 17.8263L26.8916 17.9763L27.8516 17.2163L31.3516 19.7563H31.3416V19.7363ZM30.6516 14.0663V8.91633L32.9216 12.4663L30.6516 14.0663ZM54.5016 2.17633C54.5016 1.85633 54.4216 1.58633 54.3016 1.21633H54.2316C53.9116 2.08633 53.5616 2.54633 52.5516 2.54633C51.6716 2.54633 50.9716 2.00633 50.6016 1.60633C50.6016 1.63633 47.6416 5.02633 47.6416 5.02633L47.7916 5.14633L48.6316 4.18633C49.2716 4.67633 49.8416 5.24633 51.2616 5.26633V13.9063L45.2016 3.40633C44.7316 2.61633 43.9216 1.43633 42.5416 1.43633C40.9116 1.43633 39.6816 2.83633 39.8816 5.20633H39.9816C40.1016 4.61633 40.4516 3.87633 41.1616 3.87633C41.7316 3.87633 42.1916 4.41633 42.4616 4.90633V8.28633C40.5916 8.28633 39.5316 9.15633 39.5316 10.6263C39.5316 11.2363 39.9816 12.5663 41.2516 12.7963V12.7263C41.0816 12.5563 40.9116 12.4063 40.9116 12.0563C40.9116 11.4863 41.3316 11.1763 42.0916 11.1763C42.2116 11.1763 42.3916 11.2063 42.4616 11.2263V15.6063C40.2616 15.6363 38.5716 16.8363 38.5716 18.9163C38.5716 20.9963 40.2716 21.7963 42.0416 21.6963V21.6263C40.9316 21.5063 40.3616 20.9363 40.3616 20.1263C40.3616 19.2463 41.0016 18.7663 41.8116 18.7663C42.6216 18.7663 43.2416 19.2863 43.7616 19.8763L46.7216 16.5463L46.6016 16.4263L45.8416 17.2963C44.7016 16.2863 43.9716 15.8163 42.6616 15.6163V5.23633L51.0216 19.8063H51.4716V5.28633C53.0716 5.18633 54.5016 3.98633 54.5016 2.17633ZM57.3116 19.7163L61.8216 16.0963L61.7016 15.9263L59.3416 17.7963L56.6316 15.6563V14.3263L61.3116 11.0263L58.9516 7.35633L53.7516 10.2163V17.0163L52.7416 17.8063L52.8616 17.9563L53.8216 17.1963L57.3216 19.7363L57.3116 19.7163ZM56.6216 14.0463V8.89633L58.8916 12.4463L56.6216 14.0463ZM77.8416 8.52633L77.1516 9.04633L75.1816 7.36633L72.8916 9.43633L73.8316 10.3163V18.0363L71.4916 16.4363V10.1763L72.3016 9.60633L69.8916 7.36633L67.6516 9.43633L68.5916 10.3163V17.7763L68.4416 17.8763L66.2416 16.2763V10.1463C66.2416 8.71633 65.5216 8.29633 64.6116 7.73633C63.8516 7.26633 63.4516 6.82633 63.4516 6.10633C63.4516 5.31633 64.1416 4.99633 64.3616 4.87633C63.5716 4.84633 61.3816 5.63633 61.3316 7.63633C61.3016 8.66633 61.8016 9.11633 62.3216 9.60633C62.8416 10.0963 63.3316 10.5663 63.3316 11.4363V17.4463L62.2716 18.2863L62.3916 18.4063L63.4016 17.6163L66.0316 19.7563L68.5416 18.0063L71.3016 19.7563L76.7216 16.5563V9.60633L77.9316 8.66633L77.8316 8.51633L77.8416 8.52633ZM95.9916 2.68633L94.9616 3.62633L92.6416 1.60633L89.5116 4.11633V1.75633H89.3216V18.6863C88.9816 18.6363 88.2616 18.4363 87.4716 18.3163V4.14633C87.4716 3.11633 86.7316 1.67633 84.8816 1.67633C83.0316 1.67633 81.8716 3.23633 81.8716 4.58633H81.9516C82.0516 3.97633 82.4716 3.42633 83.0816 3.42633C83.6916 3.42633 84.2616 3.81633 84.2616 5.20633V9.24633C82.5116 9.31633 81.4516 10.4063 81.4516 11.5863C81.4516 12.2563 81.8716 13.5063 83.2016 13.5563V13.4563C82.7516 13.2663 82.6616 13.0363 82.6616 12.7863C82.6616 12.1963 83.2316 11.9963 84.0216 11.9963H84.2116V18.5063C82.7116 19.0263 82.0116 20.0363 82.0116 21.2863C82.0116 23.0063 83.3916 24.3363 85.4116 24.3363C86.8416 24.3363 87.8516 24.0863 89.1616 23.7963C90.2216 23.5763 91.3716 23.3263 91.9916 23.3263C92.7816 23.3263 93.1316 23.6763 93.1316 24.2363C93.1316 24.9563 92.8616 25.3163 92.4416 25.4463V25.5463C94.1416 25.2263 95.1316 24.2463 95.1316 22.7163C95.1316 21.1863 93.6316 20.1763 91.9516 20.1763C91.0816 20.1763 89.5116 20.4463 88.2316 20.7463C86.8016 21.0663 85.5716 21.2163 85.1216 21.2163C84.4016 21.2163 83.5216 20.8963 83.5216 19.9363C83.5216 19.0663 84.2416 18.3763 86.0116 18.3763C86.9716 18.3763 87.9116 18.5263 89.0916 18.7963C90.3516 19.0663 91.2116 19.4363 92.2916 19.4363C93.7916 19.4363 95.0016 18.8963 95.0016 16.6963V3.85633L96.1116 2.84633L95.9916 2.69633V2.68633ZM91.7516 9.46633C91.4816 9.76633 91.1616 10.0063 90.6416 10.0063C90.0716 10.0063 89.7716 9.70633 89.5016 9.46633V4.37633L90.2416 3.78633L91.7416 5.06633V9.47633L91.7516 9.46633ZM91.7516 11.8763C91.5016 11.6263 91.1816 11.4063 90.6416 11.4063C90.1016 11.4063 89.7316 11.6763 89.5016 11.8763V9.70633C89.7216 9.89633 90.0916 10.1963 90.6416 10.1963C91.1916 10.1963 91.5116 9.94633 91.7516 9.70633V11.8763ZM91.7516 16.9763C91.7516 17.8163 91.3316 18.7563 90.2516 18.7563C90.0816 18.7563 89.6816 18.7263 89.5116 18.7063V12.1263C89.7616 11.9063 90.0816 11.6063 90.6516 11.6063C91.1716 11.6063 91.4616 11.8563 91.7616 12.1263V16.9863L91.7516 16.9763ZM100.532 19.7163L105.562 16.5863V9.73633L102.312 7.34633L97.2816 10.2263V17.0063L96.2916 17.7963L96.3916 17.9463L97.2016 17.2763L100.532 19.7163ZM100.162 16.1663V8.86633L102.672 10.7363V18.0363L100.162 16.1663ZM115.172 7.51633C114.782 7.78633 114.432 7.93633 114.062 7.93633C113.672 7.93633 113.182 7.68633 112.922 7.36633C112.922 7.39633 111.052 9.38633 111.052 9.38633L109.182 7.36633L106.132 9.48633L106.232 9.65633L107.042 9.11633L108.152 10.3263V16.9563L106.822 17.9663L106.942 18.0863L107.612 17.6263L110.102 19.7463L113.252 17.6563L113.152 17.5063L112.342 17.9963L111.062 16.8363V9.55633C111.582 10.1263 112.172 10.6163 112.882 10.6163C114.162 10.6163 115.022 9.08633 115.172 7.50633M127.052 17.3163L126.112 17.9063L120.912 10.1463L121.182 9.77633C121.752 10.1163 122.262 10.5863 123.352 10.5863C124.442 10.5863 125.822 9.44633 125.942 7.35633C125.672 7.72633 125.132 8.16633 124.242 8.16633C123.602 8.16633 122.962 7.74633 122.572 7.35633L119.022 12.5763L123.732 19.7463L127.152 17.4763L127.052 17.3063V17.3163ZM120.742 17.5063L119.952 18.0263L118.872 16.9463V1.04633L114.982 3.73633C115.432 3.88633 115.972 4.12633 115.972 5.16633V16.9763L114.642 17.9863L114.762 18.1063L115.432 17.6463L117.752 19.7663L120.862 17.6963L120.762 17.5463L120.742 17.5063ZM143.632 3.11633C143.632 1.09633 141.712 0.486334 140.102 0.556334V0.756334C141.062 0.826334 141.802 1.21633 141.802 1.86633C141.802 2.31633 141.482 2.87633 140.522 2.87633C139.762 2.87633 138.502 2.42633 137.322 2.03633C136.022 1.58633 134.782 1.16633 133.752 1.16633C131.732 1.16633 130.202 2.66633 130.202 4.51633C130.202 6.01633 131.362 6.53633 131.832 6.72633L131.862 6.65633C131.562 6.45633 131.372 6.23633 131.372 5.59633C131.372 5.05633 131.762 4.33633 132.802 4.33633C133.742 4.33633 134.972 4.75633 136.602 5.21633C138.002 5.60633 139.512 5.97633 140.352 6.08633V9.36633L138.772 10.6663L140.352 12.0263V16.5163C139.542 16.9763 138.602 17.1263 137.792 17.1263C136.292 17.1263 134.902 16.7063 133.772 15.4463L138.032 13.3763V6.29633L132.832 8.61633C133.372 7.23633 134.382 6.20633 135.492 5.53633L135.462 5.45633C132.382 6.29633 129.572 9.12633 129.572 12.6263C129.572 16.8163 132.922 19.9263 136.792 19.9263C140.982 19.9263 143.442 16.6463 143.402 13.1763H143.332C142.722 14.5063 141.702 15.7663 140.552 16.4263V12.0463L142.202 10.7163L140.552 9.38633V6.10633C142.082 6.10633 143.662 5.09633 143.662 3.14633M134.882 14.7063L133.672 15.3163C132.932 14.3563 132.442 12.9963 132.442 11.2463C132.442 10.5263 132.512 9.54633 132.762 8.85633L134.902 7.89633L134.872 14.6963L134.882 14.7063ZM146.812 2.39633L144.642 4.21633L146.492 6.30633L148.662 4.48633L146.812 2.39633ZM150.112 17.5463L149.322 18.0663L148.242 16.9863V9.81633L149.152 9.09633L149.032 8.94633L148.272 9.53633L146.472 7.39633L143.512 9.46633L143.612 9.63633L144.352 9.14633L145.342 10.3763V16.9863L144.012 17.9963L144.132 18.1163L144.802 17.6563L147.122 19.7763L150.232 17.7063L150.132 17.5563L150.112 17.5463ZM166.742 17.4463L166.002 17.9363L164.842 16.8263V9.79633L165.782 9.07633L165.662 8.92633L164.822 9.56633L162.352 7.36633L159.572 9.53633L157.132 7.36633L154.392 9.50633L152.542 7.36633L149.582 9.43633L149.682 9.60633L150.422 9.11633L151.482 10.3263V16.9363L150.672 17.7463L153.032 19.7463L155.322 17.6763L154.382 16.7963V9.75633L154.992 9.30633L156.692 10.7863V16.9463L155.902 17.7563L158.292 19.7563L160.532 17.6863L159.592 16.8063V9.76633L160.182 9.29633L161.902 10.7963V16.8563L161.212 17.5763L163.622 19.7763L166.802 17.6063L166.702 17.4563H166.722L166.742 17.4463ZM175.342 15.9463L172.982 17.8163L170.272 15.6763V14.3463L174.952 11.0463L172.592 7.37633L167.392 10.2363V17.1663L170.962 19.7563L175.472 16.1363L175.352 15.9663L175.342 15.9463ZM170.262 14.0663V8.91633L172.532 12.4663L170.262 14.0663ZM184.382 13.0963L182.382 11.5663C183.712 10.4063 184.182 8.93633 184.182 7.87633C184.182 7.72633 184.152 7.45633 184.132 7.20633H184.052C183.862 7.74633 183.332 8.21633 182.522 8.21633C181.712 8.21633 181.262 7.76633 180.772 7.22633L176.192 9.76633V13.4863L177.942 14.8663C176.192 16.4163 175.852 17.3763 175.852 18.2663C175.852 19.1563 176.372 19.9363 177.262 20.2863L177.332 20.1663C177.112 19.9763 176.912 19.8463 176.912 19.3763C176.912 19.0363 177.262 18.4963 178.052 18.4963C179.062 18.4963 179.682 19.1863 180.002 19.5563C180.002 19.5263 184.382 16.8663 184.382 16.8663V13.0963ZM183.352 10.0463C182.662 11.2763 181.142 12.4863 180.242 13.1763L179.132 12.2363V8.61633C179.582 9.60633 180.492 10.4363 181.672 10.4363C182.362 10.4363 182.812 10.3163 183.342 10.0463M181.442 18.1763C180.922 17.0163 179.812 16.1763 178.582 16.1763C178.282 16.1763 177.372 16.1463 176.582 16.6363C177.052 15.8463 178.452 14.4263 180.232 13.3563L181.442 14.3663V18.1663V18.1763Z" fill="#FFFFFF"/>
</g>
<defs>
<clipPath id="clip0_2472_86237">
<rect width="184" height="25" fill="white" transform="translate(0.851562 0.566406)"/>
</clipPath>
</defs>
</svg>
