<svg width="101" height="29" viewBox="0 0 101 29" fill="none" xmlns="http://www.w3.org/2000/svg">
<g clip-path="url(#clip0_2472_86323)">
<path d="M9.82014 10.9887L9.79448 11.0167L7.81348 9.03801L7.84148 9.01001L7.84848 9.01468L9.95548 11.1217L9.96248 11.1287L9.82014 10.9887Z" fill="#FFFFFF" />
<path d="M7.18133 24.0764L1.86133 18.7704C0.437993 15.5481 1.89633 10.7321 5.69966 6.91241L7.70633 8.91908L7.71099 8.92375L5.69966 6.91241L5.72766 6.88208L5.73466 6.88908L7.83933 8.99608L7.84633 9.00308C7.52226 9.32713 7.21316 9.66582 6.91999 10.0181C3.78633 13.6534 2.67333 17.9281 3.97766 20.8891" fill="#FFFFFF" />
<path d="M18.2204 19.4005C16.5801 21.0408 14.6691 22.1841 12.8421 22.6205C10.7187 23.1291 9.66872 22.4758 9.23472 22.0418C8.87689 21.6669 8.63818 21.1943 8.54872 20.6838C8.54872 20.6838 8.34105 19.5475 8.62805 18.5558L8.65605 18.4345C9.09238 16.6075 10.2357 14.6988 11.8761 13.0585L11.8691 13.0515L9.82272 11.0051C5.41272 15.4151 4.25305 21.1645 7.18139 24.0951C10.1121 27.0235 15.8614 25.8638 20.2714 21.4538L18.2204 19.4005Z" fill="#FFFFFF" />
<path d="M10.7934 20.5765C12.6204 20.1379 14.5314 18.9945 16.1694 17.3542L14.0228 15.2075C12.3824 16.8455 10.5741 18.0915 8.74942 18.5279C8.70742 18.5395 8.63742 18.5162 8.62575 18.5559C8.45519 19.2517 8.4282 19.9749 8.54642 20.6815C8.56275 20.7585 9.84142 20.8029 10.7934 20.5742V20.5765Z" fill="#FFFFFF" />
<path d="M7.76225 8.90974L7.79025 8.88408L5.80925 6.90308L5.78125 6.93108L5.78825 6.93808L7.89292 9.04508L7.89992 9.05208L7.75992 8.91208L7.76225 8.90974Z" fill="#FFFFFF" />
<path d="M20.8524 6.27082L15.5464 0.950822C12.3218 -0.474844 7.5081 0.983489 3.68376 4.78682L5.69043 6.79349L5.69743 6.79816L3.68376 4.78682L3.65576 4.81482L3.66276 4.82182L5.76976 6.92649L5.77443 6.93349C6.10343 6.60682 6.4441 6.29649 6.78943 6.00949C10.4271 2.87349 14.6994 1.76282 17.6628 3.06482" fill="#FFFFFF" />
<path d="M16.1741 17.3097C17.8145 15.6671 18.9578 13.7584 19.3941 11.9314C19.9051 9.80807 19.2495 8.75807 18.8155 8.32407C18.4405 7.96625 17.968 7.72753 17.4575 7.63807C17.4575 7.63807 16.3211 7.43041 15.3318 7.71741L15.2081 7.74541C13.3811 8.18174 11.4725 9.32507 9.83214 10.9654L9.82514 10.9584L7.77881 8.91207C12.1888 4.50207 17.9381 3.34241 20.8688 6.27074C23.7971 9.20141 22.6375 14.9507 18.2275 19.3607L16.1741 17.3097Z" fill="#FFFFFF" />
<path d="M17.3476 9.88511C16.9113 11.7121 15.768 13.6208 14.1276 15.2611L11.981 13.1144C13.619 11.4718 14.865 9.66577 15.3013 7.83877C15.313 7.79677 15.2896 7.72677 15.3293 7.71511C16.0251 7.54454 16.7484 7.51755 17.455 7.63577C17.532 7.65211 17.5763 8.93311 17.3476 9.88511Z" fill="#FFFFFF" />
</g>
<g clip-path="url(#clip1_2472_86323)">
<path d="M30.7769 19.3965V5.06641H35.8848C40.4538 5.06641 42.9696 7.32199 42.9696 11.9725C42.9696 16.623 40.3145 19.3965 35.7244 19.3965H30.7769ZM35.9058 16.063C38.1009 16.063 39.0789 14.5251 39.0789 12.0908C39.0789 9.65645 38.1009 8.39984 36.0451 8.39984H34.6676V16.063H35.9058Z" fill="#FFFFFF" />
<path d="M48.8977 19.6358C45.5248 19.6358 44.1289 17.1225 44.1289 14.0467C44.1289 10.7948 46.1058 8.73901 48.9792 8.73901C52.1733 8.73901 53.6481 10.8342 53.6481 14.2071C53.6481 14.3859 53.6481 14.6067 53.6271 14.9248H47.4597C47.5596 16.2024 47.9776 17.02 49.1553 17.02C50.1123 17.02 50.6328 16.5416 51.0508 15.7424L53.606 16.9806C52.4099 19.0758 50.7327 19.6358 48.8951 19.6358H48.8977ZM47.5018 12.8506H50.4356C50.4566 11.8332 49.8967 11.1944 49.0581 11.1944C48.2195 11.1944 47.7016 11.8332 47.5018 12.8506Z" fill="#FFFFFF" />
<path d="M63.9063 16.9017C62.8285 18.8366 61.4115 19.6358 59.1953 19.6358C56.2615 19.6358 54.4844 17.601 54.4844 14.2071C54.4844 10.8132 56.4613 8.73901 59.3925 8.73901C61.4483 8.73901 63.0256 9.49613 63.7617 11.573L61.0881 12.6508C60.728 11.7728 60.2495 11.3732 59.4714 11.3942C58.4934 11.4152 57.8336 12.2512 57.8336 14.2492C57.8336 16.2471 58.5723 16.9622 59.5292 16.9622C60.4073 16.9622 60.9672 16.4443 61.3642 15.5846L63.8984 16.9017H63.9063Z" fill="#FFFFFF" />
<path d="M65.084 19.3965V8.97824H68.1572V10.7738C68.6961 9.59603 69.6136 8.73901 70.9517 8.73901C71.0726 8.73901 71.1304 8.73901 71.2698 8.76004V11.8332C71.091 11.8122 70.9701 11.8122 70.8702 11.8122C69.9711 11.8122 69.214 12.2118 68.4963 13.2292V19.3965H65.084Z" fill="#FFFFFF" />
<path d="M73.8856 23.0665C73.1863 23.0665 72.4897 23.006 71.9297 22.9061V20.4718C72.3477 20.5506 72.8288 20.5717 73.1679 20.5717C74.5244 20.5717 74.924 20.1537 75.1843 19.3545L75.2842 19.0364L71.5117 8.97827H75.2631L76.8405 14.846H76.8799L78.4362 8.97827H82.0273L78.7149 18.8576C77.6581 22.0307 76.7984 23.0691 73.8856 23.0691V23.0665Z" fill="#FFFFFF" />
<path d="M82.666 22.8272V8.97824H85.7392V10.0167C86.6172 9.29897 87.4743 8.73901 88.7519 8.73901C91.2861 8.73901 92.6242 10.8947 92.6242 14.0678C92.6242 17.2408 91.0469 19.5569 88.4128 19.5569C87.5742 19.5569 86.7171 19.2388 86.0783 18.7577V22.8299H82.666V22.8272ZM86.0783 16.3812C86.3964 16.6809 86.8565 16.8991 87.3954 16.8991C88.5915 16.8991 89.112 15.8817 89.112 14.0257C89.112 12.3695 88.4548 11.4704 87.4164 11.4704C86.9564 11.4704 86.4989 11.7097 86.0783 12.0698V16.3812Z" fill="#FFFFFF" />
<path d="M100.148 19.315C99.4699 19.4544 98.7312 19.5543 97.9531 19.5543C95.6186 19.5543 94.7195 18.7551 94.7195 16.0421V11.5125H93.1816V8.97826H94.7195V5.46606H98.1318V8.97826H100.148V11.5125H98.1318V15.7424C98.1318 16.5205 98.4315 16.8202 99.0888 16.8202C99.4068 16.8202 99.788 16.7598 100.146 16.6599V19.315H100.148Z" fill="#FFFFFF" />
</g>
<defs>
<clipPath id="clip0_2472_86323">
<rect width="24.2667" height="28" fill="white" transform="translate(0.510254 0.0664062)"/>
</clipPath>
<clipPath id="clip1_2472_86323">
<rect width="69.3711" height="18" fill="white" transform="translate(30.7769 5.06641)"/>
</clipPath>
</defs>
</svg>
