<svg width="30" height="37" viewBox="0 0 30 37" xmlns="http://www.w3.org/2000/svg">
<g clip-path="url(#clip0_2472_86316)">
<path d="M29.5028 32.291H0.446289V36.0479H29.5028V32.291Z" fill="#FFFFFF"/>
<path d="M7.26417 8.5459L2.03955 24.2179H5.82232L9.37063 13.141L11.1503 18.6794H8.84817L7.93063 21.8401H12.1657L12.9282 24.2179H16.8199L11.5952 8.5459H7.26417Z" fill="#FFFFFF"/>
<path d="M22.7644 8.5459H17.333V24.2179H21.0881V11.7084H22.6019C24.3576 11.7084 25.3582 12.5465 25.3582 14.0585C25.3582 15.5447 24.3576 16.4087 22.6019 16.4087H22.3582V19.5693H22.7625C26.8149 19.5693 29.1927 17.5293 29.1927 14.0567C29.1945 10.5194 26.8167 8.5459 22.7644 8.5459Z" fill="#FFFFFF"/>
</g>
<defs>
<clipPath id="clip0_2472_86316">
<rect width="29.1692" height="36" fill="white" transform="translate(0.34082 0.0664062)"/>
</clipPath>
</defs>
</svg>
