<svg width="93" height="22" viewBox="0 0 93 22" fill="none" xmlns="http://www.w3.org/2000/svg">
<path d="M12.54 5.14813V16.5601C12.54 19.2328 14.7069 21.3997 17.3795 21.3997C20.0522 21.3997 22.2191 19.2328 22.2191 16.5601V5.14813C22.2191 2.47546 20.0522 0.308594 17.3795 0.308594C14.7069 0.308594 12.54 2.47546 12.54 5.14813ZM16.0044 16.5601V5.14813C15.996 4.42255 16.5779 3.82659 17.3034 3.81954C17.3457 3.81954 17.388 3.81954 17.4302 3.82377C18.1389 3.80123 18.7321 4.35633 18.7546 5.065C18.7546 5.09318 18.7546 5.11995 18.7546 5.14813V16.5601C18.7433 17.2871 18.1572 17.8732 17.4302 17.8845C16.6709 17.9127 16.0326 17.3209 16.0044 16.5615C16.0044 16.5615 16.0044 16.5615 16.0044 16.5601ZM50.1362 0.563603H40.3557V4.02806H43.5144V21.0432H46.9789V4.02806H50.1376V0.563603H50.1362ZM60.3253 0.563603V16.5601C60.3253 17.2913 59.7335 17.8859 59.0023 17.8859C58.2711 17.8859 57.6766 17.2942 57.6766 16.5629V0.563603H54.1107V16.5601C54.1121 19.261 56.3029 21.449 59.0037 21.4476C61.7017 21.4461 63.8898 19.2581 63.8912 16.5601V0.563603H60.3253ZM92.0126 4.02806V0.563603H83.4536V21.0432H92.0126V17.5788H86.918V12.2799H90.1782V8.81546H86.918V4.02806H92.0126ZM37.0955 21.0432H33.4282L30.8809 11.3641C32.1926 11.1049 33.1337 9.94962 33.1224 8.61258V5.45385C33.1394 4.68319 32.5279 4.04497 31.7572 4.02806C31.7361 4.02806 31.7164 4.02806 31.6952 4.02806H30.3709V21.0432H26.9064V0.563603H31.6952C34.327 0.539651 36.4981 2.62058 36.5855 5.25098V8.51114C36.6799 10.2272 35.9628 11.8868 34.6497 12.9942L37.0955 21.0432ZM75.7089 0.563603V11.7713L72.143 0.563603H68.5771V21.0432H72.143V11.0584L75.4032 21.0432H79.2748V0.563603H75.7089ZM0.822266 0.869331V21.3489H4.4896V12.5871H7.85121V9.1226H4.4896V4.33379H9.78843V0.869331H0.822266Z" fill="#FFFFFF" />
</svg>
