<svg width="136" height="22" viewBox="0 0 136 22" fill="none" xmlns="http://www.w3.org/2000/svg">
<g clip-path="url(#clip0_2472_86320)">
<path d="M54.8052 1.82441C54.8052 1.40841 55.1472 1.06641 55.5632 1.06641H58.4782C58.8942 1.06641 59.2362 1.40841 59.2372 1.82441V4.19941C59.2372 4.61541 59.5802 4.95841 59.9962 4.95841H62.2932C62.4937 4.95998 62.6856 5.04034 62.8274 5.18215C62.9692 5.32397 63.0496 5.51586 63.0512 5.71641V16.4184C63.0501 16.6186 62.9701 16.8103 62.8286 16.9518C62.687 17.0934 62.4954 17.1734 62.2952 17.1744H59.9962C59.7952 17.1755 59.6028 17.2558 59.4606 17.3979C59.3185 17.54 59.2382 17.7324 59.2372 17.9334V20.3084C59.2364 20.5092 59.1563 20.7015 59.0143 20.8435C58.8723 20.9855 58.68 21.0656 58.4792 21.0664H55.5632C55.3624 21.0656 55.17 20.9855 55.0281 20.8435C54.8861 20.7015 54.806 20.5092 54.8052 20.3084V17.3904C54.8052 16.9744 55.1472 16.6324 55.5632 16.6324H57.8632C58.064 16.6314 58.2563 16.5512 58.3984 16.4093C58.5404 16.2674 58.6209 16.0752 58.6222 15.8744V6.25341C58.6211 6.05296 58.541 5.86103 58.3993 5.71929C58.2576 5.57755 58.0656 5.49746 57.8652 5.49641H55.5622C55.3617 5.49536 55.1698 5.41526 55.0281 5.27352C54.8863 5.13179 54.8062 4.93985 54.8052 4.73941V1.82441ZM33.6582 1.82441C33.6574 1.62362 33.5773 1.43127 33.4353 1.28929C33.2933 1.14731 33.101 1.0672 32.9002 1.06641H29.9812C29.7806 1.06798 29.5887 1.14834 29.4469 1.29015C29.3051 1.43197 29.2247 1.62386 29.2232 1.82441V4.19941C29.2221 4.40038 29.1418 4.59283 28.9997 4.73494C28.8576 4.87705 28.6652 4.95736 28.4642 4.95841H26.1672C25.9666 4.95998 25.7747 5.04034 25.6329 5.18215C25.4911 5.32397 25.4107 5.51586 25.4092 5.71641V16.4184C25.4102 16.6186 25.4902 16.8103 25.6318 16.9518C25.7733 17.0934 25.965 17.1734 26.1652 17.1744H28.4642C28.8802 17.1744 29.2232 17.5174 29.2232 17.9334V20.3074C29.2245 20.5081 29.3047 20.7003 29.4466 20.8423C29.5884 20.9843 29.7805 21.0648 29.9812 21.0664H32.9002C33.101 21.0656 33.2933 20.9855 33.4353 20.8435C33.5773 20.7015 33.6574 20.5092 33.6582 20.3084V17.3904C33.6574 17.1896 33.5773 16.9973 33.4353 16.8553C33.2933 16.7133 33.101 16.6332 32.9002 16.6324H30.6012C30.4004 16.6314 30.2081 16.5512 30.066 16.4093C29.9239 16.2674 29.8435 16.0752 29.8422 15.8744V6.25541C29.8422 5.83941 30.1852 5.49641 30.6012 5.49641H32.9012C33.1016 5.49536 33.2936 5.41526 33.4353 5.27352C33.577 5.13179 33.6571 4.93985 33.6582 4.73941V1.82441ZM41.5302 6.31341C41.5315 6.14593 41.5986 5.98568 41.717 5.86725C41.8355 5.74882 41.9957 5.68171 42.1632 5.68041H48.5672C48.6902 5.68126 48.8103 5.71782 48.9129 5.78563C49.0155 5.85345 49.0962 5.9496 49.1452 6.06241L50.1832 8.46041C50.2318 8.57355 50.3124 8.67006 50.4151 8.73808C50.5177 8.80611 50.638 8.84272 50.7612 8.84341H52.9102C53.2562 8.84341 53.5412 9.12841 53.5412 9.47441V16.5534C53.5404 16.721 53.4734 16.8816 53.3549 17.0001C53.2364 17.1187 53.0758 17.1856 52.9082 17.1864H50.1912C50.0235 17.1856 49.863 17.1187 49.7445 17.0001C49.6259 16.8816 49.559 16.721 49.5582 16.5534V9.98041C49.5571 9.81319 49.4904 9.65309 49.3723 9.53466C49.2543 9.41624 49.0944 9.34898 48.9272 9.34741H46.1442C45.977 9.34898 45.8171 9.41624 45.699 9.53466C45.581 9.65309 45.5142 9.81319 45.5132 9.98041V16.5534C45.5124 16.721 45.4454 16.8816 45.3269 17.0001C45.2084 17.1187 45.0478 17.1856 44.8802 17.1864H42.1632C41.9955 17.1856 41.835 17.1187 41.7165 17.0001C41.5979 16.8816 41.531 16.721 41.5302 16.5534V6.31341ZM35.0822 6.31341C35.0835 6.14593 35.1506 5.98568 35.269 5.86725C35.3875 5.74882 35.5477 5.68171 35.7152 5.68041H38.4332C38.6006 5.68172 38.7607 5.74886 38.879 5.86732C38.9972 5.98577 39.0641 6.14602 39.0652 6.31341V16.5534C39.0644 16.7209 38.9976 16.8813 38.8793 16.9998C38.7609 17.1183 38.6006 17.1854 38.4332 17.1864H35.7152C35.5475 17.1856 35.387 17.1187 35.2685 17.0001C35.1499 16.8816 35.083 16.721 35.0822 16.5534V6.31341Z" fill="#FFFFFF"/>
<path d="M8.53025 11.1124V11.1794C9.07025 11.3664 9.54125 11.7064 9.88925 12.1594C10.2533 12.6494 10.4413 13.2494 10.4203 13.8604C10.4315 14.3092 10.3452 14.7552 10.1674 15.1675C9.98958 15.5797 9.72443 15.9485 9.39025 16.2484C8.71114 16.8675 7.81892 17.2 6.90025 17.1764H0.510254V5.66639H6.69325C7.66725 5.66639 8.48025 5.94739 9.13225 6.50939C9.4508 6.77813 9.70442 7.11545 9.87413 7.49609C10.0438 7.87673 10.1252 8.29083 10.1123 8.70739C10.1152 9.2216 9.96406 9.72491 9.67825 10.1524C9.39347 10.5736 8.99502 10.9062 8.53025 11.1124ZM6.12725 8.19239H3.34425V10.2374H6.12725C6.41725 10.2504 6.69925 10.1364 6.90025 9.92739C7.09425 9.73739 7.20525 9.47739 7.20925 9.20539C7.20925 8.94139 7.10525 8.68839 6.92025 8.50039C6.81716 8.39624 6.69323 8.31505 6.55656 8.26214C6.4199 8.20923 6.2736 8.1848 6.12725 8.19239ZM3.34425 14.6684H6.36725C6.52119 14.6727 6.67431 14.6444 6.81651 14.5853C6.95871 14.5262 7.08677 14.4376 7.19225 14.3254C7.39825 14.1204 7.51625 13.8424 7.51825 13.5514C7.51741 13.4202 7.48777 13.2907 7.43144 13.1722C7.37512 13.0537 7.29347 12.9489 7.19225 12.8654C6.96904 12.6571 6.67242 12.5456 6.36725 12.5554H3.34425V14.6684ZM20.7353 17.1764H11.7653V5.66639H20.7353V8.41139H14.5983V10.0624H19.8683V12.6404H14.5983V14.4274H20.7353V17.1764ZM76.0013 12.3694H78.9023C78.7853 13.7676 78.1312 15.0662 77.0773 15.9924C76.0123 16.9424 74.6643 17.4174 73.0323 17.4174C71.2483 17.4174 69.8063 16.8454 68.7073 15.7014C67.6083 14.5564 67.0583 13.1374 67.0573 11.4414C67.0573 9.73939 67.6073 8.30939 68.7063 7.15139C69.8053 5.99339 71.2463 5.41039 73.0323 5.40039C74.6243 5.40039 75.9522 5.86939 77.0153 6.80739C78.0612 7.69977 78.7242 8.95995 78.8673 10.3274H75.9333C75.7823 9.70419 75.421 9.15214 74.9103 8.76439C74.362 8.3556 73.6882 8.15116 73.0053 8.18639C72.0553 8.19739 71.3053 8.51239 70.7553 9.13139C70.212 9.76529 69.9247 10.5789 69.9493 11.4134C69.9274 12.256 70.2213 13.0763 70.7733 13.7134C71.3163 14.3274 72.0693 14.6354 73.0333 14.6354C73.729 14.6578 74.4121 14.4462 74.9733 14.0344C75.5018 13.6178 75.866 13.0277 76.0013 12.3684V12.3694ZM82.6713 17.1584H79.8383V5.65839H85.7783C87.0143 5.65839 87.9983 5.93839 88.7303 6.49839C89.4623 7.05839 89.8343 7.84839 89.8453 8.86839C89.8453 9.95539 89.4683 10.7684 88.7133 11.3064V11.3744C89.6973 11.6144 90.1893 12.3524 90.1893 13.5874V17.1584H87.3563V14.0864C87.3563 13.6624 87.1393 13.4514 86.7053 13.4524H82.6703V17.1594L82.6713 17.1584ZM82.6713 8.40539V10.9454H85.5383C85.9263 10.9654 86.3083 10.8434 86.6123 10.6014C86.8923 10.3634 87.0452 10.0074 87.0253 9.64039C87.0341 9.46689 87.0013 9.29378 86.9294 9.13561C86.8575 8.97744 86.7488 8.83882 86.6123 8.73139C86.3061 8.50346 85.9306 8.3883 85.5493 8.40539H82.6713ZM98.1553 5.65939H101.297L96.7993 12.9704V17.1604H93.9673V12.9864L89.4533 5.65839H92.6633L95.4073 10.2914L98.1553 5.65939ZM107.881 5.65939C108.417 5.64608 108.949 5.74257 109.446 5.94293C109.943 6.14329 110.394 6.44327 110.77 6.82439C111.549 7.59039 111.938 8.55439 111.937 9.71439C111.937 10.9044 111.542 11.8844 110.753 12.6514C110.377 13.0262 109.93 13.321 109.437 13.5183C108.944 13.7156 108.417 13.8112 107.886 13.7994H104.773V17.1644H101.942V5.65939H107.881ZM104.773 11.1154H107.624C107.997 11.1254 108.359 10.9904 108.635 10.7384C108.914 10.4784 109.065 10.1084 109.047 9.72739C109.052 9.54731 109.015 9.36854 108.94 9.20486C108.865 9.04119 108.753 8.89699 108.613 8.78339C108.343 8.53352 107.986 8.39835 107.618 8.40639H104.773V11.1164V11.1154ZM112.223 5.65939H122.507V8.40339H118.781V17.1574H115.949V8.40539H112.223V5.65939ZM132.85 15.7004C131.729 16.8434 130.259 17.4154 128.438 17.4174C126.618 17.4194 125.148 16.8474 124.029 15.7014C122.907 14.5454 122.346 13.1254 122.346 11.4414C122.346 9.75839 122.907 8.32839 124.029 7.15139C125.149 5.98439 126.619 5.40039 128.438 5.40039C130.258 5.40039 131.728 5.98439 132.85 7.15039C133.971 8.31839 134.532 9.74839 134.532 11.4424C134.532 13.1354 133.971 14.5544 132.85 15.7004ZM128.438 14.6364C129.412 14.6364 130.19 14.3214 130.773 13.6914C131.352 13.0741 131.666 12.2545 131.648 11.4084C131.66 10.9892 131.588 10.5718 131.438 10.1803C131.288 9.7887 131.062 9.43058 130.773 9.12639C130.201 8.49539 129.423 8.18039 128.438 8.18139C127.454 8.18139 126.67 8.49739 126.086 9.12639C125.513 9.74583 125.205 10.5649 125.228 11.4084C125.21 12.2515 125.517 13.0693 126.086 13.6914C126.67 14.3214 127.454 14.6364 128.438 14.6364Z" fill="#FFFFFF"/>
</g>
<defs>
<clipPath id="clip0_2472_86320">
<rect width="135" height="21" fill="white" transform="translate(0.510254 0.566406)"/>
</clipPath>
</defs>
</svg>
