<svg width="147" height="22" viewBox="0 0 147 22" fill="none" xmlns="http://www.w3.org/2000/svg">
<path d="M41.1213 14.5584C41.1219 14.5327 41.1224 14.5069 41.123 14.4806C40.9951 14.4531 40.8671 14.4022 40.7392 14.4022C36.4516 14.3983 32.1633 14.3988 27.8756 14.3977C27.7204 14.3977 27.5657 14.3809 27.4105 14.3719C27.4121 12.1159 27.4132 9.85936 27.4143 7.60335C27.4143 7.60335 27.4383 7.59999 27.4389 7.59999L27.4471 7.63864C27.5865 7.62408 27.7259 7.59607 27.8658 7.59607C32.2863 7.59327 36.7068 7.59271 41.1273 7.59159C41.1257 7.56527 41.1246 7.53894 41.123 7.51262C41.123 5.08635 41.1219 2.65952 41.1213 0.233246C40.9912 0.205242 40.8606 0.152594 40.7305 0.152594C36.4264 0.148674 32.1229 0.148674 27.8193 0.150914C27.6925 0.150914 27.5657 0.178358 27.4394 0.19292C27.4307 0.245008 27.4143 0.296535 27.4143 0.348623C27.4154 2.72841 27.4176 5.10819 27.4203 7.48742L27.4121 7.48238C27.3099 7.49246 27.2071 7.51206 27.1049 7.51206C25.0666 7.51374 23.0282 7.51374 20.9893 7.51206C20.8866 7.51206 20.7833 7.49582 20.6805 7.48742L20.6739 7.4919C20.6739 5.20229 20.6745 2.91323 20.6734 0.624183C20.6734 0.492564 20.6564 0.360945 20.6471 0.229325C20.5028 0.202442 20.358 0.152594 20.2137 0.152594C14.941 0.148674 9.66884 0.148674 4.39615 0.148674C3.06841 0.148674 1.74068 0.146994 0.412937 0.152594C0.280656 0.153154 0.148374 0.200201 0.0160917 0.225965C0.0144518 2.64215 0.012812 5.05778 0.0117188 7.47397C0.0117188 7.48686 0.0166383 7.49974 0.019918 7.51318C0.0188248 7.54006 0.0177316 7.56639 0.0166383 7.59327C2.17852 7.59327 4.34094 7.59271 6.50282 7.59775C6.63183 7.59775 6.76028 7.64816 6.88928 7.67504C6.90732 7.69129 6.92864 7.69969 6.95324 7.70081C6.9516 12.2823 6.95051 16.8637 6.94941 21.4446C6.94941 21.4973 6.9598 21.5499 6.96526 21.6031C9.21078 21.6043 11.4568 21.6048 13.7023 21.6059C13.7122 21.4609 13.7308 21.3164 13.7308 21.1713C13.7324 16.8167 13.7319 12.4621 13.733 8.10743C13.733 7.96237 13.7488 7.8173 13.7576 7.67224C13.7619 7.64424 13.7658 7.61623 13.7701 7.58823C15.908 7.59047 18.0458 7.59103 20.1836 7.59831C20.3115 7.59831 20.4394 7.64872 20.5673 7.6756C20.5854 7.69185 20.6067 7.70025 20.6307 7.70137C20.6297 12.2828 20.628 16.8643 20.6275 21.4458C20.6275 21.4984 20.6379 21.5511 20.6433 21.6043C27.3427 21.6043 34.0415 21.6048 40.7409 21.6043C40.8447 21.6043 40.948 21.5953 41.0519 21.5908L41.088 21.6026H41.1257C41.1246 21.5768 41.1235 21.5511 41.1224 21.5258C41.1279 21.42 41.1388 21.3147 41.1388 21.2088C41.1399 19.0979 41.1399 16.9875 41.1388 14.8766C41.1388 14.7707 41.1284 14.6654 41.1224 14.5596L41.1213 14.5584Z" fill="#FFFFFF"/>
<path d="M98.0119 14.803C97.4391 14.4911 96.8706 14.1712 96.3005 13.8548L96.2797 13.8559L96.2786 13.8335C96.2573 13.843 96.242 13.8369 96.2322 13.815C96.1912 13.7932 96.1496 13.7708 96.1086 13.7489L96.0873 13.7512L96.0791 13.731C96.0561 13.7125 96.0332 13.6935 96.0102 13.675C95.9741 13.6537 95.9381 13.633 95.902 13.6117L95.873 13.6184C95.873 13.6184 95.8533 13.5949 95.8539 13.5949C95.7446 13.5378 95.6352 13.4807 95.5259 13.4235C95.4483 13.4252 95.3712 13.4275 95.2936 13.4291L95.275 13.4325C95.2357 13.5014 95.1963 13.5708 95.157 13.6397C95.1384 13.6795 95.1198 13.7198 95.1012 13.7596C95.0881 13.7747 95.0755 13.7893 95.0624 13.8044C95.0044 13.8957 94.9465 13.9875 94.8886 14.0788C94.8683 14.1046 94.8481 14.1298 94.8279 14.1556C94.8137 14.1841 94.8 14.2133 94.7858 14.2418C94.7716 14.2586 94.7579 14.276 94.7437 14.2928L94.7246 14.3129C94.7049 14.3331 94.6852 14.3527 94.6655 14.3729L94.6628 14.3942H94.6415C94.6235 14.4121 94.6054 14.4306 94.5874 14.449V14.4703L94.5666 14.4731C94.5475 14.4933 94.5278 14.5129 94.5087 14.5331L94.5059 14.5543H94.4846C94.4666 14.5723 94.4485 14.5907 94.4305 14.6092V14.6305L94.4097 14.6333C94.3906 14.6535 94.3709 14.6731 94.3518 14.6932L94.3496 14.7145L94.3288 14.714C94.3108 14.7319 94.2922 14.7504 94.2742 14.7683L94.2709 14.7913L94.2485 14.7941L94.2397 14.8237L94.2129 14.8176C93.9577 14.9117 93.7079 15.0399 93.4444 15.0909C93.1968 15.1385 92.8956 15.1878 92.6868 15.087C92.3692 14.9341 92.0215 14.7616 91.8526 14.3947C91.8341 14.369 91.8149 14.3432 91.7963 14.3174C91.769 14.3079 91.7581 14.2883 91.7641 14.2592C91.7461 14.2245 91.728 14.1892 91.7105 14.1544L91.7023 14.1292C91.6761 14.1248 91.663 14.1085 91.663 14.0811C91.3804 13.7086 91.2973 13.2454 91.2475 12.8125C91.1776 12.2009 91.2382 11.5741 91.2432 10.9536C91.2437 10.9004 91.2448 10.8466 91.2453 10.7934C91.2399 10.7676 91.2257 10.7402 91.2306 10.7161C91.3705 10.0339 91.5471 9.37527 92.0549 8.85496C92.3129 8.5906 92.6021 8.44722 92.9524 8.40353L92.9442 8.38001C93.0989 8.38841 93.2542 8.39681 93.4089 8.40521C93.4143 8.42593 93.4193 8.44722 93.4236 8.46794C93.6614 8.54299 93.9336 8.56707 94.1304 8.70373C94.5622 9.00338 94.7853 9.48449 94.9727 9.96616C95.0859 10.2574 95.1105 10.2921 95.398 10.1644C95.5707 10.0877 95.7478 10.0216 95.9217 9.94935C96.3273 9.78021 96.7307 9.60434 97.1384 9.44136C97.4593 9.3131 97.7856 9.19884 98.1027 9.08067C98.0043 8.00251 96.7564 5.94925 95.2204 5.66697C95.1668 5.64681 95.1132 5.62721 95.0602 5.60705C94.9667 5.57848 94.8744 5.5404 94.7792 5.52247C94.6125 5.49055 94.4436 5.47095 94.2753 5.4463C94.0582 5.25587 93.8024 5.38973 93.5663 5.35613L93.5707 5.34213C93.3629 5.33765 93.1552 5.33261 92.9475 5.32812C92.9235 5.33709 92.9005 5.34717 92.8776 5.35893C92.689 5.36005 92.4998 5.36117 92.3113 5.36285C92.1325 5.41606 91.9543 5.46927 91.7761 5.52303C91.6963 5.54264 91.617 5.5628 91.5372 5.5824C91.4328 5.60929 91.3284 5.63617 91.224 5.66249C91.1721 5.68882 91.1202 5.7157 91.0682 5.74202C91.0141 5.76835 90.9595 5.79523 90.9053 5.82156L90.9086 5.8182C90.831 5.84844 90.7534 5.87812 90.6763 5.90837C90.5746 5.97166 90.473 6.03495 90.3708 6.09824C90.2718 6.1436 90.1729 6.18841 90.0739 6.23378L90.0543 6.2517C90.0275 6.27074 90.0007 6.28922 89.9739 6.30827L89.975 6.30771C89.9504 6.33571 89.9264 6.36315 89.9018 6.39116L89.9001 6.39564C89.8203 6.44605 89.7405 6.49645 89.6607 6.54742C89.6399 6.57543 89.6197 6.60343 89.5989 6.63087C89.4109 6.84202 89.2234 7.05317 89.0354 7.26377C88.9342 7.27105 88.8604 7.30521 88.8834 7.43123L88.8823 7.43403C88.6806 7.48724 88.6598 7.68215 88.5833 7.83337C88.5789 7.86025 88.5746 7.88658 88.5696 7.91346C88.3794 7.9157 88.4253 8.10669 88.3849 8.19966C88.2974 8.40017 88.0914 8.54691 88.1138 8.79727L88.0919 8.78887C88.0706 8.87344 88.0493 8.95801 88.0274 9.04258C87.9962 9.14452 87.9656 9.24701 87.9345 9.34895C87.8891 9.51081 87.8437 9.67211 87.7989 9.83398C87.7366 10.477 87.6251 11.1149 87.6584 11.7663C87.6743 12.0709 87.6491 12.3779 87.6426 12.6842C87.6568 12.7206 87.6705 12.757 87.6847 12.7934C87.6945 12.9234 87.7043 13.0533 87.7136 13.1833C87.7295 13.2135 87.7453 13.2438 87.7612 13.274C87.7962 13.4863 87.8317 13.6991 87.8667 13.9114C87.8809 13.9383 87.8951 13.9657 87.9088 13.9926C87.9984 14.2866 88.0886 14.5807 88.1783 14.8747C88.1996 14.9554 88.2209 15.0354 88.2422 15.1161C88.3554 15.3166 88.4691 15.5171 88.5822 15.7176C88.6134 15.7585 88.6445 15.7988 88.6751 15.8397C88.773 15.9904 88.8708 16.1405 88.9692 16.2912C89.0108 16.3544 89.0518 16.4177 89.0933 16.4816L89.1108 16.5017C89.1573 16.5488 89.2032 16.5953 89.2496 16.6423L89.2671 16.6619C89.3136 16.709 89.3595 16.7555 89.406 16.8025L89.4235 16.8227C89.4776 16.8675 89.5317 16.9117 89.5858 16.9565C89.6126 16.9728 89.6399 16.989 89.6667 17.0053C89.6962 17.0008 89.7137 17.0137 89.7181 17.0439L89.74 17.0529C89.7673 17.0741 89.7946 17.0949 89.8219 17.1162C89.8482 17.1414 89.875 17.1671 89.9012 17.1923C89.9427 17.2226 89.9848 17.2528 90.0264 17.2831C90.0625 17.3211 90.0991 17.3587 90.1352 17.3968C90.1816 17.4124 90.2281 17.4276 90.2746 17.4432L90.2877 17.4483C90.3155 17.4718 90.3429 17.4948 90.3708 17.5183C90.3964 17.5172 90.421 17.5233 90.4435 17.5368C90.4916 17.5592 90.5391 17.5816 90.5872 17.6034L90.6009 17.6085C90.6288 17.632 90.6561 17.6549 90.684 17.6785C90.7097 17.6774 90.7337 17.683 90.7561 17.6953C90.8064 17.7171 90.8572 17.7384 90.9075 17.7602L90.9152 17.7614C90.9442 17.7866 90.9726 17.8112 91.0016 17.8364C91.2071 17.8952 91.4126 17.954 91.6176 18.0128C91.8237 18.0397 92.0292 18.066 92.2353 18.0929C92.2353 18.1142 92.2375 18.1344 92.2424 18.1551C92.3763 18.1489 92.5108 18.1422 92.6447 18.1361L92.6316 18.1523C92.9716 18.1573 93.311 18.1618 93.651 18.1669L93.6428 18.1562C93.8216 18.1551 94.0003 18.154 94.1791 18.1529C94.1851 18.131 94.1927 18.1103 94.2026 18.0901C94.3813 18.0571 94.5595 18.024 94.7382 17.991C94.8405 17.9658 94.9421 17.9406 95.0444 17.9159C95.099 17.8896 95.1531 17.8639 95.2078 17.8375C95.4674 17.7306 95.7265 17.6236 95.9862 17.5166C96.0141 17.4981 96.0419 17.4802 96.0698 17.4617C96.0769 17.4348 96.0939 17.4242 96.1206 17.4298C96.1556 17.4074 96.1901 17.3844 96.2251 17.362L96.2294 17.3598C96.2557 17.3396 96.2819 17.3195 96.3076 17.2987L96.3131 17.2791L96.3322 17.2847L96.3431 17.2584L96.3699 17.2629C96.3994 17.241 96.4289 17.2186 96.4585 17.1968C96.4858 17.1778 96.5126 17.1587 96.5399 17.1397L96.5459 17.1195L96.5661 17.124C96.5847 17.1061 96.6033 17.0887 96.6219 17.0708L96.6252 17.0473L96.6487 17.0439C96.6476 17.0125 96.6629 16.9974 96.6935 16.9991C96.9209 16.77 97.1477 16.5404 97.3751 16.3113L97.3735 16.2799L97.4041 16.2704L97.4057 16.248L97.4276 16.2463C97.4664 16.206 97.5058 16.1663 97.5446 16.1259C97.6408 15.9781 97.737 15.8302 97.8332 15.6818L97.9453 15.5149C97.9507 15.4628 97.9567 15.4113 97.9622 15.3592C97.9835 15.3345 98.0048 15.3099 98.0262 15.2852L98.0344 15.2819C98.059 15.2589 98.083 15.2354 98.1076 15.2124L98.112 15.2007C98.1322 15.1659 98.1519 15.1307 98.1721 15.0959C98.2426 14.924 98.1289 14.8708 98.007 14.8047L98.0119 14.803ZM93.1831 8.30496C93.2121 8.30384 93.2411 8.3072 93.27 8.3156C93.2416 8.3072 93.2126 8.30384 93.1831 8.30496ZM92.3238 5.4351C92.3216 5.4127 92.3184 5.39029 92.3145 5.36789C92.3189 5.39029 92.3216 5.4127 92.3238 5.4351Z" fill="#FFFFFF"/>
<path d="M85.7385 11.3632C85.7216 11.3313 85.7046 11.2988 85.6882 11.2669C85.6549 11.0832 85.621 10.8994 85.5876 10.7157C85.5669 10.6357 85.5461 10.555 85.5253 10.4749C85.5193 10.4486 85.5139 10.4217 85.5078 10.3954C85.4887 10.3394 85.469 10.2839 85.4499 10.2279C85.3143 9.96411 85.1788 9.70088 85.0432 9.43708C85.0208 9.41356 84.9984 9.39003 84.976 9.36651L84.9672 9.35587C84.9443 9.33234 84.9219 9.30938 84.8989 9.28586L84.8885 9.27633C84.8656 9.25281 84.8432 9.22985 84.8202 9.20632L84.8109 9.19568C84.7879 9.17216 84.7655 9.1492 84.7426 9.12567L84.7322 9.11615C84.7098 9.09319 84.6868 9.07078 84.6644 9.04782C84.3998 8.8686 84.1599 8.63616 83.8139 8.63056C83.7592 8.60984 83.7051 8.58912 83.6504 8.56783C83.5198 8.55943 83.3891 8.55103 83.2585 8.54263C83.2377 8.49838 83.2191 8.41773 83.1951 8.41605C82.9016 8.39533 82.6031 8.31524 82.3172 8.46086C82.0833 8.51743 81.8488 8.57343 81.6148 8.63C81.5366 8.65577 81.4579 8.68209 81.3798 8.70785C81.3546 8.71513 81.3289 8.72241 81.3038 8.7297C81.2792 8.75042 81.2546 8.7717 81.2295 8.79242L81.2229 8.80195C81.1693 8.82491 81.1163 8.84843 81.0627 8.8714C81.0376 8.8714 81.0141 8.877 80.9922 8.88932C80.9392 8.93637 80.8862 8.98397 80.8332 9.03102C80.7867 9.05846 80.7397 9.08591 80.6932 9.11279L80.6768 9.11447C80.6489 9.12175 80.6216 9.12903 80.5937 9.13575C80.5888 8.99069 80.5795 8.84507 80.579 8.70001C80.5757 7.50816 80.5735 6.31631 80.5713 5.12445C80.503 5.12333 80.4347 5.12221 80.3658 5.12109C80.3111 5.1435 80.2565 5.16534 80.2024 5.18774C80.1264 5.21351 80.0498 5.23927 79.9739 5.26503C79.8941 5.29248 79.8148 5.32048 79.735 5.34793C79.6842 5.37257 79.6333 5.39777 79.5825 5.42242C79.5284 5.4493 79.4743 5.47562 79.4201 5.50251L79.4234 5.49915C79.3463 5.52883 79.2687 5.55796 79.1917 5.58764L79.1922 5.58708C79.1124 5.61453 79.0326 5.64141 78.9528 5.66885C78.9019 5.6935 78.8517 5.7187 78.8008 5.74334C78.7473 5.76967 78.6937 5.79599 78.6401 5.82232C78.6401 5.82175 78.6407 5.82119 78.6412 5.82007C78.592 5.8296 78.5434 5.83968 78.4942 5.8492C78.4663 5.86768 78.4384 5.8856 78.41 5.90409C78.3307 5.93209 78.2515 5.96066 78.1722 5.98866C78.1214 6.01386 78.0705 6.03851 78.0197 6.06371C77.9661 6.09171 77.912 6.12028 77.8584 6.14828C77.8328 6.14884 77.8087 6.15668 77.7874 6.17181C77.7622 6.16004 77.7371 6.16004 77.7114 6.17181C77.6841 6.19029 77.6562 6.20821 77.6289 6.22669C77.2921 6.28662 77.2659 6.33199 77.3916 6.63499C77.3916 10.2638 77.3916 13.8931 77.3916 17.5218C77.3916 17.6283 77.4015 17.7341 77.4069 17.8405C77.4069 17.8657 77.4064 17.8904 77.4058 17.9156C77.4572 17.9436 77.5081 17.9957 77.5594 17.9962C78.5013 18.0007 79.4431 18.0013 80.3849 17.9951C80.4461 17.9951 80.5074 17.9352 80.5686 17.9027C80.5708 16.0163 80.5735 14.1306 80.5757 12.2442C80.5812 12.2134 80.5861 12.1832 80.5915 12.1524C80.626 12.0471 80.6604 11.9412 80.6949 11.8359C80.7118 11.7978 80.7282 11.7592 80.7451 11.7211C80.7594 11.5424 80.8692 11.4382 81.013 11.3598C81.0573 11.3302 81.1015 11.301 81.1453 11.2713V11.2708C81.1726 11.2501 81.1999 11.2293 81.2273 11.2086C81.4875 11.2355 81.7482 11.2629 82.0084 11.2898C82.0565 11.3122 82.1046 11.3352 82.1527 11.3576C82.491 11.5564 82.4615 11.9026 82.4839 12.228C82.5211 12.2632 82.5577 12.2985 82.5949 12.3338C82.5998 13.8141 82.6042 15.2944 82.6102 16.7753C82.6118 17.1617 82.6211 17.5482 82.6272 17.9341C82.684 17.9559 82.7409 17.9962 82.7977 17.9968C83.7182 18.0007 84.6393 18.0013 85.5598 17.9968C85.6259 17.9968 85.6921 17.9475 85.7582 17.9206C85.7691 17.7761 85.7888 17.6311 85.7893 17.4866C85.7921 15.6327 85.7921 13.7788 85.7926 11.925C85.7833 11.8947 85.774 11.8645 85.7648 11.8342C85.7566 11.6774 85.7484 11.52 85.7407 11.3632H85.7385Z" fill="#FFFFFF"/>
<path d="M146.62 11.3584C146.603 11.3293 146.586 11.2996 146.57 11.2705C146.542 11.061 146.513 10.8516 146.486 10.6415C146.437 10.5586 146.383 10.4791 146.343 10.3923C146.309 10.3161 146.292 10.2321 146.267 10.1515C146.238 9.82605 146.028 9.60033 145.852 9.35614C145.829 9.33318 145.806 9.31077 145.784 9.28781L145.773 9.27661C145.75 9.25308 145.728 9.23012 145.706 9.2066L145.696 9.19652C145.673 9.17355 145.65 9.15059 145.627 9.12763L145.616 9.11642C145.594 9.09346 145.572 9.0705 145.55 9.04753C145.135 8.72157 144.678 8.51826 144.143 8.54346C144.121 8.5177 144.098 8.49137 144.076 8.46561L144.074 8.46337C143.784 8.46225 143.493 8.46169 143.202 8.46057C142.968 8.51658 142.734 8.57259 142.5 8.62915C142.42 8.6566 142.34 8.68404 142.26 8.71149C142.235 8.71149 142.211 8.71709 142.189 8.72941C142.164 8.75013 142.139 8.77141 142.114 8.79214L142.108 8.79942C142.055 8.8235 142.002 8.84759 141.948 8.87167C141.923 8.87167 141.899 8.87727 141.878 8.88959C141.825 8.9372 141.772 8.98424 141.719 9.03185V9.03241C141.67 9.05986 141.622 9.0873 141.574 9.11418L141.556 9.11138C141.531 9.11642 141.506 9.12203 141.481 9.12707C141.472 8.99489 141.457 8.86327 141.456 8.73109C141.454 7.63837 141.456 6.54621 141.453 5.45349C141.453 5.32244 141.434 5.19082 141.423 5.05976C141.364 5.05528 141.305 5.05136 141.245 5.04688C141.169 5.09616 141.094 5.14545 141.018 5.19474C140.992 5.1981 140.965 5.20146 140.939 5.20482C140.911 5.2261 140.884 5.24738 140.856 5.26811L140.858 5.26587C140.778 5.29331 140.698 5.32075 140.619 5.34876C140.568 5.37396 140.518 5.39917 140.467 5.42437C140.39 5.45461 140.313 5.4843 140.236 5.51454C140.21 5.5179 140.184 5.52126 140.157 5.52462C140.13 5.54591 140.102 5.56719 140.075 5.58847L140.076 5.58679C139.996 5.61424 139.916 5.64112 139.836 5.66856C139.786 5.69377 139.736 5.71897 139.686 5.74474C139.555 5.79906 139.424 5.85395 139.293 5.90828L139.294 5.9066C139.214 5.93404 139.134 5.96149 139.054 5.98837C139.004 6.01413 138.954 6.03934 138.904 6.0651C138.773 6.11943 138.643 6.17376 138.511 6.22809L138.513 6.22697C138.44 6.25609 138.367 6.28465 138.294 6.31378C138.287 6.41963 138.274 6.52493 138.274 6.63078C138.273 10.2747 138.273 13.9191 138.274 17.563C138.274 17.6554 138.284 17.7484 138.29 17.8408C138.288 17.8666 138.288 17.8923 138.287 17.9181C138.338 17.9455 138.39 17.9965 138.442 17.9965C139.386 18.0016 140.329 18.0021 141.273 17.996C141.332 17.996 141.391 17.9327 141.45 17.8985C141.452 16.1292 141.452 14.3593 141.456 12.5895C141.456 12.4455 141.477 12.301 141.488 12.1571C141.512 12.0731 141.536 11.9891 141.559 11.9051C141.553 11.8793 141.558 11.8563 141.575 11.8367C141.592 11.797 141.61 11.7572 141.627 11.7174C141.643 11.6766 141.658 11.6357 141.673 11.5942C141.69 11.5724 141.706 11.55 141.723 11.5281L141.732 11.5186C141.755 11.4951 141.778 11.471 141.8 11.4475L141.809 11.4385C141.833 11.4167 141.856 11.3943 141.879 11.3724L141.896 11.3612C141.968 11.3103 142.04 11.2593 142.112 11.2089L142.892 11.2907C142.94 11.3136 142.987 11.3366 143.035 11.3595L143.048 11.3668C143.074 11.3892 143.1 11.4122 143.126 11.4346C143.319 11.6939 143.422 11.9874 143.444 12.3117C143.457 12.3436 143.469 12.3755 143.482 12.4069C143.486 13.932 143.49 15.4571 143.495 16.9828C143.496 17.3003 143.507 17.6185 143.513 17.936C143.557 17.9567 143.602 17.996 143.646 17.996C144.589 17.9999 145.532 18.0004 146.475 17.9954C146.524 17.9954 146.574 17.9377 146.623 17.9063C146.626 16.6686 146.632 15.4308 146.631 14.193C146.631 13.2481 146.623 12.3033 146.62 11.3584Z" fill="#FFFFFF"/>
<path d="M116.326 8.99341C116.326 8.901 116.316 8.80858 116.31 8.71617C116.223 8.68873 116.136 8.63832 116.049 8.63776C115.326 8.6316 114.603 8.6316 113.88 8.63552C113.65 8.63664 113.419 8.65512 113.189 8.6652C113.174 8.79346 113.147 8.92116 113.146 9.04886C113.144 10.6076 113.145 12.1668 113.144 13.7255C113.144 14.1137 113.148 14.4889 112.977 14.8692C112.78 15.3055 112.157 15.5884 111.734 15.3464C111.723 15.3403 111.715 15.3285 111.706 15.319C111.68 15.3139 111.664 15.2982 111.66 15.2714L111.632 15.259C111.605 15.2389 111.579 15.2182 111.553 15.198C111.526 15.17 111.499 15.1414 111.471 15.1134C111.45 15.0865 111.428 15.0602 111.407 15.0339L111.399 15.0182C111.369 15.0109 111.36 14.9924 111.371 14.9628C111.351 14.9359 111.331 14.9084 111.312 14.881C111.266 14.7998 111.221 14.7191 111.175 14.6379C111.171 12.9549 111.167 11.2718 111.16 9.58878C111.159 9.32386 111.148 9.0595 111.142 8.79458C111.142 8.7677 111.142 8.74138 111.142 8.71449C111.12 8.71617 111.098 8.71897 111.076 8.72289C111.098 8.71841 111.12 8.71561 111.142 8.71449C111.093 8.68761 111.045 8.63776 110.996 8.63776C110.009 8.63776 109.021 8.6428 108.034 8.64672C108.016 8.67305 107.998 8.69937 107.98 8.72569C107.978 9.0175 107.975 9.30874 107.974 9.60054C107.971 11.3766 107.968 13.1531 107.965 14.9292C107.981 14.9656 107.997 15.0014 108.013 15.0378C108.02 15.7564 108.154 16.4363 108.584 17.0278C108.605 17.0591 108.627 17.0899 108.649 17.1213L108.653 17.1308C108.675 17.1801 108.697 17.2294 108.72 17.2787C108.829 17.3907 108.939 17.5033 109.048 17.6153C109.083 17.6338 109.119 17.6523 109.154 17.6707L109.185 17.6663L109.203 17.692C109.232 17.7128 109.262 17.734 109.291 17.7548C109.341 17.7839 109.391 17.813 109.441 17.8427C109.488 17.8696 109.536 17.8959 109.584 17.9228L109.595 17.9267C109.623 17.9502 109.652 17.9743 109.68 17.9978C109.729 18.0046 109.779 18.0113 109.829 18.018C109.885 18.037 109.94 18.0561 109.996 18.0751C110.041 18.0774 110.087 18.0796 110.133 18.0824C110.293 18.1076 110.454 18.1328 110.613 18.158C110.871 18.1558 111.128 18.1541 111.385 18.1519C111.491 18.1311 111.598 18.111 111.704 18.0903C111.833 18.0578 111.962 18.0247 112.091 17.9922C112.144 17.9726 112.198 17.953 112.251 17.9334C112.276 17.9295 112.302 17.9261 112.327 17.9222L112.333 17.92C112.383 17.8931 112.432 17.8662 112.482 17.8393C112.587 17.7861 112.692 17.7324 112.797 17.6792C112.823 17.6623 112.848 17.645 112.874 17.6282C112.884 17.6002 112.905 17.5879 112.934 17.5918C112.963 17.5655 112.992 17.5391 113.021 17.5122C113.056 17.5078 113.091 17.5038 113.127 17.4994C113.124 17.533 113.122 17.5666 113.12 17.5996C113.126 17.7038 113.132 17.808 113.138 17.9127C113.182 17.9418 113.226 17.9967 113.269 17.9967C114.217 18.0018 115.164 18.0023 116.112 17.9967C116.178 17.9967 116.243 17.9452 116.308 17.9172C116.308 17.892 116.308 17.8662 116.307 17.841C116.313 17.7486 116.324 17.6562 116.324 17.5638C116.325 14.7068 116.325 11.8504 116.324 8.99341H116.326Z" fill="#FFFFFF"/>
<path d="M134.329 14.5715C134.303 14.6152 134.29 14.6667 134.272 14.7143C134.252 14.7367 134.232 14.7597 134.213 14.7821L134.203 14.7921C134.181 14.8157 134.158 14.8392 134.136 14.8633L134.127 14.8728C134.104 14.8963 134.081 14.9198 134.057 14.9439L134.043 14.9518C134.021 14.9725 133.998 14.9932 133.977 15.0139C133.951 15.0464 133.926 15.0783 133.901 15.1108C133.876 15.1372 133.851 15.1635 133.827 15.1898L133.819 15.1954C133.793 15.2178 133.769 15.2397 133.744 15.2621L133.731 15.2733C133.711 15.2873 133.691 15.3013 133.672 15.3153C133.542 15.3567 133.412 15.3987 133.282 15.4396C132.756 15.6059 132.275 15.3937 132.053 14.8767C131.953 14.6454 131.891 14.3978 131.811 14.1576C131.812 14.1032 131.812 14.0489 131.814 13.9952C131.812 13.542 131.81 13.0895 131.809 12.6364C131.809 12.5821 131.808 12.5283 131.808 12.474L132.042 11.6747C132.063 11.6473 132.084 11.6198 132.105 11.5924H132.104C132.131 11.5666 132.157 11.5398 132.182 11.5134C132.339 11.3841 132.496 11.2547 132.653 11.1253C132.706 11.1253 132.758 11.1253 132.81 11.1259C132.888 11.1259 132.966 11.1253 133.044 11.1247C133.125 11.1466 133.207 11.1684 133.289 11.1903C133.365 11.2149 133.442 11.239 133.519 11.2636C133.564 11.295 133.61 11.3269 133.656 11.3583L133.667 11.3689C133.689 11.3919 133.711 11.4149 133.734 11.4378L133.745 11.449C133.767 11.472 133.79 11.4949 133.812 11.5179L133.823 11.5291C133.843 11.551 133.863 11.5722 133.882 11.5941C133.916 11.6478 133.949 11.7022 133.983 11.7559C134.017 11.8097 134.052 11.8635 134.088 11.9178C134.104 11.9458 134.121 11.9733 134.137 12.0013C134.151 12.0248 134.164 12.0477 134.178 12.0713C134.243 12.2012 134.317 12.2998 134.474 12.1827C134.567 12.1144 134.667 12.0567 134.765 11.994C134.792 11.9738 134.818 11.9542 134.845 11.9341L134.862 11.9189C134.883 11.8982 134.904 11.8775 134.925 11.8568L134.94 11.8405C134.983 11.8092 135.027 11.7778 135.071 11.747C135.167 11.6708 135.263 11.5946 135.358 11.5185C135.394 11.4927 135.431 11.4669 135.467 11.4412L135.476 11.4367C135.501 11.4165 135.526 11.3969 135.55 11.3773L135.566 11.3605C135.609 11.3292 135.653 11.2978 135.697 11.2664C135.793 11.1903 135.889 11.1141 135.984 11.0379C136.019 11.0088 136.054 10.9802 136.09 10.9511C136.099 10.9265 136.108 10.9018 136.117 10.8772C136.161 10.852 136.205 10.8262 136.249 10.801L136.253 10.792C136.307 10.6856 136.362 10.5792 136.417 10.4722C136.016 9.80238 135.495 9.25798 134.82 8.87489C134.777 8.85417 134.734 8.83344 134.69 8.81272C134.612 8.77911 134.534 8.74495 134.455 8.71134C134.403 8.69118 134.35 8.67158 134.298 8.65142C134.222 8.64413 134.147 8.63685 134.071 8.62957C134.016 8.60885 133.961 8.58813 133.907 8.5674C133.881 8.56236 133.855 8.55676 133.829 8.55172C133.726 8.53268 133.623 8.5142 133.52 8.49515C133.495 8.48619 133.47 8.47779 133.444 8.46883C133.379 8.44475 133.313 8.40218 133.247 8.4005C132.996 8.3949 132.746 8.40218 132.495 8.40498C132.468 8.42682 132.442 8.44867 132.416 8.47107L132.42 8.46715C132.288 8.47555 132.156 8.48395 132.024 8.49179C131.705 8.57524 131.376 8.62397 131.091 8.81104C131.014 8.8312 130.937 8.85136 130.86 8.87153L130.855 8.88105C130.806 8.90513 130.756 8.92866 130.707 8.95274L130.698 8.96674C130.647 8.98858 130.595 9.01099 130.544 9.03283C130.517 9.05915 130.49 9.08548 130.463 9.1118C130.412 9.13869 130.36 9.16501 130.309 9.19189C130.282 9.22382 130.256 9.25518 130.229 9.28711C130.188 9.31063 130.147 9.33471 130.106 9.35824C129.967 9.50106 129.827 9.64332 129.688 9.78614C129.623 9.86343 129.558 9.94016 129.493 10.0175C129.506 10.0203 129.517 10.0219 129.529 10.0236C129.551 10.0264 129.57 10.0259 129.586 10.0236C129.602 10.0208 129.615 10.0163 129.627 10.0091C129.638 10.0018 129.647 9.99337 129.654 9.98329C129.661 9.97265 129.666 9.96088 129.671 9.948C129.666 9.96088 129.661 9.97321 129.654 9.98329C129.647 9.99337 129.637 10.0023 129.627 10.0091C129.616 10.0158 129.602 10.0208 129.586 10.0236C129.57 10.0264 129.551 10.0264 129.529 10.0236C129.518 10.0225 129.506 10.0203 129.493 10.0175L129.471 10.0432C129.441 10.1082 129.411 10.1732 129.381 10.2376L129.375 10.246C129.278 10.2913 129.198 10.3473 129.244 10.4778C129.234 10.5025 129.224 10.5277 129.214 10.5523C129.192 10.5798 129.172 10.6072 129.15 10.6347C129.145 10.661 129.141 10.6868 129.136 10.7131C128.956 10.7976 128.968 10.9533 128.994 11.1141C128.989 11.1399 128.984 11.1656 128.978 11.1914C128.931 11.2732 128.883 11.3549 128.836 11.4367C128.821 11.5442 128.805 11.6523 128.79 11.7599C128.776 11.7867 128.762 11.8136 128.748 11.8411C128.743 11.9195 128.739 11.9985 128.734 12.0769C128.713 12.1049 128.691 12.1334 128.67 12.1614C128.67 12.9304 128.67 13.6989 128.67 14.4679C128.693 14.4975 128.716 14.5272 128.739 14.5575C128.743 14.632 128.747 14.707 128.751 14.7815C128.768 14.8134 128.785 14.8454 128.801 14.8767C128.836 15.0341 128.87 15.1915 128.905 15.3489C128.926 15.4318 128.947 15.5147 128.967 15.5975C128.992 15.653 129.018 15.7084 129.043 15.7639C129.153 16.0025 129.261 16.2411 129.371 16.4791C129.418 16.5323 129.466 16.5855 129.514 16.6387C129.545 16.6735 129.575 16.7082 129.606 16.7429C129.628 16.7625 129.65 16.7821 129.672 16.8017L129.681 16.8112C129.704 16.8348 129.727 16.8583 129.749 16.8818L129.759 16.8913C129.782 16.9149 129.805 16.9384 129.827 16.9619L129.837 16.972C129.86 16.9955 129.883 17.0185 129.906 17.042L129.915 17.0515C129.938 17.075 129.961 17.0986 129.984 17.1221L129.993 17.1316C130.016 17.1551 130.039 17.1787 130.062 17.2022L130.071 17.2117C130.094 17.2352 130.117 17.2587 130.14 17.2823L130.15 17.2923C130.176 17.3142 130.202 17.3366 130.227 17.3584L130.233 17.3612C130.275 17.3898 130.317 17.4178 130.36 17.4464L130.38 17.4413L130.387 17.4609C130.413 17.4794 130.439 17.4985 130.464 17.5169L130.468 17.5192C130.507 17.5472 130.546 17.5746 130.585 17.6026C130.624 17.6323 130.662 17.6626 130.7 17.6922C130.766 17.7158 130.832 17.7393 130.898 17.7628C130.936 17.7925 130.974 17.8222 131.012 17.8524C131.093 17.8732 131.175 17.8939 131.255 17.9152C131.46 18.0798 131.702 18.0888 131.946 18.0916C132.108 18.1061 132.27 18.1207 132.432 18.1353L132.419 18.1515C132.758 18.1594 133.096 18.1672 133.434 18.175C133.774 18.0905 134.115 18.0059 134.455 17.9213C134.531 17.8933 134.606 17.8647 134.681 17.8367C134.783 17.7824 134.885 17.7281 134.987 17.6738C135.016 17.6519 135.046 17.6295 135.076 17.6077L135.091 17.6021C135.113 17.5808 135.135 17.5595 135.158 17.5382L135.163 17.5209C135.186 17.4985 135.209 17.4761 135.233 17.4537C135.258 17.4492 135.283 17.4441 135.309 17.4396C135.336 17.4172 135.363 17.3954 135.39 17.373L135.4 17.3629C135.423 17.3394 135.446 17.3159 135.469 17.2923L135.478 17.2834C135.525 17.2526 135.571 17.2212 135.617 17.1904C135.731 17.0605 135.843 16.9305 135.956 16.8006C135.977 16.7776 135.996 16.7552 136.016 16.7323L136.025 16.7233C136.048 16.6998 136.071 16.6763 136.094 16.6527L136.104 16.6427C136.126 16.6163 136.149 16.5906 136.171 16.5642C136.191 16.5323 136.211 16.5004 136.231 16.4679L136.225 16.4427L136.252 16.4354L136.253 16.4125L136.274 16.4074C136.314 16.3688 136.353 16.3301 136.393 16.292C136.383 16.2691 136.39 16.2523 136.412 16.2422C136.434 16.2114 136.456 16.1806 136.477 16.1498C136.512 16.0674 136.546 15.9851 136.582 15.9011C135.985 15.4306 135.396 14.9675 134.808 14.5003C134.521 14.2724 134.505 14.2718 134.328 14.5748L134.329 14.5715Z" fill="#FFFFFF"/>
<path d="M136.09 10.9531C136.09 10.9531 136.09 10.9531 136.09 10.9536C136.09 10.9536 136.09 10.9536 136.09 10.9541L136.091 10.9531H136.09Z" fill="#FFFFFF"/>
<path d="M106.317 8.71595C106.265 8.69578 106.213 8.67618 106.161 8.65602C106.032 8.62241 105.903 8.58881 105.774 8.5552C105.668 8.53168 105.562 8.50816 105.457 8.48463L105.461 8.47287C105.222 8.48071 104.983 8.48855 104.744 8.49639C104.632 8.54456 104.522 8.61233 104.402 8.59721C104.522 8.61233 104.631 8.544 104.744 8.49639C104.741 8.46895 104.739 8.44151 104.736 8.41406C104.633 8.43647 104.529 8.45495 104.428 8.48295C104.376 8.49695 104.329 8.52776 104.28 8.55128C104.228 8.57817 104.176 8.60449 104.124 8.63137C104.072 8.65938 104.019 8.68682 103.966 8.71483L103.968 8.71315C103.863 8.76299 103.697 8.6941 103.661 8.87781L103.657 8.88565C103.605 8.90917 103.553 8.93326 103.502 8.95678L103.5 8.95846C103.475 8.98479 103.45 9.01055 103.424 9.03687L103.422 9.04135C103.4 9.06712 103.379 9.09288 103.357 9.11864C103.307 9.13657 103.257 9.15449 103.206 9.17241C103.203 9.12761 103.2 9.0828 103.198 9.03799C103.187 8.9327 103.177 8.8274 103.166 8.72211C102.158 8.72379 101.149 8.72547 100.141 8.72659C100.117 8.75011 100.094 8.77419 100.07 8.79772C100.065 8.89013 100.055 8.98254 100.055 9.07552C100.055 11.9062 100.055 14.7363 100.055 17.5669C100.055 17.6593 100.064 17.7523 100.069 17.8447C100.068 17.8722 100.065 17.8996 100.064 17.927C100.105 17.9522 100.146 17.9987 100.187 17.9993C101.132 18.0038 102.077 18.0049 103.023 17.9999C103.073 17.9999 103.123 17.9438 103.174 17.9142C103.177 16.2754 103.18 14.6366 103.184 12.9983C103.184 12.8527 103.197 12.7071 103.204 12.5615C103.205 12.5083 103.206 12.4545 103.206 12.4013C103.257 12.2417 103.308 12.082 103.359 11.9224C103.403 11.886 103.447 11.8496 103.491 11.8132C103.557 11.7432 103.623 11.6737 103.69 11.6037C103.784 11.5533 103.878 11.5029 103.971 11.4525C103.997 11.4525 104.022 11.4514 104.049 11.4514C104.287 11.4553 104.536 11.3494 104.759 11.518C105.032 11.5645 105.519 11.8742 105.771 12.1599C105.795 12.1621 105.819 12.1599 105.843 12.152C105.847 12.086 105.84 12.0176 105.857 11.9549C105.954 11.5864 106.072 11.2234 106.155 10.8515C106.279 10.2875 106.351 9.70897 106.504 9.15393C106.574 8.90077 106.533 8.79492 106.317 8.71707V8.71595Z" fill="#FFFFFF"/>
<path d="M58.276 8.63048C58.3405 8.63048 58.405 8.57671 58.4695 8.54815C58.4848 8.52238 58.4826 8.49774 58.464 8.47422C58.4427 8.4955 58.4214 8.51622 58.4001 8.53751C57.9125 8.54031 57.4249 8.54255 56.9368 8.54535C57.4244 8.54255 57.9119 8.54031 58.4001 8.53751C58.4214 8.51622 58.4427 8.4955 58.464 8.47422V5.67213C58.4646 5.64637 58.4657 5.62116 58.4662 5.5954C58.3372 5.5674 58.2082 5.51531 58.0792 5.51531C54.9788 5.51083 51.8789 5.51139 48.7785 5.51251C48.6489 5.51251 48.5199 5.52763 48.3904 5.53547C48.3773 5.56012 48.3641 5.58476 48.3516 5.6094C48.3516 6.58506 48.3516 7.56072 48.3516 8.53639C48.4254 8.71169 48.5762 8.6288 48.6899 8.62992C49.6602 8.64112 50.6299 8.6428 51.6001 8.64728C51.6225 8.63888 51.6455 8.63496 51.6695 8.63552C51.6695 8.66128 51.6695 8.68761 51.6701 8.71337C51.675 8.85955 51.6843 9.00573 51.6843 9.15191C51.6854 11.9249 51.6843 14.6973 51.6854 17.4702C51.6854 17.6164 51.693 17.7632 51.6974 17.9093C51.7472 17.939 51.7969 17.995 51.8472 17.995C52.865 18.0001 53.8828 18.0006 54.9006 17.995C54.9624 17.995 55.0236 17.9345 55.0848 17.9021C55.0881 17.7559 55.0941 17.6091 55.0941 17.4624C55.0947 14.662 55.0941 11.8616 55.0952 9.06062C55.0952 8.91444 55.1061 8.76826 55.1116 8.62208C56.1666 8.626 57.221 8.63104 58.276 8.62936V8.63048ZM51.4618 8.57951C51.5307 8.59687 51.6001 8.6204 51.669 8.63664C51.5996 8.6204 51.5307 8.59631 51.4618 8.57951Z" fill="#FFFFFF"/>
<path d="M126.865 17.9147C126.853 15.6273 126.841 13.34 126.829 11.0526C126.817 11.0201 126.806 10.9876 126.794 10.9551C126.784 10.9008 126.773 10.8465 126.764 10.7921C126.748 10.7664 126.732 10.7401 126.716 10.7143C126.685 10.6079 126.654 10.5009 126.624 10.3945C126.601 10.3166 126.579 10.2393 126.556 10.1615L126.554 10.1553C126.529 10.1038 126.504 10.0523 126.479 10.0007C126.468 9.97106 126.458 9.94194 126.447 9.91225C126.432 9.88873 126.416 9.86521 126.401 9.84168L126.397 9.83496C126.372 9.78344 126.348 9.73191 126.323 9.68038C126.312 9.6507 126.301 9.62157 126.29 9.59189C126.276 9.57565 126.261 9.5594 126.247 9.54316C126.119 9.39866 125.992 9.25472 125.864 9.11022C125.835 9.08725 125.807 9.06373 125.779 9.04077L125.767 9.03573C125.743 9.01612 125.72 8.99652 125.697 8.97692L125.679 8.95844C125.634 8.93043 125.59 8.90243 125.545 8.87498C125.356 8.74617 125.169 8.61343 124.925 8.63079C124.871 8.60951 124.817 8.58878 124.763 8.5675C124.737 8.5619 124.712 8.55686 124.687 8.55126C124.582 8.52773 124.477 8.50477 124.373 8.48125L124.375 8.46893C124.06 8.35187 123.744 8.35803 123.428 8.46388C123.195 8.52605 122.962 8.58878 122.729 8.65095C122.652 8.67111 122.575 8.69184 122.499 8.712L122.493 8.72432C122.444 8.74729 122.395 8.77025 122.346 8.79321L122.339 8.80777C122.237 8.8565 122.135 8.90467 122.033 8.9534C122.033 8.9534 122.026 8.9674 122.025 8.9674C121.972 8.98924 121.919 9.01164 121.866 9.03349C121.868 9.05981 121.869 9.08557 121.871 9.1119C121.81 9.10798 121.676 9.2396 121.726 9.02957C121.718 8.95059 121.709 8.87218 121.701 8.79321C121.683 8.74673 121.664 8.69968 121.646 8.65319C121.643 8.67784 121.64 8.70192 121.635 8.726C121.64 8.70192 121.643 8.67728 121.646 8.65319C120.627 8.65039 119.608 8.64815 118.589 8.64535C118.571 8.67167 118.552 8.698 118.534 8.72432C118.534 11.7846 118.534 14.8449 118.533 17.9052C119.567 17.9052 120.601 17.9052 121.634 17.9052C121.634 17.9052 121.638 17.9063 121.644 17.908L121.634 17.9052C120.6 17.9052 119.566 17.9052 118.533 17.9052C118.595 17.9365 118.657 17.9942 118.719 17.9948C119.65 18.0004 120.581 18.0004 121.512 17.9948C121.576 17.9948 121.641 17.9416 121.705 17.9136C121.705 17.9136 121.696 17.9136 121.687 17.9136C121.678 17.9136 121.669 17.9136 121.669 17.9136L121.646 17.9069C121.657 17.9097 121.669 17.9136 121.669 17.9136H121.687L121.705 17.9125C121.721 17.8861 121.72 17.8615 121.701 17.8374C121.706 17.414 121.713 16.99 121.715 16.5666C121.721 15.0958 121.724 13.625 121.729 12.1548C121.728 12.1005 121.727 12.0467 121.727 11.9924C121.752 11.9129 121.778 11.8333 121.804 11.7532C121.825 11.7247 121.846 11.6956 121.867 11.667C121.887 11.6429 121.907 11.6194 121.927 11.5953C121.961 11.5438 121.994 11.4922 122.028 11.4402L122.033 11.434C122.057 11.4138 122.081 11.3931 122.105 11.3729L122.114 11.3539L122.134 11.3606C122.2 11.3298 122.267 11.2985 122.334 11.2677H122.335C122.414 11.248 122.493 11.229 122.572 11.2094C122.755 11.234 122.938 11.2581 123.122 11.2828C123.171 11.3069 123.219 11.3309 123.269 11.355L123.277 11.3606C123.315 11.3858 123.353 11.4116 123.391 11.4368C123.405 11.462 123.419 11.4878 123.433 11.513C123.453 11.5398 123.473 11.5667 123.493 11.5936C123.52 11.5992 123.529 11.616 123.522 11.6435C123.538 11.6804 123.554 11.7168 123.571 11.7538C123.577 11.7796 123.583 11.8059 123.589 11.8317C123.616 11.8854 123.643 11.9386 123.67 11.9924C123.679 12.0232 123.688 12.054 123.697 12.0848L123.671 12.0775C123.684 12.2321 123.697 12.3867 123.71 12.5413C123.721 12.5732 123.731 12.6057 123.742 12.6376C123.745 12.9042 123.749 13.1708 123.75 13.4374C123.754 14.9037 123.757 16.37 123.761 17.8363C123.782 17.8592 123.805 17.8828 123.827 17.9057C123.805 17.8822 123.782 17.8592 123.761 17.8363C123.758 17.862 123.756 17.8878 123.753 17.9136C123.819 17.9416 123.885 17.9942 123.951 17.9942C124.857 17.9998 125.764 17.9998 126.67 17.9942C126.735 17.9942 126.8 17.9416 126.864 17.9136L126.865 17.9147ZM118.59 8.68176C118.591 8.69352 118.592 8.70584 118.596 8.7176C118.593 8.70584 118.591 8.69408 118.59 8.68176ZM123.801 17.913L123.809 17.9113C123.809 17.9113 123.803 17.9125 123.801 17.913Z" fill="#FFFFFF"/>
<path d="M103.166 8.71887C103.131 8.69143 103.097 8.64046 103.062 8.64046C102.101 8.63598 101.14 8.63542 100.179 8.63934C100.142 8.63934 100.106 8.68807 100.068 8.71383C100.068 8.74072 100.069 8.7676 100.07 8.79448C100.094 8.77096 100.117 8.74688 100.141 8.72335C101.149 8.72167 102.158 8.72055 103.166 8.71887Z" fill="#FFFFFF"/>
<path d="M143.203 8.46278C143.494 8.4639 143.785 8.46446 144.076 8.46558C143.785 8.3334 143.494 8.34684 143.203 8.46278Z" fill="#FFFFFF"/>
<path d="M105.461 8.47287C105.219 8.45327 104.978 8.43367 104.736 8.41406C104.739 8.44151 104.741 8.46895 104.744 8.49639C104.983 8.48855 105.222 8.48071 105.461 8.47287Z" fill="#FFFFFF"/>
<path d="M61.8351 18.2316C61.8668 18.2036 61.8979 18.175 61.9296 18.147C61.7684 18.1252 61.6066 18.1039 61.4453 18.082C61.453 18.1056 61.4601 18.1285 61.4677 18.1515C61.5902 18.1778 61.7126 18.2047 61.8351 18.231V18.2316Z" fill="#FFFFFF"/>
<path d="M110.535 18.1784C110.563 18.17 110.591 18.1621 110.619 18.1537C110.458 18.1285 110.298 18.1033 110.139 18.0781C110.271 18.1117 110.403 18.1448 110.535 18.1784Z" fill="#FFFFFF"/>
<path d="M63.3336 18.0898C63.1674 18.1061 63.0007 18.1223 62.834 18.1386C62.9958 18.1447 63.157 18.1515 63.3188 18.1576C63.3259 18.1358 63.3309 18.1128 63.3336 18.0898Z" fill="#FFFFFF"/>
<path d="M75.5165 15.772L75.5077 15.763C75.4858 15.7434 75.464 15.7243 75.4421 15.7047C75.2885 15.5882 75.1355 15.4718 74.9819 15.3553C74.9534 15.3312 74.9245 15.3065 74.896 15.2824L74.8911 15.2796C74.8654 15.2572 74.8392 15.2348 74.8135 15.2124L74.8031 15.2029C74.7802 15.1805 74.7572 15.1575 74.7348 15.1351L74.7228 15.1234C74.6763 15.0954 74.6298 15.0674 74.5834 15.0394C74.4817 14.9582 74.3806 14.8764 74.2789 14.7952C74.2499 14.7705 74.221 14.7464 74.192 14.7218L74.1882 14.7196C74.1625 14.6972 74.1362 14.6742 74.1105 14.6518L74.1013 14.6423C74.0783 14.6187 74.0553 14.5958 74.0318 14.5723L74.0214 14.5627C73.9744 14.5336 73.9274 14.5045 73.8804 14.4754C73.8536 14.4496 73.8263 14.4244 73.7995 14.3986C73.5967 14.3012 73.5683 14.3236 73.4918 14.64C73.412 14.7459 73.3322 14.8517 73.2524 14.9576C73.2152 14.9878 73.1775 15.0181 73.1403 15.0483L73.1086 15.0478L73.1037 15.0797C73.0714 15.1178 73.0392 15.1559 73.0075 15.194C72.9331 15.2511 72.8582 15.3088 72.7839 15.3659C72.4723 15.4219 72.1608 15.4785 71.8492 15.5345C71.794 15.5031 71.7388 15.4712 71.6836 15.4398C71.6344 15.4157 71.5852 15.3922 71.5354 15.3681L71.5196 15.3603C71.4983 15.3418 71.4769 15.3228 71.4562 15.3043L71.4545 15.2813L71.4321 15.2796C71.4141 15.2572 71.396 15.2348 71.378 15.2124C71.1331 14.8741 70.9926 14.4922 70.9232 14.08C70.9232 14.0256 70.9232 13.9713 70.9238 13.917C70.9139 13.4902 70.9041 13.0628 70.8937 12.6361C70.8942 12.6103 70.8953 12.5845 70.8959 12.5588C70.9265 12.3997 70.9576 12.2406 70.9883 12.0816C71.0068 12.0541 71.0254 12.0273 71.0446 11.9998L71.1566 11.6783C71.2003 11.6408 71.2441 11.6038 71.2878 11.5663C71.3714 11.33 71.5649 11.2207 71.7721 11.1272L71.7645 11.0975C71.8191 11.0981 71.8738 11.0986 71.9284 11.0992L71.9219 11.1283C72.0022 11.1278 72.082 11.1266 72.1624 11.1261L72.1547 11.0964C72.2329 11.1042 72.3116 11.1126 72.3898 11.1205C72.3914 11.1451 72.3958 11.1686 72.4029 11.1922L72.4373 11.1944L72.4701 11.1827C72.5811 11.242 72.7221 11.2756 72.7976 11.3658C73.0217 11.6358 73.2201 11.9281 73.4426 12.2317C73.5295 12.1824 73.6246 12.1281 73.7203 12.0737C73.7465 12.048 73.7727 12.0222 73.7984 11.997L73.7995 11.9959C73.8515 11.9724 73.9039 11.9488 73.9559 11.9248C73.9794 11.8945 74.0029 11.8648 74.0269 11.8346C74.1073 11.7814 74.1876 11.7282 74.268 11.675C74.2937 11.6481 74.3194 11.6206 74.345 11.5938C74.3713 11.568 74.3975 11.5422 74.4232 11.517L74.4243 11.5159C74.4757 11.4885 74.5265 11.4605 74.5779 11.433L74.5774 11.4341C74.6572 11.3591 74.7364 11.2846 74.8162 11.2095L74.8365 11.2011C74.8813 11.1737 74.9256 11.1462 74.9704 11.1188C74.9955 11.0914 75.0207 11.0634 75.0458 11.0359C75.0983 11.0085 75.1513 10.9805 75.2038 10.953C75.283 10.8763 75.3618 10.8001 75.441 10.7234C75.4705 10.6405 75.5006 10.5582 75.5301 10.4753C75.4093 10.2888 75.2891 10.1017 75.1683 9.91519C75.1551 9.89951 75.1415 9.88382 75.1284 9.86814C74.943 9.68779 74.7594 9.50521 74.5713 9.32766C74.1761 8.95465 73.7378 8.67013 73.1818 8.63316C73.1277 8.613 73.0742 8.59228 73.02 8.57211C72.9927 8.56651 72.9654 8.56035 72.938 8.55475C72.8369 8.53627 72.7358 8.51779 72.6347 8.49986C72.609 8.49034 72.5827 8.48082 72.5565 8.4713C72.2477 8.32064 71.923 8.43153 71.6065 8.40913C71.6098 8.43097 71.6114 8.45338 71.6109 8.47522C71.6109 8.45282 71.6098 8.43097 71.6065 8.40913C71.5808 8.43097 71.5556 8.45338 71.53 8.47522L71.5327 8.47242C71.3742 8.50042 71.2162 8.52843 71.0577 8.55643C71.0314 8.55419 71.0063 8.55979 70.9833 8.57267C70.9587 8.55755 70.9341 8.55699 70.909 8.57155C70.6422 8.55755 70.4313 8.71269 70.2033 8.81575C70.1268 8.83535 70.0503 8.85551 69.9732 8.87512L69.9672 8.88632C69.9191 8.90984 69.8704 8.93393 69.8223 8.95745L69.8119 8.97649C69.7682 8.99778 69.7239 9.01906 69.6802 9.04034C69.6622 9.05882 69.6529 9.08067 69.6534 9.10699C69.6015 9.13556 69.549 9.16412 69.4971 9.19268C69.4971 9.19268 69.4971 9.19212 69.4971 9.19156C69.4096 9.24925 69.3216 9.30694 69.2342 9.36463C69.25 9.36575 69.2653 9.36631 69.2801 9.36519C69.2653 9.36575 69.25 9.36519 69.2342 9.36463C69.0909 9.51081 68.9472 9.65755 68.804 9.80429C68.5886 9.86758 68.5864 10.0871 68.4973 10.2423L68.4908 10.254C68.3076 10.3168 68.3492 10.5167 68.2661 10.6399C68.2612 10.6674 68.2568 10.6943 68.2519 10.7217C68.2377 10.7463 68.2235 10.771 68.2087 10.7962C68.1989 10.8298 68.1885 10.864 68.1786 10.8976C67.9644 11.0174 68.0551 11.2723 67.9501 11.4397C67.9518 11.4666 67.9529 11.4929 67.9545 11.5198C67.9277 11.6262 67.901 11.7321 67.8742 11.8385C67.849 12.0525 67.8239 12.2664 67.7982 12.4804C67.7982 12.5324 67.7971 12.5845 67.7971 12.6366L67.7676 13.9175C67.7856 13.9366 67.7944 13.9595 67.7933 13.9859C67.8058 14.0486 67.8184 14.1113 67.831 14.174C67.8408 14.3555 67.8507 14.537 67.861 14.7184C67.878 14.7459 67.8955 14.7728 67.9124 14.8002C67.9179 14.8641 67.9234 14.9285 67.9288 14.9923C67.9305 15.0304 67.9316 15.0679 67.9332 15.106C67.9414 15.1374 67.9496 15.1693 67.9578 15.2007C68.0289 15.362 68.1005 15.5233 68.1715 15.6846C68.1726 15.7115 68.1781 15.7372 68.1885 15.7624C68.2082 15.7921 68.2278 15.8218 68.2475 15.8515C68.3295 16.0089 68.4115 16.1663 68.4935 16.3236C68.4908 16.3763 68.4886 16.4289 68.4858 16.4816C68.5115 16.4849 68.5378 16.4883 68.5635 16.4917C68.6028 16.5432 68.6427 16.5942 68.6821 16.6457C68.904 16.8843 69.1259 17.1229 69.3479 17.3615C69.3921 17.39 69.4364 17.4192 69.4807 17.4477L69.4987 17.4612C69.5255 17.4808 69.5523 17.5004 69.5791 17.52L69.5824 17.5217C69.6376 17.5737 69.6922 17.6253 69.7474 17.6774C69.8229 17.7026 69.8978 17.7272 69.9732 17.7524C70.024 17.7776 70.0754 17.8028 70.1262 17.8286C70.1525 17.8387 70.1782 17.8482 70.2044 17.8583C70.2596 17.8779 70.3148 17.8975 70.37 17.9176C70.4712 17.968 70.5723 18.019 70.6729 18.0694H70.8292C70.9068 18.0767 70.985 18.084 71.0626 18.0913C71.2233 18.1058 71.384 18.1204 71.5447 18.1355L71.5332 18.1534C71.8716 18.1613 72.21 18.1685 72.5483 18.1764C72.6593 18.1534 72.7719 18.1344 72.8817 18.1058C73.084 18.0537 73.2852 17.996 73.4863 17.9406C73.5109 17.9333 73.5361 17.9271 73.5617 17.9215L73.5634 17.9193C73.6148 17.8963 73.6667 17.8739 73.7181 17.851L73.7241 17.8403C73.7749 17.8196 73.8252 17.7983 73.8761 17.7776L73.8837 17.7625C73.9324 17.7384 73.9815 17.7138 74.0302 17.6897L74.0362 17.6796C74.0865 17.6527 74.1368 17.6258 74.1871 17.5989C74.2401 17.5469 74.2926 17.4948 74.3456 17.4427L74.3472 17.4416C74.4249 17.3889 74.5019 17.3363 74.5795 17.2831L74.5812 17.2803C74.614 17.2427 74.6468 17.2052 74.679 17.1677L74.7058 17.143C74.7419 17.1117 74.7785 17.0803 74.8146 17.0484L74.8206 17.0417C74.8709 16.9907 74.9206 16.9397 74.9709 16.8882C75.007 16.8333 75.0431 16.779 75.0797 16.7241C75.124 16.6843 75.1683 16.6446 75.212 16.6054L75.2158 16.5701L75.2497 16.5606C75.2431 16.5505 75.236 16.5398 75.2295 16.5297C75.2464 16.532 75.2628 16.5342 75.2798 16.537C75.2984 16.5174 75.3175 16.4973 75.3361 16.4777C75.3344 16.4592 75.3301 16.4401 75.3328 16.4222C75.3339 16.416 75.3525 16.4127 75.3629 16.4082C75.3869 16.3785 75.411 16.3488 75.435 16.3197L75.5979 16.0044C75.6236 16.0044 75.6493 16.005 75.6744 16.0055C75.6968 15.8733 75.6187 15.814 75.5143 15.7742L75.5165 15.772ZM69.2817 9.36351C69.3118 9.36183 69.3397 9.35679 69.3643 9.34671C69.3391 9.35623 69.3118 9.36183 69.2817 9.36351Z" fill="#FFFFFF"/>
<path d="M80.5696 5.12888C80.5494 4.96309 80.4368 5.06055 80.3613 5.05215C80.3078 5.09863 80.2542 5.14512 80.2012 5.19161C80.2558 5.1692 80.3105 5.14736 80.3646 5.12496C80.4329 5.12608 80.5013 5.1272 80.5701 5.12832L80.5696 5.12888Z" fill="#FFFFFF"/>
<path d="M67.8315 14.1726C67.8189 14.1098 67.8064 14.0471 67.7938 13.9844C67.767 14.018 67.7397 14.0516 67.7129 14.0852C67.7522 14.1143 67.7921 14.1434 67.8315 14.1726Z" fill="#FFFFFF"/>
<path d="M66.2965 12.9285C66.291 12.9117 66.2812 12.8965 66.273 12.8809C66.2681 12.724 66.2631 12.5672 66.2588 12.4104C66.2467 12.3785 66.2347 12.3465 66.2232 12.3146C66.191 12.1281 66.1582 11.9416 66.1254 11.7551C66.1057 11.7265 66.086 11.698 66.0664 11.6694C66.0603 11.6179 66.0549 11.5669 66.0489 11.5154C66.0472 11.4896 66.045 11.4644 66.0434 11.4387C66.0194 11.3574 65.9948 11.2762 65.9707 11.195C65.9505 11.1396 65.9308 11.0836 65.9106 11.0281C65.8761 10.7262 65.6985 10.4893 65.5635 10.2334C65.5471 10.2104 65.5307 10.188 65.5143 10.165L65.511 10.1566C65.4875 10.1275 65.4645 10.0989 65.441 10.0698C65.376 9.96396 65.3109 9.8581 65.2459 9.75225C65.2328 9.73657 65.2191 9.72144 65.206 9.70576C65.1694 9.66824 65.1327 9.63071 65.0956 9.59319C65.0803 9.5775 65.065 9.56126 65.0497 9.54558C65.0136 9.50861 64.9775 9.47165 64.9414 9.43524C64.9245 9.41788 64.9081 9.40052 64.8911 9.38316C64.3134 8.84324 63.6377 8.55648 62.8511 8.55144C62.797 8.55144 62.7429 8.50495 62.6888 8.48031C62.4488 8.37109 62.0148 8.36549 61.6852 8.46742C61.3206 8.55424 60.9566 8.64105 60.592 8.72842C60.5652 8.7497 60.5389 8.77155 60.5122 8.79283C60.4318 8.81915 60.3515 8.84492 60.2711 8.87124C60.1437 8.96142 60.0158 9.05103 59.8885 9.1412C59.7644 9.09808 59.695 9.16136 59.6501 9.27114C59.5999 9.32491 59.549 9.37924 59.4987 9.433L59.496 9.43748C59.4479 9.46381 59.3998 9.49013 59.3517 9.51646L59.3429 9.52598C59.3069 9.5775 59.2708 9.62847 59.2353 9.68C59.2189 9.70632 59.2025 9.73265 59.1861 9.75897C59.138 9.81162 59.0904 9.86483 59.0423 9.91747C58.9587 10.0737 58.875 10.2306 58.7909 10.3868C58.7455 10.4171 58.7001 10.4473 58.6542 10.477C58.6498 10.5067 58.6449 10.5358 58.6405 10.5655C58.623 10.5778 58.6061 10.5901 58.5886 10.6025C58.5963 10.6109 58.6034 10.6193 58.611 10.6277C58.5941 10.6585 58.5771 10.6893 58.5602 10.7201C58.5126 10.8259 58.4645 10.9312 58.417 11.0371C58.3869 11.1441 58.3568 11.2505 58.3268 11.3574C58.3049 11.4375 58.283 11.5171 58.2612 11.5972C58.3344 11.5804 58.3782 11.5552 58.3946 11.5227C58.3995 11.5131 58.4017 11.5031 58.4022 11.4924C58.4022 11.5031 58.3995 11.5131 58.3946 11.5227C58.3782 11.5557 58.3339 11.5809 58.2612 11.5972C58.2612 11.624 58.2612 11.6515 58.2612 11.6784C58.2929 11.7153 58.3065 11.7433 58.3076 11.7646C58.3076 11.7775 58.3044 11.7876 58.2967 11.7965C58.3044 11.7881 58.3082 11.7775 58.3076 11.7646C58.3065 11.7433 58.2929 11.7153 58.2612 11.6784C58.2349 11.7316 58.2093 11.7842 58.183 11.8374C58.1792 11.8912 58.1748 11.9444 58.171 11.9982C58.1497 12.0743 58.1289 12.1511 58.1076 12.2272C58.1125 12.2883 58.1174 12.3493 58.1223 12.4104C58.1147 12.5947 58.1065 12.7789 58.0988 12.9632C57.9972 12.9974 58.0021 13.0556 58.0639 13.1267C58.0655 13.255 58.0677 13.3827 58.0693 13.511C58.0775 13.5395 58.0857 13.5681 58.0939 13.5966C58.095 13.6263 58.0966 13.656 58.0977 13.6857C58.077 13.6919 58.0557 13.6986 58.0349 13.7047L58.0977 13.7518C58.1081 13.9097 58.1191 14.0677 58.1294 14.2251C58.1426 14.2564 58.1557 14.2883 58.1688 14.3197C58.1694 14.3466 58.1704 14.3729 58.171 14.3998C58.0606 14.4525 58.0606 14.5057 58.171 14.5589C58.1759 14.639 58.1808 14.719 58.1857 14.7997C58.212 14.8523 58.2382 14.905 58.2639 14.9571C58.2639 14.9845 58.2628 15.012 58.2623 15.04C58.2836 15.0932 58.3055 15.1464 58.3268 15.1996C58.3574 15.3066 58.388 15.4135 58.4186 15.5205C58.4148 15.6981 58.4968 15.8263 58.6373 15.921C58.6438 15.9742 58.6509 16.028 58.6575 16.0812C58.6957 16.1394 58.734 16.1971 58.7723 16.2554C58.7788 16.28 58.7848 16.3046 58.7914 16.3293C58.8171 16.3304 58.8422 16.3321 58.8679 16.3332C58.8843 16.3836 58.9002 16.434 58.9166 16.4844C59.1391 16.7415 59.361 16.9986 59.5835 17.2551C59.6113 17.2461 59.6277 17.2568 59.6326 17.2859L59.6529 17.296C59.678 17.3178 59.7037 17.3397 59.7289 17.3615C59.7578 17.3862 59.7868 17.4102 59.8158 17.4349C59.8617 17.4651 59.9081 17.4948 59.9541 17.5251L59.9672 17.5312C59.9907 17.5553 60.0147 17.5794 60.0382 17.6035C60.1175 17.6567 60.1973 17.7099 60.2766 17.7636L60.4351 17.8247C60.5149 17.8527 60.5947 17.8807 60.674 17.9087C60.7505 17.9356 60.827 17.9619 60.9041 17.9888C60.9303 17.9978 60.956 18.0062 60.9823 18.0151C61.056 18.0134 61.1304 18.0118 61.2042 18.0101C61.2107 18.0314 61.2173 18.0527 61.2244 18.0739C61.2998 18.0717 61.3758 18.0689 61.4513 18.0667L61.4452 18.0851C61.6065 18.107 61.7683 18.1283 61.9295 18.1501C62.2138 18.1568 62.498 18.163 62.7828 18.1697C62.7959 18.1518 62.8129 18.1417 62.8347 18.14C63.0015 18.1238 63.1676 18.1075 63.3344 18.0913C63.3601 18.079 63.3852 18.0667 63.4109 18.0543C63.4628 18.065 63.5147 18.0756 63.5672 18.0868L63.5935 18.0717L63.6235 18.0773C63.6317 18.0538 63.6405 18.0308 63.6503 18.0084C63.7509 18.0112 63.852 18.014 63.9526 18.0168C64.0056 17.9871 64.0581 17.958 64.1111 17.9283C64.2161 17.9009 64.321 17.8734 64.426 17.846L64.4243 17.8477C64.4489 17.8404 64.4735 17.8331 64.4981 17.8264C64.5615 17.8073 64.6249 17.7883 64.6883 17.7693C64.7802 17.7401 64.8714 17.711 64.9633 17.6819C65.0174 17.6544 65.071 17.627 65.1251 17.5995C65.2043 17.5771 65.2836 17.5553 65.3629 17.5329L65.3558 17.5099C65.4377 17.4623 65.5197 17.4142 65.6023 17.3666C65.6274 17.3666 65.6515 17.3604 65.6739 17.3486C65.6947 17.3273 65.7149 17.3066 65.7357 17.2853C65.7843 17.2562 65.8335 17.2282 65.8811 17.198C65.9171 17.175 65.951 17.1492 65.986 17.1246C65.9855 17.0731 65.9844 17.0215 65.9838 16.9695L65.9811 16.9639C65.957 16.9353 65.9335 16.9067 65.9095 16.8782C65.7931 16.6648 65.6766 16.4514 65.5596 16.238C65.5449 16.2156 65.5296 16.1937 65.5148 16.1713L65.5115 16.1641C65.488 16.1355 65.464 16.1064 65.4405 16.0778C65.2579 15.7591 65.0753 15.4404 64.8928 15.1217C64.79 14.998 64.6872 15.04 64.5839 15.1206L64.5735 15.1374C64.526 15.1593 64.4784 15.1806 64.4314 15.2024L64.4183 15.2242C64.3675 15.2422 64.3166 15.2601 64.2658 15.278L64.2614 15.2825C64.21 15.3083 64.1592 15.334 64.1078 15.3603C64.0559 15.3872 64.0034 15.4141 63.9515 15.4404C63.7689 15.492 63.5864 15.5435 63.4038 15.595C63.3059 15.6006 63.2081 15.6062 63.1097 15.6118C62.7845 15.6146 62.4587 15.6174 62.1334 15.6197C62.0635 15.6197 61.994 15.6197 61.9241 15.6191C61.5961 15.4914 61.3507 15.2657 61.1774 14.9548C61.1637 14.9341 61.1506 14.914 61.1369 14.8932L61.132 14.8826C61.1091 14.8535 61.0861 14.8238 61.0637 14.7947C61.0435 14.6373 61.0233 14.4799 61.003 14.3225C60.9855 14.3018 60.9823 14.2794 60.9943 14.2547C61.1501 14.2508 61.3059 14.243 61.4616 14.243C63.0731 14.2402 64.6851 14.2391 66.2965 14.2374C66.2954 14.2116 66.2949 14.1853 66.2938 14.1595C66.2921 13.7596 66.291 13.3597 66.2899 12.9604C66.2927 12.9509 66.2992 12.9402 66.2965 12.9324V12.9285ZM58.3896 11.4392C58.3956 11.4515 58.4 11.4639 58.4017 11.4751C58.4 11.4639 58.3956 11.4521 58.3896 11.4392ZM58.2645 11.8161C58.2557 11.8201 58.2453 11.8229 58.2349 11.8257C58.2459 11.8229 58.2557 11.8195 58.2645 11.8161ZM58.1245 12.4037C58.148 12.3465 58.1715 12.2894 58.195 12.2317C58.2557 12.1556 58.2661 12.0855 58.2027 12.0228C58.2661 12.085 58.2557 12.1556 58.1956 12.2317C58.1721 12.2889 58.1486 12.346 58.1245 12.4037ZM63.4765 12.1494C63.4267 12.1696 63.3775 12.2032 63.3278 12.2188C63.3775 12.2032 63.4267 12.1701 63.4765 12.1494ZM61.0413 11.8346C61.0473 11.8089 61.0533 11.7825 61.0593 11.7568C61.19 11.4224 61.3611 11.1188 61.6803 10.9351C61.7311 10.906 61.7923 10.8954 61.8486 10.8763C62.0503 10.8803 62.2521 10.8842 62.4538 10.8881C62.4833 10.9099 62.5112 10.9503 62.5418 10.9519C63.0354 10.9771 63.248 11.325 63.395 11.7383C63.4415 11.8682 63.4497 12.0127 63.4759 12.1505C62.65 12.1494 61.824 12.1483 60.9976 12.1477C61.0118 12.0435 61.0265 11.9399 61.0407 11.8358L61.0413 11.8346ZM60.9937 14.2514C61.0916 14.229 61.1894 14.192 61.2867 14.1747C61.1889 14.192 61.091 14.229 60.9937 14.2514Z" fill="#FFFFFF"/>
<path d="M103.364 9.04914C103.36 9.07155 103.357 9.09395 103.355 9.11691C103.377 9.09115 103.399 9.06539 103.421 9.03906C103.402 9.04354 103.383 9.0469 103.364 9.04914Z" fill="#FFFFFF"/>
</svg>
