<svg width="89" height="24" viewBox="0 0 89 24" fill="none" xmlns="http://www.w3.org/2000/svg">
<path d="M59.8409 12.1701C59.8289 12.1499 59.8169 12.1302 59.805 12.11C59.7799 12.0205 59.7548 11.9316 59.7303 11.842C59.7155 11.7889 59.7006 11.7363 59.6858 11.6832C59.679 11.6468 59.6721 11.6098 59.6653 11.5734C59.6545 11.5561 59.6442 11.5388 59.6334 11.5215C59.5234 11.09 59.3404 10.688 59.13 10.2998C58.4198 8.98812 57.4542 7.95306 56.0422 7.40897C56.0092 7.3951 55.9755 7.38124 55.9425 7.3668C55.8022 7.32695 55.6614 7.28709 55.5212 7.24724C55.4682 7.2328 55.4152 7.21836 55.3622 7.20392C55.3451 7.20045 55.3274 7.19757 55.3103 7.1941C55.2573 7.17966 55.2043 7.16522 55.1513 7.15136C55.0994 7.14789 55.0475 7.14385 54.9957 7.14038C54.9421 7.12652 54.8885 7.11208 54.8349 7.09822C54.7483 7.09418 54.661 7.09071 54.5744 7.08667C54.5208 7.06761 54.4672 7.04855 54.4137 7.02948C54.3253 7.03468 54.2375 7.0393 54.1492 7.0445C54.0078 7.0445 53.8664 7.0445 53.7251 7.0445C53.6373 7.0393 53.5489 7.03468 53.4611 7.02948C53.3922 7.03584 53.3232 7.04219 53.2536 7.04855C53.2177 7.04681 53.1818 7.04508 53.1453 7.04335L53.0872 7.08609C53.0701 7.08609 53.0547 7.09071 53.0393 7.09822C53.0045 7.09822 52.9698 7.09822 52.9356 7.09822C52.882 7.11035 52.8278 7.12248 52.7743 7.13461C52.7224 7.14038 52.6711 7.14616 52.6192 7.15194C52.5662 7.16926 52.5126 7.18717 52.459 7.2045C52.4243 7.2045 52.3901 7.20565 52.3553 7.20623C52.337 7.20507 52.3188 7.20392 52.3006 7.20276C52.2818 7.21663 52.2629 7.23107 52.2436 7.24493L52.2458 7.24262C52.2116 7.24839 52.178 7.25359 52.1438 7.25937C52.1256 7.25821 52.1073 7.25706 52.0891 7.25648C52.0703 7.27034 52.0515 7.28478 52.0327 7.29865L52.0344 7.29691C52.0178 7.30153 52.0013 7.30615 51.9848 7.31077L51.7197 7.36334C51.7015 7.3772 51.6827 7.39164 51.6644 7.4055L51.665 7.40435C51.6485 7.40897 51.6319 7.41359 51.6154 7.41821C51.4763 7.46904 51.3355 7.51698 51.1981 7.57185C51.0191 7.64347 50.8419 7.72087 50.664 7.79538C50.6281 7.80751 50.5928 7.82022 50.5569 7.83292L50.5574 7.83234C50.485 7.86816 50.4126 7.90339 50.3402 7.9392C50.1858 7.9057 50.2599 7.78036 50.261 7.70181C50.2855 6.01522 50.3123 4.32864 50.3477 2.64206C50.3608 2.00381 50.3972 1.36557 50.4235 0.727324C50.4252 0.708841 50.4269 0.690358 50.4286 0.671875C50.3836 0.671875 50.3385 0.671875 50.2941 0.671875C50.2405 0.690936 50.1869 0.709996 50.1339 0.729057C50.1168 0.728479 50.1003 0.731945 50.0849 0.739454C50.0148 0.740609 49.9452 0.741187 49.8751 0.742342C49.7514 0.776998 49.6277 0.812231 49.5046 0.847464C49.4698 0.847464 49.435 0.847464 49.4003 0.848042C49.3296 0.865948 49.2583 0.883853 49.1877 0.901181C49.1341 0.915043 49.0799 0.928906 49.0263 0.942768C49.0092 0.94219 48.9927 0.945656 48.9767 0.953165C48.9072 0.953742 48.8371 0.95432 48.7675 0.955475C48.7493 0.954897 48.7311 0.953742 48.7128 0.953165C48.694 0.967027 48.6752 0.981467 48.6558 0.995329L48.6581 0.993019C48.6239 0.998217 48.5903 1.00342 48.5561 1.00861C48.5201 1.00861 48.4848 1.00746 48.4489 1.00688C48.4301 1.02074 48.4107 1.03518 48.3919 1.04905L48.3947 1.04616C48.3241 1.06522 48.2534 1.08486 48.1827 1.10392C48.165 1.10276 48.1485 1.10623 48.1325 1.11431C48.063 1.11547 47.9929 1.11605 47.9233 1.1172C47.9496 1.14031 47.9763 1.15417 48.0026 1.15937C47.9763 1.15417 47.9501 1.13973 47.9233 1.1172C47.9045 1.12875 47.8857 1.14088 47.8669 1.15244C47.7791 1.17207 47.6913 1.19171 47.6035 1.21135L47.5522 1.22175C47.5175 1.22175 47.4827 1.22175 47.4479 1.22232C47.3944 1.23445 47.3402 1.24658 47.2866 1.25929C47.2159 1.27893 47.1447 1.29799 47.074 1.31763C47.0563 1.31705 47.0404 1.32052 47.0244 1.32803C46.9549 1.32918 46.8853 1.32976 46.8152 1.33091C46.797 1.32976 46.7787 1.3286 46.7605 1.32745C46.7417 1.34131 46.7229 1.35575 46.7035 1.36961L46.7058 1.3673C46.6716 1.3725 46.6379 1.3777 46.6037 1.3829C46.5678 1.3829 46.5325 1.38174 46.4966 1.38116C46.4777 1.39503 46.4584 1.40947 46.4396 1.42333L46.4418 1.42102C46.4076 1.42622 46.374 1.43142 46.3398 1.43661L46.1272 1.48975C46.0753 1.48975 46.0229 1.49091 45.971 1.49149L45.9146 1.52672C45.8456 1.53249 45.776 1.53827 45.7071 1.54405C45.6888 1.54347 45.6706 1.54231 45.6524 1.54174C45.6335 1.5556 45.6147 1.57004 45.5953 1.5839L45.5976 1.58159C45.5634 1.58679 45.5298 1.59199 45.4956 1.59719C45.4597 1.59719 45.4243 1.59603 45.3884 1.59545C45.3696 1.60931 45.3508 1.62375 45.3314 1.63762L45.3337 1.63473C45.263 1.65379 45.1918 1.67285 45.1211 1.69191C45.1034 1.69133 45.0875 1.6948 45.0715 1.70231C45.002 1.70346 44.9324 1.70404 44.8623 1.7052C44.8435 1.71675 44.8247 1.72888 44.8059 1.74043C44.754 1.74621 44.7027 1.7514 44.6508 1.75718C44.6149 1.7566 44.5796 1.75602 44.5436 1.75545C44.5248 1.76931 44.506 1.78375 44.4866 1.79761L44.4889 1.7953C44.4547 1.8005 44.4211 1.8057 44.3869 1.8109C44.3373 1.81378 44.2854 1.81032 44.2375 1.82129C44.0415 1.8675 43.8465 1.91833 43.651 1.96685C43.6373 1.98418 43.6231 2.00208 43.6094 2.01941C43.6105 2.19327 43.6117 2.3677 43.6122 2.54156C43.6259 2.57621 43.639 2.61145 43.6527 2.6461L44.3869 2.71541L44.5482 2.75931C44.815 2.7905 45.055 2.88118 45.21 3.11569C45.373 3.36232 45.4614 3.64188 45.5144 3.93299C45.4602 4.03869 45.5782 4.07623 45.5988 4.15247C45.6147 4.29225 45.6307 4.43203 45.6466 4.57181C45.6341 4.58625 45.6216 4.60127 45.6085 4.61571C45.6221 4.62206 45.6364 4.62784 45.6501 4.63419C45.6569 4.68675 45.6683 4.73931 45.67 4.79245C45.7145 6.23182 45.7903 7.67119 45.7954 9.11057C45.8068 12.1961 45.7857 15.2816 45.7686 18.3671C45.7629 19.345 45.7276 20.3223 45.7059 21.2996C45.6238 21.3689 45.6278 21.4411 45.7008 21.5145C45.6894 21.7617 45.6786 22.0083 45.6672 22.2555C45.6398 22.3433 45.6791 22.3687 45.7589 22.3578L45.7601 22.3722C45.7966 22.3878 45.833 22.404 45.8695 22.4196C45.9208 22.423 45.9716 22.4271 46.0229 22.4305C46.0593 22.445 46.0958 22.4588 46.1317 22.4733C46.1659 22.4767 46.1996 22.4802 46.2338 22.4837C46.2879 22.4981 46.3415 22.5125 46.3957 22.5264C46.4299 22.5299 46.4635 22.5333 46.4977 22.5368C46.5518 22.5512 46.6054 22.5657 46.6596 22.5795C46.6932 22.5813 46.7274 22.5824 46.761 22.5842C46.8152 22.6003 46.8699 22.6165 46.9241 22.6327C47.0632 22.6541 47.2022 22.6754 47.3419 22.6968C47.4126 22.7112 47.4838 22.7257 47.5545 22.7407C47.6948 22.7615 47.835 22.7829 47.9752 22.8037C48.0294 22.8175 48.0841 22.832 48.1382 22.8458C48.2066 22.8487 48.2756 22.851 48.344 22.8539C48.3982 22.8695 48.4517 22.8845 48.5059 22.9001C48.5749 22.9024 48.6438 22.9053 48.7134 22.9076C48.7846 22.9232 48.8553 22.9388 48.9266 22.9544C48.9785 22.9573 49.0309 22.9596 49.0828 22.9625C49.1717 22.9775 49.2606 22.9925 49.3495 23.0075C49.4191 23.0104 49.4886 23.0133 49.5582 23.0162C49.6289 23.0151 49.699 23.0139 49.7696 23.0127C49.7805 23.0243 49.7896 23.0376 49.7964 23.052C49.911 23.0607 50.0262 23.0694 50.1407 23.078C50.1926 23.0722 50.2439 23.0659 50.2958 23.0601C50.3505 23.078 50.4052 23.0959 50.46 23.1132C50.5272 23.1098 50.5939 23.1063 50.6612 23.1029L51.0893 23.1236C51.352 23.1236 51.6148 23.1231 51.8776 23.1225C51.9671 23.1161 52.0572 23.1098 52.1467 23.1034C52.2156 23.093 52.2852 23.0826 52.3541 23.0722C52.4579 23.0642 52.5611 23.0561 52.6648 23.048C52.7372 23.0382 52.8096 23.0283 52.8814 23.0185C52.9692 23 53.0576 22.9821 53.1453 22.9637C53.1807 22.9648 53.2155 22.966 53.2508 22.9671C53.3198 22.9608 53.3893 22.9544 53.4583 22.9481L53.4554 22.9509C53.4748 22.9371 53.4942 22.9238 53.5136 22.9099C53.5489 22.9099 53.5843 22.9111 53.6196 22.9117C53.6532 22.9053 53.6874 22.899 53.7211 22.8926C53.7752 22.8811 53.8294 22.8701 53.8835 22.8585C53.9183 22.8562 53.9531 22.8545 53.9878 22.8522L53.9992 22.8504C54.0659 22.8343 54.1332 22.8181 54.1999 22.8013C54.2369 22.7823 54.2717 22.7575 54.3105 22.7453C54.5368 22.6743 54.7642 22.6067 54.9911 22.538C55.007 22.5316 55.0236 22.527 55.0407 22.5241C55.0595 22.5102 55.0777 22.4964 55.0965 22.4825C55.1336 22.4796 55.1706 22.4773 55.2077 22.4744C55.2408 22.46 55.2738 22.4455 55.3075 22.4311C55.3987 22.3924 55.4893 22.3537 55.5805 22.3156C55.6124 22.3 55.6443 22.2838 55.6763 22.2682L55.6911 22.2636C55.7213 22.248 55.7515 22.2318 55.7817 22.2162L55.7977 22.2105C55.8279 22.1943 55.8575 22.1787 55.8877 22.1625L55.9037 22.1567C55.9339 22.1406 55.9636 22.1244 55.9938 22.1077L56.0063 22.1025C56.0377 22.0851 56.069 22.0678 56.1004 22.0499C56.1682 22.0112 56.2355 21.9731 56.3033 21.9344C56.3232 21.9205 56.3438 21.9066 56.3637 21.8928L56.374 21.8876C56.4048 21.8691 56.4361 21.8506 56.4669 21.8321L56.4703 21.8298C56.4874 21.8171 56.5045 21.8044 56.5216 21.7911L56.5267 21.7784L56.5399 21.7819C56.5684 21.7634 56.5969 21.7449 56.6254 21.7259L56.6299 21.723C56.6464 21.7103 56.6635 21.6976 56.6801 21.6849L56.6841 21.6716L56.6977 21.6745C56.7262 21.6554 56.7548 21.6363 56.7833 21.6173C56.8756 21.5468 56.9679 21.4758 57.0597 21.4053C57.0745 21.3926 57.0888 21.3793 57.1036 21.3666L57.1065 21.3527L57.1201 21.3545C57.1475 21.3331 57.1749 21.3111 57.2028 21.2898C57.241 21.2569 57.2797 21.2234 57.3179 21.1904C57.3339 21.1754 57.3499 21.161 57.3658 21.146L57.3744 21.1384C57.3898 21.124 57.4051 21.1101 57.42 21.0957L57.4319 21.0859C57.4456 21.0738 57.4587 21.061 57.4724 21.0489L57.4753 21.0333L57.4912 21.0322C57.4912 21.0114 57.5015 21.0004 57.522 20.9998C57.6531 20.867 57.7848 20.7341 57.9159 20.6013C57.917 20.5805 57.9279 20.5695 57.9484 20.5689V20.5545L57.9626 20.5522C57.9757 20.5383 57.9883 20.5239 58.0014 20.51L58.0111 20.499C58.0253 20.4834 58.0396 20.4684 58.0538 20.4528L58.0607 20.4447C58.0755 20.4286 58.0903 20.4118 58.1051 20.3957C58.1376 20.357 58.1707 20.3183 58.2032 20.2796C58.2249 20.2524 58.2459 20.2253 58.2676 20.1975V20.1819L58.2824 20.1785C58.2944 20.164 58.3064 20.1502 58.3183 20.1357C58.3354 20.1132 58.3531 20.0907 58.3702 20.0687C58.389 20.0422 58.4078 20.0156 58.4266 19.989L58.4283 19.9705L58.4455 19.9636C58.4557 19.9503 58.4665 19.937 58.4768 19.9243C58.4939 19.9012 58.511 19.8781 58.5287 19.855C58.5441 19.8337 58.5595 19.8123 58.5748 19.7909C58.5714 19.7707 58.5794 19.7563 58.5982 19.7476C58.6102 19.7326 58.6222 19.717 58.6341 19.702C58.6706 19.6465 58.7071 19.5911 58.743 19.5362C58.7607 19.5073 58.7789 19.4779 58.7966 19.449L58.7926 19.4363L58.8051 19.4316C58.8177 19.4132 58.8308 19.3947 58.8433 19.3768C58.8633 19.341 58.8838 19.3046 58.9038 19.2688C58.9209 19.2399 58.938 19.211 58.9545 19.1821L58.9625 19.1648C58.975 19.1446 58.987 19.1249 58.9995 19.1047C59.0936 18.9101 59.1876 18.7148 59.2822 18.5202C59.2931 18.5006 59.3045 18.4809 59.3153 18.4613C59.3666 18.3203 59.4173 18.1788 59.4686 18.0379C59.488 17.9842 59.5074 17.9305 59.5262 17.8768L59.5245 17.8779C59.5428 17.8415 59.5616 17.8051 59.5798 17.7687C59.5832 17.7168 59.5866 17.6648 59.5901 17.6128C59.6037 17.5937 59.618 17.5747 59.6317 17.5562L59.6294 17.5579C59.6345 17.5233 59.6397 17.4886 59.6454 17.4534C59.683 17.3459 59.7212 17.2385 59.7588 17.1311C59.7679 17.1091 59.777 17.0866 59.7861 17.0647C59.7884 17.0029 59.7827 16.9393 59.7936 16.8787C59.8597 16.5027 59.9469 16.1301 59.9948 15.7524C60.0974 14.9483 60.1054 14.1397 60.0204 13.334C59.9794 12.9447 59.9024 12.5594 59.8414 12.1718L59.8409 12.1701ZM55.3006 14.9472C55.2755 15.3434 55.2385 15.7391 55.2026 16.1341C55.1695 16.4992 55.1541 16.8683 55.0874 17.2275C55.0116 17.6376 54.8913 18.0391 54.7853 18.4428C54.5818 19.2168 54.282 19.9486 53.8368 20.6146C53.6242 20.9328 53.3825 21.2245 53.0883 21.4688C52.76 21.7409 52.3997 21.9442 51.9699 21.9979C51.9209 22.0043 51.8742 22.032 51.8263 22.0493C51.6855 22.0493 51.5453 22.0505 51.4045 22.051C51.0756 21.995 50.7467 21.9396 50.4041 21.8812C50.3881 21.641 50.3636 21.4116 50.3596 21.1818C50.3163 18.6993 50.2707 16.2167 50.2382 13.7342C50.2188 12.2481 50.2217 10.7613 50.2148 9.27518C50.2148 9.1793 50.2148 9.08342 50.2148 8.98812C50.3328 8.95924 50.4218 8.93729 50.5101 8.91534C50.5614 8.90898 50.6133 8.90263 50.6646 8.89686C50.6834 8.8853 50.7022 8.87375 50.721 8.8622C50.79 8.85642 50.8595 8.85065 50.9285 8.84487L50.9262 8.84718C50.945 8.83332 50.9639 8.81946 50.9832 8.80502C51.0191 8.80617 51.0551 8.80791 51.0904 8.80906C51.1759 8.80213 51.262 8.79578 51.3475 8.78885C51.3595 8.78538 51.3714 8.78307 51.3828 8.7796C51.3709 8.78249 51.3589 8.78538 51.3475 8.78885C51.5966 8.78885 51.8457 8.78884 52.0942 8.78942C52.1472 8.80906 52.2002 8.82812 52.2527 8.84776C52.304 8.85007 52.3553 8.85238 52.4066 8.85469L52.5166 8.9009C52.947 8.95461 53.2936 9.17641 53.6065 9.4629C53.7097 9.55763 53.8066 9.65928 53.9063 9.75805C53.9172 9.77018 53.9286 9.78289 53.9394 9.79502L53.9485 9.80715C53.9622 9.8239 53.9764 9.84007 53.9901 9.85682C54.2968 10.312 54.5698 10.7868 54.7574 11.3037C54.872 11.6202 54.9478 11.9518 55.0407 12.2764L55.0544 12.2879L55.0452 12.3024C55.0806 12.4549 55.1296 12.6062 55.1484 12.761C55.2368 13.4864 55.3462 14.2113 55.3 14.9455L55.3006 14.9472Z" fill="#FFFFFF" />
<path d="M2.25391 21.1892C2.25836 21.1965 2.26449 21.2101 2.26616 21.2095C2.26727 21.2095 2.26783 21.2089 2.26894 21.2084C2.27228 21.201 2.27618 21.1948 2.27897 21.1875C2.27061 21.1881 2.26226 21.1886 2.25391 21.1892Z" fill="#FFFFFF" />
<path d="M15.9712 4.89625C16.0043 4.94824 16.0368 4.99964 16.0698 5.05163C16.0744 5.07184 16.0795 5.09148 16.0841 5.1117C16.132 5.18159 16.1799 5.2509 16.2272 5.32079C16.2312 5.34043 16.2346 5.36064 16.2386 5.38028C16.2517 5.39761 16.2654 5.41436 16.2785 5.43169C16.2836 5.44959 16.2887 5.4675 16.2939 5.48598C16.3081 5.50331 16.3229 5.52121 16.3372 5.53854C16.3583 5.59284 16.3794 5.64713 16.401 5.70142C16.4136 5.71644 16.4255 5.73204 16.4381 5.74706C16.4432 5.76727 16.4483 5.78806 16.4535 5.80828C16.466 5.8233 16.478 5.83889 16.4905 5.85391C16.4951 5.87413 16.4996 5.89434 16.5048 5.91514C16.5179 5.92958 16.5304 5.94459 16.5435 5.95903C16.5823 6.06878 16.6205 6.17794 16.6593 6.28769C16.6752 6.30501 16.6906 6.32234 16.7066 6.33967C16.7396 6.42977 16.7721 6.5193 16.8052 6.60941C16.8211 6.64349 16.8377 6.67756 16.8536 6.71222C16.8542 6.71453 16.8553 6.71684 16.857 6.71915C16.9323 6.94903 17.0075 7.1795 17.0828 7.40938C17.113 7.42382 17.1438 7.43826 17.174 7.4527C17.3114 7.42035 17.451 7.39667 17.585 7.35335C17.7828 7.28924 17.9766 7.21126 18.1721 7.13964C18.139 5.98329 18.1065 4.82637 18.0735 3.67002C17.9937 3.63536 17.9943 3.60013 18.0723 3.56374C18.0478 2.76261 18.0239 1.96148 17.9994 1.16036C18.0091 1.14823 18.0125 1.13437 18.0096 1.11935C17.8956 1.11473 17.7816 1.10664 17.6676 1.10664C11.9457 1.10606 6.22435 1.10664 0.502424 1.10664C0.42319 1.10664 0.343957 1.1026 0.265293 1.10953C0.236792 1.11184 0.21114 1.14014 0.183779 1.15631C0.172949 1.16498 0.160978 1.17191 0.148438 1.17653C0.151858 1.27299 0.152998 1.36887 0.158128 1.46533C0.167818 1.64785 0.179219 1.82979 0.190049 2.01231C0.278974 2.03022 0.368468 2.04812 0.457392 2.06603C0.526935 2.06603 0.595908 2.06603 0.665451 2.06603C0.735565 2.08105 0.806248 2.09606 0.876361 2.11108C0.969275 2.12668 1.06447 2.13476 1.1551 2.15902C1.41561 2.22891 1.6744 2.30515 1.93376 2.37909C1.98563 2.41317 2.03807 2.44724 2.08995 2.48132C2.1042 2.49287 2.12073 2.49807 2.13897 2.49634C2.17431 2.50905 2.20965 2.52175 2.24442 2.53446C2.38864 2.69908 2.53343 2.86427 2.67764 3.02888C2.70957 3.0826 2.74206 3.13632 2.77398 3.19003C2.79165 3.24375 2.80932 3.29689 2.82642 3.35061C2.84238 3.38468 2.85891 3.41876 2.87487 3.45342C2.87544 3.45573 2.87658 3.45804 2.87829 3.46035C2.88171 3.495 2.88513 3.52908 2.88912 3.56374C2.88 3.61688 2.87658 3.66655 2.95297 3.66366C2.95297 3.70236 2.95354 3.74106 2.95411 3.77976C2.96437 3.79767 2.97463 3.81557 2.98489 3.8329C2.98831 3.88546 2.99116 3.9386 2.99458 3.99116C3.01111 4.02639 3.02764 4.06163 3.04417 4.09628C3.05443 4.17195 3.06697 4.24761 3.07381 4.32386C3.09604 4.58551 3.11599 4.84716 3.13652 5.10823C3.12283 5.11574 3.10915 5.12267 3.09547 5.13018C3.10915 5.14404 3.1234 5.15791 3.13709 5.17177L3.30125 7.73052C3.28757 7.74265 3.27446 7.75536 3.26078 7.76749C3.27446 7.77326 3.28814 7.77904 3.30182 7.78482C3.31892 8.19433 3.33602 8.60385 3.35313 9.01337C3.26819 9.06824 3.26534 9.12138 3.35541 9.17336C3.37422 10.2309 3.40272 11.2879 3.41013 12.3455C3.42096 13.9374 3.37137 15.5275 3.25907 17.1153C3.21632 17.7241 3.1331 18.33 3.09775 18.9388C3.08236 19.2022 3.04816 19.4563 2.98204 19.7087C2.98204 19.7365 2.98204 19.7648 2.98204 19.7925C2.96779 19.8549 2.95297 19.9172 2.93872 19.9802L2.94727 19.9987L2.93188 20.0131C2.92276 20.0512 2.91421 20.0899 2.90508 20.1281C2.89767 20.1471 2.89083 20.1662 2.88342 20.1852C2.84352 20.3083 2.80305 20.4307 2.76315 20.5538C2.74947 20.5826 2.73579 20.6115 2.72211 20.641C2.64059 20.8281 2.54084 21.0031 2.38807 21.1406C2.37553 21.1521 2.36356 21.1643 2.35102 21.1758L2.34931 21.1891H2.3362C2.31454 21.1966 2.29231 21.2053 2.27008 21.2122C2.20395 21.3635 2.05119 21.3994 1.92065 21.4548C1.63963 21.5749 1.35746 21.698 1.04053 21.6754C1.02172 21.6887 1.00291 21.7014 0.984096 21.7147C0.879781 21.7193 0.775467 21.724 0.671152 21.7292C0.652341 21.7424 0.63353 21.7552 0.614719 21.7684C0.510404 21.7731 0.406089 21.7777 0.301775 21.7829C0.282964 21.7962 0.264153 21.8089 0.245342 21.8222L0.19518 21.8441C0.184919 21.8614 0.174659 21.8782 0.163828 21.8955C0.159838 22.1716 0.155278 22.4477 0.151288 22.7232C0.164968 22.7232 0.178649 22.7232 0.1929 22.7232C0.21 22.7267 0.227101 22.7296 0.244772 22.733C0.314885 22.7359 0.384998 22.7405 0.454542 22.7405C4.09473 22.7405 7.73435 22.7405 11.3745 22.7405C11.4446 22.7405 11.5148 22.7353 11.5843 22.733C11.6014 22.7301 11.6191 22.7278 11.6362 22.7249C11.6504 22.7267 11.6647 22.7267 11.6795 22.7261C11.6772 22.4494 11.6749 22.1722 11.6727 21.8949C11.6595 21.8782 11.6464 21.8614 11.6339 21.8447C11.6003 21.8395 11.5666 21.8349 11.533 21.8297C11.4087 21.8274 11.2845 21.8245 11.1596 21.8222C11.0553 21.8077 10.951 21.7933 10.8467 21.7788C10.6723 21.7615 10.4973 21.7448 10.3228 21.7274L10.3194 21.7182C10.2841 21.7182 10.2487 21.7176 10.2134 21.717C9.93636 21.6853 9.69524 21.5547 9.46723 21.4092C9.01919 21.1221 8.71821 20.7224 8.63043 20.1789C8.61162 20.1679 8.6082 20.1535 8.62017 20.1356C8.50502 19.8791 8.46683 19.6076 8.46854 19.3287C8.46284 19.3165 8.45543 19.3044 8.45201 19.2911C8.45087 19.2865 8.45942 19.2796 8.46341 19.2732C8.45258 19.212 8.43548 19.1513 8.43263 19.0901C8.35682 17.4827 8.27587 15.8758 8.21146 14.2678C8.18923 13.7087 8.20918 13.1484 8.20975 12.5887C8.24338 12.5922 8.27701 12.5956 8.31064 12.5985C8.48792 12.5927 8.66577 12.5875 8.84305 12.5818C9.03743 12.5875 9.23181 12.5927 9.42676 12.5985C9.65363 12.5997 9.87993 12.6002 10.1068 12.6014C10.1079 12.613 10.1096 12.6251 10.1114 12.6366C10.3223 12.6447 10.5332 12.6528 10.7441 12.6615C10.7783 12.6557 10.8125 12.6499 10.8473 12.6436C10.8837 12.6615 10.9208 12.6794 10.9573 12.6973C11.114 12.7377 11.2714 12.7781 11.4281 12.8186C11.4595 12.833 11.4908 12.8475 11.5222 12.8619L11.5336 12.8659C11.5632 12.8827 11.5934 12.8994 11.6231 12.9162L11.639 12.9225C11.6584 12.9358 11.6784 12.9485 11.6977 12.9618C11.7496 12.9976 11.8009 13.0329 11.8528 13.0687C11.8807 13.0895 11.9081 13.1097 11.936 13.1305L11.9497 13.1287L11.9525 13.1426C11.9668 13.1559 11.9816 13.1692 11.9959 13.1819L12.0056 13.19C12.0209 13.2044 12.0363 13.2194 12.0517 13.2339C12.0893 13.2714 12.127 13.3095 12.1646 13.3471C12.1794 13.3627 12.1942 13.3788 12.2091 13.3944L12.2159 13.4025C12.2296 13.4181 12.2438 13.4337 12.2575 13.4487L12.2678 13.4614C12.2792 13.4747 12.2911 13.488 12.3025 13.5013L12.3179 13.5065V13.5227C12.3379 13.5498 12.3578 13.577 12.3778 13.6041C12.4889 13.7531 12.6366 13.8825 12.6383 14.0916C12.652 14.102 12.6582 14.1164 12.656 14.1338C12.6856 14.1909 12.7147 14.2476 12.7443 14.3047C12.7563 14.3226 12.7683 14.3405 12.7802 14.3579L12.7956 14.3636C12.8087 14.3781 12.8213 14.3919 12.8344 14.4064C12.9102 14.6276 12.986 14.8483 13.0612 15.0695C13.0732 15.0972 13.0852 15.1249 13.0977 15.1532C13.1399 15.3115 13.1821 15.4703 13.2243 15.6286C13.5042 15.6286 13.7846 15.6292 14.0645 15.6297C14.0816 15.632 14.0993 15.6344 14.1164 15.6361C14.1152 15.6182 14.1135 15.6003 14.1124 15.5824C14.1158 15.5206 14.1226 15.4588 14.1226 15.397C14.1226 13.1166 14.1226 10.8357 14.1226 8.55533C14.1226 8.49353 14.1158 8.43173 14.1124 8.36992C14.1124 8.35317 14.1124 8.33642 14.1124 8.31909C14.0964 8.30177 14.081 8.27 14.0651 8.27C13.7875 8.26769 13.5099 8.27 13.2328 8.27231C13.23 8.27231 13.2277 8.30177 13.2254 8.31736C13.2083 8.34682 13.1815 8.37454 13.1752 8.40631C13.0647 8.98102 12.8669 9.5205 12.5665 10.0224C12.1583 10.7057 11.5866 11.1435 10.7954 11.2614C10.4807 11.2637 10.1655 11.266 9.85085 11.2677C9.58864 11.2654 9.32643 11.2631 9.06479 11.2614C9.05966 11.2735 9.05567 11.2862 9.05396 11.2995C8.85958 11.2995 8.6652 11.2983 8.47082 11.2978C8.43776 11.2978 8.40527 11.2989 8.37221 11.2995C8.35226 11.3001 8.3323 11.3012 8.31292 11.3018C8.12767 11.3232 8.20063 11.1782 8.20063 11.1037C8.20462 9.8503 8.19949 8.59692 8.22685 7.34411C8.25706 5.97636 8.31805 4.60919 8.36594 3.24144C8.28556 3.1831 8.27815 3.12939 8.3762 3.08202C8.39273 2.93936 8.40983 2.79611 8.42636 2.65345C8.4161 2.63727 8.41496 2.62052 8.42294 2.60262C9.4108 2.60146 10.3987 2.60088 11.3865 2.59857C11.6658 2.598 11.9451 2.59338 12.2244 2.59049C12.1868 2.58356 12.1486 2.57316 12.111 2.56507C12.1486 2.57374 12.1868 2.58356 12.2244 2.59049C12.2946 2.6107 12.3652 2.63034 12.4354 2.65056C12.5077 2.66326 12.5801 2.67886 12.6531 2.6881C12.8082 2.70774 12.9632 2.72449 13.1182 2.7424L13.275 2.80131C13.4221 2.85445 13.5663 2.91452 13.7162 2.95668C13.804 2.98152 13.8998 2.9769 13.9607 3.06181C14.0668 3.11668 14.1722 3.17097 14.2782 3.22584C14.4059 3.30151 14.5331 3.3766 14.6607 3.45226C14.6904 3.46612 14.72 3.47999 14.7497 3.49385C14.8215 3.55161 14.8939 3.60995 14.9657 3.66771C14.9834 3.69254 15.0016 3.71738 15.0193 3.74279L15.0256 3.76821L15.0518 3.76936C15.0751 3.80575 15.0985 3.84156 15.1213 3.87795C15.1629 3.91376 15.2045 3.95015 15.2462 3.98596C15.2758 4.00444 15.3054 4.02293 15.3351 4.04141C15.3767 4.09397 15.4183 4.14653 15.4593 4.1991C15.469 4.21065 15.4787 4.22162 15.4884 4.23317C15.5238 4.27823 15.5591 4.32328 15.5944 4.36775C15.6076 4.38393 15.6212 4.4001 15.6343 4.41627L15.6446 4.43071C15.6554 4.45901 15.6657 4.48789 15.6765 4.5162C15.7084 4.55316 15.7409 4.58955 15.7729 4.62652C15.8031 4.65828 15.8327 4.69063 15.8629 4.7224L15.8681 4.73222C15.9017 4.78189 15.9353 4.83156 15.9689 4.88124L15.9741 4.89221L15.9712 4.89625ZM8.60421 12.5356C8.65722 12.5413 8.70966 12.5506 8.76268 12.5621C8.70966 12.5506 8.65665 12.5413 8.60421 12.5356C8.47196 12.5217 8.34029 12.5321 8.20918 12.5881C8.34029 12.5321 8.47253 12.5223 8.60421 12.5356Z" fill="#FFFFFF" />
<path d="M18.1734 7.13723C18.1734 7.13723 18.1724 7.13723 18.1719 7.13775L18.1734 7.13672V7.13723Z" fill="#FFFFFF" />
<path d="M19.0664 8.20806H19.0674V8.20703L19.0664 8.20806Z" fill="#FFFFFF" />
<path d="M18.8633 8.36822H18.8643V8.36719L18.8633 8.36822Z" fill="#FFFFFF" />
<path d="M31.1174 12.4851C31.11 12.4337 31.102 12.3823 31.0946 12.3309C31.0872 12.3118 31.0804 12.2928 31.0729 12.2737C31.045 12.1853 31.0171 12.0975 30.9897 12.0092C30.976 11.9895 30.9618 11.9699 30.9481 11.9503C30.8797 11.7544 30.874 11.5373 30.7554 11.3582C30.7469 11.3224 30.7383 11.2872 30.7298 11.2514C30.5497 10.8956 30.3701 10.5403 30.1905 10.1845C30.2014 10.1736 30.2122 10.1626 30.2236 10.1516C30.1985 10.1464 30.1734 10.1412 30.1484 10.1354C29.9243 9.72593 29.6473 9.35511 29.3366 9.00971C29.3252 8.99642 29.3138 8.98372 29.3024 8.97043L29.2933 8.96004C29.2791 8.94502 29.2642 8.92942 29.25 8.91441L29.242 8.90632C29.2272 8.89072 29.2124 8.87513 29.1981 8.85953C29.1434 8.80351 29.0887 8.74748 29.0345 8.69087C29.0191 8.67586 29.0032 8.66026 28.9878 8.64524L28.9804 8.63889C28.965 8.62387 28.9496 8.60943 28.9342 8.59442L28.9239 8.58518C28.9154 8.56554 28.9074 8.5459 28.8989 8.52626C28.8949 8.53319 28.8909 8.5407 28.8863 8.54763C28.8407 8.50662 28.7951 8.46503 28.7484 8.42518C28.3089 8.04801 27.8329 7.73091 27.2942 7.51662C27.2612 7.50218 27.2287 7.48774 27.1956 7.4733C27.1409 7.45193 27.0867 7.43056 27.032 7.40977C26.999 7.39533 26.9653 7.38089 26.9323 7.36702C26.7396 7.30926 26.5469 7.2515 26.3548 7.19432C26.3189 7.17988 26.2824 7.16602 26.2465 7.15158C26.2283 7.14869 26.21 7.14523 26.1918 7.14234L26.0356 7.09844C25.9131 7.07707 25.7905 7.0557 25.6679 7.03433C25.5973 7.01989 25.5266 7.00545 25.4553 6.99043C25.4206 6.98696 25.3858 6.98408 25.351 6.98061C25.2803 6.96617 25.2097 6.95173 25.1384 6.93729C25.0512 6.93383 24.9645 6.93036 24.8773 6.92689C24.7702 6.91245 24.6636 6.89801 24.5564 6.88415C24.488 6.87722 24.419 6.87087 24.3506 6.86394C24.3461 6.86394 24.3415 6.86394 24.3364 6.86394C24.3409 6.86394 24.3455 6.86394 24.3506 6.86394C24.3489 6.85181 24.3466 6.83968 24.3432 6.82812C23.9767 6.82812 23.6102 6.82928 23.2436 6.82986C23.2408 6.84199 23.2379 6.85354 23.2356 6.86567C23.1838 6.87202 23.1313 6.87838 23.0795 6.88415C23.0088 6.87953 22.9387 6.87491 22.868 6.87029C22.8161 6.87607 22.7648 6.88184 22.7129 6.88762C22.6588 6.89917 22.6046 6.91072 22.551 6.92227L22.2911 6.94018C22.2546 6.95231 22.2182 6.96386 22.1822 6.97599C22.1304 6.98177 22.0791 6.98696 22.0272 6.99274C21.9913 6.99216 21.9559 6.99158 21.92 6.99101C21.9012 7.00487 21.8824 7.01931 21.863 7.03317L21.8653 7.03086C21.8311 7.03606 21.7975 7.04126 21.7633 7.04646C21.4817 7.11692 21.2001 7.18739 20.9185 7.25843C20.8997 7.2723 20.8809 7.28674 20.8626 7.3006L20.8632 7.29944C20.8467 7.30406 20.8301 7.30869 20.8136 7.31331C20.7783 7.33179 20.7424 7.35027 20.707 7.36876C20.6546 7.3832 20.6021 7.39821 20.5497 7.41265C20.532 7.41439 20.5143 7.4167 20.4967 7.41843C20.4779 7.43229 20.4596 7.44673 20.4408 7.46059L20.4419 7.45944C20.3547 7.49583 20.2681 7.53164 20.1809 7.56803L20.178 7.57207C20.1438 7.58882 20.1091 7.60499 20.0749 7.62174L20.0731 7.62463C20.0378 7.64196 20.0025 7.65871 19.9671 7.67604C19.9323 7.69856 19.8981 7.72167 19.8634 7.74419C19.8292 7.7569 19.795 7.77019 19.7602 7.78289L19.7573 7.78867C19.7237 7.80484 19.6901 7.82044 19.6565 7.83661L19.6519 7.84701C19.5995 7.87877 19.5464 7.91054 19.494 7.94289L19.4934 7.94404C19.4581 7.96079 19.4222 7.97697 19.3868 7.99372C19.4051 8.00989 19.4193 8.0174 19.4307 8.01971C19.4188 8.0174 19.4045 8.00931 19.3868 7.99372C19.3697 8.01162 19.3521 8.02895 19.335 8.04685C19.3013 8.06592 19.2683 8.08498 19.2346 8.10404L19.2306 8.11386C19.1771 8.14505 19.1235 8.17681 19.0699 8.208C19.0534 8.22649 19.0368 8.24497 19.0203 8.26345L19.0192 8.26576C18.9656 8.29984 18.9126 8.3345 18.859 8.36858C18.843 8.38706 18.8265 8.40612 18.8105 8.4246L18.8094 8.42749C18.7575 8.46215 18.7056 8.4968 18.6538 8.53146C18.5991 8.58286 18.5449 8.63427 18.4902 8.68568C18.4742 8.70531 18.4577 8.72495 18.4417 8.74517L18.4406 8.74806C18.2297 8.85376 18.0889 9.03281 17.9595 9.224C17.8911 9.29793 17.8227 9.37186 17.7543 9.44579C17.7332 9.47698 17.7121 9.50817 17.691 9.53936L17.6921 9.5359C17.6659 9.55785 17.6397 9.5798 17.6135 9.60175C17.6072 9.61792 17.6004 9.63409 17.5941 9.65084C17.5781 9.66932 17.5622 9.68781 17.5462 9.70629C17.5291 9.73113 17.5114 9.75596 17.4943 9.78022C17.4949 9.79004 17.4955 9.79928 17.4949 9.80853C17.4949 9.79928 17.4949 9.79004 17.4943 9.78022C17.459 9.82701 17.4237 9.87379 17.3889 9.92116L17.386 9.9252C17.3558 9.95986 17.3256 9.99393 17.2948 10.0286C17.2897 10.0459 17.284 10.0632 17.2789 10.08C17.2487 10.1164 17.2185 10.1522 17.1877 10.1886C17.1831 10.2059 17.178 10.2232 17.1734 10.2406C17.1438 10.2764 17.1136 10.3128 17.0839 10.3486C17.0794 10.3676 17.0742 10.3867 17.0697 10.4058C17.0224 10.4756 16.975 10.5455 16.9272 10.6154C16.9215 10.6333 16.9158 10.6518 16.9106 10.6697L16.8707 10.72C16.8673 10.7408 16.8639 10.7616 16.8599 10.7824C16.8468 10.8159 16.8331 10.8494 16.82 10.8829L16.8086 10.8938C16.7944 10.9256 16.7801 10.9579 16.7659 10.9897L16.7562 11.0007C16.7425 11.033 16.7294 11.0648 16.7157 11.0971L16.7037 11.1099C16.6895 11.1416 16.6746 11.1734 16.6604 11.2046L16.6496 11.2098C16.6165 11.2785 16.5834 11.3472 16.5504 11.4166C16.5481 11.4356 16.5453 11.4547 16.543 11.4737C16.5105 11.5436 16.4786 11.6135 16.4461 11.6834C16.4404 11.6996 16.4369 11.7169 16.4352 11.7342C16.4033 11.8064 16.3714 11.8786 16.3395 11.9508C16.3178 12.0721 16.2956 12.1934 16.2739 12.3141C16.1554 12.3777 16.1725 12.4828 16.193 12.5885C16.1536 12.7502 16.1143 12.9125 16.0744 13.0743C16.0573 13.1268 16.0402 13.1794 16.0231 13.2319C16.0203 13.303 16.0174 13.3746 16.0151 13.4462C16.0003 13.4815 15.9861 13.5173 15.9712 13.5525C15.969 13.6443 15.9661 13.7362 15.9638 13.8286C15.949 13.8344 15.9342 13.8402 15.9188 13.8459C15.9336 13.8529 15.9484 13.8598 15.9633 13.8667C15.8646 14.7418 15.9251 15.6163 15.9712 16.4907C15.9861 16.526 16.0009 16.5618 16.0163 16.597C16.0191 16.6865 16.022 16.7755 16.0254 16.865C16.0419 16.8997 16.059 16.9343 16.0755 16.969C16.0767 17.0233 16.0773 17.0782 16.0784 17.1325C16.0892 17.1342 16.0989 17.1371 16.1075 17.14C16.0989 17.1365 16.0892 17.1342 16.0784 17.1325C16.1052 17.1815 16.132 17.2306 16.1588 17.2797C16.1645 17.3525 16.1707 17.4253 16.1764 17.4981C16.1844 17.5177 16.1918 17.5373 16.1998 17.557C16.2078 17.5963 16.2158 17.635 16.2232 17.6742L16.2374 17.6875L16.2289 17.7043C16.2454 17.7632 16.2619 17.8221 16.2785 17.881C16.291 17.9157 16.3036 17.9509 16.3161 17.9856C16.3252 18.022 16.3338 18.0583 16.3429 18.0947C16.356 18.1138 16.3691 18.1334 16.3822 18.1525C16.3868 18.1866 16.3913 18.2206 16.3959 18.2547C16.409 18.2738 16.4221 18.2934 16.4352 18.3125C16.4352 18.3304 16.4352 18.3489 16.4352 18.3668C16.4489 18.3997 16.4626 18.4332 16.4763 18.4661C16.5019 18.5383 16.5281 18.6099 16.5538 18.6821C16.5675 18.7001 16.5812 18.718 16.5943 18.7359C16.7356 19.0374 16.877 19.3389 17.0178 19.641C17.0303 19.6606 17.0429 19.6802 17.056 19.6999L17.064 19.7166C17.0811 19.7455 17.0987 19.775 17.1158 19.8038C17.1364 19.8385 17.1563 19.8732 17.1768 19.9078C17.1899 19.9274 17.2031 19.9471 17.2162 19.9667L17.223 19.9812C17.2418 20.0112 17.2606 20.0407 17.2794 20.0707L17.2806 20.073C17.2943 20.0909 17.3079 20.1094 17.3211 20.1273L17.3285 20.1406C17.3478 20.1706 17.3672 20.2001 17.3866 20.2301C17.4391 20.3023 17.4915 20.3751 17.5439 20.4473C17.5576 20.4652 17.5719 20.4831 17.5855 20.5004L17.5935 20.5126C17.6032 20.5247 17.6135 20.5368 17.6232 20.5489C17.6665 20.6055 17.7098 20.6627 17.7531 20.7193C17.7668 20.7355 17.7811 20.7517 17.7947 20.7684L17.8044 20.7806C17.8164 20.7938 17.8284 20.8077 17.8398 20.821L17.8563 20.8268L17.858 20.8441L17.874 20.8481L17.87 20.8632C18.0615 21.0595 18.253 21.2559 18.4446 21.4523C18.4902 21.4916 18.5358 21.5309 18.5814 21.5701L18.5968 21.5805C18.6122 21.5938 18.6276 21.6077 18.6424 21.621C18.7342 21.692 18.8254 21.763 18.9171 21.8341C18.9451 21.8532 18.9736 21.8722 19.0015 21.8913L19.0152 21.8884L19.0203 21.9017C19.0368 21.9144 19.0539 21.9271 19.0705 21.9398L19.075 21.9427C19.1035 21.9612 19.132 21.9796 19.1605 21.9987L19.1736 21.9952L19.1788 22.0079C19.1959 22.0207 19.213 22.0334 19.2301 22.0461C19.266 22.0669 19.3013 22.0877 19.3372 22.1085C19.3652 22.1252 19.3937 22.1425 19.4216 22.1593L19.4353 22.1552L19.4427 22.1679C19.4615 22.1801 19.4803 22.1928 19.4986 22.2049C19.6907 22.2996 19.8828 22.3938 20.0749 22.4885C20.1073 22.5024 20.1393 22.5168 20.1718 22.5307C20.2624 22.5682 20.353 22.6058 20.4437 22.6433C20.495 22.6589 20.5463 22.6739 20.5976 22.6895C20.6301 22.6976 20.6648 22.7011 20.695 22.7138C21.0872 22.883 21.4908 23.0014 21.9206 23.0095C21.9736 23.0239 22.0261 23.0384 22.0791 23.0528C22.1674 23.0517 22.2558 23.0505 22.3447 23.0499C22.396 23.0499 22.4473 23.0499 22.4992 23.0494L22.7528 23.069L23.4198 23.0673C23.1975 23.0673 22.9751 23.0684 22.7528 23.069C22.7648 23.0811 22.7762 23.0944 22.7859 23.1083C22.8851 23.1135 22.9837 23.1187 23.0829 23.1244C23.3457 23.1244 23.6084 23.1244 23.8712 23.1244C23.9431 23.1048 24.0154 23.0857 24.0873 23.0661C24.1562 23.069 24.2258 23.0713 24.2948 23.0742C24.366 23.065 24.4367 23.0563 24.5079 23.047C24.525 23.0482 24.5427 23.0494 24.5598 23.0505L24.5564 23.0707C24.6904 23.0494 24.8243 23.0239 24.9588 23.0066C25.2763 22.9662 25.5899 22.9119 25.8954 22.8102C26.189 22.7126 26.4859 22.6237 26.7812 22.5307C26.8137 22.5162 26.8456 22.5018 26.8781 22.4874C27.1409 22.358 27.4037 22.2286 27.6665 22.0986C27.6853 22.0859 27.7041 22.0732 27.7229 22.0605L27.7286 22.0478L27.7417 22.0524C27.7708 22.0351 27.7993 22.0172 27.8283 21.9999C27.8614 21.9791 27.8945 21.9583 27.9275 21.9375C27.9475 21.9236 27.9674 21.9098 27.9868 21.8953L27.9965 21.8901C28.0273 21.8705 28.0586 21.8503 28.0894 21.8306C28.1082 21.8162 28.127 21.8023 28.1453 21.7879L28.155 21.7827C28.1687 21.7723 28.1818 21.7613 28.1954 21.7509C28.2319 21.7249 28.269 21.6989 28.3055 21.6724C28.3226 21.6585 28.3397 21.6452 28.3562 21.6314L28.3693 21.6227C28.3813 21.6123 28.3938 21.6019 28.4058 21.5915C28.4616 21.5482 28.5175 21.5043 28.5739 21.461C28.5899 21.4471 28.6059 21.4332 28.6213 21.4194L28.6338 21.4096C28.6458 21.3986 28.6577 21.3882 28.6697 21.3772C28.9422 21.1017 29.2141 20.8262 29.4866 20.5501C29.4877 20.5293 29.4985 20.5183 29.519 20.5177V20.5033L29.5333 20.501C29.5458 20.486 29.5589 20.4715 29.5715 20.4565C29.7111 20.274 29.8508 20.0921 29.9905 19.9095C30.0098 19.8807 30.0298 19.8518 30.0492 19.8223L30.0577 19.8062C30.0708 19.7882 30.0839 19.7703 30.0971 19.7524L30.0988 19.7501C30.1176 19.7201 30.1364 19.6906 30.1552 19.6606L30.1626 19.6456C30.1757 19.6259 30.1883 19.6069 30.2014 19.5872C30.2219 19.5526 30.2418 19.5174 30.2624 19.4827C30.2795 19.4538 30.2966 19.4249 30.3142 19.3961L30.3222 19.3787C30.3348 19.3591 30.3467 19.3389 30.3593 19.3192C30.4984 19.0172 30.6374 18.7145 30.7765 18.4124C30.7959 18.3593 30.8153 18.3061 30.8341 18.2524H30.8335C30.8523 18.2189 30.8712 18.1854 30.89 18.1513C30.9128 18.078 30.9356 18.0046 30.9584 17.9318C30.9681 17.9093 30.9783 17.8874 30.988 17.8648C31.0233 17.7401 31.0593 17.6153 31.0946 17.4906L31.0861 17.4727L31.1014 17.4582C31.1174 17.397 31.1334 17.3358 31.1493 17.2745L31.1402 17.2589L31.1545 17.2468C31.1904 17.0337 31.2365 16.8217 31.2593 16.6074C31.3066 16.165 31.3574 15.7214 31.379 15.2766C31.4241 14.3513 31.3323 13.4376 31.1117 12.5377C31.114 12.5203 31.1163 12.503 31.1185 12.4851H31.1174ZM17.4772 9.87841C17.4852 9.86571 17.4898 9.85127 17.4921 9.83452C17.4898 9.85127 17.4847 9.86571 17.4772 9.87841ZM26.2648 19.1979C26.2756 19.1922 26.2824 19.1852 26.2847 19.1754C26.2824 19.1852 26.275 19.1922 26.2648 19.1979ZM26.5053 17.4513C26.4916 17.4871 26.4785 17.5235 26.4648 17.5593C26.462 17.6662 26.4597 17.773 26.4569 17.8799C26.442 17.9151 26.4278 17.9509 26.413 17.9861C26.3959 18.3061 26.3782 18.6255 26.2545 18.9288C26.2334 18.9808 26.2522 19.0495 26.2528 19.1107C26.2619 19.1205 26.2688 19.1292 26.2733 19.1373C26.2682 19.1292 26.2613 19.1205 26.2528 19.1107C26.2357 19.1454 26.2186 19.18 26.2021 19.2153C26.2032 19.2332 26.2038 19.2517 26.2049 19.2696C26.1411 19.4226 26.0829 19.5763 26.1006 19.7472C26.0795 19.7888 26.0578 19.8304 26.0368 19.872L26.0453 19.8853L26.0311 19.8945C26.006 19.9719 25.9803 20.0487 25.9552 20.1261C25.9627 20.1348 25.9689 20.1435 25.9746 20.1533C25.9587 20.1602 25.9438 20.1683 25.9296 20.1775C25.9342 20.1949 25.933 20.2116 25.9262 20.2278L25.9273 20.2272C25.9142 20.2457 25.9005 20.2636 25.8874 20.2821C25.8846 20.304 25.8817 20.3254 25.8789 20.3474C25.8675 20.3797 25.8561 20.4121 25.8447 20.4444L25.831 20.4398L25.8264 20.4536C25.8139 20.4675 25.8008 20.4814 25.7882 20.4952C25.7831 20.516 25.778 20.5374 25.7723 20.5582C25.7603 20.5726 25.7483 20.5871 25.7364 20.6015C25.7312 20.6223 25.7255 20.6437 25.7204 20.6645L25.6725 20.8158C25.64 20.8539 25.6081 20.8915 25.5756 20.9296V20.9521L25.5568 20.9637L25.5511 20.9758C25.5374 20.9954 25.5232 21.0151 25.5095 21.0347C25.4992 21.052 25.489 21.0699 25.4787 21.0873C25.4696 21.1 25.4605 21.1127 25.4513 21.1254L25.4451 21.1358L25.4023 21.1901C25.3852 21.2132 25.3681 21.2363 25.3516 21.2588L25.3607 21.2646L25.3465 21.2698C25.3499 21.286 25.3436 21.2946 25.3276 21.2958C25.3162 21.3085 25.3048 21.3206 25.2934 21.3333L25.2946 21.3466L25.2815 21.3489C25.2684 21.3645 25.2547 21.3795 25.2416 21.3951L25.2353 21.4032C25.2205 21.4194 25.2051 21.4356 25.1903 21.4517C25.1526 21.4893 25.1145 21.5268 25.0768 21.5644C25.0614 21.5788 25.0461 21.5927 25.0307 21.6071L25.0193 21.6169C25.0056 21.6296 24.9919 21.6423 24.9782 21.655L24.9725 21.6701H24.9566L24.952 21.6868L24.9366 21.6828C24.9167 21.6978 24.8961 21.7128 24.8762 21.7284C24.8579 21.7423 24.8397 21.7561 24.8209 21.77L24.8061 21.7775L24.7964 21.7965H24.7759C24.7023 21.8428 24.6294 21.8901 24.5558 21.9369C24.5085 21.956 24.4618 21.975 24.4145 21.9935L24.4002 21.99L24.3957 22.0039C24.3797 21.9993 24.3637 22.0004 24.3483 22.0074C24.3119 22.0247 24.2754 22.042 24.2389 22.0594C24.187 22.0732 24.1346 22.0865 24.0827 22.1004C24.065 22.1038 24.0474 22.1073 24.0297 22.1113C23.8194 22.1113 23.609 22.1113 23.3987 22.1113C23.3804 22.1079 23.3616 22.105 23.3434 22.1015C23.2915 22.0871 23.2402 22.0732 23.1883 22.0588C23.1342 22.0316 23.0806 22.0045 23.0264 21.9773C22.9985 21.9635 22.97 21.9496 22.9421 21.9363L22.9238 21.9306C22.8942 21.915 22.864 21.8994 22.8343 21.8838L22.8184 21.878C22.791 21.8618 22.7637 21.8456 22.7363 21.8295L22.7215 21.8306L22.7146 21.8168C22.6981 21.8046 22.6822 21.7925 22.6656 21.7804C22.6405 21.763 22.6149 21.7451 22.5898 21.7278L22.5881 21.7371L22.5835 21.7249C22.5687 21.7295 22.5596 21.7243 22.5567 21.7082C22.5425 21.696 22.5288 21.6833 22.5146 21.6712L22.5037 21.6637C22.4872 21.6493 22.4707 21.6348 22.4536 21.6204C22.1081 21.3703 21.883 21.0272 21.7131 20.6408L21.6977 20.6344L21.7051 20.6217L21.6607 20.5351L21.6453 20.5281L21.6527 20.5149C21.6356 20.4779 21.6179 20.4409 21.6008 20.404C21.5843 20.3826 21.5678 20.3618 21.5507 20.3404H21.5512C21.5375 20.3225 21.5239 20.3046 21.5102 20.2861C21.5068 20.2492 21.5039 20.2122 21.5005 20.1747L21.4783 20.1308C21.4669 20.1129 21.456 20.0949 21.4452 20.0776C21.4315 20.058 21.4184 20.0383 21.4047 20.0187C21.4013 19.9823 21.3979 19.9459 21.395 19.9101C21.3876 19.8939 21.3796 19.8778 21.3722 19.8616C21.3643 19.8362 21.3557 19.8108 21.3477 19.7859C21.3363 19.7571 21.3243 19.7288 21.3129 19.6999C21.3044 19.6658 21.2953 19.6317 21.2867 19.5976C21.2776 19.578 21.2691 19.5584 21.2599 19.5393C21.252 19.5035 21.244 19.4677 21.236 19.4324C21.2257 19.4145 21.2149 19.3966 21.2046 19.3787C21.1904 19.3418 21.1761 19.3048 21.1619 19.2678C21.1516 19.2511 21.1414 19.2343 21.1311 19.2182C21.1311 19.1656 21.1305 19.113 21.13 19.0599C21.1226 19.0495 21.1134 19.0397 21.1077 19.0281C21.106 19.0241 21.1129 19.016 21.1157 19.0102C21.1009 18.9426 21.0861 18.8751 21.0713 18.8075C21.0627 18.7844 21.0536 18.7607 21.045 18.7376C21.0382 18.7208 21.0314 18.7041 21.0245 18.6873C21.0103 18.6683 20.996 18.6492 20.9818 18.6302C20.9601 18.4702 20.939 18.3102 20.9174 18.1508C20.9037 18.1149 20.8894 18.0786 20.8757 18.0427C20.866 17.9353 20.8558 17.8279 20.8461 17.7199C20.8358 17.7025 20.825 17.6852 20.8147 17.6679C20.813 17.5795 20.8113 17.4917 20.8096 17.4033C20.7965 17.367 20.7834 17.3306 20.7703 17.2942C20.764 17.1088 20.7652 16.9228 20.7515 16.738C20.6511 15.4083 20.6717 14.0793 20.768 12.7508C20.7948 12.3829 20.8182 12.0138 20.8723 11.6493C20.9231 11.3057 21.0114 10.9672 21.0832 10.627C21.0912 10.6062 21.0998 10.586 21.1077 10.5652C21.1151 10.5276 21.1231 10.4901 21.1305 10.4525C21.1288 10.4456 21.1288 10.4393 21.1305 10.4335C21.1294 10.4398 21.1294 10.4462 21.1305 10.4525L21.1465 10.4364L21.1385 10.4162C21.1716 10.3053 21.2046 10.1944 21.2377 10.0835C21.2445 10.0673 21.2514 10.0505 21.2588 10.0344C21.4401 9.4793 21.7097 8.96754 22.0791 8.52279C22.4142 8.11963 22.8697 7.91516 23.3935 7.88282C23.4745 7.84874 23.5554 7.8291 23.6369 7.82852C23.556 7.82968 23.4751 7.84874 23.3935 7.88282C23.5554 7.88282 23.7179 7.88282 23.8798 7.88282C23.9773 7.90881 24.0747 7.93827 24.1733 7.96079C24.5154 8.03935 24.789 8.23169 25.0278 8.48236C25.1002 8.55803 25.172 8.63427 25.2444 8.71051L25.2347 8.71225L25.2478 8.71802L25.249 8.73651L25.2655 8.74401C25.2769 8.75845 25.2889 8.77289 25.3003 8.78733C25.3305 8.83008 25.3601 8.87224 25.3903 8.91498L25.3886 8.93404L25.4069 8.94155L25.4154 8.95773C25.4285 8.97736 25.4416 8.99642 25.4548 9.01606C25.4895 9.0744 25.5243 9.13274 25.5591 9.19165L25.5619 9.198L25.5648 9.20436C25.7472 9.65835 25.9296 10.1118 26.112 10.5658C26.1228 10.5975 26.1342 10.6287 26.1451 10.6605L26.1815 10.7858C26.1872 10.7922 26.1918 10.7991 26.1935 10.8066C26.1912 10.7991 26.1872 10.7922 26.1815 10.7858C26.1787 10.7916 26.1724 10.7991 26.1736 10.802C26.1787 10.8124 26.1872 10.8211 26.1941 10.8309C26.218 10.9383 26.2425 11.0457 26.2665 11.1532C26.275 11.1769 26.2841 11.2 26.2927 11.2236C26.328 11.4425 26.3679 11.6609 26.3976 11.8809C26.413 11.9924 26.4101 12.1068 26.4158 12.22C26.4187 12.2778 26.3754 12.3523 26.4711 12.3759C26.4677 12.466 26.4648 12.5556 26.4614 12.6457C26.4683 12.6509 26.4751 12.6567 26.4819 12.6619C26.4894 12.6671 26.4962 12.6722 26.503 12.678C26.4962 12.6728 26.4888 12.6671 26.4819 12.6619C26.4745 12.6567 26.4677 12.6509 26.4614 12.6457C26.4757 12.7 26.4899 12.7543 26.5042 12.8086C26.5378 13.2227 26.5977 13.6368 26.5999 14.0516C26.6045 14.9012 26.5777 15.7514 26.564 16.6011C26.474 16.6513 26.4791 16.7056 26.5578 16.7622C26.5407 16.9927 26.5241 17.2237 26.507 17.4542L26.5053 17.4513Z" fill="#FFFFFF" />
<path d="M64.4297 8.31353V8.3125H64.4307L64.4297 8.31353Z" fill="#FFFFFF" />
<path d="M75.2197 11.5726C75.2101 11.5559 75.1998 11.5391 75.1901 11.5218C75.1029 11.2613 75.0191 10.9996 74.9285 10.7397C74.6594 9.96746 74.233 9.29225 73.6921 8.68751C73.6807 8.6748 73.6693 8.66209 73.6584 8.64996L73.647 8.63841C73.6334 8.62397 73.6197 8.61011 73.606 8.59567L73.5963 8.58469C73.5821 8.56968 73.5678 8.55524 73.5536 8.54022L73.5444 8.53098C73.5296 8.51654 73.5154 8.5021 73.5005 8.48766L73.4897 8.47784C73.4772 8.46629 73.4646 8.45473 73.4515 8.44318C73.3877 8.38253 73.3267 8.31842 73.26 8.26124C72.8826 7.93778 72.4831 7.64841 72.0196 7.46127C71.9866 7.44683 71.9541 7.43181 71.921 7.41737C71.8748 7.39658 71.8292 7.37347 71.7819 7.35499C71.4701 7.22907 71.1469 7.14417 70.8174 7.08467C70.781 7.07081 70.7445 7.05695 70.708 7.04309C70.6567 7.03904 70.6054 7.03558 70.5535 7.03153C70.4994 7.01767 70.4452 7.00323 70.3911 6.98937C70.3221 6.9859 70.2531 6.98186 70.1841 6.9784C70.1123 6.96453 70.0411 6.95009 69.9692 6.93623C69.8997 6.93219 69.8302 6.92814 69.7612 6.9241C69.6973 6.90735 69.6335 6.87789 69.5696 6.87674C69.2641 6.8727 68.9586 6.87674 68.653 6.87847C68.6479 6.88945 68.6434 6.90158 68.6405 6.91313C68.5556 6.92064 68.4701 6.92814 68.3851 6.93623C68.3321 6.93103 68.2791 6.92583 68.2261 6.92121C68.1742 6.92699 68.1229 6.93219 68.071 6.93796C67.9998 6.95067 67.9285 6.9628 67.8567 6.97551C67.8048 6.98071 67.7535 6.98648 67.7017 6.99168C67.6481 7.00381 67.5939 7.01594 67.5404 7.02807C67.4714 7.03384 67.4018 7.03962 67.3329 7.0454C67.3146 7.04482 67.2964 7.04366 67.2781 7.04309C67.2593 7.05695 67.2405 7.07139 67.2211 7.08525L67.2234 7.08294C67.1892 7.08872 67.1556 7.09392 67.1214 7.09969C67.0678 7.11702 67.0142 7.13492 66.9612 7.15225C66.9088 7.16611 66.8563 7.17998 66.8039 7.19384C66.7509 7.19673 66.6979 7.20019 66.6448 7.20308C66.626 7.21694 66.6078 7.23138 66.589 7.24525L66.5901 7.24409C66.5736 7.24871 66.5571 7.25333 66.5405 7.25795C66.4168 7.29319 66.2937 7.32842 66.17 7.36365C66.1512 7.37752 66.133 7.39195 66.1142 7.40582L66.1153 7.40466C66.0988 7.40928 66.0822 7.4139 66.0657 7.41852C65.9944 7.44914 65.9232 7.47975 65.8525 7.51036C65.8006 7.53116 65.7482 7.55137 65.6963 7.57217C65.6604 7.59411 65.6245 7.61549 65.5886 7.63743C65.5532 7.65014 65.5185 7.66227 65.4831 7.67498C65.413 7.71599 65.3429 7.75757 65.2728 7.79858C65.2386 7.81071 65.205 7.82284 65.1708 7.83497L65.1673 7.84133C65.132 7.85634 65.0961 7.87078 65.0607 7.8858C65.0436 7.90313 65.026 7.92103 65.0089 7.93836C64.9747 7.95742 64.9405 7.97591 64.9057 7.99497L64.9034 7.99901C64.851 8.03367 64.7991 8.06774 64.7467 8.1024L64.7455 8.10471C64.6931 8.13994 64.6412 8.1746 64.5888 8.20983L64.5876 8.21214C64.534 8.24622 64.481 8.2803 64.4274 8.31438C64.4109 8.33286 64.3944 8.35134 64.3778 8.36983L64.3767 8.37214C64.3237 8.40679 64.2701 8.44145 64.2171 8.4761C64.1994 8.49285 64.1818 8.50903 64.1641 8.52578C64.1476 8.54542 64.1316 8.56505 64.1151 8.58469L64.1139 8.58758C64.0894 8.60606 64.0655 8.62455 64.041 8.64303C63.8722 8.80418 63.7029 8.96533 63.5342 9.12706C63.5057 9.16113 63.4772 9.19463 63.4493 9.22871C63.4265 9.2599 63.4042 9.29109 63.3814 9.32228C63.3438 9.36098 63.3056 9.3991 63.268 9.4378C63.252 9.45629 63.2361 9.47419 63.2207 9.49268C63.2036 9.51751 63.1859 9.54235 63.1683 9.56661C63.138 9.59606 63.1073 9.62552 63.077 9.65498C63.0537 9.69252 63.0309 9.73007 63.0075 9.76761C62.9773 9.80111 62.9471 9.83461 62.9169 9.86869C62.9112 9.88544 62.9055 9.90219 62.8998 9.91952C62.8861 9.938 62.8724 9.95649 62.8593 9.97439L62.8519 9.98941C62.8177 10.0379 62.7835 10.087 62.7493 10.1355L62.7453 10.1442C62.7128 10.195 62.6803 10.2464 62.6478 10.2973L62.6421 10.3106C62.6267 10.3412 62.6113 10.3724 62.5959 10.403L62.5863 10.4093C62.5509 10.4601 62.5161 10.511 62.4808 10.5624L62.4791 10.5641C62.4654 10.5809 62.4523 10.5976 62.4386 10.6149C62.4346 10.634 62.4306 10.6531 62.4266 10.6727C62.3942 10.7253 62.3617 10.7773 62.3286 10.8298C62.2727 10.9719 62.2169 11.1134 62.161 11.2555C62.1473 11.2746 62.1337 11.2936 62.12 11.3127L62.1131 11.3219C62.0989 11.3543 62.0841 11.3872 62.0698 11.4195L62.059 11.4247C62.0265 11.4935 61.994 11.5628 61.9621 11.6315C61.9581 11.6488 61.9547 11.6662 61.9507 11.6835C61.8561 11.7707 61.8332 11.8805 61.8566 12.0035C61.8275 12.0757 61.7979 12.1473 61.7688 12.2195C61.7603 12.2397 61.7517 12.2594 61.7432 12.2796C61.7358 12.3131 61.7289 12.346 61.7215 12.3795C61.7096 12.4078 61.697 12.4361 61.685 12.4644C61.6708 12.5303 61.6611 12.5973 61.6411 12.6614C61.5026 13.1038 61.4217 13.5561 61.42 14.021C61.42 14.0655 61.4143 14.1094 61.4131 14.1539C61.4006 14.6402 61.3898 15.126 61.3755 15.6123C61.3693 15.8289 61.4223 16.0397 61.3886 16.2638C61.3624 16.4377 61.4428 16.6283 61.4758 16.8114C61.4867 16.8293 61.4975 16.8472 61.5083 16.8651C61.5152 16.9362 61.522 17.0078 61.5289 17.0788C61.5397 17.0967 61.5505 17.1146 61.5614 17.1325C61.5671 17.1718 61.5727 17.2105 61.579 17.2498L61.5927 17.2614L61.5836 17.2752C61.5995 17.3382 61.6155 17.4011 61.6315 17.4635L61.6451 17.4745L61.636 17.4883C61.6526 17.549 61.6691 17.6102 61.6856 17.6709C61.6982 17.7049 61.7101 17.739 61.7227 17.7731C61.8264 18.0515 61.9222 18.3334 62.0368 18.6077C62.1382 18.8503 62.2608 19.0837 62.3736 19.3211C62.3862 19.3407 62.3987 19.3603 62.4113 19.3794L62.4238 19.384L62.4198 19.3967C62.4375 19.4256 62.4546 19.4545 62.4723 19.4834C62.5794 19.6457 62.6866 19.8074 62.7937 19.9697C62.8074 19.9865 62.8205 20.0038 62.8342 20.0205L62.8445 20.0356L62.8644 20.0442L62.8656 20.0656C62.9117 20.1245 62.9573 20.184 63.0035 20.2429C63.0161 20.2579 63.0286 20.2724 63.0411 20.2874L63.0548 20.2908L63.0531 20.3053C63.0753 20.3324 63.097 20.3602 63.1192 20.3873C63.1688 20.4445 63.2184 20.5022 63.268 20.5594C63.2828 20.5756 63.2971 20.5912 63.3119 20.6074L63.3199 20.6155C63.3347 20.6305 63.349 20.6461 63.3638 20.6611L63.3723 20.6715C63.386 20.6859 63.3997 20.7004 63.4128 20.7148L63.4248 20.7281C63.4373 20.7414 63.4498 20.7547 63.4624 20.7685H63.4761V20.783C63.4915 20.813 63.5063 20.843 63.5211 20.8731L63.5319 20.8858C63.5621 20.9002 63.5923 20.9152 63.6226 20.9297L63.6357 20.943C63.6488 20.9562 63.6619 20.9689 63.675 20.9822L63.6887 20.9944C63.7029 21.0082 63.7178 21.0215 63.732 21.0354L63.7417 21.044C63.7565 21.0591 63.7719 21.0735 63.7867 21.0885L63.7947 21.0966C63.8101 21.1116 63.8255 21.1261 63.8409 21.1411C63.8979 21.1919 63.9549 21.2422 64.0113 21.293C64.0381 21.3149 64.0643 21.3363 64.0911 21.3582H64.1065L64.1111 21.3733C64.1253 21.3854 64.139 21.3975 64.1533 21.4091C64.1937 21.4426 64.2342 21.4761 64.2747 21.5102C64.3026 21.5309 64.33 21.5512 64.3579 21.572L64.3716 21.5702L64.375 21.5841C64.3904 21.5968 64.4063 21.6095 64.4217 21.6228C64.4428 21.639 64.4645 21.6551 64.4856 21.6713C64.5135 21.6915 64.542 21.7123 64.5699 21.7325L64.5831 21.7291L64.5876 21.7418C64.6047 21.7545 64.6213 21.7678 64.6384 21.7805L64.6423 21.7834C64.6703 21.8024 64.6988 21.8209 64.7267 21.84L64.7404 21.8371L64.7455 21.8504C64.7626 21.8631 64.7791 21.8758 64.7962 21.8879L64.8008 21.8902C64.8299 21.9087 64.8584 21.9278 64.8875 21.9462L64.9006 21.9422L64.9057 21.9549C64.9239 21.9676 64.9422 21.9803 64.9604 21.993C64.9952 22.0132 65.03 22.034 65.0647 22.0543C65.0938 22.0716 65.1229 22.0895 65.1519 22.1068L65.1702 22.1137C65.1901 22.1265 65.2101 22.1392 65.23 22.1513C65.4558 22.2622 65.6815 22.3731 65.9072 22.4846C65.9409 22.5002 65.9745 22.5152 66.0081 22.5308C66.0976 22.5689 66.1871 22.607 66.2766 22.6446C66.3279 22.6602 66.3792 22.6752 66.4299 22.6908C66.7657 22.7826 67.1014 22.8739 67.4366 22.9657C67.4902 22.9801 67.5443 22.9952 67.5979 23.0096C67.6321 23.0125 67.6663 23.0154 67.7005 23.0183C67.7718 23.0333 67.8436 23.0477 67.9149 23.0627C67.9844 23.0656 68.0534 23.0685 68.1229 23.0708C68.2278 23.0708 68.3327 23.0708 68.4376 23.0702C68.9135 23.0702 69.3895 23.0702 69.8649 23.0702C69.3889 23.0702 68.913 23.0702 68.4376 23.0702C68.449 23.083 68.4587 23.0962 68.4667 23.1113C68.5812 23.117 68.6964 23.1222 68.8109 23.128C69.0378 23.128 69.2647 23.128 69.4916 23.128C69.6073 23.1217 69.723 23.1153 69.8387 23.1095C69.8461 23.0957 69.8552 23.0824 69.8649 23.0702C69.9698 23.0702 70.0747 23.0702 70.1796 23.0702C70.338 23.0367 70.4965 23.0027 70.655 22.9692C70.7251 22.968 70.7952 22.9669 70.8653 22.9663C70.8807 22.9588 70.8972 22.9553 70.9143 22.9559C70.9685 22.9409 71.0221 22.9258 71.0762 22.9108C71.1332 22.8958 71.1908 22.8831 71.2472 22.8664C71.3669 22.83 71.4855 22.7913 71.6046 22.7531C71.6195 22.7451 71.6354 22.7404 71.6525 22.7393C71.6713 22.726 71.6901 22.7121 71.7095 22.6989C71.7272 22.6989 71.7449 22.6989 71.7625 22.6989C71.7779 22.6908 71.7945 22.6861 71.8116 22.6844L71.8104 22.6856C71.8298 22.6717 71.8486 22.6584 71.868 22.6446C71.9934 22.6064 72.1194 22.5683 72.2448 22.5302C72.2773 22.5146 72.3103 22.4984 72.3428 22.4828C72.5264 22.3921 72.7099 22.3009 72.8935 22.2102C72.9208 22.1946 72.9476 22.1796 72.975 22.1646L72.9909 22.1588C73.0206 22.1415 73.0502 22.1241 73.0804 22.1068C73.15 22.0681 73.2195 22.03 73.2891 21.9913C73.3079 21.9786 73.3261 21.9659 73.3449 21.9532L73.3506 21.941L73.3637 21.9451C73.3922 21.9278 73.4213 21.9099 73.4498 21.8925C73.6111 21.7845 73.773 21.6765 73.9343 21.5685C73.9497 21.5564 73.9646 21.5448 73.9799 21.5327L73.9851 21.5177H74.001C74.0278 21.4992 74.0552 21.4801 74.082 21.4611C74.1036 21.4437 74.1259 21.4264 74.1475 21.4085C74.1623 21.3958 74.1766 21.3825 74.1914 21.3698L74.1943 21.3559L74.208 21.3571C74.2353 21.3363 74.2632 21.3149 74.2906 21.2941C74.3487 21.2433 74.4069 21.1925 74.465 21.1417C74.4793 21.1284 74.4935 21.1151 74.5078 21.1018L74.5095 21.0879H74.5232C74.5357 21.077 74.5483 21.0654 74.5602 21.0539L74.5642 21.0371L74.5807 21.0348C74.5807 21.0157 74.5899 21.0059 74.6087 21.0048C74.6885 20.9245 74.7683 20.8436 74.8481 20.7633C74.8487 20.7448 74.8584 20.7356 74.8766 20.7362L74.8794 20.7188L74.896 20.7148C74.9074 20.7027 74.9188 20.6905 74.9302 20.679V20.6646L74.9444 20.6622C74.957 20.6478 74.9701 20.6334 74.9826 20.6189C75.0322 20.56 75.0824 20.5011 75.132 20.4422C75.1536 20.4145 75.1753 20.3862 75.1964 20.3584L75.1935 20.3451L75.2066 20.3417C75.2192 20.3232 75.2311 20.3047 75.2437 20.2857C75.2089 20.1944 75.1741 20.1031 75.1394 20.0113C75.1251 19.9945 75.1109 19.9784 75.0972 19.9616L75.0886 19.9501C75.0767 19.9362 75.0647 19.9223 75.0527 19.9085L75.0368 19.9033L75.0351 19.8865L75.018 19.8819L75.0197 19.8646C74.9581 19.808 74.8965 19.7508 74.835 19.6948C74.7894 19.7161 74.7512 19.7335 74.713 19.7514C74.6959 19.7652 74.6782 19.7791 74.6611 19.7935L74.6463 19.8022L74.6377 19.8213H74.6172C74.5978 19.8345 74.5779 19.8473 74.5585 19.8605C74.5403 19.8744 74.522 19.8877 74.5038 19.9015L74.489 19.9096L74.4799 19.9287H74.4593C74.4399 19.942 74.42 19.9547 74.4006 19.968C74.3824 19.9813 74.3641 19.9945 74.3459 20.0084L74.3277 20.0171L74.3214 20.0327L74.3071 20.0269C74.2473 20.0558 74.184 20.0794 74.1287 20.1147C73.7542 20.3532 73.3489 20.5126 72.9186 20.6091C72.8872 20.6195 72.8553 20.6293 72.8239 20.6397C72.7532 20.6478 72.682 20.6553 72.6113 20.6634C72.5754 20.6773 72.5395 20.6911 72.503 20.7044C72.3616 20.7264 72.2208 20.7483 72.0795 20.7703C71.64 20.7703 71.2005 20.7703 70.7616 20.7703C70.5632 20.7506 70.3637 20.742 70.1676 20.7085C70.0257 20.6842 69.8894 20.6264 69.7509 20.5831C69.723 20.5727 69.6951 20.5629 69.6671 20.5525C69.4277 20.5548 69.2231 20.437 69.0184 20.3382C68.6935 20.1811 68.3726 20.0113 68.1064 19.7571C68.1052 19.7548 68.1041 19.752 68.1041 19.752C68.0864 19.7548 68.0762 19.7479 68.0728 19.73C68.0602 19.719 68.0477 19.7081 68.0351 19.6971L68.0209 19.6867C68.0055 19.6728 67.9901 19.659 67.9741 19.6451C67.8311 19.5013 67.6874 19.3575 67.5443 19.2142C67.5295 19.1975 67.5147 19.1807 67.4999 19.164L67.4936 19.1559C67.4805 19.1403 67.4668 19.1247 67.4537 19.1097L67.4406 19.1062L67.4417 19.0923C67.4224 19.0894 67.4121 19.0779 67.4115 19.0577C67.3927 19.0542 67.3842 19.0427 67.3859 19.023H67.3825V19.0323C67.3654 19.0051 67.3488 18.9785 67.3323 18.9514C67.3175 18.9335 67.3032 18.915 67.2884 18.8971L67.2827 18.8884C67.2696 18.8734 67.2565 18.8578 67.2439 18.8428L67.2303 18.8393V18.8249L67.212 18.818V18.7978C67.183 18.7562 67.1539 18.7146 67.1248 18.673C67.1145 18.6603 67.1043 18.647 67.0946 18.6343C67.0689 18.5962 67.0439 18.5581 67.0182 18.5199C67.0062 18.5026 66.9943 18.4859 66.9823 18.4691L66.9686 18.4622L66.9709 18.4472C66.9544 18.4194 66.9373 18.3917 66.9207 18.3634L66.915 18.3519C66.8957 18.3478 66.8888 18.3368 66.8951 18.3178C66.8831 18.2976 66.8711 18.2768 66.8592 18.2566C66.8472 18.2386 66.8358 18.2202 66.8238 18.2023L66.8102 18.1953L66.8124 18.1803C66.797 18.1526 66.7816 18.1243 66.7663 18.0966L66.7537 18.0891L66.7566 18.0746L66.7446 18.0677H66.7543C66.736 18.0434 66.7178 18.0192 66.6996 17.9949C66.6853 17.9764 66.6711 17.9579 66.6568 17.9395C66.6551 17.914 66.6534 17.8892 66.6517 17.8638L66.6363 17.8569V17.8401C66.3883 17.4092 66.2669 16.9344 66.1694 16.4516C66.158 16.4313 66.1461 16.4106 66.1347 16.3903C66.129 16.321 66.1233 16.2523 66.1176 16.183C66.1039 16.1628 66.0902 16.1425 66.076 16.1223C66.072 15.9993 66.068 15.8763 66.064 15.7532C66.0583 15.7411 66.0509 15.729 66.0475 15.7157C66.0463 15.7111 66.0549 15.7042 66.0589 15.6978C66.0463 15.234 66.0332 14.7696 66.0207 14.3058C66.0446 14.2873 66.0674 14.2561 66.0925 14.2538C66.1706 14.2469 66.2498 14.2503 66.3291 14.2503C69.2755 14.2503 72.2214 14.2503 75.1679 14.2503C75.2642 14.2503 75.3605 14.2451 75.4569 14.2428C75.4745 14.2417 75.4922 14.2405 75.5093 14.2394C75.5247 14.2446 75.5407 14.2457 75.5566 14.2434C75.5219 13.7178 75.5065 13.1899 75.4455 12.6677C75.4027 12.3015 75.299 11.9423 75.222 11.5801L75.2197 11.5726ZM69.8911 13.1113C69.967 13.1113 70.0428 13.1113 70.1186 13.1102C70.0428 13.1107 69.967 13.1113 69.8911 13.1113ZM70.8043 13.0616C70.3512 13.0663 69.8974 13.0709 69.4442 13.0761C69.4402 13.0876 69.438 13.0992 69.4368 13.1113C69.1581 13.1188 68.8799 13.1263 68.6012 13.1333C68.494 13.1269 68.3868 13.1206 68.2797 13.1142C67.9291 13.12 67.5785 13.1258 67.228 13.1315C66.8575 13.1304 66.4864 13.1292 66.1159 13.1281C66.1073 12.562 66.1575 12.0012 66.2709 11.4467C66.2954 11.3283 66.3216 11.2099 66.3473 11.0915C66.3461 11.0568 66.345 11.0222 66.3439 10.9875C66.3422 10.9696 66.341 10.9511 66.3393 10.9332C66.3536 10.9159 66.3684 10.8985 66.3826 10.8806C66.3912 10.8616 66.4003 10.8425 66.4088 10.8235C66.4168 10.8038 66.4242 10.7848 66.4322 10.7651C66.4391 10.7316 66.4459 10.6975 66.4527 10.664C66.4641 10.6288 66.4761 10.5936 66.4875 10.5583C66.4961 10.5214 66.5046 10.485 66.5132 10.448C66.5223 10.3966 66.5314 10.3446 66.5411 10.2932C66.5616 10.2401 66.5827 10.1869 66.6032 10.1338C66.6169 10.113 66.63 10.0928 66.6437 10.072C66.654 10.0373 66.6642 10.0027 66.6751 9.96804C66.683 9.95129 66.691 9.93454 66.699 9.91779C66.7018 9.72371 66.821 9.57238 66.9036 9.4147C67.045 9.14438 67.2211 8.89313 67.383 8.63379C67.3733 8.5535 67.4178 8.52578 67.4885 8.52289C67.5101 8.48881 67.5312 8.45531 67.5529 8.42123C67.5666 8.40217 67.5808 8.38311 67.5945 8.36405C67.6116 8.3473 67.6293 8.32997 67.6464 8.31322C67.7 8.27741 67.753 8.2416 67.8066 8.20579C67.8231 8.18788 67.839 8.16998 67.8556 8.15265C67.8921 8.13879 67.9285 8.12493 67.965 8.11106C68.1087 8.02096 68.2495 7.92277 68.4307 7.93663C68.5043 7.91641 68.5772 7.8962 68.6508 7.87598C68.7568 7.87598 68.8622 7.87598 68.9683 7.87598C69.0219 7.89735 69.0749 7.91872 69.1284 7.94009C69.2271 7.96378 69.3388 7.96609 69.4214 8.01634C69.5611 8.10182 69.6825 8.2185 69.8113 8.32246C69.8262 8.33806 69.841 8.35423 69.8558 8.36983L69.8626 8.37791C69.8752 8.39235 69.8871 8.40622 69.8997 8.42066C70.118 8.6413 70.2183 8.93125 70.3335 9.2085C70.4116 9.39506 70.4481 9.59953 70.5034 9.79591C70.5125 9.81844 70.521 9.84097 70.5301 9.86349C70.5438 9.89988 70.5569 9.93685 70.5706 9.97324C70.5792 9.99692 70.5871 10.0206 70.5957 10.0437C70.6316 10.2915 70.6744 10.5381 70.7017 10.7871C70.7861 11.5426 70.8533 12.2998 70.8055 13.0616H70.8043Z" fill="#FFFFFF" />
<path d="M88.4381 16.8922C88.4028 16.7062 88.3623 16.5208 88.3247 16.3348C88.3116 16.3152 88.2985 16.2955 88.2854 16.2759C88.2101 16.0818 88.1355 15.8877 88.0602 15.6942C88.0465 15.6734 88.0334 15.6527 88.0197 15.6324L88.014 15.6209C87.9947 15.6168 87.9878 15.6059 87.9941 15.5868C87.9816 15.5672 87.9696 15.5481 87.957 15.5285C87.9439 15.5094 87.9303 15.4903 87.9171 15.4713L87.9086 15.4551L87.8898 15.447V15.4268C87.8601 15.387 87.8305 15.3477 87.8009 15.3078C87.7872 15.2911 87.7729 15.2743 87.7592 15.2582L87.7501 15.246C87.7382 15.2322 87.7268 15.2189 87.7148 15.205C87.6988 15.2033 87.6925 15.194 87.696 15.1779L87.6777 15.1721L87.6743 15.153C87.6532 15.1513 87.6424 15.1397 87.6418 15.1184H87.6276V15.1051C87.5426 15.019 87.4577 14.9335 87.3728 14.8475H87.3585V14.8325C87.338 14.8325 87.3266 14.8221 87.3243 14.8013C87.3066 14.8036 87.2975 14.7955 87.2964 14.7776L87.2799 14.7753L87.2741 14.7591C87.261 14.747 87.2479 14.7348 87.2348 14.7233L87.2217 14.7129C87.2057 14.699 87.1898 14.6852 87.1738 14.6713C87.0627 14.5864 86.9521 14.5009 86.8409 14.416L86.8238 14.4189L86.8164 14.4022L86.7993 14.3929C86.7816 14.3796 86.7634 14.3658 86.7457 14.3525C86.7241 14.3369 86.7024 14.3219 86.6808 14.3063L86.6654 14.3109L86.6591 14.2953L86.6466 14.2982L86.6414 14.2861C86.6232 14.2728 86.6055 14.2595 86.5873 14.2456C86.4961 14.1994 86.4049 14.1538 86.3142 14.1064C86.1233 14.0077 85.9329 13.9077 85.7425 13.809C85.7248 13.7945 85.7072 13.7801 85.6895 13.7656L85.6889 13.7645C85.6695 13.7483 85.6501 13.7321 85.6308 13.716C85.6148 13.7102 85.5988 13.7044 85.5829 13.6986C85.5538 13.6842 85.5247 13.6698 85.4951 13.6547C85.3839 13.6172 85.2734 13.5791 85.1622 13.5415C85.1445 13.5271 85.1263 13.5132 85.1086 13.4988V13.4982C85.0784 13.4797 85.0476 13.4607 85.0174 13.4422C84.7495 13.3509 84.4816 13.2591 84.2137 13.1678C84.1954 13.154 84.1772 13.1395 84.159 13.1257C84.1276 13.1072 84.0963 13.0881 84.0649 13.0696C84.0301 13.0696 83.9908 13.0812 83.9623 13.0679C83.6932 12.9426 83.4265 12.8126 83.1591 12.6844C83.1295 12.6694 83.0998 12.6538 83.0702 12.6388C82.9984 12.6081 82.9226 12.5862 82.8564 12.5463C82.4979 12.3315 82.1416 12.112 81.7842 11.8942C81.7677 11.8792 81.7517 11.8642 81.7352 11.8492L81.7272 11.8422C81.7118 11.8272 81.6964 11.8128 81.6816 11.7978L81.6731 11.7897C81.6583 11.7752 81.6429 11.7602 81.628 11.7458L81.6178 11.7371C81.6035 11.7227 81.5893 11.7082 81.5745 11.6932L81.5659 11.6834C81.5517 11.6678 81.5368 11.6528 81.5226 11.6372C81.4912 11.5956 81.4593 11.5546 81.428 11.513C81.245 11.2716 81.0991 11.0076 81.0489 10.7061C80.9372 10.0332 81.009 9.38803 81.3744 8.79658C81.4245 8.73131 81.4753 8.66604 81.5254 8.60077L81.5226 8.58517L81.538 8.58286C81.5676 8.5638 81.5973 8.54417 81.6269 8.5251C81.6269 8.50778 81.6309 8.4916 81.64 8.47659C81.6714 8.44251 81.7027 8.40901 81.7346 8.37493L81.742 8.36858C81.7745 8.35067 81.807 8.33219 81.8395 8.31428C81.8555 8.29638 81.872 8.27789 81.888 8.25999C81.9421 8.22995 81.9957 8.19992 82.0499 8.16988L82.0567 8.15429C82.1074 8.13985 82.1587 8.12541 82.2095 8.11097C82.3292 8.07111 82.4489 8.03126 82.5692 7.99141C82.6415 7.97119 82.7139 7.95097 82.7869 7.93076C82.8051 7.93711 82.8234 7.94404 82.8416 7.9504C83.0007 7.9504 83.1597 7.9504 83.3182 7.9504C83.3547 7.9452 83.3906 7.94 83.427 7.93538C83.3204 7.89437 83.2139 7.87415 83.1073 7.87415C83.2139 7.87415 83.3204 7.89379 83.427 7.93538C83.4801 7.95444 83.5331 7.97408 83.5861 7.99314C83.7776 8.04743 83.9925 8.01104 84.1635 8.15082C84.1846 8.16815 84.2314 8.15371 84.2667 8.15429C84.3186 8.16584 84.371 8.17797 84.4229 8.18952C84.5523 8.26634 84.6822 8.34374 84.8116 8.42114C84.8407 8.43327 84.8692 8.44482 84.8983 8.45695C85.0374 8.57709 85.1799 8.69434 85.3155 8.8191C85.6615 9.13736 85.9317 9.51568 86.1643 9.92404C86.1877 10.0182 86.2082 10.1152 86.3199 10.1453C86.3769 10.2833 86.4339 10.4214 86.4904 10.5594C86.508 10.5946 86.5257 10.6293 86.5434 10.6645C86.5628 10.7188 86.5821 10.7731 86.601 10.8274C86.6146 10.8436 86.6283 10.8603 86.642 10.8765L86.6466 10.8788C86.6619 10.9152 86.6773 10.9522 86.6927 10.9886C86.6961 11.0244 86.7001 11.0596 86.7036 11.0954C86.7172 11.1127 86.7315 11.1306 86.7452 11.148C86.7628 11.2017 86.7805 11.2554 86.7982 11.3091C86.8141 11.3438 86.8301 11.3784 86.8461 11.4137C86.8466 11.416 86.8478 11.4189 86.8495 11.4206C86.8706 11.5078 86.8917 11.595 86.9133 11.6823C86.9133 11.8607 87.037 11.7654 87.1134 11.7747C87.2428 11.7435 87.3745 11.7192 87.5016 11.6788C87.7496 11.6008 87.7473 11.5973 87.7347 11.3293C87.7 10.5958 87.6686 9.86166 87.6321 9.12812C87.6088 8.66026 87.5774 8.19356 87.5495 7.72571C87.5535 7.72109 87.5575 7.71647 87.5614 7.71185L87.5352 7.69568C87.5164 7.68932 87.4976 7.68297 87.4788 7.67661C87.4463 7.66218 87.4138 7.64774 87.3813 7.6333C87.3266 7.61192 87.2713 7.59055 87.2166 7.56918C87.1835 7.55474 87.1505 7.5403 87.1174 7.52644C86.8723 7.45077 86.6266 7.37569 86.3815 7.30002C86.3456 7.28616 86.3091 7.27172 86.2732 7.25786C86.1848 7.23706 86.0965 7.21569 86.0081 7.1949C85.9557 7.18046 85.9038 7.16544 85.8514 7.151C85.8001 7.14696 85.7488 7.14349 85.6969 7.13945C85.6604 7.12559 85.6239 7.11172 85.5874 7.09786C85.5361 7.09382 85.4848 7.09035 85.433 7.08631C85.3788 7.07245 85.3247 7.05801 85.2705 7.04415C85.2357 7.04068 85.201 7.03779 85.1662 7.03433C85.0955 7.01989 85.0248 7.00545 84.9541 6.99101C84.8846 6.98754 84.8156 6.9835 84.7467 6.98003C84.6754 6.96617 84.6036 6.95173 84.5323 6.93787C84.428 6.9344 84.3237 6.93036 84.2194 6.92689C84.0945 6.91188 83.9697 6.89686 83.8454 6.88184C83.8283 6.8778 83.8118 6.87318 83.7947 6.86913C83.7884 6.857 83.7816 6.84488 83.7748 6.83275C83.3604 6.83101 82.9454 6.82986 82.531 6.82812C82.5275 6.83968 82.5247 6.85181 82.523 6.86394C82.454 6.87029 82.3845 6.87722 82.3155 6.88357C82.2625 6.87838 82.2095 6.87376 82.1559 6.86856C82.0869 6.87491 82.0174 6.88069 81.9484 6.88704C81.9125 6.88588 81.8771 6.88473 81.8412 6.88357C81.8219 6.89744 81.803 6.9113 81.7837 6.92574L81.7865 6.92285C81.6982 6.94249 81.6104 6.96155 81.522 6.98119C81.5043 6.98003 81.4878 6.9835 81.4719 6.99101C81.4194 6.99101 81.367 6.99216 81.3151 6.99216C81.2798 6.99216 81.2438 6.99101 81.2085 6.99043L81.1515 7.03259L81.1538 7.03028C81.0848 7.04992 81.0158 7.06956 80.9469 7.0892C80.8933 7.09209 80.8403 7.09497 80.7867 7.09786C80.7679 7.11172 80.7485 7.12617 80.7297 7.14003L80.7314 7.13772L80.6299 7.1562C80.6117 7.15447 80.5934 7.15331 80.5758 7.15158C80.5581 7.16544 80.5399 7.1793 80.5222 7.19317L80.5205 7.1949C80.4686 7.21396 80.4167 7.23244 80.3649 7.2515C80.2942 7.27114 80.2241 7.29136 80.1534 7.311C80.1346 7.32486 80.1163 7.3393 80.0975 7.35316L80.0987 7.35201C80.0468 7.37164 79.9949 7.39186 79.943 7.4115C79.8022 7.48659 79.6615 7.56167 79.5207 7.63618C79.4859 7.64889 79.4511 7.66218 79.4163 7.67488L79.4146 7.67835C79.381 7.6951 79.3474 7.71185 79.3143 7.72918L79.3097 7.73957C79.2351 7.73437 79.1735 7.75112 79.1524 7.83545L79.1513 7.83776C79.0988 7.87242 79.0464 7.90765 78.994 7.94231L78.9928 7.94462C78.9415 7.97985 78.8902 8.01509 78.8389 8.05032L78.8355 8.05841C78.7939 8.07804 78.7528 8.09826 78.7112 8.1179C78.7015 8.11963 78.6941 8.12541 78.6901 8.13523C78.6668 8.15949 78.644 8.18374 78.6206 8.208L78.6217 8.20685C78.6052 8.22591 78.5892 8.24497 78.5727 8.26403L78.5716 8.2675C78.5431 8.2854 78.5146 8.30331 78.4866 8.32064L78.4695 8.31775L78.4667 8.33508C78.4325 8.36511 78.3983 8.39457 78.3641 8.4246L78.3595 8.42922C78.3242 8.46272 78.2894 8.4968 78.2541 8.5303L78.2529 8.53146C78.2216 8.56727 78.1902 8.60366 78.1589 8.64005C78.1509 8.65449 78.1469 8.67008 78.1469 8.68625C78.1133 8.70589 78.0796 8.72553 78.046 8.74517C77.9947 8.81102 77.9434 8.87686 77.8915 8.94271C77.8539 8.98314 77.8163 9.02415 77.7787 9.06458C77.7889 9.06458 77.7986 9.06458 77.8077 9.06342C77.7992 9.06458 77.7895 9.06516 77.7787 9.06458C77.7541 9.09404 77.7296 9.1235 77.7046 9.15238L77.7023 9.16566V9.15238C77.6818 9.17779 77.6601 9.20263 77.6384 9.22804C77.6327 9.24595 77.6276 9.26327 77.6219 9.28118C77.5917 9.31699 77.5615 9.3528 77.5313 9.38803C77.5267 9.40652 77.5221 9.425 77.517 9.44348C77.4686 9.51395 77.4195 9.58442 77.3711 9.65546C77.3677 9.67568 77.3637 9.69589 77.3603 9.71611C77.3272 9.78542 77.2941 9.85416 77.2616 9.92347L77.2537 9.92693C77.24 9.94311 77.2263 9.9587 77.2126 9.97487C77.2086 9.99336 77.2041 10.0118 77.2001 10.0303C77.1858 10.0477 77.1716 10.0644 77.1573 10.0817C77.1545 10.1193 77.1511 10.1562 77.1482 10.1938C77.1151 10.2637 77.0821 10.3336 77.049 10.4035C77.0462 10.456 77.0433 10.5086 77.0399 10.5611C76.9572 10.6102 76.9185 10.679 76.9436 10.7772C76.9248 10.9198 76.9054 11.0625 76.8866 11.2057C76.8005 11.2548 76.8022 11.3085 76.8786 11.3663C76.8706 11.4893 76.8598 11.6118 76.8564 11.7348C76.8512 11.9133 76.8404 12.0923 76.8535 12.2697C76.8695 12.4851 76.9077 12.6982 76.9362 12.9125C76.9476 12.9304 76.959 12.9483 76.9704 12.9662C76.9926 13.0483 77.0177 13.1297 77.0376 13.2123C77.1351 13.6172 77.3625 13.9574 77.5672 14.3092C77.5809 14.3259 77.594 14.3421 77.6076 14.3588L77.6185 14.3739C77.6379 14.3756 77.6453 14.3854 77.6413 14.4045C77.8129 14.5795 77.985 14.7545 78.1566 14.9301L78.1743 14.9289L78.18 14.9462H78.1953L78.1999 14.9613C78.2147 14.974 78.229 14.9873 78.2438 15C78.3361 15.0704 78.4285 15.1409 78.5208 15.2108C78.5493 15.2304 78.5778 15.2495 78.6069 15.2691L78.62 15.2657L78.6246 15.2784C78.6417 15.2911 78.6588 15.3044 78.6759 15.3171L78.6793 15.3194C78.7084 15.3384 78.7369 15.3575 78.7654 15.376L78.7779 15.3719L78.783 15.3846C78.8013 15.3974 78.8195 15.4101 78.8378 15.4228C78.8725 15.443 78.9073 15.4632 78.9415 15.4834C78.9706 15.5013 78.9991 15.5186 79.0282 15.5366L79.0407 15.5319L79.0464 15.5446C79.0658 15.5568 79.0852 15.5695 79.1051 15.5816C79.4021 15.7295 79.6991 15.8773 79.9961 16.0252C80.0263 16.0402 80.0559 16.0552 80.0861 16.0703L80.1015 16.0743C80.1346 16.0899 80.1682 16.1049 80.2013 16.1205C80.256 16.1419 80.3101 16.1638 80.3649 16.1852C80.3974 16.1996 80.4293 16.2141 80.4618 16.2285C80.6579 16.303 80.8539 16.3775 81.0506 16.452C81.0859 16.4653 81.1219 16.4786 81.1572 16.4925C81.1743 16.4971 81.192 16.5017 81.2091 16.5063C81.241 16.5208 81.2735 16.5352 81.3054 16.5497C81.5368 16.6421 81.7683 16.7345 81.9997 16.8263C82.0316 16.8408 82.0635 16.8558 82.0955 16.8702C82.2266 16.9407 82.3582 17.0106 82.4894 17.081C82.5498 17.1134 82.6073 17.1654 82.6712 17.1752C82.8849 17.2093 83.0474 17.3346 83.2133 17.4582C83.2412 17.4767 83.2686 17.4952 83.2965 17.5137L83.3108 17.5114L83.3153 17.5246C83.3313 17.5373 83.3478 17.5501 83.3638 17.5628C83.3849 17.5789 83.4054 17.5951 83.4265 17.6107C83.4533 17.6315 83.4801 17.6523 83.5068 17.6731H83.5222L83.5262 17.6881C83.5393 17.7002 83.553 17.7124 83.5661 17.7245L83.5781 17.7349C83.5924 17.7493 83.6066 17.7632 83.6209 17.7776L83.6305 17.7886C83.6459 17.8198 83.6619 17.851 83.6773 17.8822L83.6858 17.8926C83.7126 17.9076 83.7394 17.9226 83.7662 17.9382C83.7924 17.9729 83.8187 18.0081 83.8449 18.0427C83.8591 18.0612 83.8734 18.0797 83.8876 18.0982L83.8933 18.1086C83.903 18.1213 83.9121 18.134 83.9218 18.1467C83.9828 18.2565 84.0444 18.3662 84.1054 18.4759C84.1196 18.5094 84.1344 18.5429 84.1487 18.577C84.1704 18.6654 84.192 18.7538 84.2137 18.8421C84.2257 18.8606 84.2376 18.8791 84.2496 18.8976C84.3984 19.5526 84.2382 20.1371 83.8546 20.6708C83.8489 20.6956 83.8432 20.7199 83.8375 20.7447L83.8352 20.7609L83.8192 20.7655C83.8181 20.7858 83.8073 20.7973 83.7873 20.7996V20.8141L83.7736 20.8175C83.7605 20.832 83.7474 20.8464 83.7349 20.8608L83.7257 20.8712C83.7115 20.8868 83.6967 20.9019 83.6824 20.9174L83.6756 20.9255C83.6602 20.9411 83.6454 20.9561 83.63 20.9717L83.622 20.9787C83.6072 20.9937 83.5918 21.0087 83.577 21.0237L83.5684 21.0324C83.5536 21.0474 83.5388 21.063 83.524 21.078L83.5171 21.0861C83.5017 21.1011 83.4863 21.1167 83.4715 21.1317L83.463 21.1392C83.4481 21.1531 83.4333 21.167 83.4185 21.1808L83.4037 21.193C83.3911 21.2039 83.3792 21.2149 83.3666 21.2265C83.3666 21.2426 83.3581 21.2496 83.3421 21.2473L83.3381 21.2634L83.3244 21.2588C83.3039 21.2738 83.2834 21.2894 83.2634 21.3044C83.2452 21.3183 83.227 21.3316 83.2087 21.3454L83.1939 21.3535L83.1848 21.3726H83.1643C83.0976 21.4067 83.0309 21.4402 82.9642 21.4748C82.7442 21.5898 82.5207 21.6908 82.2648 21.6793C82.2289 21.692 82.1935 21.7053 82.1576 21.718C82.1394 21.7243 82.1205 21.7313 82.1023 21.7376C81.8389 21.7376 81.5762 21.7376 81.3128 21.7371C81.0352 21.707 80.7542 21.6897 80.5085 21.532L80.4874 21.5366L80.4743 21.5181C80.4401 21.5181 80.3991 21.5303 80.3723 21.5153C80.0536 21.3391 79.7122 21.1993 79.4488 20.9336C79.4483 20.9319 79.446 20.9278 79.446 20.9278C79.4283 20.9307 79.4181 20.9238 79.4146 20.9059C79.4021 20.8949 79.3901 20.8839 79.3776 20.873L79.3628 20.8614C79.3474 20.8481 79.3325 20.8343 79.3172 20.821C79.1735 20.6772 79.0299 20.5339 78.8862 20.3901C78.8714 20.3734 78.8571 20.3566 78.8423 20.3393L78.8355 20.33C78.8224 20.315 78.8093 20.3 78.7961 20.285L78.7825 20.2827V20.2688C78.7711 20.2567 78.7597 20.244 78.7483 20.2318C78.7323 20.2301 78.726 20.2214 78.7295 20.2058L78.7129 20.2018L78.7106 20.1851C78.5396 19.9459 78.347 19.7189 78.2028 19.4642C77.9907 19.0888 77.8129 18.6937 77.6208 18.3073C77.6128 18.2923 77.6048 18.2767 77.5968 18.2617C77.5877 18.2386 77.5786 18.2154 77.57 18.1929L77.5529 18.1814L77.5581 18.1617C77.4731 17.9757 77.3682 17.7961 77.3101 17.602C77.2679 17.4617 77.187 17.4553 77.0804 17.4542C77.0513 17.464 77.0217 17.4738 76.9926 17.4842C76.8324 17.5345 76.6717 17.5847 76.4961 17.6402C76.5559 19.1506 76.6147 20.6437 76.6745 22.1575C76.8404 22.2321 77.004 22.3256 77.1801 22.3811C77.5518 22.4989 77.9297 22.5965 78.3054 22.7022C78.3584 22.7167 78.412 22.7311 78.465 22.7461C78.4826 22.745 78.4997 22.7479 78.5163 22.7559C78.5704 22.7704 78.624 22.7848 78.6782 22.7987C78.7124 22.8021 78.746 22.8056 78.7802 22.8091C78.8172 22.8229 78.8537 22.8374 78.8908 22.8512C78.9421 22.8547 78.9928 22.8587 79.0441 22.8622C79.0983 22.8767 79.1518 22.8905 79.206 22.905C79.2573 22.9073 79.3092 22.9096 79.3605 22.9125C79.4146 22.9281 79.4682 22.9431 79.5224 22.9587C79.5737 22.9616 79.6255 22.9644 79.6768 22.9673C79.7481 22.9824 79.8199 22.9968 79.8912 23.0118C79.9607 23.0147 80.0297 23.0176 80.0992 23.0211C80.1693 23.0205 80.2395 23.0199 80.3096 23.0187C80.3181 23.0309 80.3255 23.0442 80.3318 23.0574C80.4304 23.0655 80.5296 23.0742 80.6282 23.0823C80.6801 23.0765 80.7314 23.0707 80.7833 23.0644C80.8186 23.0673 80.8545 23.0702 80.8899 23.073C81.0426 23.0742 81.1948 23.0753 81.3476 23.0765C81.7603 23.0748 82.1736 23.073 82.5863 23.0707C82.1736 23.0725 81.7603 23.0742 81.3476 23.0765C81.3539 23.0886 81.3596 23.1013 81.3653 23.1135C81.4354 23.1181 81.5061 23.1227 81.5762 23.1273C81.8213 23.1273 82.0664 23.1279 82.3115 23.1285C82.4004 23.1216 82.4894 23.1152 82.5783 23.1083C82.6923 23.1088 82.8069 23.1094 82.9209 23.11C82.9277 23.0961 82.9363 23.0834 82.9454 23.0713C83.0332 23.0725 83.1215 23.0742 83.2093 23.0753C83.5627 23.0003 83.9275 22.9945 84.2747 22.8761C84.4941 22.8016 84.7244 22.7582 84.9502 22.7016C84.9655 22.6936 84.9821 22.6889 84.9992 22.6872L84.998 22.6884C85.0174 22.6745 85.0362 22.6612 85.0556 22.6473C85.0927 22.6445 85.1303 22.6421 85.1673 22.6393C85.2169 22.6173 85.2659 22.5959 85.3155 22.574C85.3343 22.563 85.3537 22.552 85.3725 22.5411C85.3902 22.5399 85.4073 22.5388 85.425 22.5376L85.4375 22.5341C85.4683 22.5197 85.4991 22.5047 85.5299 22.4902C85.7208 22.3955 85.9118 22.3008 86.1022 22.2061C86.1227 22.1928 86.1432 22.1789 86.1632 22.1656L86.1751 22.1604C86.2059 22.142 86.2367 22.124 86.2669 22.1056C86.3216 22.0698 86.3764 22.0334 86.4305 21.9976C86.447 21.9848 86.4641 21.9721 86.4807 21.9594L86.4852 21.9461L86.4989 21.949C86.5268 21.93 86.5553 21.9109 86.5833 21.8919C86.6739 21.8208 86.7651 21.7498 86.8558 21.6781C86.8717 21.6643 86.8877 21.6504 86.9036 21.6366L86.9156 21.6273C86.9447 21.6054 86.9738 21.5828 87.0028 21.5609C87.175 21.3841 87.3465 21.2074 87.5187 21.0301V21.0104C87.5187 21.0104 87.5381 21.0041 87.5375 21.0041V20.9891L87.5523 20.9856C87.5649 20.97 87.5774 20.9544 87.5899 20.9394C87.6418 20.8603 87.6994 20.7846 87.7439 20.7014C87.8738 20.4583 87.9987 20.2128 88.1258 19.9679C88.1395 19.9494 88.1531 19.9309 88.1674 19.913H88.1668C88.1856 19.8801 88.205 19.8466 88.2238 19.8137C88.2329 19.7553 88.2364 19.6953 88.2523 19.6386C88.3173 19.4088 88.3857 19.18 88.453 18.9507C88.4513 18.9161 88.4495 18.8814 88.4478 18.8468C88.4609 18.7185 88.4632 18.5886 88.4889 18.4627C88.5955 17.9365 88.5362 17.4166 88.4381 16.898V16.8922Z" fill="#FFFFFF" />
<path d="M44.4991 7.23637C44.3053 7.16821 44.111 7.10006 43.9171 7.0319C43.8818 7.01804 43.847 7.00418 43.8117 6.99031C43.7598 6.98627 43.7085 6.98165 43.6566 6.97761C43.6031 6.96317 43.5489 6.9493 43.4953 6.93486C43.4434 6.9314 43.3921 6.92793 43.3403 6.92389C43.269 6.91003 43.1978 6.89559 43.1259 6.88172C43.0741 6.8771 43.0228 6.87191 42.9709 6.86728C42.7395 6.78411 42.508 6.78353 42.2766 6.86728C42.2595 6.87017 42.2435 6.87479 42.2282 6.88172C42.1757 6.88172 42.1238 6.8823 42.0714 6.88288C41.7932 6.93313 41.5202 6.99898 41.2774 7.15493C41.242 7.16763 41.2072 7.17976 41.1719 7.19247C41.1018 7.23348 41.0322 7.27391 40.9621 7.31492C40.9279 7.32763 40.8943 7.34034 40.8601 7.35304L40.8567 7.35997C40.8037 7.3929 40.7506 7.42582 40.6982 7.45874C40.6646 7.47723 40.6315 7.49571 40.5979 7.51362L40.5939 7.52343C40.5426 7.55578 40.4913 7.58813 40.44 7.62047L40.436 7.63029C40.3949 7.64877 40.3545 7.66726 40.3134 7.68574C40.2998 7.68689 40.2912 7.69383 40.2878 7.70711C40.2673 7.73195 40.2467 7.75621 40.2268 7.78104L40.2257 7.78451C40.1846 7.8053 40.143 7.8261 40.102 7.84689C40.09 7.84862 40.0826 7.85555 40.0786 7.86768C40.0558 7.89136 40.033 7.91505 40.0108 7.9393L40.0119 7.93815C39.9954 7.95721 39.9788 7.97627 39.9629 7.99533L39.9617 7.99764C39.9338 8.01613 39.9053 8.03403 39.8774 8.05251L39.8603 8.04963L39.8574 8.06695C39.8232 8.09699 39.789 8.12645 39.7548 8.15648C39.6488 8.26796 39.5422 8.37886 39.4362 8.49033C39.4151 8.51921 39.3946 8.54809 39.3735 8.57697C39.3398 8.61452 39.3056 8.65206 39.272 8.6896C39.2395 8.73234 39.207 8.77566 39.1745 8.81841C39.1443 8.84786 39.1141 8.87732 39.0839 8.90678C39.0617 8.9501 39.0394 8.994 39.0172 9.03732C39.0018 9.06504 38.9858 9.09277 38.9705 9.12049L38.9613 9.12569C38.9294 9.17767 38.8981 9.22908 38.8661 9.28106L38.8564 9.28742C38.8262 9.32092 38.7955 9.35442 38.7652 9.38792C38.7607 9.40871 38.7561 9.42893 38.7516 9.44972C38.7367 9.48264 38.7214 9.51557 38.7065 9.54849L38.6986 9.55427C38.625 9.58026 38.5868 9.62878 38.6022 9.71079L38.5942 9.71888C38.5817 9.73217 38.5686 9.74603 38.556 9.75931C38.5503 9.77895 38.5446 9.79859 38.5395 9.81823C38.527 9.8344 38.5144 9.84999 38.5013 9.86617C38.4962 9.88581 38.4916 9.90544 38.4865 9.92508C38.474 9.94126 38.4614 9.95685 38.4489 9.97302C38.4443 9.99324 38.4392 10.0135 38.4346 10.0337C38.4175 10.0851 38.401 10.1365 38.3839 10.1885L38.381 10.1914C38.3634 10.2093 38.3457 10.2272 38.328 10.2456C38.3098 10.2445 38.291 10.2428 38.2727 10.2416C38.275 10.1879 38.2773 10.1348 38.2796 10.081C38.2767 10.0192 38.271 9.95743 38.2722 9.89563C38.2841 8.89349 38.2967 7.89194 38.3092 6.88981C38.2619 6.88981 38.2146 6.88923 38.1679 6.88866C38.1337 6.8875 38.0989 6.88692 38.0647 6.88577C38.0293 6.88577 37.9934 6.88461 37.9581 6.88404C37.9393 6.8979 37.9199 6.91234 37.9011 6.9262L37.9034 6.92389C37.8692 6.92909 37.8355 6.93429 37.8013 6.93948C37.766 6.93948 37.7301 6.93833 37.6947 6.93775C37.6759 6.95161 37.6565 6.96605 37.6377 6.97992L37.64 6.97761C37.6058 6.9828 37.5722 6.988 37.538 6.9932C37.5026 6.9932 37.4667 6.99205 37.4314 6.99147C37.4126 7.00533 37.3932 7.01977 37.3744 7.03363L37.3767 7.03132C37.3425 7.03652 37.3088 7.04172 37.2746 7.04692C37.2393 7.04692 37.2034 7.04576 37.168 7.04518C37.1487 7.05905 37.1298 7.07349 37.1105 7.08735L37.1127 7.08504C37.0785 7.09024 37.0449 7.09544 37.0107 7.10063C36.9754 7.10063 36.9394 7.09948 36.9041 7.0989C36.8847 7.11276 36.8659 7.1272 36.8465 7.14107L36.8488 7.13818C36.7781 7.15724 36.7069 7.1763 36.6362 7.19536C36.6191 7.19478 36.6026 7.19825 36.5872 7.20576C36.5 7.22077 36.4122 7.23521 36.325 7.25023C36.3067 7.2537 36.2891 7.25716 36.2708 7.26063C36.2007 7.27507 36.1312 7.28951 36.061 7.30395C36.0428 7.30741 36.0251 7.31088 36.0069 7.31434C35.9368 7.32878 35.8672 7.34322 35.7971 7.35766C35.7789 7.36113 35.7612 7.3646 35.743 7.36806C35.6729 7.3825 35.6033 7.39694 35.5332 7.41138C35.515 7.41485 35.4973 7.41831 35.479 7.42178C35.4266 7.42178 35.3747 7.42293 35.3223 7.42351L35.2659 7.45874L35.0584 7.47723C35.0396 7.48878 35.0207 7.50091 35.0019 7.51246C34.9147 7.5321 34.8269 7.55174 34.7397 7.57138C34.7226 7.57484 34.7049 7.57831 34.6878 7.58177C34.6531 7.58177 34.6183 7.58177 34.5835 7.58235C34.5482 7.58235 34.5123 7.58119 34.4764 7.58062C34.4576 7.59448 34.4387 7.60892 34.4194 7.62278L34.4216 7.62047C34.3874 7.62567 34.3538 7.63087 34.3196 7.63607C34.2837 7.63607 34.2484 7.63491 34.2124 7.63433C34.1936 7.6482 34.1748 7.66264 34.1554 7.6765L34.1577 7.67419C34.1235 7.67939 34.0899 7.68458 34.0557 7.68978C34.0198 7.68978 33.9844 7.68863 33.9485 7.68805C33.9297 7.70191 33.9109 7.71635 33.8915 7.73021L33.8938 7.7279C33.8596 7.7331 33.826 7.7383 33.7918 7.7435C33.7559 7.7435 33.7205 7.74234 33.6846 7.74177L33.6276 7.78393L33.6299 7.78162C33.5957 7.78682 33.562 7.79202 33.5278 7.79722C33.4919 7.79722 33.4566 7.79606 33.4207 7.79548C33.4019 7.80935 33.3831 7.82379 33.3637 7.83765L33.366 7.83534C33.3318 7.84054 33.2981 7.84573 33.2639 7.85093C33.228 7.85093 33.1927 7.84978 33.1568 7.8492C33.1379 7.86306 33.1186 7.8775 33.0998 7.89136L33.102 7.88905C33.0678 7.89425 33.0342 7.89945 33 7.90465C32.9641 7.90465 32.9287 7.90349 32.8928 7.90292C32.874 7.91678 32.8546 7.93122 32.8358 7.94508L32.8387 7.94219C32.768 7.96125 32.6973 7.98031 32.6261 7.99937C32.6084 7.99822 32.5919 8.00169 32.5765 8.00977C32.4893 8.02479 32.402 8.03923 32.3148 8.05425C32.2966 8.05771 32.2783 8.06118 32.2601 8.06464C32.1906 8.07908 32.121 8.09352 32.0515 8.10796C32.0332 8.11143 32.015 8.11489 31.9968 8.11836C31.9272 8.1328 31.8577 8.14724 31.7881 8.16168C31.7699 8.16514 31.7516 8.16861 31.7334 8.17208C31.6964 8.18594 31.6599 8.19922 31.6228 8.21309C31.6069 8.21424 31.5915 8.2154 31.5755 8.21713C31.5607 8.23446 31.5453 8.25236 31.5305 8.26969V8.74736C31.5333 8.89985 31.6639 8.82534 31.7311 8.86288C31.7853 8.85711 31.84 8.85191 31.8941 8.84613C31.9648 8.86635 32.0361 8.88656 32.1068 8.90678C32.1581 8.90331 32.2094 8.90043 32.2612 8.89696L32.4203 8.95356C32.491 8.97205 32.5611 8.98995 32.6318 9.00844C32.7019 9.04656 32.7714 9.08468 32.8415 9.12222C32.8586 9.14013 32.8763 9.15803 32.8934 9.17594C32.9054 9.16439 32.9162 9.15226 32.9265 9.13897C32.9481 9.16959 32.9704 9.2002 32.992 9.23023C33.0433 9.28222 33.0946 9.33478 33.1459 9.38676C33.1676 9.422 33.1898 9.45723 33.2115 9.49246C33.2166 9.51095 33.2217 9.52943 33.2269 9.54733C33.2554 9.56813 33.2844 9.5895 33.3129 9.61029C33.3517 9.73217 33.3905 9.85404 33.4292 9.97591C33.4646 10.0822 33.4999 10.1885 33.5353 10.2942C33.5729 10.5951 33.6253 10.8954 33.6458 11.1975C33.7006 11.9831 33.7416 12.7692 33.7878 13.5553C33.712 13.6275 33.7074 13.6991 33.7912 13.769C33.7975 14.5753 33.8225 15.3822 33.8049 16.1885C33.7855 17.0746 33.7262 17.9595 33.6846 18.8443C33.6054 18.8773 33.6054 18.9131 33.6806 18.9518C33.6464 19.5865 33.6105 20.2213 33.3882 20.8261L33.3899 20.8474L33.3694 20.8532C33.3198 20.9347 33.2702 21.0161 33.22 21.0975C33.2143 21.1224 33.2086 21.1472 33.2029 21.1721L33.2041 21.1865L33.1904 21.1917C33.1778 21.2067 33.1653 21.2217 33.1533 21.2367L33.1465 21.2454C33.1317 21.2622 33.1169 21.2789 33.1026 21.2962C32.9641 21.4788 32.7788 21.5949 32.5702 21.6763L32.5565 21.6948L32.5354 21.6907C32.2744 21.7704 32.0161 21.8617 31.7357 21.8438C31.6827 21.8403 31.6268 21.879 31.5721 21.8981C31.559 21.9125 31.5464 21.9275 31.5333 21.942C31.5333 22.1915 31.5339 22.4405 31.5345 22.69C31.5236 22.7044 31.5208 22.72 31.5259 22.7373C31.5595 22.7362 31.5932 22.7356 31.6262 22.7344C31.6872 22.7373 31.7488 22.742 31.8098 22.742C34.7819 22.742 37.7534 22.742 40.7256 22.742C40.7866 22.742 40.8481 22.7368 40.9091 22.7344C40.9262 22.7379 40.9439 22.742 40.961 22.7454C40.9616 22.7275 40.9621 22.709 40.9633 22.6911C40.9678 22.4641 40.9695 22.2377 40.9775 22.0107C40.9804 21.9218 40.9456 21.8813 40.859 21.8854C40.6828 21.8686 40.5072 21.8525 40.3311 21.8357C40.3123 21.8317 40.2941 21.8282 40.2752 21.8242C40.2245 21.8247 40.1738 21.8253 40.1225 21.8259C40.1213 21.812 40.1179 21.7987 40.1122 21.786C39.9743 21.7849 39.8363 21.7837 39.6984 21.782C39.6796 21.7768 39.6613 21.7716 39.6425 21.7664C39.6077 21.767 39.573 21.7681 39.5388 21.7687C39.4858 21.7525 39.4327 21.7358 39.3797 21.7196C39.3621 21.7052 39.3444 21.6907 39.3267 21.6763L39.3261 21.6751C39.2982 21.6561 39.2697 21.6364 39.2418 21.6174L39.2287 21.6226L39.2224 21.6099C39.2036 21.5972 39.1848 21.5845 39.166 21.5717C39.024 21.5244 38.9231 21.4291 38.8536 21.2962C38.8393 21.2789 38.8251 21.2616 38.8103 21.2443L38.8034 21.2333C38.7943 21.2211 38.7852 21.2084 38.7761 21.1963C38.7658 21.179 38.7556 21.1611 38.7453 21.1437C38.7316 21.1241 38.7174 21.1039 38.7037 21.0843L38.6991 21.0744C38.682 21.0427 38.6655 21.0103 38.6484 20.9786L38.6455 20.971C38.6256 20.9393 38.6051 20.9075 38.5851 20.8757L38.5868 20.8769C38.5726 20.8578 38.5583 20.8388 38.5441 20.8197C38.5247 20.729 38.5047 20.6384 38.4854 20.5477L38.4717 20.5326L38.4797 20.5147C38.4455 20.4067 38.3919 20.301 38.381 20.1907C38.324 19.6068 38.2699 19.0222 38.23 18.4371C38.0989 16.5351 38.0806 14.6319 38.1781 12.7282C38.1975 12.355 38.226 11.9825 38.2596 11.6105C38.267 11.5273 38.2973 11.4315 38.3497 11.3691C38.5931 11.0803 38.9009 10.8949 39.2737 10.829C39.3438 10.8094 39.4134 10.7897 39.4835 10.7701C39.5017 10.7586 39.5205 10.747 39.5388 10.7355C39.6083 10.7297 39.6773 10.7239 39.7468 10.7181L39.7445 10.7204L39.8016 10.6783C39.854 10.6783 39.907 10.6788 39.9595 10.6794C40.0301 10.6713 40.1014 10.6638 40.1721 10.6557C40.2946 10.6557 40.4166 10.6563 40.5392 10.6569C40.611 10.6783 40.6828 10.6996 40.7546 10.721C40.8065 10.7245 40.8584 10.7274 40.9103 10.7308C40.9644 10.7453 41.0186 10.7597 41.0721 10.7747C41.1234 10.7782 41.1747 10.7817 41.226 10.7851C41.2625 10.7996 41.299 10.814 41.3355 10.8284C41.4028 10.8388 41.4717 10.8417 41.5361 10.8602C41.6712 10.9001 41.8046 10.9463 41.938 10.9931C42.0275 11.0243 42.1187 11.0537 42.2036 11.0959C42.4419 11.2143 42.6768 11.3385 42.9128 11.4603C42.9447 11.4459 42.9766 11.4309 43.0085 11.4164C43.0359 11.3627 43.0638 11.3096 43.0912 11.2559C43.0775 11.1542 43.0878 11.0606 43.179 10.9948L43.1841 10.9919C43.2177 10.9035 43.2508 10.8157 43.2844 10.7274L43.2895 10.7245C43.3232 10.6361 43.3562 10.5483 43.3899 10.4599L43.395 10.457C43.4092 10.4363 43.4235 10.416 43.4383 10.3952C43.432 10.3762 43.4366 10.3606 43.452 10.3479C43.4668 10.3144 43.4811 10.2809 43.4959 10.2474C43.4987 10.2098 43.5016 10.1723 43.505 10.1348C43.5181 10.1163 43.5318 10.0972 43.5449 10.0787L43.5438 10.0799C43.5626 10.0464 43.582 10.0123 43.6008 9.9788C43.6042 9.94183 43.607 9.90487 43.6105 9.8679C43.6236 9.84884 43.6367 9.82978 43.6498 9.81072L43.6481 9.81187C43.6675 9.7778 43.6869 9.74372 43.7057 9.70964C43.7085 9.67325 43.7119 9.63686 43.7148 9.60047C43.7285 9.58141 43.7421 9.56177 43.7553 9.54271C43.7649 9.52539 43.7746 9.50806 43.7843 9.49073C43.7929 9.47456 43.8014 9.45781 43.81 9.44163C43.8105 9.4064 43.8014 9.36712 43.8134 9.33651C43.9662 8.95992 44.1223 8.58506 44.278 8.20962L44.3355 8.04789C44.3395 8.01324 44.3441 7.97916 44.3481 7.9445C44.3623 7.92775 44.376 7.91158 44.3903 7.89483C44.3943 7.87577 44.3982 7.85671 44.4022 7.83765C44.4153 7.81859 44.4279 7.79953 44.441 7.78047C44.445 7.74581 44.449 7.71173 44.453 7.67708C44.4678 7.66206 44.4826 7.64704 44.4974 7.63202L44.51 7.62682C44.5231 7.59217 44.5368 7.55751 44.5499 7.52343C44.5527 7.48589 44.5556 7.44835 44.5584 7.4108C44.555 7.37499 44.5516 7.33976 44.5482 7.30395C44.5311 7.28258 44.5145 7.26121 44.498 7.24041L44.4991 7.23637ZM38.3246 10.3589C38.3218 10.3756 38.3132 10.386 38.2973 10.3889C38.3126 10.3854 38.3218 10.3756 38.3246 10.3583C38.3315 10.3352 38.3383 10.3121 38.3446 10.289C38.3377 10.3121 38.3309 10.3352 38.324 10.3583L38.3246 10.3589Z" fill="#FFFFFF" />
<path d="M83.8443 6.88336C83.9692 6.89838 84.094 6.9134 84.2183 6.92841C84.1652 6.9082 84.1117 6.8874 84.0587 6.86719C83.9868 6.87239 83.9156 6.87758 83.8438 6.88278L83.8443 6.88336Z" fill="#FFFFFF" />
<path d="M24.5586 6.88278C24.6658 6.89722 24.7724 6.91166 24.8795 6.92552C24.8083 6.90589 24.7376 6.88625 24.6663 6.86719C24.6304 6.87239 24.5945 6.87758 24.5586 6.88278Z" fill="#FFFFFF" />
<path d="M38.3109 6.88921C38.2568 6.76907 38.1861 6.82336 38.116 6.87015C38.0989 6.87419 38.0824 6.87881 38.0664 6.88516L38.1696 6.88805C38.2169 6.88805 38.2642 6.88863 38.3109 6.88921Z" fill="#FFFFFF" />
<path d="M38.3791 10.1872C38.3964 10.1354 38.413 10.0836 38.4302 10.0312C38.4107 10.065 38.3906 10.0987 38.3711 10.1319L38.3791 10.1866V10.1872Z" fill="#FFFFFF" />
<path d="M22.3948 23.0649C22.4299 23.0591 22.4649 23.0527 22.4993 23.0469C22.4477 23.0469 22.396 23.0469 22.3438 23.0475C22.3604 23.0533 22.3776 23.0591 22.3943 23.0649H22.3948Z" fill="#FFFFFF" />
<path d="M50.293 0.672815C50.3383 0.672815 50.3837 0.672815 50.4285 0.672815C50.3837 0.592529 50.3383 0.628018 50.293 0.672815Z" fill="#FFFFFF" />
<path d="M31.5195 8.20078C31.523 8.22305 31.5259 8.24473 31.5294 8.267C31.5444 8.24942 31.56 8.23125 31.575 8.21367L31.5762 8.19141C31.5577 8.19492 31.5386 8.19785 31.5201 8.20137L31.5195 8.20078Z" fill="#FFFFFF" />
<path d="M25.5514 9.19727L25.5664 9.2043C25.5664 9.2043 25.5652 9.20078 25.5635 9.19785C25.5623 9.19434 25.5606 9.19141 25.5606 9.19141L25.5508 9.19727H25.5514Z" fill="#FFFFFF" />
</svg>
