<svg width="127" height="33" viewBox="0 0 127 33" fill="none" xmlns="http://www.w3.org/2000/svg">
<g clip-path="url(#clip0_2472_86239)">
<path d="M126.45 9.91266C126.165 10.5144 125.872 11.1114 125.598 11.718C125.21 12.5732 124.837 13.4341 124.457 14.2921H123.97C123.314 12.8064 122.658 11.3245 121.98 9.79077H122.581C123.11 11.0231 123.645 12.267 124.219 13.6049C124.788 12.2881 125.326 11.0414 125.866 9.79269C126.076 9.76677 126.262 9.74374 126.449 9.7207V9.91266H126.45Z" fill="#FFFFFF" />
<path d="M66.529 21.5492H63.5508C61.8664 19.4655 60.1503 17.3434 58.3555 15.1244V21.5501H55.0356V9.79189H58.2116C59.823 11.7854 61.4662 13.8172 63.1093 15.85C63.1391 15.8404 63.1688 15.8299 63.1986 15.8203V9.78613H66.53V21.5492H66.529Z" fill="#FFFFFF" />
<path d="M104.679 9.77637H108.049V14.1405H112.39V9.78309H115.776V21.5375H112.401V17.1235H108.082V21.5471H104.679V9.77637Z" fill="#FFFFFF" />
<path d="M80.2734 9.78613H90.0651V12.5321H83.6499V14.322H89.4528V16.9H83.6461V18.7687H90.1486V21.5434H80.2734V9.78613Z" fill="#FFFFFF" />
<path d="M100.693 17.398C101.541 17.9816 102.369 18.5517 103.216 19.1343C102.095 20.7045 100.605 21.5855 98.7209 21.7689C96.2811 22.0069 94.1696 21.3437 92.6656 19.3157C89.9187 15.6128 92.1397 10.3062 96.7034 9.62574C98.7679 9.31765 100.692 9.62766 102.307 11.0769C102.602 11.3418 102.858 11.6518 103.165 11.9762C102.29 12.6298 101.45 13.2575 100.58 13.9092C99.8304 13.0176 98.9407 12.4504 97.7486 12.5252C96.9981 12.5723 96.356 12.8602 95.8387 13.4102C94.6821 14.6406 94.7128 16.8011 95.8991 17.996C97.1612 19.2667 98.814 19.07 100.692 17.398H100.693Z" fill="#FFFFFF" />
<path d="M47.1332 14.6541V17.3462H41.4033V21.5414H37.9941V14.6541H47.1332Z" fill="#FFFFFF" />
<path d="M52.7323 21.547H49.4009V9.78687H52.7323V21.547Z" fill="#FFFFFF" />
<path d="M68.0493 12.6086V9.78784H78.7499V12.6086H68.0493Z" fill="#FFFFFF" />
<path d="M47.7317 9.79956V12.6175H37.9985V9.79956H47.7317Z" fill="#FFFFFF" />
<path d="M71.7368 21.5434V14.6455H75.073V21.5434H71.7368Z" fill="#FFFFFF" />
<path d="M103.513 28.5066C104.122 28.0756 104.044 27.1139 104.928 26.8586V29.4904C104.808 29.5038 104.683 29.5182 104.492 29.5393V28.1227C104.453 28.1092 104.413 28.0958 104.373 28.0814C104.12 28.4778 103.867 28.8742 103.54 29.3848C103.242 28.8905 103.005 28.497 102.768 28.1035C102.731 28.114 102.695 28.1236 102.658 28.1342V29.4875C102.481 29.5038 102.356 29.5153 102.191 29.5316V26.9834C102.495 26.8212 102.632 26.9604 102.755 27.184C102.999 27.6284 103.258 28.0641 103.513 28.5075V28.5066Z" fill="#FFFFFF" />
<path d="M37.5102 29.5372V26.9382C38.0621 26.9382 38.5881 26.8815 39.0968 26.9535C39.6294 27.0284 39.7312 27.5236 39.3933 28.1321C39.3991 28.1609 39.3943 28.2022 39.4125 28.2195C39.6544 28.4498 39.8425 28.7013 39.7062 29.0602C39.5728 29.4134 39.259 29.5123 38.9346 29.5305C38.4777 29.5574 38.017 29.5372 37.5093 29.5372H37.5102ZM38.0285 28.4181V29.1226C38.3356 29.1226 38.6073 29.1581 38.8626 29.1082C38.9969 29.0813 39.1016 28.9047 39.2196 28.7963C39.1016 28.6706 39.0017 28.4709 38.8606 28.4345C38.6255 28.374 38.3635 28.4181 38.0285 28.4181ZM38.016 27.9872C38.3126 27.9872 38.5554 28.0227 38.78 27.9728C38.8962 27.9469 39.0516 27.7751 39.0574 27.6628C39.0622 27.5495 38.9202 27.3489 38.8136 27.3278C38.565 27.2779 38.3001 27.3115 38.017 27.3115V27.9872H38.016Z" fill="#FFFFFF" />
<path d="M119.829 14.2394H119.312V10.2506H117.756V9.78223H121.37C121.377 9.92907 121.382 10.051 121.391 10.241H119.829V14.2394Z" fill="#FFFFFF" />
<path d="M62.2581 26.8894C62.5095 26.9182 62.6285 26.9316 62.7706 26.9479V29.4568C62.499 29.6507 62.3329 29.4952 62.1755 29.2898C61.8492 28.8627 61.52 28.4375 61.1927 28.0114C61.1543 28.021 61.115 28.0296 61.0766 28.0392V29.5057C60.8702 29.5182 60.7378 29.5259 60.5688 29.5355V26.9796C60.8501 26.8068 61.0209 26.9499 61.1783 27.1572C61.4941 27.5728 61.8146 27.9864 62.1333 28.4001C62.1746 28.3914 62.2168 28.3828 62.2581 28.3742V26.8884V26.8894Z" fill="#FFFFFF" />
<path d="M66.7334 29.5786V26.8816C67.2862 26.9056 67.8122 26.8787 68.319 26.9651C68.8526 27.0553 69.201 27.5918 69.2163 28.1811C69.2317 28.7608 68.9006 29.3309 68.3775 29.4384C67.8583 29.545 67.315 29.5344 66.7334 29.5795V29.5786ZM67.2757 29.0632C67.8016 29.14 68.2499 29.1582 68.5426 28.7167C68.7633 28.3836 68.7547 28.0218 68.5263 27.684C68.2163 27.2252 67.7613 27.3327 67.2757 27.3615V29.0622V29.0632Z" fill="#FFFFFF" />
<path d="M42.291 28.2089C42.2929 27.4133 42.8544 26.8422 43.6376 26.8365C44.4275 26.8307 45.0312 27.4411 45.0216 28.2349C45.013 29.0084 44.4246 29.5757 43.6347 29.5747C42.8458 29.5728 42.2891 29.0075 42.291 28.208V28.2089ZM42.8131 28.1984C42.8074 28.7253 43.1481 29.1169 43.6222 29.1303C44.0944 29.1438 44.4755 28.756 44.4928 28.2483C44.51 27.7271 44.1213 27.2837 43.6472 27.2837C43.1769 27.2837 42.8179 27.6763 42.8122 28.1984H42.8131Z" fill="#FFFFFF" />
<path d="M54.0724 26.9507V27.9249H55.251C55.2693 27.5996 55.2865 27.2886 55.3057 26.9363C55.4651 26.9287 55.5975 26.922 55.7741 26.9124V29.5057C55.634 29.5162 55.5015 29.5258 55.3144 29.5402C55.2913 29.1602 55.2702 28.8204 55.2482 28.4509H54.0974C54.0753 28.8098 54.0561 29.1362 54.0331 29.5057C53.8881 29.5162 53.7557 29.5258 53.5791 29.5393V26.9287C53.7365 26.9363 53.8882 26.9431 54.0724 26.9517V26.9507Z" fill="#FFFFFF" />
<path d="M48.7894 28.0268C49.4315 27.7686 49.5342 26.8616 50.4527 26.9067C50.1043 27.328 49.8202 27.6716 49.4958 28.0651C49.8279 28.5239 50.16 28.9817 50.5381 29.5048C50.3232 29.524 50.1763 29.5374 50.0112 29.5518C49.7223 29.1996 49.443 28.8589 49.1647 28.5201C48.9459 28.6858 48.7926 29.0153 48.705 29.5087C48.584 29.5173 48.4516 29.5269 48.2798 29.5384V26.9451C48.418 26.9326 48.5495 26.9201 48.7347 26.9038C48.753 27.2887 48.7693 27.6304 48.7875 28.0277L48.7894 28.0268Z" fill="#FFFFFF" />
<path d="M106.208 28.8405C106.186 29.0776 106.17 29.2667 106.149 29.5085C106.001 29.5152 105.857 29.5229 105.682 29.5316V26.945C106.194 26.945 106.685 26.9018 107.164 26.9584C107.552 27.0045 107.79 27.3865 107.805 27.8011C107.82 28.2397 107.605 28.5871 107.178 28.7042C106.878 28.7868 106.559 28.7935 106.209 28.8405H106.208ZM106.21 28.2838C106.602 28.3721 106.962 28.4345 107.189 28.0871C107.269 27.9642 107.26 27.6965 107.177 27.5698C106.943 27.2108 106.58 27.3327 106.21 27.3903V28.2848L106.21 28.2838Z" fill="#FFFFFF" />
<path d="M56.1943 29.5537C56.5878 28.616 56.9372 27.7829 57.2952 26.9287H57.8653C58.2156 27.7618 58.5708 28.6054 58.9489 29.5028H58.4498C58.3625 29.3378 58.2751 29.1717 58.1792 28.9894H56.9775C56.8931 29.1468 56.8115 29.2984 56.6992 29.5057C56.5869 29.5163 56.441 29.5297 56.1943 29.5537ZM57.1493 28.5162H58.0131C57.8692 28.1543 57.7521 27.8587 57.635 27.5631C57.5908 27.5679 57.5476 27.5727 57.5035 27.5785C57.3921 27.8741 57.2808 28.1707 57.1503 28.5171L57.1493 28.5162Z" fill="#FFFFFF" />
<path d="M79.5668 29.5192H79.062C78.9737 29.3454 78.895 29.1909 78.798 29.0018H77.5762C77.4947 29.1592 77.415 29.3128 77.3142 29.5048H76.8267C77.1943 28.6246 77.5417 27.7935 77.9035 26.9258C78.0811 26.9182 78.249 26.9105 78.4602 26.9009C78.823 27.7589 79.18 28.6035 79.5668 29.5201V29.5192ZM78.6291 28.5152C78.4842 28.1515 78.3661 27.853 78.2481 27.5554C78.2001 27.565 78.1521 27.5737 78.1041 27.5833C77.9957 27.8808 77.8863 28.1793 77.7634 28.5152H78.6282H78.6291Z" fill="#FFFFFF" />
<path d="M85.63 29.522H85.1213C85.0263 29.3425 84.9389 29.1764 84.841 28.9922H83.6499C83.5616 29.1572 83.4801 29.3108 83.3716 29.5133C83.2516 29.52 83.1038 29.5287 82.8706 29.5421C83.2507 28.6342 83.5991 27.802 83.9638 26.9286C84.1327 26.919 84.3007 26.9085 84.5147 26.896C84.8785 27.7531 85.2374 28.5977 85.63 29.52V29.522ZM84.6961 28.5161C84.5377 28.1236 84.4206 27.8318 84.3026 27.541C84.2546 27.5515 84.2076 27.563 84.1596 27.5736C84.0531 27.8721 83.9456 28.1706 83.8217 28.5161H84.6961Z" fill="#FFFFFF" />
<path d="M110.639 29.5191H110.147C110.058 29.3578 109.967 29.1937 109.858 29.0008H108.658C108.577 29.1505 108.489 29.3156 108.384 29.5104H107.9C108.272 28.6188 108.623 27.7771 108.978 26.9238H109.544C109.892 27.7492 110.247 28.5919 110.638 29.5191H110.639ZM108.817 28.5065H109.694C109.552 28.1466 109.437 27.8539 109.322 27.5611C109.281 27.564 109.238 27.5678 109.197 27.5707C109.082 27.8539 108.967 28.137 108.818 28.5065H108.817Z" fill="#FFFFFF" />
<path d="M92.3643 28.017C92.3393 28.1821 92.3259 28.2694 92.3096 28.3769C91.9439 28.397 91.6013 28.4162 91.2308 28.4364V29.1063H92.587C92.5649 29.2887 92.5524 29.3904 92.5371 29.5181H90.7192V26.9084C91.2702 26.9084 91.8201 26.8998 92.3691 26.919C92.4372 26.9209 92.4996 27.0706 92.6378 27.2424C92.0908 27.276 91.6713 27.301 91.2279 27.3279V27.9335C91.6051 27.9613 91.9612 27.9872 92.3643 28.016V28.017Z" fill="#FFFFFF" />
<path d="M72.645 28.9874C72.6719 28.7446 72.6988 28.5095 72.7295 28.2359C72.8543 28.2292 72.9704 28.2234 73.1182 28.2158V29.2331C72.4569 29.7437 71.573 29.6775 71.0921 29.0911C70.6429 28.543 70.7159 27.6514 71.2399 27.1763C71.7294 26.7329 72.7189 26.6926 73.1393 27.2915C73.0549 27.3702 72.9666 27.4527 72.8869 27.5266C72.216 27.2032 71.8196 27.231 71.525 27.6073C71.2582 27.9489 71.2572 28.472 71.5231 28.8118C71.7832 29.1439 72.122 29.2062 72.646 28.9874H72.645Z" fill="#FFFFFF" />
<path d="M87.6836 27.0496C87.6481 27.1705 87.6154 27.2837 87.5828 27.3941C86.6182 27.1849 86.5203 27.2098 86.3735 27.7627C86.6057 27.8529 86.8438 27.9594 87.0904 28.0372C87.6605 28.2167 87.889 28.4662 87.8323 28.877C87.7757 29.2887 87.4167 29.5757 86.8764 29.5661C86.5376 29.5603 86.1997 29.4644 85.811 29.401C85.8725 29.1966 85.906 29.0853 85.9454 28.9528C86.4243 29.068 86.8965 29.3684 87.3947 28.8223C87.2056 28.6917 87.0722 28.5708 86.9167 28.4998C86.7295 28.4144 86.5203 28.3789 86.3264 28.3069C86.0299 28.1965 85.8533 27.9921 85.8533 27.659C85.8533 27.3173 86.0136 27.0764 86.3226 26.9478C86.7785 26.7578 87.2229 26.8029 87.6826 27.0496H87.6836Z" fill="#FFFFFF" />
<path d="M97.1096 27.0409C97.0596 27.1868 97.0261 27.2876 96.9953 27.3788C96.7036 27.3404 96.4358 27.2674 96.1747 27.2886C96.0442 27.2991 95.9271 27.4805 95.8043 27.5842C95.8993 27.6965 95.9741 27.8491 96.0951 27.9105C96.2909 28.0093 96.5222 28.0362 96.7304 28.1159C97.0328 28.2311 97.2574 28.4221 97.2439 28.7849C97.2305 29.1476 97.0395 29.3866 96.7036 29.496C96.2256 29.6515 95.762 29.5997 95.285 29.3319C95.3042 29.2177 95.3224 29.1054 95.3464 28.9614C95.834 29.0536 96.312 29.3761 96.8015 28.829C96.6287 28.7033 96.5001 28.5775 96.3456 28.5056C96.1594 28.4182 95.9492 28.3865 95.7544 28.3146C95.4395 28.1984 95.2581 27.9854 95.2706 27.6283C95.2821 27.2828 95.4539 27.0592 95.7649 26.9354C96.2083 26.7588 96.6354 26.8221 97.1086 27.0419L97.1096 27.0409Z" fill="#FFFFFF" />
<path d="M90.037 27.0833C90.0015 27.1792 89.9641 27.279 89.9171 27.4038C89.4948 27.351 89.0168 27.0238 88.6588 27.6639C88.8315 27.7724 88.9746 27.8828 89.1358 27.9567C89.2788 28.0219 89.4448 28.0373 89.5946 28.0901C89.9353 28.2091 90.1935 28.401 90.1695 28.8118C90.1455 29.2255 89.8931 29.4501 89.5168 29.5336C89.0513 29.6372 88.6041 29.5787 88.1616 29.2965C88.2221 29.165 88.271 29.0594 88.3181 28.9577C89.2414 29.2639 89.4688 29.2303 89.6531 28.7139C89.5015 28.6343 89.346 28.5383 89.1799 28.4711C89.0033 28.3991 88.8095 28.3694 88.6338 28.2945C88.3469 28.1716 88.1146 27.9471 88.2019 27.6332C88.271 27.3846 88.4448 27.1073 88.6549 26.9681C89.0283 26.7214 89.5447 26.803 90.0361 27.0833H90.037Z" fill="#FFFFFF" />
<path d="M47.7262 29.1447C47.1148 29.6985 46.2807 29.7014 45.7817 29.1975C45.2663 28.6773 45.2586 27.7684 45.7653 27.2424C46.2875 26.7001 47.0975 26.7011 47.6897 27.2472C47.6859 27.276 47.6916 27.3125 47.6772 27.3355C47.6264 27.4161 47.5697 27.4929 47.5285 27.5515C46.7501 27.2107 46.3882 27.2395 46.1032 27.6311C45.845 27.9862 45.8594 28.5064 46.1368 28.8357C46.4439 29.1994 46.8259 29.2167 47.5102 28.8481C47.5659 28.9249 47.6379 29.0228 47.7271 29.1447H47.7262Z" fill="#FFFFFF" />
<path d="M112.908 28.8425C112.977 28.9183 113.058 29.0105 113.224 29.1957C112.904 29.3387 112.667 29.4961 112.408 29.5479C111.733 29.6852 111.143 29.3445 110.91 28.7331C110.67 28.1035 110.893 27.3721 111.425 27.042C111.971 26.7032 112.607 26.7809 113.1 27.2704C113.032 27.3596 112.961 27.4518 112.895 27.5391C112.171 27.2022 111.803 27.2339 111.511 27.6399C111.263 27.9845 111.284 28.5219 111.557 28.8415C111.87 29.2072 112.249 29.2187 112.908 28.8415V28.8425Z" fill="#FFFFFF" />
<path d="M53.0694 27.3308C52.9552 27.4162 52.8688 27.4814 52.7911 27.54C52.076 27.205 51.6979 27.2348 51.4071 27.6341C51.1585 27.9757 51.1758 28.5161 51.4455 28.8357C51.7574 29.2052 52.1442 29.2196 52.8026 28.8415C52.8688 28.9134 52.9504 29.0017 53.0262 29.0843C52.5742 29.664 51.7075 29.7283 51.1681 29.2705C50.6229 28.8079 50.5586 27.8308 51.0376 27.2809C51.5405 26.7031 52.3976 26.6877 53.0685 27.3308H53.0694Z" fill="#FFFFFF" />
<path d="M76.0663 29.5094H75.5116V27.3806C75.2217 27.3499 74.9914 27.3259 74.7227 27.2971V26.9219H76.7708C76.7823 27.0495 76.791 27.1503 76.8025 27.2904C76.5578 27.3163 76.3408 27.3403 76.0654 27.3691V29.5085L76.0663 29.5094Z" fill="#FFFFFF" />
<path d="M95.019 26.9333C95.0075 27.0783 94.9989 27.18 94.9893 27.299C94.7436 27.322 94.5257 27.3422 94.2359 27.3691V29.5007C94.0228 29.5123 93.8807 29.519 93.6667 29.5305V27.3815C93.3855 27.3489 93.1686 27.324 92.9258 27.2952C92.9171 27.179 92.9085 27.0773 92.897 26.9324H95.02L95.019 26.9333Z" fill="#FFFFFF" />
<path d="M114.182 27.3836C113.849 27.3452 113.617 27.3183 113.373 27.2895V26.9248H115.435C115.445 27.0438 115.456 27.1552 115.468 27.2924C115.21 27.3212 114.993 27.3452 114.713 27.3759V29.498C114.521 29.5152 114.389 29.5268 114.182 29.545V27.3845V27.3836Z" fill="#FFFFFF" />
<path d="M40.3032 26.9373H40.785V29.0612C41.215 29.09 41.6008 29.115 42.0164 29.1428V29.5104H40.3022V26.9373H40.3032Z" fill="#FFFFFF" />
<path d="M79.9565 29.5057V26.946C80.1015 26.9326 80.2339 26.9201 80.4441 26.9009V29.0671C80.8904 29.0949 81.2647 29.118 81.6726 29.1429V29.5057H79.9565Z" fill="#FFFFFF" />
<path d="M98.8037 26.7771C98.916 26.7675 99.0177 26.7588 99.1655 26.7473V30.239C99.0744 30.2572 98.965 30.2803 98.8037 30.3129V26.7771Z" fill="#FFFFFF" />
<path d="M101.438 29.5105C101.29 29.5191 101.157 29.5278 100.985 29.5383V26.9402C101.123 26.9325 101.265 26.9239 101.438 26.9143V29.5115V29.5105Z" fill="#FFFFFF" />
<path d="M69.7876 26.9373H70.2435V29.5123C70.0918 29.521 69.9594 29.5277 69.7876 29.5373V26.9373Z" fill="#FFFFFF" />
<path d="M73.8062 26.9363H74.2659V29.4989C74.1229 29.5104 73.9799 29.521 73.8062 29.5344V26.9363Z" fill="#FFFFFF" />
<path d="M59.7992 29.5134H59.3472V26.9421H59.7992V29.5134Z" fill="#FFFFFF" />
<path d="M64.9043 30.2849C64.7642 30.2696 64.6663 30.2581 64.5271 30.2427C64.5271 29.1476 64.5242 28.0803 64.53 27.013C64.5309 26.7971 64.6307 26.681 64.9052 26.8009V30.284L64.9043 30.2849Z" fill="#FFFFFF" />
<path d="M4.42408 0.0664062L1.81348 7.25995C1.81348 7.25995 14.4144 8.39441 20.8123 15.1493C20.8123 15.1493 23.5074 12.9409 25.9721 9.65268C25.9721 9.65268 21.5955 5.75982 15.8522 3.36133C10.1079 0.96284 4.42408 0.0664062 4.42408 0.0664062Z" fill="#FFFFFF" />
<path d="M31.9975 16.5515L27.045 10.717C27.045 10.717 19.8102 21.0961 10.772 23.3026C10.772 23.3026 11.3526 26.7386 12.9852 30.5096C12.9852 30.5096 18.5356 28.64 23.4679 24.8421C28.4002 21.0443 31.9975 16.5525 31.9975 16.5525V16.5515Z" fill="#FFFFFF" />
<path d="M4.00162 32.0665L11.5359 30.7228C11.5359 30.7228 6.20719 19.2486 8.8485 10.3275C8.8485 10.3275 5.58717 9.10087 1.50715 8.61426C1.50715 8.61426 0.330463 14.3518 1.12996 20.5251C1.93041 26.6984 4.00162 32.0674 4.00162 32.0674V32.0665Z" fill="#FFFFFF" />
<path d="M10.9417 11.9466C10.8572 12.0541 10.8409 12.2038 10.8102 12.3411C10.7516 12.653 10.6662 13.1732 10.5818 13.8095C10.4243 14.9949 10.3389 16.2589 10.3994 17.4433C10.4339 18.2466 10.5539 19.3072 10.623 19.8062C10.6681 20.123 10.7017 20.2919 10.7737 20.3524C10.8467 20.409 10.9455 20.3802 11.0405 20.3572C11.7968 20.17 15.038 19.0797 17.2321 17.3166C17.6736 16.9557 18.165 16.5958 18.4395 16.1572C18.6228 15.8731 18.3896 15.6446 18.1467 15.4479C17.7427 15.1014 17.305 14.7712 16.8606 14.4689C15.5976 13.631 14.2827 12.916 12.8564 12.3795C12.3209 12.1981 11.1173 11.7479 10.9445 11.9418L10.9417 11.9457V11.9466Z" fill="#FFFFFF" />
</g>
<defs>
<clipPath id="clip0_2472_86239">
<rect width="125.599" height="32" fill="white" transform="translate(0.851562 0.0664062)"/>
</clipPath>
</defs>
</svg>
