<svg width="89" height="33" viewBox="0 0 89 33" fill="none" xmlns="http://www.w3.org/2000/svg">
<path fill-rule="evenodd" clip-rule="evenodd" d="M31.7537 10.4666V20.1519H36.5235V12.4805C36.5986 12.1095 36.6737 11.7341 36.8945 11.4382C37.1904 10.9171 37.716 10.6918 38.3078 10.7669C39.1292 10.842 39.6504 11.288 39.7961 12.2552V20.0768H44.5659V15.6073C44.5659 11.8092 44.5659 11.0628 44.4908 10.6918C44.3407 9.34921 43.8946 8.30692 43.0775 7.56495C42.4062 6.89365 41.5892 6.52266 40.6176 6.3725C40.2466 6.29742 39.2043 6.3725 38.904 6.44758C38.0119 6.67282 37.3406 6.96873 36.7443 7.64003L36.3733 7.93593V0.78125H31.6036V10.4666H31.7537ZM82.4151 0.93141C82.2649 1.22731 77.4245 12.9265 77.4245 12.9265H83.0864L85.6214 6.89365C87.0303 3.53713 88.1476 0.78125 88.1476 0.78125H82.4857L82.4107 0.93141H82.4151ZM21.3264 6.44317C20.2841 6.59333 19.4627 6.88923 18.6456 7.41037C17.0071 8.45266 15.9648 10.2413 15.6645 12.3259C15.5143 13.2931 15.5894 14.4856 15.8147 15.3821C16.4109 17.6919 17.9743 19.4806 19.9882 20.1519C20.7346 20.3771 21.0305 20.4478 21.9271 20.4478C22.5984 20.4478 22.8192 20.4478 23.0444 20.3727C24.0116 20.1475 24.6829 19.7765 25.2792 19.1803L25.5751 18.8844V20.0768H30.1947V6.66841H25.5751V7.86085L25.3498 7.63561C24.8287 7.03939 24.0823 6.66841 23.1151 6.44317C22.8192 6.36809 22.669 6.36809 22.0728 6.36809C21.7018 6.44317 21.4015 6.44317 21.3264 6.44317ZM51.7206 6.44317C50.4531 6.59333 49.1149 7.18955 48.1432 7.93152C46.2795 9.49495 45.3123 11.9549 45.6833 14.4856C46.0543 17.3165 48.0682 19.4762 50.8991 20.2226C51.4953 20.3727 52.0916 20.4478 52.838 20.4478C54.1806 20.4478 55.1478 20.2226 56.1901 19.7014C58.2746 18.6591 59.6172 16.7954 59.9131 14.4856C59.9882 13.8893 59.9882 12.9221 59.9131 12.401C59.763 11.2836 59.3169 10.1663 58.6456 9.27413C58.3497 8.90314 57.7535 8.23184 57.3781 7.93152C56.3358 7.11005 55.1433 6.58891 53.8007 6.44317C53.2796 6.36809 52.2373 6.36809 51.7162 6.44317H51.7206ZM66.9177 6.44317C65.6501 6.59333 64.3826 7.11447 63.4154 7.93152C63.0444 8.22742 62.3731 8.89872 62.1479 9.27413C61.4766 10.1663 61.1056 11.2836 60.8803 12.401C60.8053 12.9221 60.8053 13.9644 60.8803 14.4856C61.3264 17.4667 63.4861 19.7765 66.4672 20.3727C67.0634 20.5229 67.3593 20.5229 68.0306 20.5229C69.2981 20.5229 70.4155 20.2976 71.4578 19.7014C74.2137 18.2881 75.702 15.1569 75.0351 11.9549C74.4389 8.9738 72.054 6.81415 69.0022 6.44317C68.4811 6.36809 67.4388 6.36809 66.9177 6.44317ZM0.242188 6.73907C0.242188 6.73907 1.50971 9.79527 3.07315 13.5184C4.63658 17.2414 5.9041 20.2976 5.9041 20.2976C5.9041 20.2976 5.45804 21.415 4.86182 22.7576C4.26559 24.1002 3.81953 25.1425 3.81953 25.2176C3.81953 25.2927 4.9369 25.2176 6.35458 25.2176H8.88964L12.6878 16.0534C14.7724 10.9877 16.486 6.88923 16.486 6.81415C16.486 6.81415 15.9648 6.73907 13.9509 6.81415H11.4159L9.85243 10.6874C9.18113 12.772 8.50982 14.5606 8.50982 14.5606C8.50982 14.5606 7.83852 12.772 6.94639 10.6874L5.45804 6.81415H2.85232C1.43905 6.73907 0.246604 6.73907 0.246604 6.73907H0.242188ZM23.6362 10.7625C24.6034 10.9877 25.3498 11.7297 25.6457 12.7013C25.7208 13.0723 25.7208 13.7436 25.6457 14.1146C25.4205 15.0818 24.6785 15.8282 23.7069 16.0534C23.3359 16.1285 22.6646 16.1285 22.2936 16.0534C21.4722 15.8282 20.7302 15.2319 20.4299 14.49C20.0589 13.6685 20.2046 12.6262 20.6551 11.8843C21.3264 10.9171 22.4438 10.5417 23.6362 10.7669V10.7625ZM53.3591 10.8376C54.4014 10.9877 55.2228 11.8048 55.4437 12.8471C55.5187 13.218 55.5187 13.8143 55.4437 14.1897C55.2184 15.1569 54.4765 15.8282 53.5799 16.1285C53.284 16.2036 52.4626 16.2036 52.1666 16.1285C51.4203 15.9032 50.824 15.3821 50.4531 14.7152C50.2278 14.2692 50.2278 14.0439 50.2278 13.5228C50.2278 13.0767 50.3029 12.8515 50.4531 12.4805C50.6783 12.0344 50.9742 11.5884 51.4203 11.288C51.8663 10.842 52.6127 10.6918 53.3591 10.842V10.8376ZM68.4811 10.8376C69.3732 10.9877 70.1196 11.5839 70.4199 12.401C70.5701 12.772 70.6452 12.9972 70.6452 13.4433C70.6452 13.9644 70.5701 14.1897 70.4199 14.6357C70.124 15.307 69.4527 15.8282 68.7063 16.049C68.4104 16.1241 67.589 16.1241 67.2931 16.049C66.4009 15.8238 65.6546 15.0818 65.4293 14.1102C65.3542 13.7392 65.3542 13.0679 65.4293 12.6969C65.7252 11.5044 66.7719 10.6874 67.9644 10.6874C68.1145 10.7625 68.3354 10.7625 68.4855 10.8376H68.4811ZM78.6125 14.1146C77.1992 14.2647 76.1525 15.307 75.8566 16.6496C75.7815 17.0206 75.7815 17.6919 75.8566 18.0629C76.1525 19.2554 77.049 20.0724 78.2415 20.3727C78.3917 20.3727 78.6876 20.4478 78.9128 20.4478C79.8049 20.4478 80.5513 20.1519 81.1475 19.5557C81.8188 18.8844 82.0397 18.2131 82.0397 17.3209C82.0397 16.2036 81.5185 15.2364 80.6264 14.7152C80.0302 14.1941 79.2131 14.0439 78.6169 14.119L78.6125 14.1146ZM39.35 21.415C38.3828 21.7109 37.9368 22.8283 38.4579 23.6497C38.6081 23.875 38.904 24.1709 39.1292 24.246C39.3545 24.321 39.3545 24.321 39.8005 24.321C40.1715 24.321 40.2466 24.321 40.4718 24.246C40.7677 24.0958 41.0681 23.7999 41.2182 23.4996C41.5892 22.7532 41.2182 21.8611 40.4718 21.4901C40.2466 21.3399 40.1759 21.3399 39.8756 21.3399C39.5753 21.3399 39.5046 21.3399 39.3545 21.415H39.35ZM35.3266 21.4901C34.0591 21.7153 33.2421 22.5324 32.8667 23.875C32.7916 24.1002 32.7916 24.321 32.7916 24.6214V25.1425H31.7493V27.3772H32.7916V32.7433H35.6225V27.3772H37.5614V25.1425H35.6225V24.9173C35.6976 24.3961 35.9184 24.0251 36.3689 23.9501C36.6648 23.875 37.1153 23.875 37.4112 24.0251C37.5614 24.1002 37.6365 24.1002 37.6365 24.1002V21.7153L37.4112 21.6402C37.1153 21.4901 36.7399 21.4901 36.2188 21.4901C35.8478 21.415 35.5475 21.4901 35.3266 21.4901ZM46.6505 24.9923C46.0543 25.1425 45.6082 25.4384 45.3079 25.8138L45.1577 26.0391V25.1469H42.3267V32.7477H45.1577V28.3533C45.2328 28.0574 45.3829 27.7571 45.5287 27.6069C45.8997 27.311 46.571 27.3817 46.8713 27.7571C47.0215 27.9543 47.0965 28.8479 47.0965 30.4379V32.6726H49.9275V30.1375C49.9275 27.4567 49.9275 27.1564 49.7773 26.6353C49.6272 26.1892 49.4814 25.8138 49.106 25.5179C48.8101 25.222 48.5098 24.9968 48.0637 24.9217C47.6928 24.9217 46.9464 24.9217 46.6505 24.9968V24.9923ZM53.7257 24.9173C53.2796 24.9923 52.6083 25.2132 52.2373 25.5135C51.4159 26.1097 50.8947 27.0018 50.6739 28.1192C50.5988 28.5653 50.5988 29.3867 50.6739 29.8328C50.824 30.5041 51.0449 31.1754 51.4203 31.6215C51.9414 32.2928 52.6127 32.7388 53.4298 32.889C53.8758 32.9641 54.6222 32.9641 54.9932 32.8139C55.4393 32.6638 55.7396 32.518 56.1106 32.2177L56.4065 31.9218V32.6682H59.2374V25.0674H56.4065V25.8138L56.1812 25.7387C55.8102 25.3677 55.2891 25.0674 54.6929 24.9923C54.4676 24.9173 53.9465 24.9173 53.7257 24.9173ZM64.5284 24.9923C64.0072 25.0674 63.4861 25.4384 63.1857 25.8138L63.0356 25.964V25.0718H60.2046V32.6726H63.0356V30.5129C63.0356 28.9731 63.0856 28.0795 63.1857 27.8321C63.3359 27.5362 63.6318 27.3861 63.9321 27.3861C64.2325 27.3861 64.3782 27.4612 64.6034 27.6113C64.8993 27.9072 64.8993 27.8366 64.8993 30.3672V32.6019H67.7303V29.8461C67.7303 28.0088 67.7053 26.9901 67.6552 26.7899C67.5801 26.6397 67.5051 26.3438 67.43 26.1185C67.2798 25.8226 67.2047 25.7476 66.9839 25.5223C66.688 25.2264 66.4628 25.0763 66.1624 24.9261C65.6413 24.9261 65.0451 24.851 64.5239 25.0012L64.5284 24.9923ZM71.9039 24.9923C70.6363 25.2176 69.6691 25.8138 69.0729 26.8561C68.9227 27.152 68.777 27.5274 68.6268 27.8984C68.5518 28.2694 68.5518 28.3444 68.5518 28.9407C68.5518 29.612 68.5518 29.8328 68.777 30.3539C69.2231 31.6215 70.2654 32.5887 71.683 32.889C71.9083 32.9641 72.1291 32.9641 72.6502 32.9641C73.3966 32.9641 73.6925 32.889 74.2137 32.6682L74.5096 32.518V29.983L74.2843 30.1331C73.9134 30.3584 73.6881 30.429 73.2421 30.429C72.796 30.429 72.5708 30.429 72.2748 30.2789C71.9789 30.1287 71.7537 29.9079 71.6035 29.6076C71.5535 29.4574 71.5285 29.2587 71.5285 29.0113C71.5285 28.7154 71.5285 28.6404 71.6035 28.4151C71.8288 27.8189 72.3499 27.523 73.0919 27.4479C73.613 27.4479 73.8383 27.4479 74.5802 27.8189V25.2838L74.355 25.2088C73.5335 24.9129 72.6414 24.8378 71.895 24.9835L71.9039 24.9923ZM78.3122 24.9923C76.1525 25.3633 74.8099 27.2271 74.9601 29.3867C75.0351 30.1331 75.256 30.8 75.6314 31.3256C76.1525 32.147 76.974 32.6682 78.0163 32.889C78.4623 32.9641 79.6548 32.9641 80.1759 32.889C80.9223 32.7388 81.5892 32.3679 82.1147 31.8467C82.34 31.6215 82.711 31.1003 82.711 31.1003C82.711 31.1003 82.1898 30.8751 81.5185 30.6543L80.3261 30.2082L80.1759 30.3584C79.9507 30.5836 79.8049 30.6543 79.5046 30.7293C78.6832 30.9546 77.8661 30.5041 77.7159 29.7621V29.612H82.9318V28.9407C82.9318 28.4946 82.9318 28.1943 82.8567 28.0485C82.7066 27.1564 82.3356 26.5602 81.8144 25.964C81.2933 25.4428 80.6971 25.1425 79.8756 24.9968C79.5797 24.9217 78.6832 24.9217 78.3122 24.9968V24.9923ZM38.3828 28.9407V32.7388H41.2138V25.1381H38.3828V28.9363V28.9407ZM79.4295 27.0769C79.6548 27.152 79.7254 27.2271 79.9507 27.3728C80.1008 27.523 80.2466 27.6687 80.2466 27.894V28.0441H78.979C77.5658 28.0441 77.6364 28.0441 77.7866 27.7482C78.0118 27.2271 78.6787 26.9268 79.4251 27.0769H79.4295ZM55.3686 27.4479C55.7396 27.523 56.1901 27.894 56.3358 28.2694C56.7068 29.0908 56.3358 30.058 55.4437 30.3539C55.1478 30.429 54.6973 30.429 54.4014 30.3539C53.9553 30.2038 53.5093 29.8328 53.4342 29.3867C53.3591 29.1615 53.3591 29.0908 53.3591 28.8656C53.3591 28.5697 53.3591 28.4946 53.5093 28.2694C53.8052 27.5981 54.5515 27.3022 55.373 27.4479H55.3686Z" fill="#FFFFFF" />
</svg>
