<svg width="57" height="44" viewBox="0 0 57 44" fill="none" xmlns="http://www.w3.org/2000/svg">
<path d="M16.5463 6.06285C16.5504 6.07434 16.5559 6.08582 16.5587 6.09777C16.5601 6.10328 16.5569 6.11018 16.5555 6.11661C16.5619 6.19978 16.5688 6.28296 16.5753 6.36613C16.573 6.40243 16.5702 6.43873 16.5679 6.47504C16.5679 6.50812 16.5679 6.54121 16.5679 6.57475C16.5812 6.59129 16.5945 6.60738 16.6079 6.62392L16.6093 6.6253C16.6097 6.6423 16.6129 6.65884 16.6189 6.67447C16.6364 6.82749 16.6543 6.98051 16.6717 7.13353C16.6878 7.14915 16.7039 7.16477 16.72 7.1804C16.7462 7.24611 16.6502 7.33663 16.7623 7.38442L16.7646 7.38534C16.7678 7.42027 16.771 7.45519 16.7747 7.49011C16.7866 7.50849 16.7986 7.52688 16.8105 7.5448C16.8854 7.88162 16.9856 8.2088 17.1689 8.50519H17.1694C17.1758 8.54012 17.1818 8.57504 17.1882 8.60996C17.1993 8.62283 17.2098 8.63524 17.2209 8.6481C17.2255 8.66924 17.2301 8.69038 17.2342 8.71106C17.2461 8.7276 17.2576 8.74414 17.2696 8.76068C17.2737 8.77769 17.2783 8.79469 17.2824 8.81123C17.2962 8.82777 17.31 8.84432 17.3238 8.86086C17.3293 8.89578 17.3348 8.93071 17.3399 8.96563C17.3509 8.9785 17.3619 8.9909 17.3734 9.00377C17.378 9.02491 17.3826 9.04605 17.3868 9.06672C17.3987 9.08327 17.4102 9.09981 17.4221 9.11635L17.4226 9.11681C17.4387 9.13657 17.4543 9.15633 17.4704 9.17609C17.5701 9.43434 17.6634 9.69489 17.7709 9.94992C18.0347 10.5739 18.3067 11.1943 18.5714 11.8179C18.6412 11.9824 18.6969 12.1533 18.7589 12.3215C18.7722 12.3348 18.7855 12.3486 18.7989 12.3619C18.803 12.3826 18.8076 12.4028 18.8117 12.4235C18.8237 12.4405 18.8352 12.4571 18.8471 12.4741C18.848 12.4911 18.8517 12.5076 18.8577 12.5232C18.8228 12.6133 18.8949 12.6404 18.9487 12.6785C18.951 12.7204 18.9422 12.7672 18.9579 12.8026C19.0475 13.003 19.1476 13.1983 19.2354 13.3991C19.3365 13.6311 19.4284 13.8673 19.524 14.1012C19.5359 14.1182 19.5474 14.1348 19.5594 14.1518C19.5603 14.1688 19.564 14.1853 19.5699 14.2009C19.5203 14.3006 19.6343 14.3222 19.6605 14.3875C19.7583 14.6347 19.8654 14.8783 19.9679 15.1241C20.0584 15.3424 20.1471 15.5611 20.2367 15.7798C20.2486 15.7968 20.2601 15.8134 20.2721 15.8304C20.273 15.8474 20.2767 15.8639 20.2827 15.8796C20.2385 15.9687 20.3378 15.9889 20.3621 16.045C20.5198 16.4117 20.6755 16.7788 20.8304 17.1465C21.0211 17.5982 21.2081 18.0508 21.4007 18.5016C21.5969 18.9602 21.8 19.4156 21.9953 19.8746C22.1713 20.2886 22.3408 20.705 22.5127 21.1208C22.6524 21.4595 22.7912 21.7982 22.9299 22.1368C22.9433 22.1538 22.9566 22.1708 22.9704 22.1878C22.9713 22.2048 22.975 22.2214 22.9809 22.237C22.9782 22.2535 22.9676 22.2733 22.9731 22.2857C23.1197 22.5982 23.2737 22.9079 23.4143 23.2231C23.5002 23.4161 23.5673 23.6174 23.6427 23.815C23.656 23.832 23.6693 23.849 23.6831 23.866C23.684 23.883 23.6877 23.8995 23.6937 23.9152C23.6909 23.9317 23.6803 23.9515 23.6859 23.9639C23.8324 24.2764 23.9864 24.5861 24.127 24.9013C24.2129 25.0943 24.28 25.2956 24.3554 25.4932C24.3687 25.5102 24.382 25.5272 24.3958 25.5442C24.3967 25.5612 24.4004 25.5777 24.4064 25.5933C24.4036 25.6099 24.3931 25.6296 24.399 25.6425C24.501 25.8713 24.6026 26.1006 24.7087 26.3276C24.8029 26.5294 24.9017 26.7288 24.9987 26.9296C25.0672 26.8304 25.0943 26.7389 25.1081 26.6456C25.1333 26.4733 25.1467 26.2996 25.1719 26.1273C25.2161 25.8254 25.2694 25.5249 25.3121 25.2225C25.3525 24.9353 25.3783 24.6463 25.4201 24.3591C25.4628 24.0659 25.5239 23.775 25.5657 23.4814C25.608 23.1859 25.6319 22.8881 25.6719 22.5922C25.7174 22.2568 25.7734 21.9232 25.8212 21.5882C25.8433 21.4319 25.8511 21.2739 25.8755 21.1181C25.9214 20.8254 25.9816 20.5345 26.0234 20.2409C26.0657 19.9454 26.0891 19.6476 26.1291 19.3517C26.1925 18.8853 26.2633 18.4198 26.3308 17.9538C26.3511 17.8146 26.3676 17.6749 26.3897 17.5361C26.4365 17.243 26.4917 16.9512 26.533 16.6575C26.5744 16.3621 26.5974 16.0638 26.6396 15.7684C26.7008 15.3438 26.7775 14.9215 26.8382 14.4973C26.8804 14.2019 26.9034 13.9036 26.9434 13.6082C27.0068 13.1417 27.078 12.6762 27.1451 12.2103C27.1653 12.0711 27.1796 11.9309 27.2021 11.7921C27.249 11.4994 27.3055 11.2076 27.3473 10.9145C27.3891 10.619 27.4116 10.3208 27.4544 10.0253C27.4966 9.73211 27.561 9.44169 27.6014 9.14806C27.6446 8.83605 27.6667 8.52082 27.7076 8.20834C27.7705 7.72401 27.8408 7.24014 27.9111 6.75672C27.918 6.71031 27.9479 6.66711 27.9667 6.62254C27.9686 6.58716 27.9699 6.55223 27.9718 6.51685C27.9722 6.14556 27.9732 5.77381 27.9736 5.40252C27.9718 5.36714 27.9695 5.33175 27.9677 5.29683C27.9479 5.23571 27.9208 5.17598 27.9102 5.11348C27.867 4.84512 27.8463 4.57217 27.7848 4.3084C27.6791 3.8567 27.5251 3.41785 27.2922 3.01577C27.1272 2.73133 26.9273 2.46711 26.743 2.19415C26.6906 2.12752 26.6383 2.06089 26.5859 1.99472C26.4016 1.80448 26.2238 1.60735 26.0303 1.42676C25.9251 1.32888 25.7927 1.25949 25.6728 1.17724C25.6053 1.12531 25.5373 1.07339 25.4697 1.02146C25.1738 0.86017 24.8834 0.68831 24.5801 0.542183C24.411 0.460848 24.2217 0.421789 24.0415 0.363889C24.0075 0.350563 23.974 0.337697 23.94 0.324371C23.8389 0.303233 23.7378 0.282095 23.6367 0.261417C23.6022 0.24855 23.5673 0.235684 23.5328 0.222817C23.4827 0.218681 23.4322 0.214546 23.3821 0.21041C23.3476 0.197543 23.3132 0.184677 23.2783 0.17181C23.2112 0.167675 23.1436 0.163539 23.0765 0.159403C23.0081 0.146077 22.9401 0.132292 22.8716 0.118966V0.107018C22.8256 0.0913945 22.7797 0.0624448 22.7337 0.0615257C22.4732 0.05739 22.2122 0.0578496 21.9512 0.0615257C21.9144 0.0619852 21.8781 0.0904754 21.8413 0.106099C21.7435 0.110694 21.6451 0.115289 21.5472 0.119885C21.4783 0.119885 21.4099 0.118966 21.3409 0.118506C21.3235 0.131373 21.306 0.144699 21.2881 0.157565C21.2389 0.16262 21.1902 0.167675 21.141 0.172729C20.9361 0.222357 20.7311 0.271526 20.5267 0.321154C20.5092 0.334021 20.4917 0.347347 20.4738 0.360213L20.4734 0.360673C20.4577 0.364808 20.4426 0.368944 20.4269 0.37308C20.409 0.37308 20.3916 0.372161 20.3736 0.371701C20.3566 0.385027 20.3396 0.398353 20.3231 0.411679L20.3213 0.413977C20.3056 0.418113 20.29 0.422248 20.2748 0.426384C20.2225 0.454415 20.1701 0.482445 20.1177 0.510476C20.0671 0.528397 20.017 0.546319 19.9665 0.56424L19.9647 0.566537C19.9316 0.582621 19.898 0.598704 19.8649 0.614787L19.8631 0.617085C19.83 0.633168 19.7965 0.649251 19.7634 0.665334L19.7616 0.667632C19.7285 0.683715 19.6949 0.699798 19.6618 0.715881L19.66 0.718179C19.6269 0.734262 19.5934 0.750345 19.5603 0.766428L19.5584 0.768726C19.5235 0.784809 19.4891 0.800892 19.4541 0.816975C19.4381 0.833059 19.422 0.849142 19.4059 0.865225C19.3723 0.883146 19.3393 0.901067 19.3057 0.918989L19.3039 0.921286C19.2533 0.954372 19.2028 0.987457 19.1522 1.021L19.1513 1.02192C19.1008 1.05547 19.0502 1.08901 19.0001 1.12256L18.9983 1.12485C18.9464 1.15794 18.8949 1.19102 18.843 1.22411C18.8269 1.24157 18.8108 1.25949 18.7947 1.27695C18.763 1.2935 18.7318 1.30958 18.7001 1.32612L18.6932 1.33118C18.6592 1.36242 18.6247 1.39413 18.5907 1.42538C18.5742 1.44192 18.5572 1.45846 18.5406 1.47501L18.4905 1.52831C18.4597 1.54577 18.429 1.56278 18.3982 1.58024C18.2759 1.70201 18.1542 1.82378 18.0319 1.94601C18.0071 1.96761 17.9818 1.98875 17.957 2.01035L17.952 2.01862C17.9267 2.05906 17.901 2.09949 17.8757 2.13947C17.8435 2.17531 17.8109 2.21162 17.7787 2.24792C17.753 2.28008 17.7273 2.31225 17.7015 2.34442C17.6933 2.36188 17.6845 2.37934 17.6763 2.3968C17.6593 2.41289 17.6423 2.42897 17.6248 2.44505L17.6239 2.44597C17.5945 2.47998 17.5655 2.51398 17.5361 2.54798C17.5315 2.56407 17.5269 2.58061 17.5223 2.59669C17.5085 2.61416 17.4943 2.63208 17.4805 2.64954L17.4736 2.65965C17.464 2.67205 17.4548 2.684 17.4451 2.69641C17.4373 2.71617 17.4295 2.73639 17.4217 2.75615C17.3923 2.78877 17.3624 2.82094 17.333 2.85356C17.3284 2.87103 17.3243 2.88849 17.3197 2.90595C17.3105 2.92111 17.3008 2.93582 17.2916 2.95052C17.2838 2.97028 17.2765 2.99004 17.2687 3.01026C17.2402 3.04289 17.2112 3.07505 17.1827 3.10768C17.1777 3.1256 17.1726 3.14352 17.1676 3.16144C17.1552 3.17707 17.1428 3.19223 17.1308 3.20785C17.1262 3.22623 17.1216 3.24462 17.117 3.263C17.0977 3.31216 17.0784 3.36133 17.0591 3.41096C17.0435 3.46013 17.0274 3.50976 17.0118 3.55893C16.9962 3.57777 16.9805 3.59707 16.9649 3.61591L16.9631 3.61729C16.9502 3.63383 16.9374 3.64991 16.9245 3.66645C16.9208 3.68484 16.9171 3.70322 16.9135 3.72114C16.8988 3.77122 16.8836 3.82131 16.8689 3.87094L16.8624 3.87554C16.8487 3.8907 16.8353 3.90586 16.8216 3.92057C16.8211 3.93803 16.8202 3.95549 16.8197 3.97295C16.8133 3.98858 16.8091 4.0042 16.8068 4.02074H16.8078C16.7944 4.07267 16.7811 4.1246 16.7678 4.17652L16.7609 4.18158C16.7471 4.19628 16.7338 4.21098 16.72 4.22569C16.7191 4.26015 16.7182 4.29462 16.7177 4.32908C16.7007 4.36263 16.6837 4.39663 16.6667 4.43018C16.6653 4.48164 16.6644 4.53311 16.663 4.58457C16.6479 4.60112 16.6331 4.6172 16.618 4.63374C16.618 4.70175 16.6175 4.76976 16.6171 4.83777C16.6111 4.85385 16.6079 4.87039 16.607 4.8874L16.6065 4.88832C16.5932 4.90486 16.5798 4.9214 16.5665 4.93794C16.5665 4.97149 16.5656 5.00549 16.5651 5.03904C16.5674 5.07396 16.5693 5.10934 16.5716 5.14427C16.5697 5.2109 16.5684 5.27753 16.5665 5.34416C16.5633 5.36162 16.5596 5.37954 16.5564 5.397L16.5587 5.49856C16.572 5.49626 16.5849 5.4935 16.5959 5.49029C16.5844 5.4935 16.572 5.49626 16.5587 5.49856C16.5541 5.6842 16.5495 5.87031 16.5449 6.05595L16.5463 6.06285ZM16.6263 5.48523C16.6212 5.48845 16.6148 5.49121 16.6079 5.4935C16.6148 5.49121 16.6207 5.48845 16.6263 5.48523Z" fill="#FFFFFF" />
<path d="M30.4642 16.0512C30.528 16.4414 30.5979 16.8306 30.6572 17.2216C30.6994 17.5001 30.7242 17.7809 30.7638 18.0598C30.8097 18.3865 30.8639 18.7119 30.9131 19.0381C30.9342 19.1774 30.9499 19.3175 30.9715 19.4563C31.0188 19.7573 31.0703 20.0578 31.1162 20.3592C31.1562 20.6207 31.1879 20.8835 31.2288 21.1446C31.2724 21.4212 31.3285 21.6955 31.3699 21.9726C31.4112 22.2511 31.4365 22.5318 31.4765 22.8108C31.522 23.1288 31.5753 23.4463 31.6263 23.7634C31.6709 24.04 31.7182 24.3162 31.7614 24.5932C31.8032 24.8625 31.8432 25.1323 31.8799 25.402C31.9034 25.5748 31.9149 25.7489 31.9397 25.9213C31.9852 26.2397 32.0348 26.5572 32.0858 26.8748C32.0918 26.9111 32.118 26.9437 32.1345 26.9782C32.1515 26.9754 32.169 26.9722 32.186 26.9694C32.1906 26.9524 32.1956 26.935 32.2002 26.918C32.2131 26.9028 32.2255 26.8872 32.2379 26.872L32.2425 26.8688C32.2572 26.8509 32.2724 26.8329 32.2871 26.8146C32.3045 26.7452 32.316 26.6735 32.3404 26.6064C32.3895 26.4718 32.4456 26.3394 32.4989 26.2062C32.5132 26.1887 32.5269 26.1712 32.5412 26.1538C32.5586 26.1037 32.5761 26.0536 32.5936 26.0035C32.5977 25.9861 32.6018 25.969 32.6064 25.9516C32.6193 25.9355 32.6322 25.9199 32.645 25.9038L32.6483 25.9015C32.6634 25.8831 32.6786 25.8652 32.6937 25.8468C32.7144 25.7692 32.7277 25.6887 32.7576 25.6152C32.8895 25.2857 33.026 24.9576 33.1606 24.6291C33.1749 24.6116 33.1886 24.5942 33.2029 24.5767C33.2208 24.5275 33.2387 24.4784 33.2567 24.4287C33.2608 24.4104 33.2649 24.3924 33.2695 24.3741C33.2824 24.3584 33.2948 24.3428 33.3077 24.3267L33.3109 24.3244L33.3564 24.2697C33.3738 24.2004 33.3858 24.1287 33.4101 24.062C33.4593 23.9274 33.5154 23.7955 33.5687 23.6623C33.5829 23.6448 33.5967 23.6273 33.6109 23.6099C33.6284 23.5598 33.6459 23.5097 33.6633 23.4596C33.6675 23.4422 33.6716 23.4251 33.6762 23.4077C33.6891 23.3916 33.7019 23.376 33.7148 23.3599L33.718 23.3576C33.7332 23.3392 33.7483 23.3213 33.7635 23.3029C33.7842 23.2253 33.7975 23.1448 33.8274 23.0709C33.9593 22.7409 34.0957 22.4133 34.2304 22.0847C34.2446 22.0673 34.2584 22.0498 34.2727 22.0328C34.2906 21.9836 34.3085 21.9345 34.326 21.8848C34.3301 21.8665 34.3342 21.8485 34.3388 21.8302C34.3517 21.8145 34.3641 21.7985 34.377 21.7828L34.3802 21.7805C34.3953 21.7621 34.4105 21.7442 34.4257 21.7258C34.4427 21.6634 34.4532 21.5986 34.4776 21.5388C34.5612 21.3325 34.6499 21.128 34.7358 20.9226C34.9734 20.3537 35.211 19.7853 35.4476 19.216C35.5359 19.0032 35.6209 18.7886 35.7077 18.5749C35.722 18.5575 35.7358 18.54 35.75 18.523C35.7661 18.5032 35.7822 18.483 35.7978 18.4633C35.8139 18.4086 35.8254 18.3525 35.8465 18.2997C36.0202 17.8654 36.1953 17.4316 36.3704 16.9979C36.3841 16.9809 36.3984 16.9634 36.4122 16.9464C36.4283 16.9266 36.4443 16.9073 36.46 16.8876C36.5427 16.6776 36.6231 16.4671 36.7095 16.2585C36.7357 16.1955 36.778 16.139 36.8129 16.0797C36.7513 15.9998 36.8037 15.9584 36.8666 15.9203C36.8827 15.8656 36.8947 15.8091 36.9153 15.7567C37.089 15.3224 37.2641 14.8887 37.4387 14.4549C37.4525 14.4379 37.4668 14.4204 37.4806 14.4034C37.4966 14.3836 37.5123 14.3643 37.5283 14.3446C37.634 14.0592 37.7397 13.7739 37.8454 13.4885C37.8592 13.4715 37.8734 13.454 37.8872 13.437C37.9033 13.4173 37.9189 13.3975 37.935 13.3778C37.9511 13.3231 37.963 13.2666 37.9837 13.2133C38.072 12.9826 38.1625 12.7524 38.2521 12.5221C38.2663 12.5047 38.2801 12.4872 38.2944 12.4702L38.3422 12.4105C38.395 12.2552 38.441 12.0975 38.5016 11.9454C38.6353 11.6104 38.7764 11.2787 38.9143 10.9455C38.9285 10.9281 38.9423 10.9106 38.9565 10.8936C38.9726 10.8738 38.9887 10.8541 39.0048 10.8343C39.0209 10.7796 39.0324 10.7231 39.0539 10.6703C39.2589 10.168 39.4634 9.6653 39.672 9.16443C39.786 8.89147 39.9073 8.62174 40.0254 8.35062C40.0433 8.30145 40.0612 8.25182 40.0791 8.20265C40.3406 7.58322 40.5281 6.94633 40.5428 6.26808C40.557 6.25016 40.5717 6.23224 40.586 6.21431C40.5874 5.93033 40.6039 5.64497 40.586 5.36237C40.5713 5.13674 40.5148 4.91341 40.4766 4.68917C40.4697 4.67768 40.4619 4.66711 40.4573 4.65471C40.4619 4.66665 40.4697 4.67768 40.4766 4.68917C40.4752 4.67263 40.4734 4.65608 40.472 4.63954C40.3466 4.03711 40.132 3.46777 39.8149 2.93978C39.3577 2.1779 38.7732 1.52952 38.0334 1.03323C37.7756 0.860455 37.4796 0.745116 37.2168 0.57831C36.9057 0.381176 36.5477 0.331089 36.2118 0.211614C36.1599 0.198288 36.1084 0.184502 36.0565 0.171176C36.0234 0.167959 35.9903 0.164283 35.9572 0.161067L35.8019 0.121088C35.7348 0.116493 35.6678 0.112358 35.6007 0.107762C35.4633 0.0916793 35.3263 0.0751366 35.1889 0.0590534L35.1958 0.0475654C34.9527 -0.0117126 34.7106 -0.022741 34.4693 0.0558368C34.3875 0.061351 34.3057 0.0664057 34.2244 0.0719199C34.1729 0.0705414 34.1215 0.0696223 34.07 0.0682438C34.0521 0.0815698 34.0342 0.0944364 34.0167 0.107762C34.0167 0.107762 34.0167 0.107303 34.0172 0.106843C33.9675 0.111898 33.9174 0.117412 33.8678 0.122467C33.8329 0.133496 33.7975 0.144524 33.7626 0.155552C33.713 0.161526 33.6629 0.1675 33.6132 0.173474C33.5278 0.189097 33.4423 0.204721 33.3573 0.220345C33.3389 0.233671 33.321 0.246997 33.3026 0.260323L33.304 0.258485C33.2714 0.263999 33.2383 0.269513 33.2056 0.274568C33.0866 0.324656 32.9672 0.374284 32.8481 0.424371C32.7962 0.437238 32.7443 0.450104 32.6928 0.46343C32.6763 0.465728 32.6602 0.469864 32.645 0.476297C32.594 0.49284 32.543 0.509382 32.492 0.525925C32.4746 0.539711 32.4571 0.553037 32.4401 0.566822C32.4061 0.583824 32.3725 0.600367 32.3385 0.617369V0.617829C32.3045 0.634831 32.271 0.651374 32.237 0.668376V0.668836C32.203 0.685838 32.1694 0.70238 32.1354 0.719383V0.719842C32.1019 0.736844 32.0679 0.753387 32.0343 0.770389L32.0339 0.770849C31.9994 0.786932 31.9654 0.803015 31.9309 0.819098C31.9144 0.835641 31.8974 0.852184 31.8809 0.868267C31.8473 0.886188 31.8133 0.904569 31.7798 0.92249V0.92295C31.7288 0.956495 31.6782 0.990499 31.6272 1.02404C31.5767 1.05805 31.5266 1.09205 31.4765 1.12606L31.4751 1.1279C31.4236 1.16006 31.3717 1.19269 31.3202 1.22485C31.3202 1.22485 31.3202 1.22485 31.3202 1.22439C31.3037 1.24094 31.2867 1.25748 31.2702 1.27402C31.2297 1.33514 31.1089 1.31584 31.1176 1.42612C31.0827 1.4445 31.0477 1.46288 31.0124 1.48127C30.8442 1.65037 30.676 1.81993 30.5074 1.98903C30.4835 2.01201 30.4596 2.03499 30.4357 2.05796L30.4219 2.07359C30.404 2.09748 30.3856 2.12138 30.3677 2.14527C30.3465 2.1779 30.3249 2.21052 30.3038 2.24315C30.2776 2.27853 30.2519 2.31346 30.2257 2.34884C30.2018 2.38422 30.1779 2.4196 30.154 2.45499C30.137 2.48715 30.1204 2.51932 30.1034 2.55149C30.0864 2.57033 30.069 2.58917 30.052 2.60801C30.0419 2.62225 30.0317 2.6365 30.0212 2.65074C30.0138 2.66912 30.0069 2.68796 29.9996 2.70634C29.9693 2.73943 29.9389 2.77297 29.9086 2.80606C29.8884 2.85844 29.8682 2.91083 29.8479 2.96322C29.8328 2.99584 29.8181 3.02801 29.8029 3.06063L29.7974 3.06569C29.7804 3.09739 29.7629 3.12956 29.7459 3.16127L29.7445 3.16219C29.7308 3.17873 29.7165 3.19527 29.7027 3.21182C29.6825 3.27936 29.6623 3.34645 29.6425 3.414C29.6255 3.44847 29.6085 3.48247 29.592 3.51694C29.5782 3.53394 29.564 3.55094 29.5502 3.56748C29.4992 3.73751 29.4482 3.90707 29.3976 4.07663C29.3912 4.09225 29.3866 4.10788 29.3843 4.12488C29.3843 4.12488 29.3847 4.12488 29.3852 4.12488C29.3742 4.14234 29.3627 4.16026 29.3517 4.17772C29.3489 4.21219 29.3461 4.24711 29.3434 4.28158C29.3282 4.29812 29.3131 4.31466 29.2984 4.33166C29.2979 4.38267 29.297 4.43368 29.2965 4.48422C29.2795 4.51777 29.2625 4.55177 29.2455 4.58532C29.223 4.78797 29.2009 4.99107 29.1784 5.19372C29.1766 5.2121 29.1743 5.23048 29.1724 5.24886C29.1738 5.32836 29.1757 5.40832 29.177 5.48781C29.1683 5.50987 29.1596 5.53193 29.1504 5.55353C29.1513 5.78788 29.1522 6.02223 29.1531 6.25659C29.2019 6.27543 29.2506 6.30989 29.2993 6.31035C29.7891 6.31265 30.2785 6.30943 30.7684 6.30806L30.7647 6.31954C30.8506 6.33425 30.9365 6.34941 31.0225 6.36412C31.1498 6.40226 31.2798 6.43351 31.4039 6.48084C31.4641 6.50381 31.5491 6.52127 31.5408 6.61961C31.5358 6.65178 31.5307 6.68394 31.5261 6.71611C31.4756 6.75057 31.425 6.7855 31.3745 6.81996C31.3405 6.83742 31.3065 6.85488 31.2724 6.87235V6.87281C31.2384 6.88981 31.2049 6.90635 31.1709 6.92335V6.92381C31.1369 6.94081 31.1033 6.95736 31.0693 6.97436V6.97482C31.0353 6.99182 31.0018 7.00836 30.9678 7.02537C30.9338 7.04237 30.9002 7.05891 30.8662 7.07591V7.07637C30.8322 7.09337 30.7987 7.10992 30.7647 7.12692V7.12738C30.7307 7.14346 30.6962 7.15909 30.6622 7.17517C30.6457 7.19217 30.6291 7.20917 30.6126 7.22618C30.5772 7.24364 30.5418 7.2611 30.506 7.27902C30.4903 7.29556 30.4752 7.31211 30.4596 7.32819C30.4072 7.36265 30.3548 7.39712 30.3024 7.43158C30.2192 7.51705 30.1361 7.60252 30.0529 7.68799C30.023 7.72246 29.9931 7.75646 29.9633 7.79092C29.9536 7.80517 29.9495 7.82079 29.9504 7.83825C29.9205 7.87318 29.8907 7.90856 29.8613 7.94349C29.8263 8.02804 29.7914 8.11305 29.7565 8.1976C29.7413 8.2316 29.7257 8.26515 29.7105 8.29915C29.7055 8.3327 29.7004 8.36624 29.6954 8.40025C29.6834 8.41725 29.6715 8.43471 29.6595 8.45171C29.6788 8.44528 29.6981 8.43885 29.7179 8.43195C29.6986 8.43839 29.6793 8.44482 29.6595 8.45171C29.6582 8.48664 29.6563 8.52156 29.6549 8.55602C29.6379 8.58911 29.6205 8.62174 29.6035 8.65482C29.637 8.64885 29.6706 8.64241 29.6816 8.62495C29.6706 8.64287 29.637 8.64885 29.6035 8.65482C29.5975 8.83771 29.592 9.0206 29.586 9.20395C29.5777 9.226 29.5695 9.2476 29.5612 9.26966C29.5612 9.35145 29.5607 9.43371 29.5603 9.5155C29.5699 9.53572 29.58 9.55594 29.5897 9.57616C29.5865 9.59224 29.5833 9.60832 29.5796 9.62441C29.581 9.70758 29.5823 9.79075 29.5837 9.87393C29.586 9.89185 29.5883 9.91023 29.5906 9.92815C29.6375 10.2503 29.6848 10.5729 29.7317 10.895C29.734 10.9111 29.7363 10.9271 29.7381 10.9437C29.7758 11.2654 29.8047 11.5879 29.853 11.9078C29.9114 12.2988 29.9927 12.6862 30.051 13.0772C30.1112 13.4784 30.1517 13.8823 30.2077 14.2839C30.2707 14.7333 30.3424 15.1818 30.4095 15.6308C30.4302 15.77 30.4467 15.9097 30.4697 16.0485L30.4642 16.0512Z" fill="#FFFFFF" />
<path d="M6.08134 13.4884C6.0772 13.6235 6.04871 13.7632 6.07353 13.8928C6.142 14.2549 6.23712 14.6106 6.36073 14.9603C6.50042 15.3545 6.6709 15.7332 6.88734 16.0879C7.32388 16.8034 7.90058 17.398 8.57377 17.8888C9.32601 18.4375 10.1035 18.9512 10.8727 19.4769C11.5046 19.9084 12.1406 20.3334 12.7733 20.7635C13.118 20.9979 13.4598 21.2364 13.8031 21.4735C13.838 21.508 13.8725 21.542 13.9074 21.5764C14.0705 21.6794 14.2323 21.7851 14.3977 21.8848C14.6675 22.0479 14.9179 22.2391 15.1738 22.421C15.3085 22.5171 15.4656 22.5777 15.5856 22.6944C15.62 22.7289 15.655 22.7634 15.6894 22.7978C15.859 22.9063 16.0309 23.0111 16.1977 23.1236C16.472 23.3084 16.7459 23.494 17.0147 23.687C17.1769 23.8033 17.3598 23.8809 17.4995 24.0445C17.6153 24.1805 17.8193 24.2389 17.9765 24.3427C18.2522 24.5252 18.5159 24.7269 18.7967 24.9011C19.0572 25.0628 19.3017 25.2475 19.5517 25.4226C19.6868 25.5173 19.8435 25.5788 19.963 25.6956C19.9979 25.73 20.0323 25.764 20.0673 25.7985C20.2368 25.9069 20.4082 26.0122 20.575 26.1243C20.8976 26.3412 21.2174 26.5631 21.5391 26.7814C21.665 26.8669 21.7877 26.9482 21.8989 27.0594C22.0221 27.183 22.2054 27.2451 22.3552 27.3448C22.6305 27.5277 22.9025 27.7161 23.1727 27.9063C23.3969 28.0644 23.6088 28.2404 23.8399 28.387C24.1639 28.5928 24.515 28.7573 24.7796 29.0478C24.792 29.0615 24.8283 29.0537 24.8536 29.0556C24.872 29.0009 24.8899 28.9467 24.9083 28.892C24.8247 28.7155 24.736 28.5409 24.6588 28.3617C24.4483 27.8728 24.2452 27.3802 24.0338 26.8917C23.8882 26.5549 23.7292 26.2236 23.5835 25.8863C23.3685 25.3891 23.1635 24.8873 22.9475 24.3905C22.6902 23.7987 22.4255 23.2096 22.1631 22.62C21.943 22.1256 21.7188 21.633 21.5014 21.1371C21.2997 20.6758 21.1067 20.2107 20.9068 19.7485C20.7497 19.3854 20.5861 19.0252 20.428 18.6622C20.1904 18.1167 19.957 17.5694 19.718 17.0244C19.5494 16.6394 19.3725 16.2584 19.2047 15.8733C18.964 15.3196 18.7305 14.7631 18.4888 14.2094C18.3243 13.8317 18.1469 13.4595 17.9833 13.0818C17.737 12.5129 17.4926 11.9431 17.2559 11.3701C17.0105 10.7768 16.7528 10.1909 16.3507 9.68224C16.1591 9.43962 15.9661 9.19791 15.7666 8.96172C15.5732 8.73288 15.3177 8.57572 15.0783 8.4011C15.0443 8.3671 15.0107 8.33355 14.9767 8.29955C14.9597 8.29863 14.939 8.30369 14.9266 8.29541C14.7391 8.17042 14.5604 8.03027 14.3646 7.92136C14.2107 7.83543 14.0342 7.78994 13.8702 7.72102C13.3454 7.49999 12.7954 7.38648 12.2315 7.32859C12.2049 7.31296 12.1773 7.28217 12.152 7.28401C11.9057 7.30377 11.6535 7.22382 11.4127 7.3295C11.3024 7.33042 11.1889 7.31296 11.0827 7.33502C10.6062 7.43427 10.1274 7.52802 9.67938 7.72975C9.62929 7.74905 9.57874 7.76835 9.52865 7.78765V7.7881C9.51257 7.7927 9.49649 7.79684 9.4804 7.80143C9.11922 7.9687 8.7778 8.16951 8.46119 8.41167C8.42535 8.42408 8.3895 8.43649 8.35366 8.44889L8.30725 8.49852C8.25487 8.53299 8.20248 8.56745 8.1501 8.60145C8.13447 8.61846 8.11885 8.63546 8.10322 8.65246C8.07382 8.67038 8.04395 8.6883 8.01454 8.70622C7.90931 8.81559 7.81143 8.93231 7.69839 9.03294C7.30182 9.38539 7.02933 9.82469 6.77797 10.2842C6.58084 10.6449 6.43287 11.0254 6.29548 11.4087C6.20449 11.6623 6.16635 11.9371 6.12224 12.2055C6.08869 12.4095 6.08226 12.6177 6.06388 12.824C6.06066 12.8424 6.0579 12.8603 6.05469 12.8787L6.07353 13.4342C6.07629 13.4521 6.0795 13.4705 6.08226 13.4884H6.08134Z" fill="#FFFFFF" />
<path d="M40.0611 10.9378C39.8851 11.3059 39.7018 11.6703 39.5368 12.0434C39.3562 12.4515 39.1954 12.8687 39.0203 13.2791C38.893 13.5778 38.7515 13.8709 38.6242 14.1701C38.4464 14.5896 38.281 15.0142 38.1008 15.4328C37.9207 15.8505 37.7231 16.2604 37.5434 16.6781C37.3665 17.0894 37.2089 17.5089 37.0325 17.9202C36.8408 18.3669 36.6336 18.8066 36.4406 19.2528C36.2637 19.6618 36.0996 20.0758 35.9255 20.4857C35.7375 20.9273 35.5427 21.3657 35.3543 21.8068C35.0795 22.4511 34.8093 23.0981 34.5336 23.7419C34.3024 24.2813 34.064 24.8176 33.8333 25.3575C33.558 26.0018 33.2897 26.6492 33.0135 27.2935C32.7819 27.8339 32.542 28.3715 32.3091 28.9114C32.2916 28.9523 32.2999 29.0047 32.293 29.093C32.6895 28.8127 33.0553 28.5544 33.4206 28.2962C33.45 28.2782 33.4799 28.2603 33.5093 28.2424C33.5603 28.2079 33.6113 28.173 33.6623 28.1385C33.678 28.122 33.6931 28.1054 33.7087 28.0894C33.7446 28.077 33.7804 28.0646 33.8163 28.0521C33.887 27.997 33.9555 27.9391 34.029 27.8876C34.3456 27.6657 34.6641 27.4456 34.9816 27.2246C35.034 27.1901 35.0864 27.1556 35.1388 27.1212C35.5785 26.8165 36.0183 26.5118 36.4581 26.2072C36.5104 26.1727 36.5628 26.1382 36.6152 26.1038C37.055 25.7991 37.4947 25.4945 37.9345 25.1898C37.9869 25.1553 38.0393 25.1209 38.0916 25.0864C38.3366 24.9159 38.581 24.7454 38.826 24.575C39.2133 24.3061 39.6007 24.0373 39.9881 23.769C40.0175 23.751 40.0474 23.7331 40.0768 23.7152C40.1278 23.6807 40.1788 23.6467 40.2298 23.6123C40.2454 23.5957 40.2606 23.5787 40.2762 23.5622C40.312 23.5498 40.3479 23.5374 40.3837 23.525C40.744 23.2672 41.1043 23.0094 41.4645 22.7521C41.4939 22.7341 41.5238 22.7162 41.5532 22.6983C41.6042 22.6638 41.6552 22.6298 41.7062 22.5954C41.7218 22.5788 41.737 22.5618 41.7526 22.5453C41.7885 22.5329 41.8243 22.5205 41.8602 22.508C42.2204 22.2503 42.5807 21.9925 42.941 21.7351C42.9704 21.7172 43.0002 21.6993 43.0296 21.6814C43.0806 21.6469 43.1317 21.612 43.1827 21.5775C43.1983 21.561 43.2134 21.5444 43.2291 21.5284C43.2649 21.5159 43.3008 21.5035 43.3366 21.4911C43.7433 21.1989 44.1467 20.9025 44.5575 20.6162C45.0612 20.2651 45.5703 19.9223 46.0776 19.5759C46.7256 19.1333 47.3767 18.6959 48.02 18.2465C48.3633 18.0066 48.7111 17.7681 49.0245 17.4915C49.4252 17.1381 49.7768 16.7337 50.0782 16.288C50.6494 15.4429 50.9577 14.5083 51.0423 13.496C51.051 13.4744 51.0597 13.4532 51.0685 13.4316C51.0657 13.2497 51.0634 13.0672 51.0607 12.8853C51.0515 12.8637 51.0423 12.8416 51.0331 12.82C51.0349 12.74 51.0368 12.6601 51.0386 12.5801C51.0317 12.5641 51.0248 12.5475 51.0179 12.5314C50.9867 12.3738 50.9439 12.2171 50.926 12.0577C50.8704 11.5572 50.6806 11.0996 50.4807 10.6469C50.1784 9.96363 49.7152 9.39842 49.1858 8.87457C48.8366 8.52901 48.4299 8.28271 48.0081 8.05019C47.6588 7.85766 47.2839 7.72669 46.9015 7.62146C46.5849 7.53461 46.2683 7.43674 45.9343 7.43444C45.8961 7.40273 45.8617 7.35402 45.818 7.34299C45.7573 7.32783 45.6898 7.34162 45.625 7.34299C45.3543 7.34529 45.0841 7.34713 44.8135 7.34943C44.7547 7.34575 44.6926 7.32875 44.637 7.34116C44.3186 7.41468 43.9983 7.48315 43.6854 7.57551C43.0944 7.75013 42.5522 8.02584 42.0623 8.40081C42.027 8.41873 41.992 8.43711 41.9567 8.45503C41.941 8.47203 41.9259 8.48857 41.9102 8.50558C41.8785 8.52304 41.8468 8.54096 41.8151 8.55842L41.8092 8.56394C41.7788 8.59656 41.749 8.62919 41.7186 8.66181C41.5004 8.87044 41.2591 9.06022 41.0689 9.29181C40.7706 9.65483 40.4871 10.0326 40.2895 10.465C40.2165 10.6244 40.137 10.7807 40.0616 10.9387L40.0611 10.9378Z" fill="#FFFFFF" />
<path d="M1.70369 26.4726C1.85303 27.1077 2.07268 27.7198 2.44719 28.2657C2.52117 28.3737 2.56851 28.5009 2.64892 28.603C2.78816 28.7803 2.93934 28.9485 3.09236 29.1139C3.28903 29.3267 3.46962 29.5624 3.69754 29.7357C4.12995 30.0651 4.57385 30.3841 5.08345 30.5941C5.40328 30.7259 5.71897 30.8656 6.06912 30.8973C6.10405 30.9107 6.13943 30.924 6.17435 30.9373C6.20698 30.9405 6.24006 30.9442 6.27269 30.9474C6.32462 30.9608 6.377 30.9745 6.42893 30.9879C6.61411 31.0081 6.79976 31.0278 6.98494 31.0481C7.07777 31.0453 7.17105 31.0402 7.26387 31.0402C13.3355 31.0402 19.4067 31.0402 25.4783 31.0402C25.5886 31.0402 25.6989 31.0389 25.8087 31.0384C25.2839 30.6667 24.7605 30.294 24.2348 29.9236C23.5212 29.4209 22.8085 28.9168 22.0916 28.4187C21.2879 27.8604 20.4773 27.3112 19.6746 26.7516C18.8507 26.1772 18.0345 25.5908 17.2111 25.016C16.5728 24.5707 15.9258 24.1383 15.2871 23.6939C14.4834 23.1342 13.6866 22.564 12.881 22.007C12.5074 21.7488 12.1095 21.5254 11.7419 21.2589C11.3972 21.0089 11.0678 20.7433 10.6997 20.5205C10.1869 20.2103 9.65935 19.9429 9.09414 19.7485C8.62589 19.5876 8.14385 19.4889 7.65125 19.4392C7.61724 19.4236 7.5837 19.3947 7.54969 19.3947C7.27674 19.3937 7.00379 19.3983 6.73083 19.4011C6.76254 19.408 6.79424 19.4181 6.82549 19.4264C6.79378 19.4181 6.76208 19.4084 6.73083 19.4011C6.54381 19.4351 6.35724 19.4686 6.17022 19.5026C6.16424 19.5095 6.15781 19.5155 6.15184 19.5206C6.15781 19.5155 6.16424 19.5091 6.17022 19.5026C6.11967 19.504 6.06912 19.5054 6.01904 19.5068C6.00157 19.5054 5.98411 19.504 5.96665 19.5026C5.94827 19.516 5.92989 19.5293 5.91151 19.5426L5.91335 19.5408C5.88072 19.5458 5.84763 19.5504 5.81501 19.5555C5.78054 19.5725 5.74654 19.5895 5.71208 19.606C5.67853 19.6069 5.64499 19.6074 5.61144 19.6083C5.48094 19.6552 5.34492 19.691 5.22131 19.7517C4.87116 19.924 4.51549 20.0899 4.18188 20.2916C3.96636 20.4221 3.78072 20.605 3.5914 20.7746C3.37588 20.968 3.17094 21.1734 2.96139 21.3738C2.9375 21.3968 2.9136 21.4198 2.88971 21.4427L2.87592 21.4584C2.858 21.4822 2.83962 21.5061 2.8217 21.53C2.80102 21.5645 2.78034 21.5985 2.75967 21.633C2.72934 21.6665 2.69947 21.7001 2.66914 21.7331C2.65949 21.7474 2.65535 21.763 2.65627 21.78C2.6264 21.8154 2.597 21.8503 2.56713 21.8857C2.55794 21.9 2.5538 21.9156 2.55426 21.9321C2.52439 21.9675 2.49452 22.0029 2.46511 22.0378C2.45592 22.0525 2.45179 22.0686 2.45317 22.0861C2.42468 22.121 2.39665 22.1559 2.36816 22.1908C2.34564 22.2409 2.32358 22.2915 2.30107 22.3415C2.2859 22.376 2.27074 22.41 2.25603 22.4445L2.2519 22.4486C2.23627 22.4812 2.22065 22.5139 2.20503 22.5465L2.20089 22.5506C2.18527 22.5833 2.16964 22.6159 2.15402 22.6485L2.14988 22.6526C2.13426 22.6853 2.11864 22.7179 2.10301 22.7505L2.09888 22.7547C2.08371 22.7873 2.06809 22.8199 2.05292 22.8525L2.04833 22.8576C2.03362 22.8902 2.01846 22.9224 2.00376 22.955L1.99732 22.9591C1.98446 22.9738 1.97159 22.989 1.95872 23.0037C1.95413 23.0216 1.94999 23.0391 1.9454 23.057C1.92931 23.1076 1.91277 23.1577 1.89669 23.2082L1.89439 23.21C1.88198 23.2261 1.87004 23.2417 1.85763 23.2578C1.85441 23.2928 1.85074 23.3272 1.84752 23.3621C1.83282 23.3787 1.81765 23.3957 1.80295 23.4122C1.70553 23.8603 1.6026 24.3074 1.62971 24.7715C1.62098 24.7935 1.61271 24.8161 1.60397 24.8381C1.60122 25.0716 1.59846 25.305 1.5957 25.5384C1.60397 25.5596 1.61225 25.5807 1.62052 25.6018C1.64579 25.8932 1.63752 26.1923 1.70369 26.474V26.4726Z" fill="#FFFFFF" />
<path d="M50.819 19.5542C50.7694 19.5505 50.7202 19.5464 50.6706 19.5427C50.6182 19.5299 50.5658 19.5165 50.5134 19.5037C50.4298 19.4991 50.3457 19.4945 50.2621 19.4899C50.2363 19.4743 50.211 19.4453 50.1853 19.4453C49.9211 19.4453 49.6569 19.4494 49.3926 19.4527C49.2966 19.4655 49.2001 19.4766 49.1041 19.4917C49.0071 19.5073 48.9097 19.5202 48.815 19.5455C48.5655 19.6126 48.3174 19.6856 48.0683 19.7569C48.0164 19.7697 47.964 19.7826 47.9121 19.7959L47.913 19.795C47.8969 19.7996 47.8808 19.8037 47.8652 19.8083C47.8482 19.8083 47.8307 19.8079 47.8137 19.8074C47.7963 19.8212 47.7788 19.8345 47.7618 19.8483C47.7457 19.8529 47.7296 19.857 47.7136 19.8616C47.6299 19.908 47.55 19.9664 47.4613 19.999C47.0666 20.1452 46.7205 20.3717 46.3888 20.624C46.3529 20.6364 46.3171 20.6488 46.2812 20.6612C46.2656 20.6777 46.2505 20.6943 46.2348 20.7108C46.1838 20.7453 46.1328 20.7798 46.0823 20.8142V20.8147C46.0529 20.8326 46.0234 20.8501 45.9936 20.868C45.9573 20.9015 45.9251 20.9406 45.8847 20.9672C45.6186 21.1419 45.348 21.3091 45.0842 21.487C44.6509 21.7797 44.2185 22.0742 43.7911 22.3757C43.2369 22.7667 42.6915 23.1711 42.1355 23.5598C41.4935 24.0093 40.8424 24.4453 40.1986 24.892C39.5686 25.329 38.9436 25.7729 38.3146 26.2113C37.9989 26.4314 37.6777 26.6428 37.3624 26.8624C36.7935 27.2585 36.2274 27.6583 35.659 28.0553C35.1558 28.4069 34.6508 28.7552 34.1476 29.1062C33.5861 29.4982 33.0246 29.8897 32.4649 30.2849C32.1248 30.5252 31.7889 30.772 31.4512 31.0155C31.5605 31.0234 31.6699 31.0381 31.7788 31.0381C37.9221 31.039 44.0654 31.039 50.2088 31.0394C50.3103 31.0394 50.4119 31.045 50.5134 31.0477C50.9127 31.0036 51.3065 30.9351 51.6847 30.7945C51.7003 30.7885 51.716 30.7844 51.7325 30.7821C51.7504 30.7688 51.7679 30.7559 51.7858 30.7426C52.5633 30.5156 53.1942 30.0519 53.7792 29.5134C53.7925 29.4941 53.8063 29.4752 53.8197 29.4559C53.8371 29.4408 53.8546 29.4256 53.872 29.4104C53.889 29.3939 53.906 29.3778 53.923 29.3613C54.0595 29.1862 54.1978 29.012 54.332 28.8351C54.6587 28.4032 54.8876 27.9184 55.0944 27.4212C55.3103 26.9028 55.399 26.3569 55.4532 25.8028C55.4629 25.7839 55.4725 25.7651 55.4822 25.7462C55.4836 25.426 55.4854 25.1052 55.4868 24.7849C55.4762 24.7652 55.4656 24.7454 55.4546 24.7256C55.4385 24.6314 55.4174 24.5382 55.4073 24.443C55.3903 24.2845 55.3806 24.1255 55.3678 23.967C55.365 23.9509 55.3623 23.9344 55.3595 23.9183C55.2543 23.6246 55.15 23.3305 55.0438 23.0369C54.8039 22.3743 54.4032 21.8141 53.9272 21.3041C53.7595 21.1244 53.5871 20.9475 53.4006 20.788C53.225 20.6378 53.0334 20.5045 52.8395 20.3781C52.6529 20.2564 52.4576 20.1461 52.2591 20.0445C52.1374 19.982 52.0013 19.9489 51.8736 19.8966C51.7605 19.8506 51.6549 19.7854 51.5395 19.7481C51.3539 19.6879 51.1627 19.6434 50.9738 19.5924C50.9219 19.579 50.8705 19.5657 50.8185 19.5519L50.819 19.5542Z" fill="#FFFFFF" />
<path d="M42.2196 40.2419C42.2163 40.1918 42.2232 40.138 42.2085 40.0916C41.9847 39.3817 41.4682 38.9543 40.813 38.6676C40.5906 38.5702 40.3576 38.4953 40.1297 38.4102H39.9688C40.047 38.3675 40.0883 38.345 40.1297 38.3225C40.3116 38.2669 40.4936 38.2113 40.6756 38.1557C40.6967 38.1396 40.7174 38.1235 40.7385 38.107L40.7376 38.1079C40.7716 38.0918 40.8061 38.0757 40.8401 38.0596L40.8433 38.0578C40.8598 38.0454 40.8764 38.0334 40.8934 38.021L40.8975 38.0086L40.9099 38.0118C40.9375 37.993 40.9651 37.9746 40.9926 37.9558C41.131 37.8207 41.2693 37.6856 41.408 37.5505C41.4223 37.5312 41.4365 37.5123 41.4508 37.493C41.5229 37.3933 41.5946 37.2936 41.6668 37.1939C41.6792 37.1737 41.6916 37.1539 41.7035 37.1337C41.6989 37.1162 41.704 37.1025 41.7191 37.0923C41.7306 37.0717 41.7421 37.051 41.7536 37.0298C41.7784 36.9485 41.8032 36.8676 41.8285 36.7863C41.8386 36.7684 41.8492 36.7509 41.8593 36.733C41.8795 36.5101 41.9158 36.2868 41.9163 36.0639C41.9167 35.7933 41.8198 35.5392 41.6755 35.3149C41.408 34.8995 41 34.6463 40.5579 34.4602C39.871 34.1712 39.1426 34.031 38.4065 33.9318C38.2668 33.9171 38.1271 33.9024 37.9869 33.8877C37.9042 33.8858 37.822 33.884 37.7392 33.8821C37.6418 33.867 37.5449 33.8385 37.4474 33.8385C35.965 33.8357 34.4822 33.8362 32.9998 33.8362C32.1694 33.8362 31.3395 33.8348 30.5092 33.8385C30.4242 33.8385 30.3391 33.8711 30.2541 33.8886C30.2509 33.9561 30.2445 34.0237 30.2445 34.0912C30.244 37.1429 30.244 40.1946 30.2445 43.2467C30.2445 43.3142 30.2514 43.3818 30.2551 43.4489C30.2546 43.4659 30.2537 43.4824 30.2532 43.4994C32.6551 43.4994 35.0566 43.5003 37.4585 43.5013C37.5513 43.5013 37.6441 43.5063 37.7369 43.5086C37.8063 43.4907 37.8757 43.4732 37.9446 43.4553C37.9938 43.4576 38.0434 43.4594 38.0926 43.4617C38.2291 43.4604 38.3656 43.459 38.502 43.4571C38.6376 43.4406 38.7727 43.4245 38.9083 43.408C38.9588 43.408 39.0094 43.408 39.0604 43.4075C39.2626 43.3703 39.4647 43.3326 39.6674 43.2954L39.8245 43.2563C39.8443 43.2416 39.8613 43.2205 39.8834 43.2127C40.1857 43.1075 40.4885 43.0041 40.7918 42.9002C40.8079 42.8942 40.824 42.8896 40.8405 42.886L40.8396 42.8869C40.8741 42.869 40.9085 42.851 40.9426 42.8327C40.9596 42.8175 40.9752 42.801 40.9936 42.7876C41.2003 42.6351 41.408 42.483 41.6153 42.3304L41.7063 42.2229C41.9025 41.9821 42.0794 41.7307 42.1309 41.4137C42.1424 41.3957 42.1538 41.3778 42.1653 41.3599C42.2448 41.0097 42.3036 40.6582 42.2508 40.2975C42.2407 40.2782 42.2301 40.2584 42.22 40.2391L42.2196 40.2419ZM37.6478 36.8056C37.4861 36.9876 37.2958 37.1346 37.0353 37.1484C36.0289 37.1475 35.0226 37.147 34.0162 37.1461C34.0167 36.687 34.0171 36.2275 34.0181 35.7685C34.0608 35.7524 34.1035 35.723 34.1458 35.723C35.0354 35.7202 35.9251 35.7202 36.8147 35.723C36.8685 35.723 36.9222 35.7519 36.9755 35.7675C37.2678 35.7639 37.4851 35.9049 37.6561 36.1274C37.8086 36.3259 37.81 36.6223 37.6473 36.8056H37.6478ZM37.0054 37.1548C36.9792 37.1608 36.9535 37.1677 36.9273 37.1737C36.9535 37.1672 36.9792 37.1608 37.0054 37.1548ZM37.7466 40.9509C37.5109 41.0869 37.2646 41.2023 36.9783 41.1655C36.9259 41.1816 36.8731 41.2115 36.8207 41.2115C35.9223 41.2142 35.0235 41.2142 34.1251 41.2115C34.0769 41.2115 34.0291 41.1765 33.9808 41.1582C33.9808 40.6003 33.9813 40.0429 33.9818 39.4851C33.9932 39.4713 34.0043 39.4575 34.0158 39.4432C34.3186 39.4391 34.6214 39.4322 34.9238 39.4313C35.5639 39.4295 36.204 39.4285 36.8441 39.4331C36.9388 39.4336 37.033 39.4644 37.1272 39.4809C37.4787 39.4897 37.7654 39.6372 37.9837 39.9064C38.2337 40.2143 38.1138 40.7391 37.7461 40.9509H37.7466Z" fill="#FFFFFF" />
<path d="M48.6269 36.1726C48.7804 36.1105 48.9338 36.0485 49.0873 35.9865C49.1213 35.9851 49.1553 35.9842 49.1893 35.9828C49.2233 35.9672 49.2573 35.9516 49.2913 35.9364C49.3424 35.935 49.3929 35.9332 49.4439 35.9318C49.4775 35.9286 49.511 35.9254 49.5441 35.9221C49.7646 35.9047 49.9852 35.878 50.2067 35.873C50.3257 35.8702 50.4457 35.9047 50.5651 35.9221C50.6322 35.9258 50.6998 35.929 50.7669 35.9327C50.8188 35.9465 50.8712 35.9603 50.9231 35.9745C51.2273 35.9819 51.5003 36.0991 51.7576 36.2424C52.0967 36.4313 52.3816 36.6771 52.4556 37.0898C52.514 37.1082 52.5723 37.1431 52.6311 37.1431C53.8594 37.1463 55.0882 37.1463 56.3165 37.1431C56.3684 37.1431 56.4208 37.1128 56.4727 37.0967C56.3372 37.0958 56.2016 37.0948 56.066 37.0944C56.2016 37.0944 56.3372 37.0958 56.4727 37.0967C56.4695 36.9974 56.4791 36.8959 56.4612 36.7994C56.4042 36.4864 56.2682 36.2034 56.1102 35.93C56.0959 35.9107 56.0817 35.8909 56.067 35.8716L56.0651 35.8615L56.05 35.8509L56.0536 35.8335C55.9939 35.7746 55.9342 35.7154 55.874 35.6565C55.6653 35.4521 55.4769 35.2205 55.2449 35.0477C54.6011 34.5702 53.8659 34.2812 53.0911 34.0937C52.6748 33.9931 52.2534 33.9145 51.8343 33.8258C51.8012 33.8258 51.7677 33.8263 51.7346 33.8267C51.6179 33.812 51.5007 33.7973 51.384 33.7826C51.2438 33.7679 51.1041 33.7528 50.964 33.738C50.8978 33.7335 50.8312 33.7284 50.765 33.7238L50.7448 33.7321L50.7227 33.7298C50.5674 33.7298 50.4126 33.7298 50.2573 33.7298C50.254 33.7178 50.2499 33.7059 50.2453 33.6939C49.9305 33.6939 49.6158 33.693 49.301 33.6926C49.1636 33.6907 49.0267 33.6893 48.8893 33.6875C48.8828 33.7004 48.8778 33.7137 48.8741 33.7275C48.9435 33.7275 49.0129 33.7275 49.0818 33.7275C49.0124 33.7275 48.943 33.7275 48.8736 33.7275L48.8525 33.7298L48.8332 33.721C48.6641 33.7261 48.495 33.7316 48.3259 33.7367C48.3084 33.7486 48.291 33.7606 48.2735 33.7725C48.0539 33.8111 47.8351 33.8663 47.6136 33.8851C47.2019 33.92 46.8187 34.0615 46.4299 34.1806C46.0421 34.2991 45.6841 34.4894 45.3252 34.6773C44.8772 34.9121 44.4811 35.2177 44.0983 35.5435C43.8148 35.7847 43.6218 36.1014 43.3957 36.3904L43.398 36.4079L43.381 36.4147L43.3723 36.4304C43.3594 36.4478 43.347 36.4653 43.3341 36.4832C43.0566 36.9731 42.7671 37.4574 42.6789 38.0272C42.6665 38.1058 42.6462 38.1834 42.6297 38.2616C42.6315 38.2965 42.6338 38.3319 42.6357 38.3668C42.5975 38.8084 42.6136 39.2463 42.7294 39.676C42.7804 39.8662 42.8195 40.0642 42.9031 40.2402C43.0272 40.5008 43.1811 40.748 43.3318 40.9952C43.5575 41.3656 43.8364 41.6942 44.1649 41.9777C44.3915 42.1734 44.6281 42.3568 44.8602 42.5456C44.8892 42.5608 44.9181 42.576 44.9466 42.5911L44.9618 42.599C44.9797 42.6114 44.9976 42.6238 45.0151 42.6362C45.0481 42.6573 45.0812 42.6785 45.1143 42.6996C45.1437 42.7143 45.1727 42.729 45.2021 42.7437L45.2168 42.7488C45.2444 42.7644 45.2724 42.78 45.3 42.7956L45.3124 42.792L45.3188 42.803C45.3376 42.8145 45.356 42.8264 45.3749 42.8379C45.458 42.877 45.5412 42.9165 45.6244 42.9555C45.6538 42.9863 45.6837 43.0171 45.7131 43.0474C45.8293 43.081 45.9456 43.1127 46.0614 43.1476C46.4589 43.268 46.8564 43.3898 47.2534 43.5111C47.3053 43.5249 47.3572 43.5387 47.4092 43.5525C47.4422 43.5557 47.4749 43.5589 47.508 43.5621C47.5603 43.5759 47.6123 43.5892 47.6646 43.603C47.7143 43.6067 47.7639 43.6099 47.8131 43.6136C47.8815 43.6274 47.9505 43.6411 48.0189 43.6549C48.1527 43.6687 48.2864 43.683 48.4201 43.6967C48.5239 43.7046 48.6273 43.7119 48.7312 43.7197C48.7487 43.7197 48.7657 43.7197 48.7831 43.7197L48.7891 43.7069L48.7781 43.6981C48.9132 43.7032 49.0478 43.7087 49.1829 43.7137C49.1889 43.7257 49.1948 43.7372 49.2008 43.7491C49.5331 43.7496 49.8648 43.7505 50.1971 43.751C50.2026 43.739 50.2076 43.7271 50.2118 43.7147C50.3629 43.7105 50.5141 43.7059 50.6653 43.7018L50.6552 43.711L50.6621 43.7225C50.6956 43.7216 50.7296 43.7211 50.7632 43.7202C50.8615 43.7137 50.9599 43.7073 51.0587 43.7009C51.0656 43.6876 51.0734 43.6742 51.0821 43.6618C51.1634 43.6627 51.2448 43.6632 51.3256 43.6641C51.4106 43.6471 51.4952 43.6306 51.5802 43.6136C51.6142 43.6131 51.6482 43.6127 51.6827 43.6122C51.7337 43.5966 51.7842 43.5805 51.8352 43.5649C51.9033 43.5639 51.9708 43.5635 52.0388 43.5626C52.0544 43.5548 52.0705 43.552 52.088 43.5534C52.1564 43.5391 52.2249 43.5253 52.2938 43.5111C52.3086 43.5024 52.3242 43.4992 52.3412 43.5015C52.4092 43.4817 52.4767 43.4615 52.5447 43.4417C52.5801 43.4321 52.615 43.422 52.6504 43.4123C52.6831 43.4063 52.7157 43.4008 52.7488 43.3948L52.7465 43.3971C52.7653 43.3843 52.7842 43.3714 52.803 43.3585C53.0916 43.274 53.3801 43.1899 53.6683 43.1053C53.6839 43.0989 53.7 43.0943 53.7165 43.0916L53.7151 43.0929C53.7335 43.0796 53.7514 43.0663 53.7698 43.053C53.9582 42.9712 54.1512 42.899 54.3336 42.8053C54.5914 42.6725 54.8414 42.5241 55.0946 42.3821C55.1112 42.3655 55.1272 42.349 55.1438 42.3324V42.3315C55.1764 42.3122 55.2095 42.2929 55.2421 42.2741C55.2927 42.2189 55.3354 42.1514 55.3956 42.1109C55.7016 41.9051 55.9254 41.6197 56.1193 41.3192C56.316 41.015 56.4888 40.6887 56.4617 40.3027C56.4116 40.2844 56.362 40.2499 56.3119 40.2494C55.0845 40.2467 53.8571 40.2462 52.6298 40.2494C52.5709 40.2494 52.5121 40.2853 52.4533 40.3041C52.4436 40.3694 52.4478 40.4401 52.423 40.499C52.2635 40.8758 52.0117 41.1721 51.6441 41.3633C51.2425 41.5719 50.816 41.6767 50.3634 41.6749C50.2936 41.6877 50.2237 41.7011 50.1543 41.7139C50.0868 41.7139 50.0192 41.7139 49.9521 41.7139C49.8837 41.7139 49.8147 41.7139 49.7463 41.7139C49.624 41.6992 49.5004 41.69 49.3791 41.6689C48.966 41.5972 48.591 41.4304 48.2639 41.1717C47.9312 40.9088 47.6656 40.5826 47.4914 40.1952C47.3774 39.942 47.2649 39.6796 47.2125 39.4094C47.155 39.1144 47.1445 38.807 47.1785 38.5028C47.1835 38.4582 47.167 38.4114 47.1601 38.3654C47.1739 38.3314 47.1872 38.2969 47.201 38.2629C47.2704 37.7814 47.4317 37.3356 47.7221 36.9409C47.735 36.9225 47.7478 36.9041 47.7607 36.8858C47.8379 36.7989 47.9087 36.7047 47.9937 36.6261C48.138 36.4929 48.2666 36.3366 48.4651 36.2751C48.4849 36.2585 48.5042 36.2424 48.524 36.2259V36.2268C48.5575 36.2089 48.5915 36.1905 48.6255 36.1726H48.6269Z" fill="#FFFFFF" />
<path d="M6.62621 36.173C6.77969 36.111 6.93317 36.0485 7.08619 35.9865C7.12019 35.9856 7.15419 35.9842 7.1882 35.9833C7.20244 35.975 7.21807 35.9713 7.23461 35.9727C7.304 35.9589 7.37339 35.9451 7.44277 35.9309C7.47632 35.9277 7.50986 35.9249 7.54341 35.9217C7.76444 35.9038 7.98501 35.8771 8.20603 35.8721C8.32505 35.8693 8.44498 35.9038 8.56446 35.9212C8.63155 35.9249 8.6991 35.9281 8.76619 35.9318C8.81811 35.9456 8.8705 35.9594 8.92243 35.9731C8.95505 35.9764 8.98814 35.9796 9.02076 35.9828C9.07223 35.9966 9.12369 36.0108 9.1747 36.0246C9.24685 36.0407 9.32267 36.0476 9.39068 36.0738C9.88558 36.2636 10.3175 36.5223 10.4545 37.0879C10.5381 37.1068 10.6213 37.1408 10.7049 37.1417C11.2871 37.1463 11.8693 37.144 12.452 37.144C13.0347 37.144 13.6674 37.1463 14.2749 37.1408C14.3461 37.1403 14.4477 37.2024 14.4895 37.0801C14.4725 36.9565 14.467 36.8302 14.4367 36.7102C14.2551 36.0012 13.8181 35.4686 13.246 35.0399C12.8063 34.7104 12.3123 34.4751 11.7953 34.2941C11.0146 34.0202 10.2036 33.8796 9.38424 33.7817C9.24409 33.767 9.10439 33.7523 8.96424 33.7376C8.89761 33.733 8.83144 33.7279 8.76527 33.7233L8.74505 33.7316L8.72345 33.7293C8.71656 33.716 8.71013 33.7031 8.70323 33.6898C8.55067 33.6912 8.39811 33.6921 8.24601 33.6935C7.9147 33.6935 7.58293 33.6939 7.25161 33.6944C7.13122 33.6921 7.01082 33.6898 6.88997 33.6875C6.88354 33.7004 6.87802 33.7137 6.87389 33.7275L6.85275 33.7298L6.83345 33.721C6.6184 33.7436 6.40242 33.7596 6.18875 33.7904C5.84594 33.8401 5.49579 33.8685 5.16402 33.9614C4.5717 34.1273 3.98719 34.3184 3.43714 34.6111C2.91467 34.8891 2.43953 35.225 2.01631 35.6331C1.83756 35.8054 1.67994 36.0058 1.54163 36.213C1.31325 36.5558 1.07338 36.8982 0.903814 37.2708C0.76366 37.5787 0.718628 37.9293 0.631319 38.2611C0.633616 38.2965 0.636374 38.3314 0.638671 38.3668C0.638671 38.586 0.638212 38.8047 0.637752 39.0239C0.635455 39.0593 0.633157 39.0942 0.630859 39.1296C0.734711 39.8377 0.997096 40.4852 1.38217 41.0858C1.39964 41.111 1.41664 41.1368 1.4341 41.162C1.52095 41.276 1.60734 41.3895 1.69419 41.5035L1.70705 41.5012L1.702 41.5122C1.99701 41.7851 2.28513 42.0655 2.58841 42.3288C2.9018 42.6008 3.27126 42.7952 3.63749 42.979C3.89299 43.1072 4.16594 43.2193 4.4513 43.2873C4.73712 43.3558 5.02019 43.4367 5.30417 43.512C5.33955 43.5253 5.37448 43.5387 5.40986 43.552C5.44249 43.5552 5.47557 43.5584 5.5082 43.5616C5.56058 43.5754 5.61297 43.5888 5.66535 43.6025C5.71498 43.6058 5.76415 43.6094 5.81378 43.6127C5.88271 43.6264 5.95117 43.6402 6.0201 43.654C6.15382 43.6678 6.28708 43.682 6.4208 43.6958C6.50765 43.7027 6.5945 43.7101 6.68089 43.717C6.71535 43.7179 6.74936 43.7183 6.78382 43.7193L6.7898 43.7064L6.77877 43.6977C6.91387 43.7027 7.04851 43.7082 7.1836 43.7133C7.18958 43.7252 7.19601 43.7367 7.20199 43.7487C7.53422 43.7496 7.86645 43.7501 8.19868 43.751C8.2042 43.739 8.20879 43.7271 8.21293 43.7147C8.36411 43.7096 8.51575 43.7046 8.66693 43.699L8.65636 43.7078L8.6628 43.7197C8.6968 43.7188 8.73081 43.7179 8.76527 43.717C8.83512 43.6977 8.90496 43.6788 8.97481 43.6595C9.00744 43.6614 9.04006 43.6627 9.07269 43.6646C9.1577 43.6641 9.24225 43.6637 9.32726 43.6632C9.58138 43.6264 9.83549 43.5892 10.0896 43.5525C10.1581 43.5387 10.2265 43.5244 10.295 43.5106C10.4136 43.4776 10.5326 43.4445 10.6511 43.4118C10.6838 43.4059 10.7168 43.4004 10.7495 43.3944L10.7476 43.3967C10.7665 43.3838 10.7849 43.3709 10.8037 43.3576C11.0923 43.2735 11.3809 43.189 11.6694 43.1049C11.6851 43.0989 11.7016 43.0943 11.7181 43.0916L11.7177 43.0925C11.7356 43.0792 11.7535 43.0658 11.7714 43.0525C11.8225 43.036 11.873 43.0199 11.924 43.0033C11.941 43.002 11.958 43.001 11.975 42.9997L11.9865 42.9964C12.0164 42.9822 12.0462 42.9684 12.0766 42.9542C12.4171 42.7635 12.758 42.5732 13.0985 42.3825C13.1142 42.3664 13.1298 42.3499 13.1459 42.3338L13.1468 42.332C13.1794 42.3136 13.212 42.2948 13.2447 42.2764C13.451 42.0746 13.6573 41.8729 13.8641 41.6712C13.8788 41.6523 13.893 41.6335 13.9078 41.6147C13.9578 41.549 14.019 41.4892 14.0566 41.4171C14.1894 41.1639 14.3144 40.9065 14.4426 40.6511C14.4514 40.6166 14.4596 40.5821 14.4684 40.5477C14.4725 40.464 14.4766 40.3804 14.4808 40.2972C14.4514 40.2807 14.422 40.249 14.3921 40.249C13.1385 40.2467 11.8845 40.2467 10.6309 40.2494C10.5886 40.2494 10.5464 40.2844 10.5036 40.3032C10.4866 40.34 10.4696 40.3767 10.4526 40.4135L10.46 40.4296L10.4453 40.4406C10.3832 40.5481 10.3207 40.6561 10.2587 40.7636C10.2532 40.7866 10.2481 40.8091 10.2431 40.8321C10.085 41.0738 9.86628 41.2365 9.61124 41.3725C9.21836 41.5825 8.80387 41.6684 8.36549 41.6749C8.27864 41.6882 8.19179 41.7011 8.1054 41.7144C8.05485 41.7144 8.00431 41.7139 7.95376 41.7135C7.88529 41.7135 7.81636 41.7135 7.74789 41.7135C7.65094 41.6992 7.55398 41.6822 7.45656 41.6707C6.77279 41.5889 6.24343 41.2337 5.81516 40.7204C5.68557 40.5651 5.61205 40.3634 5.51233 40.1828L5.49671 40.1732L5.50222 40.1566C5.44203 40.0394 5.34461 39.937 5.3561 39.7908C5.34645 39.7738 5.3368 39.7568 5.32715 39.7398C5.27109 39.5565 5.16999 39.3828 5.20032 39.1797C5.18745 39.1452 5.17459 39.1107 5.16218 39.0763C5.17321 39.0469 5.19251 39.0175 5.19343 38.9876C5.20216 38.6779 5.20767 38.3686 5.21411 38.0589C5.22789 38.0414 5.24122 38.024 5.255 38.0065C5.27384 37.9564 5.29314 37.9059 5.31198 37.8558C5.3152 37.8393 5.31842 37.8223 5.32163 37.8057V37.7023C5.33312 37.6849 5.34461 37.6669 5.3561 37.6495C5.43927 37.4799 5.5229 37.3103 5.60607 37.1412C5.62629 37.1128 5.64651 37.0838 5.66673 37.0553L5.67271 37.0434C5.68557 37.0259 5.6989 37.008 5.71176 36.9905L5.71222 36.9896C5.7306 36.9593 5.74899 36.9289 5.76737 36.8982L5.76874 36.8903C5.78345 36.8724 5.79861 36.854 5.81332 36.8361C6.00172 36.6142 6.18875 36.3904 6.46859 36.2746C6.48789 36.2585 6.50673 36.242 6.52603 36.2259C6.56004 36.208 6.59404 36.19 6.62759 36.1721L6.62621 36.173Z" fill="#FFFFFF" />
<path d="M28.9268 33.8978C28.8937 33.8923 28.8606 33.8872 28.8276 33.8817C28.7908 33.8675 28.7536 33.8404 28.7168 33.8404C27.676 33.8381 26.6352 33.8376 25.5944 33.8404C25.5516 33.8404 25.5089 33.8725 25.4662 33.89C25.4625 33.9828 25.4556 34.0756 25.4556 34.1685C25.4547 35.2189 25.4556 36.2694 25.4547 37.3198C25.4538 38.1585 25.451 38.9971 25.4492 39.8357C25.445 39.8559 25.4404 39.8761 25.4363 39.8964C25.4115 39.8784 25.3871 39.8605 25.3623 39.8426L25.3637 39.838C25.3499 39.8219 25.3357 39.8058 25.3214 39.7902C25.1822 39.6041 25.043 39.4185 24.9037 39.2324C24.8886 39.214 24.8739 39.1961 24.8587 39.1781L24.8569 39.1689C24.8403 39.1634 24.8353 39.1529 24.8417 39.1372C24.7824 39.078 24.7162 39.0247 24.6657 38.9589C24.3992 38.6125 24.1359 38.2632 23.873 37.914C23.6047 37.5574 23.3381 37.1994 23.0707 36.8419C23.056 36.8236 23.0408 36.8056 23.0261 36.7873L23.0243 36.7781C23.0077 36.7712 22.9995 36.7592 22.9986 36.7413C22.9048 36.6264 22.8074 36.5138 22.7173 36.3962C22.4435 36.0369 22.1723 35.6757 21.8998 35.315C21.8851 35.297 21.87 35.2791 21.8553 35.2607L21.8534 35.2502L21.8383 35.2396L21.841 35.2217C21.6402 34.9648 21.4389 34.7075 21.2381 34.4506C21.223 34.4322 21.2083 34.4143 21.1931 34.3959L21.1913 34.3877C21.1743 34.3817 21.1692 34.3706 21.1752 34.3546C21.0461 34.1979 20.9169 34.0412 20.7878 33.8845C20.7088 33.8689 20.6297 33.8408 20.5507 33.8404C20.0595 33.8362 19.5682 33.8381 19.0775 33.8381C17.9852 33.8381 16.8929 33.8367 15.8006 33.8413C15.7184 33.8413 15.6132 33.7875 15.5511 33.8973L15.541 33.8923C15.5424 34.985 15.5442 36.0778 15.5447 37.1705C15.5452 39.1694 15.5447 41.1688 15.5452 43.1677C15.5452 43.2605 15.5507 43.3533 15.5539 43.4466C15.5447 43.4618 15.5415 43.4779 15.5452 43.4953C15.655 43.4981 15.7653 43.5031 15.8751 43.5031C16.9504 43.5054 18.0256 43.5068 19.1009 43.5086C19.111 43.4875 19.1207 43.4664 19.1308 43.4448C19.134 43.352 19.1395 43.2591 19.1395 43.1658C19.14 41.3443 19.1395 39.5232 19.1404 37.7017C19.1404 37.6002 19.1478 37.4991 19.1519 37.3975C19.1606 37.386 19.1689 37.375 19.1777 37.3635C19.1841 37.3773 19.191 37.3915 19.1974 37.4053C19.2833 37.5271 19.3665 37.6507 19.4552 37.7702C19.877 38.3372 20.3012 38.9029 20.7235 39.4699C21.0957 39.9699 21.4656 40.4721 21.8383 40.9721C22.1609 41.405 22.4853 41.836 22.8088 42.2679C23.1024 42.6604 23.3951 43.0533 23.6878 43.4457C24.8665 43.448 26.0447 43.4512 27.2234 43.4512C26.0447 43.4512 24.8665 43.4475 23.6878 43.4457C23.7361 43.465 23.7839 43.5004 23.8321 43.5004C25.514 43.5031 27.1958 43.5031 28.8776 43.5004C28.9273 43.5004 28.9769 43.4678 29.0265 43.4503C29.0302 43.3915 29.0366 43.3327 29.0366 43.2734C29.0371 40.2185 29.0371 37.1636 29.0366 34.1087C29.0366 34.0499 29.0417 33.9883 29.0265 33.9332C29.021 33.9134 28.9617 33.9088 28.9273 33.8973L28.9268 33.8978Z" fill="#FFFFFF" />
<path d="M50.7263 33.7271C50.7194 33.7142 50.7125 33.7008 50.7057 33.6875C50.553 33.6889 50.4007 33.6898 50.248 33.6912C50.2526 33.7027 50.2568 33.7146 50.26 33.7271C50.4155 33.7271 50.5704 33.7271 50.7259 33.7271H50.7263Z" fill="#FFFFFF" />
<path d="M24.9483 29.0665C24.9611 29.0159 24.9234 28.9525 24.9082 28.8945C24.8898 28.9493 24.8719 29.0035 24.8535 29.0583C24.882 29.1111 24.9312 29.1323 24.9478 29.067L24.9483 29.0665Z" fill="#FFFFFF" />
<path d="M20.4277 0.379825C20.4436 0.375613 20.4591 0.3714 20.475 0.367188C20.4586 0.369528 20.4432 0.37374 20.4277 0.379825Z" fill="#FFFFFF" />
<path d="M19.1987 37.402C19.1921 37.3879 19.1851 37.3734 19.1786 37.3594C19.1697 37.3711 19.1612 37.3823 19.1523 37.394C19.1669 37.4015 19.1823 37.4043 19.1987 37.402Z" fill="#FFFFFF" />
<path d="M29.5449 9.56957C29.5586 9.57335 29.5718 9.57759 29.585 9.58184C29.5751 9.56107 29.5647 9.5403 29.5548 9.51953C29.5515 9.53605 29.5482 9.55257 29.5449 9.5691V9.56957Z" fill="#FFFFFF" />
</svg>
