<svg width="155" height="30" viewBox="0 0 155 30" fill="none" xmlns="http://www.w3.org/2000/svg">
<path d="M27.9085 1.42613C27.6747 1.23861 27.4092 1.07838 27.1346 0.955546C26.4015 0.62679 25.6372 0.493863 24.8249 0.613734C24.0215 0.731826 23.3287 1.07067 22.7621 1.61543C22.2628 2.09611 21.7226 2.48836 21.0407 2.61654C20.2553 2.7643 19.446 2.83076 18.7268 2.38807C18.2515 2.09551 17.8261 1.72284 17.3814 1.38222C16.4062 0.635098 15.2965 0.497423 14.1176 0.680791C13.2956 0.808377 12.6551 1.2576 12.0776 1.8166C11.2274 2.63909 10.1621 2.80584 9.05232 2.67647C8.3397 2.59339 7.73704 2.21004 7.22511 1.6908C6.14897 0.597712 4.78562 0.410783 3.37601 0.721737C2.28485 0.962074 1.49712 1.71097 0.955146 2.68181C0.556777 3.39511 0.500296 4.17249 0.53154 4.96472C0.532742 4.99735 0.493085 5.03177 0.472656 5.065V5.18369C0.514116 5.19556 0.589824 5.20327 0.592227 5.22048C0.69918 6.03525 1.12158 6.69039 1.67618 7.27076C2.02948 7.63987 2.36356 8.02025 2.50056 8.51695C2.63515 9.00652 2.72588 9.49491 2.65498 10.0225C2.58227 10.5643 2.45129 11.0734 2.13523 11.5096C1.90691 11.8253 1.59146 12.0793 1.31806 12.3629C1.28922 12.3932 1.28141 12.443 1.25738 12.4786C1.14802 12.6395 1.03386 12.7973 0.927507 12.9599C0.898065 13.0056 0.886047 13.0638 0.872828 13.1184C0.858408 13.1789 0.869223 13.2519 0.83918 13.3017C0.573601 13.7426 0.428193 14.8666 0.579008 15.3704C0.631283 15.6208 0.66433 15.8772 0.740039 16.1211C0.960554 16.8296 1.45146 17.3661 1.93395 17.9085C2.35755 18.385 2.61832 18.9416 2.62974 19.5813C2.63815 20.0501 2.62674 20.5237 2.56965 20.9889C2.49274 21.6132 2.13043 22.1052 1.6924 22.5384C0.779695 23.4421 0.371712 24.5507 0.551369 25.7862C0.767678 27.2721 1.63051 28.3492 3.06056 28.9218C3.41566 29.0642 3.81644 29.0963 4.19618 29.1788C4.35601 29.1734 4.51524 29.1681 4.67507 29.1627C4.71592 29.1432 4.75678 29.123 4.79824 29.1034C5.72056 29.139 6.48065 28.7473 7.11696 28.1486C7.85721 27.4519 8.64254 26.9884 9.72348 27.0175C10.7155 27.0442 11.5261 27.3581 12.2134 28.0465C12.7122 28.5462 13.307 28.8993 14.007 29.0476C14.2407 29.0975 14.4991 29.0441 14.7292 29.1022C15.4593 29.2862 16.1094 29.088 16.7397 28.7521C16.7625 28.739 16.7854 28.7254 16.8088 28.7123C17.379 28.418 17.8507 28.0073 18.2268 27.4976C18.3999 27.2632 18.603 27.0086 18.6523 26.7386C18.7153 26.3956 18.8451 26.0728 18.8854 25.7144C18.9749 24.9192 18.8067 24.2011 18.5327 23.4813C18.5195 23.4682 18.5062 23.4558 18.493 23.4427C18.344 23.2083 18.2298 22.9407 18.0388 22.7461C17.477 22.1734 16.8365 21.6909 16.0229 21.5373C15.3649 21.4126 14.6962 21.2542 14.0256 21.5236C13.7186 21.647 13.3983 21.7378 13.0841 21.8429C13.0613 21.8565 13.0378 21.8702 13.015 21.8838C12.8786 21.9479 12.7416 22.012 12.6052 22.0761C12.5643 22.1301 12.5235 22.1841 12.482 22.2381C12.4015 22.3093 12.3264 22.3882 12.2387 22.4499C11.9028 22.6843 11.5621 22.9128 11.2232 23.1431C11.0958 23.1288 10.9528 23.0896 10.9751 23.3021C10.8976 23.3068 10.8201 23.3116 10.7425 23.3163C10.7221 23.3169 10.7023 23.3175 10.6819 23.3181C10.5196 23.3727 10.3598 23.4647 10.1946 23.4748C9.46812 23.5199 8.74288 23.508 8.08494 23.1389C7.04966 22.5591 6.40854 21.6874 6.24992 20.5255C6.1688 19.932 6.21086 19.3214 6.43378 18.744C6.4488 18.725 6.46382 18.7066 6.47884 18.6876C6.59902 18.4793 6.69816 18.2556 6.84357 18.0669C7.06408 17.7809 7.3591 17.5441 7.54657 17.2409C7.8434 16.762 8.17267 16.2688 8.31146 15.7371C8.44065 15.2446 8.37636 14.6891 8.32528 14.1687C8.28923 13.8049 8.20511 13.4068 8.01103 13.1065C7.73464 12.6792 7.47687 12.233 7.06769 11.8811C6.50408 11.3962 6.31421 10.6918 6.25172 9.98626C6.21326 9.55247 6.26253 9.09257 6.37129 8.66946C6.46683 8.29738 6.65429 7.92649 6.88382 7.61376C7.19987 7.18412 7.61988 6.8429 8.09576 6.57527C8.64013 6.26847 9.23198 6.25482 9.83464 6.24473C10.7425 6.22989 11.5086 6.5094 12.1395 7.17106C12.634 7.69031 13.2343 8.04814 13.9511 8.21252C14.7136 8.38758 15.4641 8.3947 16.2104 8.14546C16.6189 8.00898 17.0107 7.84519 17.3376 7.55145C17.6368 7.28263 17.9438 7.01974 18.2647 6.77644C18.9953 6.22277 19.8564 6.19785 20.7168 6.25838C21.2708 6.29754 21.7857 6.51177 22.2292 6.84587C22.5242 7.06781 22.7669 7.3574 23.065 7.57459C24.2144 8.4131 25.5038 8.54543 26.8215 8.12054C27.3779 7.94073 27.9391 7.64639 28.3117 7.13308C28.5484 6.8067 28.9041 6.52008 29.0123 6.15928C29.1246 5.78423 29.3433 5.4442 29.3451 5.00981C29.3487 4.28584 29.371 3.58204 29.0561 2.90079C28.7863 2.31686 28.4054 1.8255 27.9073 1.42613H27.9085Z" fill="#FFFFFF" />
<path d="M109.433 15.348C109.451 14.011 109.397 12.6829 108.952 11.4011C108.848 11.1044 108.757 10.8023 108.64 10.511C108.511 10.1911 108.358 9.88016 108.215 9.56564C108.201 9.55199 108.187 9.53775 108.172 9.5241C108.102 9.42203 108.032 9.31997 107.961 9.2179C107.714 8.85888 107.49 8.48087 107.213 8.14677C106.976 7.86311 106.678 7.6293 106.407 7.37413C106.395 7.36404 106.383 7.35395 106.371 7.34327C106.098 7.15456 105.82 6.97298 105.553 6.77537C105.007 6.37065 104.407 6.07572 103.749 5.89651C103.362 5.79088 102.972 5.68881 102.58 5.60098C102.181 5.51137 101.78 5.41702 101.375 5.37133C101.077 5.3375 100.77 5.38616 100.467 5.38676C97.9149 5.38854 95.3631 5.38794 92.8106 5.38794C92.7049 5.38794 92.5997 5.38794 92.4922 5.38794V24.2736C92.5493 24.279 92.5883 24.2855 92.6268 24.2855C95.309 24.2819 97.9907 24.276 100.673 24.2778C100.826 24.2778 100.978 24.3354 101.061 24.352C101.364 24.2926 101.619 24.2149 101.879 24.1977C102.69 24.1437 103.457 23.9081 104.218 23.6565C104.552 23.5461 104.886 23.409 105.185 23.2274C105.641 22.9497 106.08 22.6394 106.5 22.31C106.797 22.0774 107.079 21.8139 107.315 21.5231C107.609 21.1617 107.857 20.7624 108.11 20.3707C108.301 20.0764 108.51 19.7832 108.636 19.461C108.827 18.9732 108.964 18.4628 109.105 17.9572C109.227 17.5205 109.364 17.0819 109.421 16.6345C109.474 16.212 109.428 15.7776 109.434 15.348H109.433ZM104.532 15.993C104.509 16.0179 104.517 16.0838 104.529 16.1253C104.625 16.4357 104.521 16.7051 104.378 16.9757C104.339 17.0493 104.401 17.1733 104.364 17.2505C104.1 17.8119 103.951 18.432 103.531 18.9138C102.995 19.5292 102.329 19.9672 101.531 20.1583C101.049 20.2734 100.546 20.3333 100.049 20.3487C99.1107 20.3778 98.1709 20.357 97.2137 20.357V9.33658C97.257 9.32827 97.2949 9.31522 97.3321 9.31522C98.3524 9.31819 99.3756 9.27487 100.392 9.33777C102.142 9.44636 103.405 10.2967 104.104 11.9085C104.414 12.6212 104.598 13.3624 104.628 14.1398C104.639 14.4216 104.68 14.7035 104.681 14.9854C104.681 15.1058 104.613 15.2269 104.557 15.4103C104.61 15.5539 104.741 15.7663 104.532 15.9918V15.993Z" fill="#FFFFFF" />
<path d="M47.1417 18.2054C46.9482 19.022 46.5318 19.6914 45.8324 20.1886C45.3019 20.5655 44.7124 20.7334 44.0707 20.8289C43.0138 20.9874 42.0284 20.7987 41.2004 20.1756C39.6688 19.0238 39.0217 17.4215 39.0211 15.5457C38.985 15.4852 38.9496 15.4241 38.9135 15.3635C38.9466 14.96 39.0283 14.5535 39.0001 14.1547C38.9676 13.6907 39.0265 13.2586 39.1407 12.81C39.3257 12.0795 39.5324 11.3686 39.9957 10.755C40.0095 10.7336 40.0233 10.7123 40.0371 10.6915C40.5046 9.92005 41.1932 9.42691 42.0482 9.14978C42.6082 8.9676 43.1862 8.89342 43.7763 8.91775C43.8171 8.93259 43.8574 8.94683 43.8983 8.96167C44.0377 8.96582 44.1771 8.96998 44.3165 8.97354C44.3369 8.98956 44.3573 9.00618 44.3777 9.0222C45.273 9.15809 45.9526 9.62986 46.4814 10.336C46.4651 10.3455 46.4483 10.355 46.4321 10.3639C46.4489 10.3675 46.4651 10.3705 46.482 10.374C46.5252 10.4203 46.5685 10.466 46.6117 10.5123C46.628 10.5325 46.6442 10.5526 46.6604 10.5728C46.8287 10.9989 46.9975 11.4244 47.1723 11.8671H51.8452C51.7419 11.3597 51.7076 10.8701 51.5538 10.3788C51.388 9.84943 51.1735 9.35392 50.9085 8.87918C50.6621 8.43827 50.3503 8.03237 50.0679 7.61104C50.0312 7.57899 49.9952 7.54695 49.9585 7.5149C49.7026 7.28465 49.4634 7.03126 49.1858 6.82891C48.773 6.52804 48.4011 6.18682 47.9 5.98328C47.1051 5.65986 46.3161 5.33882 45.4683 5.18928C45.1048 5.12519 44.7341 5.07237 44.3657 5.07059C43.6219 5.06762 42.8768 5.08839 42.1341 5.12934C41.7502 5.15011 41.359 5.1964 40.9907 5.29906C40.4493 5.44979 39.9254 5.66105 39.3942 5.84679C39.3528 5.86163 39.3107 5.87646 39.2692 5.8913C39.2242 5.9275 39.1845 5.97319 39.1341 5.99752C38.5825 6.26575 38.0723 6.59688 37.5928 6.97489C37.5526 7.00931 37.5129 7.04372 37.4727 7.07755C37.3747 7.15707 37.2768 7.23718 37.1783 7.3167C37.0581 7.43538 36.9379 7.55348 36.8177 7.67216C36.6964 7.81221 36.575 7.95226 36.453 8.0923C36.3977 8.12969 36.3425 8.16648 36.2872 8.20387C36.2457 8.2911 36.2175 8.38783 36.1598 8.46319C35.8173 8.90767 35.4502 9.33375 35.2639 9.87673C35.1726 10.142 34.9743 10.3574 34.9016 10.6399C34.8247 10.9395 34.6925 11.2262 34.5843 11.5181C34.5645 11.5585 34.5441 11.5988 34.5243 11.6392C34.4852 11.8558 34.4467 12.0718 34.4077 12.2878C34.3915 12.3074 34.3746 12.3276 34.3584 12.3471C34.3566 12.4071 34.3554 12.4676 34.3536 12.5275C34.335 12.5667 34.3164 12.6053 34.2977 12.6445C34.234 13.5298 34.1716 14.4152 34.1073 15.3006C34.094 15.481 34.0748 15.6614 34.0586 15.8418C34.0952 15.8816 34.1313 15.9207 34.168 15.9605C34.1878 16.2115 34.195 16.4643 34.231 16.713C34.2887 17.1088 34.3374 17.5087 34.4419 17.8933C34.5435 18.2654 34.7105 18.6196 34.8493 18.9816C34.8625 19.0006 34.8758 19.0202 34.8884 19.0392C34.916 19.1181 34.9437 19.1964 34.9713 19.2754C35.0031 19.3169 35.035 19.3584 35.0668 19.3994C35.1071 19.4641 35.1618 19.524 35.1858 19.5946C35.4526 20.3732 35.9693 21.0004 36.4578 21.6449C36.4969 21.6787 36.5359 21.7126 36.575 21.7464C36.6928 21.8603 36.8033 21.9826 36.9301 22.0864C37.4937 22.5487 38.0621 23.005 38.6293 23.4637L38.6552 23.4655C38.9586 23.6151 39.253 23.7872 39.5679 23.9094C40.1531 24.1367 40.7365 24.3942 41.3452 24.5295C41.9515 24.6642 42.5872 24.6898 43.2121 24.7165C43.6753 24.736 44.1446 24.701 44.6067 24.6536C45.1372 24.599 45.684 24.5657 46.1863 24.4079C46.685 24.2512 47.2084 24.1859 47.6879 23.9331C48.597 23.4537 49.425 22.8834 50.1009 22.1173C50.4464 21.7256 50.8081 21.3262 51.0497 20.8723C51.3483 20.3103 51.5628 19.6979 51.7509 19.0884C51.8849 18.6546 51.9149 18.19 51.9918 17.7366H47.23C47.1982 17.9069 47.1772 18.0577 47.1423 18.2042L47.1417 18.2054Z" fill="#FFFFFF" />
<path d="M154.091 23.9524C154.078 23.9316 154.065 23.9103 154.051 23.8895C153.964 23.7524 153.878 23.6153 153.79 23.4783C153.777 23.4575 153.764 23.4361 153.751 23.4154C153.664 23.2783 153.576 23.1412 153.489 23.0041C153.476 22.9834 153.463 22.9626 153.45 22.9418C153.363 22.8047 153.276 22.6677 153.188 22.5306C153.175 22.5098 153.162 22.4896 153.149 22.4689C153.062 22.3312 152.974 22.1941 152.887 22.0564C152.875 22.0362 152.861 22.0155 152.849 21.9953C152.836 21.9603 152.83 21.9211 152.81 21.8903C152.497 21.412 152.183 20.9354 151.869 20.4577C151.856 20.4364 151.842 20.415 151.828 20.3937C151.741 20.2572 151.655 20.1201 151.568 19.9836C151.555 19.9622 151.541 19.9415 151.528 19.9201C151.44 19.7836 151.354 19.6465 151.267 19.51C151.254 19.4893 151.24 19.4679 151.227 19.4471C151.139 19.3101 151.053 19.173 150.966 19.0359C150.953 19.0151 150.939 18.9938 150.926 18.973C150.839 18.8359 150.752 18.6988 150.665 18.5618C150.652 18.541 150.639 18.5202 150.626 18.4994C150.539 18.3624 150.451 18.2253 150.364 18.0882C150.35 18.0674 150.338 18.0473 150.325 18.0265C150.238 17.8888 150.15 17.7517 150.063 17.6141C150.05 17.5939 150.037 17.5731 150.024 17.5529C149.644 16.9761 149.264 16.3993 148.867 15.797C149.114 15.5608 149.361 15.3199 149.614 15.0867C149.743 14.9686 149.885 14.8653 150.022 14.7555C150.058 14.7021 150.096 14.6481 150.132 14.5947C150.376 14.352 150.619 14.1099 150.862 13.8672C150.899 13.8138 150.936 13.7598 150.973 13.7064C151.216 13.4637 151.46 13.2215 151.703 12.9788C151.74 12.9254 151.777 12.8714 151.814 12.818C152.058 12.5753 152.301 12.3332 152.544 12.0905C152.581 12.0371 152.618 11.9831 152.655 11.9297C152.888 11.6917 153.128 11.4579 153.352 11.2122C153.424 11.1333 153.46 11.0217 153.512 10.9256C153.567 10.8757 153.621 10.8259 153.715 10.7392C153.539 10.7476 153.432 10.7523 153.326 10.7576H148.822C148.669 10.7102 148.625 10.7855 148.634 10.9202C148.577 10.9458 148.52 10.9719 148.463 10.9974C148.402 11.0514 148.341 11.106 148.281 11.16C148.207 11.246 148.133 11.3321 148.058 11.4175C147.473 12.0845 146.887 12.7515 146.302 13.418C146.241 13.4749 146.18 13.5313 146.119 13.5883C145.848 13.8909 145.581 14.1977 145.305 14.495C145.152 14.6594 144.981 14.8084 144.818 14.9644C144.782 15.0629 144.746 15.1608 144.71 15.2594C144.684 15.2534 144.66 15.2481 144.634 15.2421V5.39844H140.359V24.2889H144.627V23.9595C144.627 22.7656 144.625 21.5716 144.63 20.3776C144.63 20.2756 144.638 20.145 144.699 20.0774C145.098 19.6347 145.512 19.205 145.94 18.7516C146.305 19.3611 146.644 19.9248 146.98 20.4916C147.689 21.6879 148.397 22.8843 149.101 24.0836C149.194 24.2426 149.3 24.3097 149.5 24.3079C150.992 24.2966 152.482 24.3019 153.974 24.3019H154.242C154.18 24.1613 154.135 24.0574 154.09 23.953L154.091 23.9524Z" fill="#FFFFFF" />
<path d="M90.264 14.2114C90.1228 13.6969 90.017 13.1581 89.7779 12.6881C89.5315 12.2051 89.2023 11.7375 88.7396 11.4123C88.3376 11.1292 87.9345 10.7969 87.4778 10.6515C86.7021 10.4046 85.8777 10.3233 85.0557 10.3975C84.6441 10.4349 84.2205 10.4254 83.83 10.5975C83.7543 10.6301 83.6786 10.6622 83.6023 10.6948C83.4016 10.7963 83.2003 10.8972 82.9996 10.9986C82.9443 11.0337 82.889 11.0687 82.8332 11.1031C82.3194 11.5737 81.8057 12.0443 81.3034 12.5047V10.8064C81.2883 10.7909 81.2733 10.7761 81.2577 10.7613C79.8962 10.7613 78.5352 10.7607 77.1737 10.7601C77.158 10.7755 77.1424 10.7915 77.1268 10.807C77.1232 10.8657 77.1172 10.9251 77.1172 10.9838C77.1172 15.3455 77.1172 19.7071 77.1172 24.0688C77.1172 24.1341 77.1244 24.1993 77.1286 24.2676H81.4908V23.9353C81.4908 21.6067 81.4896 19.2775 81.4926 16.9489C81.4926 16.6747 81.5011 16.3994 81.5317 16.127C81.5744 15.7526 81.778 15.4392 81.9331 15.1022C82.1806 14.5639 82.5766 14.2565 83.1102 14.1111C83.4352 14.0227 83.7885 14.0067 84.1286 14.0103C84.7181 14.0168 85.2059 14.2654 85.5472 14.7431C85.9216 15.2671 86.0255 15.8695 86.0243 16.5003C86.0207 18.9772 86.0231 21.4542 86.0231 23.9311C86.0231 24.0373 86.0231 24.143 86.0231 24.2599H90.3908V23.9133C90.3908 21.2488 90.3908 18.5844 90.3908 15.9199C90.3908 15.3467 90.4172 14.7698 90.2634 14.2102L90.264 14.2114Z" fill="#FFFFFF" />
<path d="M124.473 18.7323H124.831C124.8 18.2926 124.8 17.8884 124.737 17.4944C124.617 16.7455 124.507 15.9901 124.307 15.2602C124.156 14.7065 123.873 14.1873 123.649 13.6526C123.634 13.63 123.619 13.6081 123.604 13.5855C123.603 13.5659 123.598 13.5481 123.588 13.5309C123.573 13.5167 123.558 13.503 123.543 13.4888C123.118 12.998 122.713 12.4883 122.261 12.0236C122.027 11.7839 121.723 11.5964 121.424 11.4367C121.06 11.2439 120.654 11.1282 120.289 10.9377C119.732 10.6469 119.12 10.5626 118.521 10.5264C117.552 10.4683 116.571 10.4517 115.624 10.7484C115.179 10.8878 114.736 11.0314 114.293 11.1733C114.278 11.1887 114.263 11.2041 114.249 11.2195C114.224 11.2492 114.206 11.2914 114.174 11.3074C113.572 11.6171 113.093 12.0693 112.611 12.5352C112.015 13.1114 111.618 13.7956 111.288 14.5332C111.274 14.554 111.26 14.5742 111.246 14.5949C111.212 14.6869 111.178 14.7783 111.144 14.8703L111.138 14.8786C111.064 15.2293 111.047 15.6044 110.904 15.9248C110.667 16.4559 110.702 16.9995 110.687 17.5478C110.678 17.8861 110.656 18.2243 110.641 18.5626C110.697 18.6231 110.752 18.6836 110.808 18.7442C110.827 18.9441 110.837 19.1465 110.87 19.3441C110.999 20.0989 111.331 20.782 111.66 21.4644L111.709 21.5267C111.752 21.5849 111.795 21.643 111.839 21.7012C111.856 21.722 111.872 21.7427 111.889 21.7629C112.036 21.9985 112.182 22.2341 112.329 22.4697C112.385 22.5023 112.441 22.5349 112.497 22.567C112.639 22.7112 112.781 22.856 112.922 23.0002C112.959 23.0352 112.995 23.0702 113.032 23.1058C113.29 23.3094 113.549 23.5129 113.807 23.7165C113.849 23.7313 113.891 23.7461 113.933 23.761C113.949 23.771 113.966 23.7764 113.985 23.7764C114.007 23.7889 114.029 23.8019 114.051 23.8144C114.214 23.8951 114.377 23.9752 114.54 24.0559C114.699 24.1348 114.858 24.2149 115.017 24.2944C115.054 24.2933 115.091 24.2927 115.128 24.2915C115.373 24.3947 115.61 24.5383 115.866 24.5923C116.304 24.6843 116.754 24.7686 117.2 24.7692C117.949 24.7692 118.704 24.7425 119.447 24.6523C120.245 24.5556 120.993 24.2648 121.702 23.8885C122.271 23.5865 122.754 23.1812 123.209 22.7278C123.855 22.0834 124.277 21.3315 124.505 20.4633C124.524 20.4366 124.543 20.4099 124.563 20.3832C124.542 20.3725 124.522 20.3618 124.502 20.3506C123.172 20.3476 121.842 20.3411 120.512 20.3482C120.423 20.3482 120.316 20.439 120.249 20.5143C120.074 20.712 119.951 20.9707 119.745 21.1226C118.801 21.8175 117.753 21.8762 116.706 21.4276C115.854 21.0627 115.393 20.3286 115.129 19.4675C115.064 19.2527 114.964 19.0474 114.863 18.7952C114.972 18.7768 115.116 18.7323 115.261 18.7323C118.332 18.7281 121.402 18.7293 124.472 18.7293L124.473 18.7323ZM117.335 13.5315C119.274 13.3588 120.217 14.6305 120.358 16.1355H115.035C115.107 15.0133 115.851 13.6639 117.335 13.5315Z" fill="#FFFFFF" />
<path d="M67.9152 15.9004C67.9008 15.8601 67.8858 15.8197 67.8713 15.7799C67.8335 15.7135 67.7752 15.6518 67.7608 15.5805C67.6502 15.0316 67.4712 14.5059 67.1839 14.0234C66.976 13.6739 66.7615 13.3244 66.5122 13.0033C65.9071 12.2241 65.1717 11.5916 64.262 11.1702C64.0439 11.0693 63.8396 10.9299 63.613 10.8569C63.2615 10.743 62.9004 10.645 62.5363 10.5869C62.0033 10.5008 61.4656 10.4261 60.9272 10.4C59.8234 10.3466 58.7521 10.5222 57.7216 10.9287C56.6293 11.3595 55.6739 11.9749 54.9613 12.9131C54.6056 13.3813 54.2487 13.8525 54.0504 14.4151C54.0359 14.4364 54.0209 14.4572 54.0065 14.4786C53.9236 14.6584 53.8407 14.8388 53.7577 15.0186C53.7181 15.1046 53.7127 15.2085 53.6917 15.3094C53.6346 15.5859 53.5715 15.8612 53.5108 16.1372C53.4705 16.1769 53.4309 16.2167 53.3906 16.2565C53.4117 16.3775 53.4525 16.4998 53.4489 16.6202C53.4399 16.9484 53.4002 17.276 53.3942 17.6047C53.3864 18.0237 53.4002 18.4432 53.4044 18.8628C53.4195 18.8764 53.4345 18.8907 53.4501 18.9043C53.4711 18.9334 53.506 18.9601 53.5102 18.9915C53.6075 19.6538 53.8256 20.2769 54.1225 20.8763C54.1393 20.8958 54.1555 20.9148 54.1723 20.9344C54.4421 21.3504 54.6861 21.786 54.9871 22.1782C55.4606 22.7948 56.056 23.2856 56.7284 23.6897C57.3353 24.054 57.9475 24.3917 58.6776 24.4392C58.6974 24.4552 58.7178 24.4718 58.7377 24.4878C59.115 24.5668 59.4905 24.7003 59.8703 24.7127C60.5523 24.7353 61.2511 24.7626 61.9168 24.6451C62.6805 24.5104 63.4562 24.3045 64.155 23.9793C65.7575 23.2327 66.8919 22.0156 67.5192 20.3612C67.7506 19.7517 67.947 19.1274 67.9753 18.4794C68.0041 17.8261 67.9458 17.1691 67.9272 16.514C67.9212 16.3099 67.9194 16.1051 67.9158 15.901L67.9152 15.9004ZM63.5806 18.1269C63.5271 18.7435 63.3342 19.3518 63.1654 19.9541C63.1029 20.1772 62.9389 20.3724 62.8211 20.5801C62.7821 20.6187 62.7424 20.6579 62.7033 20.6965C62.5021 20.8585 62.3014 21.0199 62.1001 21.1819C62.1001 21.2003 62.0995 21.2187 62.0971 21.2365C61.8868 21.335 61.6849 21.4614 61.4644 21.5267C60.4693 21.8204 59.5819 21.6246 58.8476 20.8881C58.6584 20.6982 58.5316 20.4472 58.376 20.2247C58.3898 20.211 58.4042 20.198 58.418 20.1843C58.4036 20.1784 58.3892 20.1731 58.3742 20.1671C58.0593 19.7108 57.9487 19.1844 57.9025 18.6539C57.8484 18.0326 57.7967 17.4018 57.8484 16.7834C57.9205 15.9212 58.1194 15.0773 58.704 14.3801C59.1805 13.8121 59.7615 13.4953 60.5372 13.4602C61.6164 13.411 62.4071 13.8418 62.9923 14.6958C63.0909 14.8394 63.1269 15.0245 63.1918 15.1901C63.2081 15.2103 63.2237 15.2304 63.2393 15.2506C63.3397 15.666 63.4274 16.085 63.5433 16.4962C63.6966 17.0386 63.6257 17.5923 63.5794 18.1269H63.5806Z" fill="#FFFFFF" />
<path d="M137.609 17.4458C136.981 16.8144 136.196 16.4595 135.346 16.2607C134.36 16.0305 133.357 15.8738 132.368 15.6584C131.797 15.5344 131.236 15.3664 130.675 15.2015C130.284 15.0869 130.113 14.7368 130.107 14.4051C130.101 14.0615 130.292 13.7339 130.63 13.5286C131.251 13.15 131.938 13.2325 132.611 13.2461C132.823 13.2503 133.043 13.334 133.241 13.4224C133.82 13.6817 134.1 14.163 134.187 14.7594H138.26C138.173 14.4093 138.123 14.0799 138.008 13.7743C137.854 13.363 137.695 12.9411 137.457 12.5756C136.949 11.7952 136.188 11.3098 135.319 10.9864C134.918 10.8374 134.517 10.6677 134.1 10.5858C133.701 10.5075 133.276 10.5627 132.87 10.5039C131.838 10.3538 130.819 10.4808 129.812 10.66C129.349 10.7425 128.91 10.9799 128.474 11.1763C127.794 11.4819 127.212 11.9192 126.785 12.5323C126.174 13.4105 126.036 14.376 126.169 15.424C126.333 16.7111 127.01 17.6048 128.156 18.1733C129.394 18.7881 130.767 18.9015 132.1 19.1638C132.695 19.2807 133.302 19.4136 133.857 19.6462C134.803 20.0414 134.7 21.214 133.962 21.6277C133.21 22.049 132.397 22.1048 131.577 21.8971C130.664 21.6662 130.024 21.1494 129.901 20.1577C129.885 20.0302 129.793 19.9655 129.633 19.9667C128.382 19.9767 127.13 19.9744 125.879 19.9756C125.841 20.0011 125.803 20.0266 125.766 20.0521C125.785 20.2539 125.793 20.4574 125.828 20.6568C126.007 21.7119 126.522 22.5991 127.342 23.2762C128.584 24.301 130.085 24.6927 131.665 24.7698C132.403 24.806 133.148 24.7235 133.887 24.6648C134.888 24.5853 135.822 24.2684 136.674 23.7551C137.348 23.3498 137.886 22.8163 138.227 22.0816C138.475 21.5499 138.62 21.0164 138.611 20.4402C138.607 20.1097 138.584 19.7785 138.553 19.4498C138.478 18.6736 138.166 18.0042 137.61 17.4452L137.609 17.4458Z" fill="#FFFFFF" />
<path d="M74.886 10.7706C74.8667 10.7677 74.8475 10.7647 74.8283 10.7617H68.8209C68.8023 10.7777 68.7843 10.7938 68.7656 10.8098V13.8072H70.5814V24.3054C71.9303 24.3054 73.2498 24.2971 74.5693 24.3119C74.8583 24.3155 74.9352 24.2354 74.9346 23.9517C74.9256 19.6506 74.9286 15.3495 74.9268 11.0483C74.9268 10.9558 74.9004 10.8632 74.886 10.7706Z" fill="#FFFFFF" />
<path d="M72.5382 9.67165C73.8481 9.61587 74.8371 8.72989 74.8876 7.43563C74.9513 5.80787 73.8751 4.93435 72.3003 4.91417C71.3623 4.90231 70.0729 5.83576 70.1456 7.27363C70.0501 8.66402 71.3467 9.72268 72.5382 9.67165Z" fill="#FFFFFF" />
<path d="M24.2062 24.6109C24.2134 24.9355 24.1617 25.3497 24.2476 25.7336C24.3438 26.1627 24.6911 26.4439 25.1105 26.6048C25.5136 26.7597 26.2377 26.4742 26.5808 26.0363C26.8367 25.7099 26.877 24.9123 26.6174 24.5966C25.8814 23.7011 25.0894 23.859 24.2062 24.6115V24.6109Z" fill="#FFFFFF" />
<path d="M25.4209 13.5392C24.9234 13.5291 24.096 14.1919 24.081 14.5901C24.0509 15.3883 24.778 16.2416 25.496 16.187C26.1065 16.1402 26.8455 15.6624 26.78 14.8477C26.8642 13.9676 26.1059 13.5534 25.4203 13.5392H25.4209Z" fill="#FFFFFF" />
<path d="M15.368 13.6418C15.3476 13.6258 15.3278 13.6092 15.3074 13.5931C14.9426 13.6133 14.5659 13.513 14.23 13.7658C13.819 14.075 13.5799 14.4429 13.622 14.9758C13.6574 15.4298 13.8923 15.8215 14.248 15.9935C15.1487 16.4285 16.1197 16.0244 16.2591 14.9711C16.3336 14.4091 15.9779 13.8347 15.3687 13.6424L15.368 13.6418Z" fill="#FFFFFF" />
<path d="M62.0469 21.1919C62.0621 21.2073 62.0768 21.2228 62.092 21.2382C62.0939 21.2198 62.0951 21.2014 62.0951 21.1836C62.0792 21.1866 62.0634 21.1895 62.0475 21.1919H62.0469Z" fill="#FFFFFF" />
</svg>
