<svg width="130" height="27" viewBox="0 0 130 27" fill="none" xmlns="http://www.w3.org/2000/svg">
<g clip-path="url(#clip0_2472_86305)">
<path d="M3.83209 3.42126H6.64582C9.21606 3.42126 10.3253 4.23292 10.3253 5.88328C10.3253 7.31721 9.18901 8.29119 6.94343 8.29119H3.85915V3.42126H3.83209ZM0.450195 19.5732H7.3222C10.9205 19.5732 14.5459 18.2745 14.5459 14.1351C14.5459 11.6731 12.8144 9.80628 10.4335 9.53573V9.48162C12.4086 8.8864 13.7343 7.45248 13.7343 5.31512C13.7343 1.85206 10.7853 0.526367 7.89036 0.526367H0.450195V19.5732ZM3.83209 11.1861H7.07871C9.83833 11.1861 11.1099 11.8895 11.1099 13.8916C11.1099 16.4077 8.67496 16.7053 6.94343 16.7053H3.83209V11.1861Z" fill="#FFFFFF" />
<path d="M16.7373 0.0664062H19.9569V19.5732H16.7373V0.0664062Z" fill="#FFFFFF" />
<path d="M25.368 13.107C25.368 11.0779 26.8019 9.23812 29.1557 9.23812C31.5366 9.23812 32.9434 11.1049 32.9434 13.107C32.9434 15.1361 31.5095 16.9759 29.1557 16.9759C26.8019 17.0029 25.368 15.1361 25.368 13.107ZM22.1484 13.107C22.1484 17.1653 25.2598 19.8978 29.1828 19.8978C33.0787 19.8978 36.2171 17.1653 36.2171 13.107C36.2171 9.04873 33.1058 6.31616 29.1828 6.31616C25.2598 6.34322 22.1484 9.04873 22.1484 13.107Z" fill="#FFFFFF" />
<path d="M40.8975 13.107C40.8975 11.0779 42.3314 9.23812 44.6852 9.23812C47.0661 9.23812 48.4729 11.1049 48.4729 13.107C48.4729 15.1361 47.039 16.9759 44.6852 16.9759C42.3044 17.0029 40.8975 15.1361 40.8975 13.107ZM37.6509 13.107C37.6509 17.1653 40.7622 19.8978 44.6852 19.8978C48.5812 19.8978 51.7196 17.1653 51.7196 13.107C51.7196 9.04873 48.6082 6.31616 44.6852 6.31616C40.7893 6.34322 37.6509 9.04873 37.6509 13.107Z" fill="#FFFFFF" />
<path d="M53.6945 6.66792H56.7518V8.69705H56.8059C57.374 7.47957 58.6186 6.34326 60.7559 6.34326C62.758 6.34326 64.1108 7.12786 64.7872 8.75117C65.7341 7.1008 67.1139 6.34326 69.0348 6.34326C72.4708 6.34326 73.6883 8.80528 73.6883 11.8896V19.6003H70.4687V12.2683C70.4687 10.645 69.9817 9.26521 68.0608 9.26521C66.0317 9.26521 65.2741 10.9426 65.2741 12.593V19.6003H62.0546V11.8896C62.0546 10.2933 61.4053 9.23817 59.8361 9.23817C57.6987 9.23817 56.887 10.8074 56.887 12.5118V19.5732H53.6675V6.66792H53.6945Z" fill="#FFFFFF" />
<path d="M87.0537 13.107C87.0537 15.1361 85.6198 16.9759 83.266 16.9759C80.8851 16.9759 79.4783 15.1091 79.4783 13.107C79.4783 11.0779 80.9122 9.23811 83.266 9.23811C85.6198 9.23811 87.0537 11.1049 87.0537 13.107ZM76.3398 19.5732H79.3971V17.6252H79.4512C80.3981 19.1944 82.1026 19.8978 83.8882 19.8978C87.8653 19.8978 90.2732 16.9488 90.2732 13.107C90.2732 9.29222 87.703 6.31615 84.0235 6.31615C81.5885 6.31615 80.317 7.45246 79.6406 8.29117H79.5594V0.0664062H76.3398V19.5732Z" fill="#FFFFFF" />
<path d="M94.981 11.8354C95.2245 9.96861 96.4149 8.77818 98.3088 8.77818C100.338 8.77818 101.555 9.96861 101.582 11.8354H94.981ZM104.829 14.2433V13.3505C104.829 8.85934 102.367 6.31616 98.7687 6.31616C94.8728 6.31616 91.7344 9.04873 91.7344 13.107C91.7344 17.1653 94.8457 19.8978 98.7687 19.8978C100.825 19.8978 102.719 19.1674 104.234 17.3006L101.907 15.542C101.095 16.543 100.04 17.3006 98.444 17.3006C96.6314 17.3006 95.1974 16.1372 94.981 14.2433H104.829Z" fill="#FFFFFF" />
<path d="M106.939 6.66792H110.159V8.72411H110.213C110.917 7.23608 112.35 6.34326 114.028 6.34326C114.434 6.34326 114.813 6.42442 115.191 6.53264V9.64399C114.65 9.50872 114.136 9.40049 113.622 9.40049C110.592 9.40049 110.159 11.9707 110.159 12.6471V19.5732H106.939V6.66792Z" fill="#FFFFFF" />
<path d="M122.442 9.23817C124.796 9.23817 126.257 10.8074 126.257 13.0259C126.257 15.1903 124.796 16.8136 122.415 16.8136C120.223 16.8136 118.627 15.1091 118.627 13.08C118.627 10.8074 120.169 9.23817 122.442 9.23817ZM126.257 6.66792V8.61589H126.202C125.256 7.04669 123.551 6.34326 121.765 6.34326C117.788 6.34326 115.38 9.31932 115.38 13.1341C115.38 16.7865 117.951 19.7626 121.819 19.7626C123.443 19.7626 125.093 19.1403 126.04 17.8688H126.094V18.8157C126.094 21.3859 125.12 23.1445 122.009 23.1445C120.196 23.1445 118.87 22.4681 117.572 21.2777L115.624 23.9291C117.464 25.5524 119.628 26.0665 122.036 26.0665C127.068 26.0665 129.341 23.1175 129.341 18.4369V6.66792H126.257Z" fill="#FFFFFF" />
</g>
<defs>
<clipPath id="clip0_2472_86305">
<rect width="128.891" height="26" fill="white" transform="translate(0.450195 0.0664062)"/>
</clipPath>
</defs>
</svg>
